solid
 facet normal  5.064917e-02  0.000000e+00  9.987165e-01
   outer loop
     vertex -1.224647e-15  5.000000e+01  5.000000e+00
     vertex -1.224647e-15  0.000000e+00  5.000000e+00
     vertex  5.058416e-01  0.000000e+00  4.974347e+00
   endloop
 endfacet
 facet normal  5.064917e-02  0.000000e+00  9.987165e-01
   outer loop
     vertex  5.058416e-01  5.000000e+01  4.974347e+00
     vertex -1.224647e-15  5.000000e+01  5.000000e+00
     vertex  5.058416e-01  0.000000e+00  4.974347e+00
   endloop
 endfacet
 facet normal  1.514278e-01  0.000000e+00  9.884683e-01
   outer loop
     vertex  5.058416e-01  5.000000e+01  4.974347e+00
     vertex  5.058416e-01  0.000000e+00  4.974347e+00
     vertex  1.006493e+00  0.000000e+00  4.897650e+00
   endloop
 endfacet
 facet normal  1.514278e-01  0.000000e+00  9.884683e-01
   outer loop
     vertex  1.006493e+00  5.000000e+01  4.897650e+00
     vertex  5.058416e-01  5.000000e+01  4.974347e+00
     vertex  1.006493e+00  0.000000e+00  4.897650e+00
   endloop
 endfacet
 facet normal  2.506525e-01  0.000000e+00  9.680771e-01
   outer loop
     vertex  1.496816e+00  5.000000e+01  4.770696e+00
     vertex  1.006493e+00  5.000000e+01  4.897650e+00
     vertex  1.006493e+00  0.000000e+00  4.897650e+00
   endloop
 endfacet
 facet normal  2.506525e-01  0.000000e+00  9.680771e-01
   outer loop
     vertex  1.496816e+00  5.000000e+01  4.770696e+00
     vertex  1.006493e+00  0.000000e+00  4.897650e+00
     vertex  1.496816e+00  0.000000e+00  4.770696e+00
   endloop
 endfacet
 facet normal  3.473053e-01  0.000000e+00  9.377521e-01
   outer loop
     vertex  1.971779e+00  5.000000e+01  4.594789e+00
     vertex  1.496816e+00  5.000000e+01  4.770696e+00
     vertex  1.496816e+00  0.000000e+00  4.770696e+00
   endloop
 endfacet
 facet normal  3.473053e-01  0.000000e+00  9.377521e-01
   outer loop
     vertex  1.971779e+00  5.000000e+01  4.594789e+00
     vertex  1.496816e+00  0.000000e+00  4.770696e+00
     vertex  1.971779e+00  0.000000e+00  4.594789e+00
   endloop
 endfacet
 facet normal  4.403942e-01  0.000000e+00  8.978045e-01
   outer loop
     vertex  2.426510e+00  5.000000e+01  4.371733e+00
     vertex  1.971779e+00  5.000000e+01  4.594789e+00
     vertex  1.971779e+00  0.000000e+00  4.594789e+00
   endloop
 endfacet
 facet normal  4.403942e-01  0.000000e+00  8.978045e-01
   outer loop
     vertex  2.426510e+00  5.000000e+01  4.371733e+00
     vertex  1.971779e+00  0.000000e+00  4.594789e+00
     vertex  2.426510e+00  0.000000e+00  4.371733e+00
   endloop
 endfacet
 facet normal  5.289640e-01  0.000000e+00  8.486443e-01
   outer loop
     vertex  2.856341e+00  5.000000e+01  4.103817e+00
     vertex  2.426510e+00  5.000000e+01  4.371733e+00
     vertex  2.426510e+00  0.000000e+00  4.371733e+00
   endloop
 endfacet
 facet normal  5.289640e-01  0.000000e+00  8.486443e-01
   outer loop
     vertex  2.856341e+00  5.000000e+01  4.103817e+00
     vertex  2.426510e+00  0.000000e+00  4.371733e+00
     vertex  2.856341e+00  0.000000e+00  4.103817e+00
   endloop
 endfacet
 facet normal  6.121060e-01  0.000000e+00  7.907757e-01
   outer loop
     vertex  2.856341e+00  5.000000e+01  4.103817e+00
     vertex  2.856341e+00  0.000000e+00  4.103817e+00
     vertex  3.256862e+00  0.000000e+00  3.793791e+00
   endloop
 endfacet
 facet normal  6.121060e-01  0.000000e+00  7.907757e-01
   outer loop
     vertex  3.256862e+00  5.000000e+01  3.793791e+00
     vertex  2.856341e+00  5.000000e+01  4.103817e+00
     vertex  3.256862e+00  0.000000e+00  3.793791e+00
   endloop
 endfacet
 facet normal  6.889669e-01  0.000000e+00  7.247928e-01
   outer loop
     vertex  3.623964e+00  5.000000e+01  3.444835e+00
     vertex  3.256862e+00  5.000000e+01  3.793791e+00
     vertex  3.256862e+00  0.000000e+00  3.793791e+00
   endloop
 endfacet
 facet normal  6.889669e-01  0.000000e+00  7.247928e-01
   outer loop
     vertex  3.623964e+00  5.000000e+01  3.444835e+00
     vertex  3.256862e+00  0.000000e+00  3.793791e+00
     vertex  3.623964e+00  0.000000e+00  3.444835e+00
   endloop
 endfacet
 facet normal  7.587581e-01  0.000000e+00  6.513725e-01
   outer loop
     vertex  3.623964e+00  5.000000e+01  3.444835e+00
     vertex  3.623964e+00  0.000000e+00  3.444835e+00
     vertex  3.953879e+00  0.000000e+00  3.060530e+00
   endloop
 endfacet
 facet normal  7.587581e-01  0.000000e+00  6.513725e-01
   outer loop
     vertex  3.953879e+00  5.000000e+01  3.060530e+00
     vertex  3.623964e+00  5.000000e+01  3.444835e+00
     vertex  3.953879e+00  0.000000e+00  3.060530e+00
   endloop
 endfacet
 facet normal  8.207634e-01  0.000000e+00  5.712682e-01
   outer loop
     vertex  3.953879e+00  5.000000e+01  3.060530e+00
     vertex  3.953879e+00  0.000000e+00  3.060530e+00
     vertex  4.243221e+00  0.000000e+00  2.644820e+00
   endloop
 endfacet
 facet normal  8.207634e-01  0.000000e+00  5.712682e-01
   outer loop
     vertex  4.243221e+00  5.000000e+01  2.644820e+00
     vertex  3.953879e+00  5.000000e+01  3.060530e+00
     vertex  4.243221e+00  0.000000e+00  2.644820e+00
   endloop
 endfacet
 facet normal  8.743466e-01  0.000000e+00  4.853020e-01
   outer loop
     vertex  4.243221e+00  5.000000e+01  2.644820e+00
     vertex  4.243221e+00  0.000000e+00  2.644820e+00
     vertex  4.489023e+00  0.000000e+00  2.201971e+00
   endloop
 endfacet
 facet normal  8.743466e-01  0.000000e+00  4.853020e-01
   outer loop
     vertex  4.489023e+00  5.000000e+01  2.201971e+00
     vertex  4.243221e+00  5.000000e+01  2.644820e+00
     vertex  4.489023e+00  0.000000e+00  2.201971e+00
   endloop
 endfacet
 facet normal  9.189578e-01  0.000000e+00  3.943559e-01
   outer loop
     vertex  4.688761e+00  5.000000e+01  1.736526e+00
     vertex  4.489023e+00  0.000000e+00  2.201971e+00
     vertex  4.688761e+00  0.000000e+00  1.736526e+00
   endloop
 endfacet
 facet normal  9.541393e-01  0.000000e+00  2.993631e-01
   outer loop
     vertex  4.688761e+00  5.000000e+01  1.736526e+00
     vertex  4.688761e+00  0.000000e+00  1.736526e+00
     vertex  4.840386e+00  0.000000e+00  1.253263e+00
   endloop
 endfacet
 facet normal  9.189578e-01  0.000000e+00  3.943559e-01
   outer loop
     vertex  4.688761e+00  5.000000e+01  1.736526e+00
     vertex  4.489023e+00  5.000000e+01  2.201971e+00
     vertex  4.489023e+00  0.000000e+00  2.201971e+00
   endloop
 endfacet
 facet normal  9.795299e-01  0.000000e+00  2.012985e-01
   outer loop
     vertex  4.840386e+00  5.000000e+01  1.253263e+00
     vertex  4.840386e+00  0.000000e+00  1.253263e+00
     vertex  4.942342e+00  0.000000e+00  7.571389e-01
   endloop
 endfacet
 facet normal  9.541393e-01  0.000000e+00  2.993631e-01
   outer loop
     vertex  4.840386e+00  5.000000e+01  1.253263e+00
     vertex  4.688761e+00  5.000000e+01  1.736526e+00
     vertex  4.840386e+00  0.000000e+00  1.253263e+00
   endloop
 endfacet
 facet normal  9.948693e-01  0.000000e+00  1.011683e-01
   outer loop
     vertex  4.942342e+00  5.000000e+01  7.571389e-01
     vertex  4.942342e+00  0.000000e+00  7.571389e-01
     vertex  4.993583e+00  0.000000e+00  2.532458e-01
   endloop
 endfacet
 facet normal  9.795299e-01  0.000000e+00  2.012985e-01
   outer loop
     vertex  4.942342e+00  5.000000e+01  7.571389e-01
     vertex  4.840386e+00  5.000000e+01  1.253263e+00
     vertex  4.942342e+00  0.000000e+00  7.571389e-01
   endloop
 endfacet
 facet normal  1.000000e+00  0.000000e+00  0.000000e+00
   outer loop
     vertex  4.993583e+00  5.000000e+01  2.532458e-01
     vertex  4.993583e+00  0.000000e+00  2.532458e-01
     vertex  4.993583e+00  0.000000e+00 -2.532458e-01
   endloop
 endfacet
 facet normal  9.948693e-01  0.000000e+00  1.011683e-01
   outer loop
     vertex  4.993583e+00  5.000000e+01  2.532458e-01
     vertex  4.942342e+00  5.000000e+01  7.571389e-01
     vertex  4.993583e+00  0.000000e+00  2.532458e-01
   endloop
 endfacet
 facet normal  1.000000e+00  0.000000e+00 -0.000000e+00
   outer loop
     vertex  4.993583e+00  5.000000e+01 -2.532458e-01
     vertex  4.993583e+00  5.000000e+01  2.532458e-01
     vertex  4.993583e+00  0.000000e+00 -2.532458e-01
   endloop
 endfacet
 facet normal  9.948693e-01  0.000000e+00 -1.011683e-01
   outer loop
     vertex  4.942342e+00  5.000000e+01 -7.571389e-01
     vertex  4.993583e+00  0.000000e+00 -2.532458e-01
     vertex  4.942342e+00  0.000000e+00 -7.571389e-01
   endloop
 endfacet
 facet normal  9.795299e-01  0.000000e+00 -2.012985e-01
   outer loop
     vertex  4.942342e+00  5.000000e+01 -7.571389e-01
     vertex  4.942342e+00  0.000000e+00 -7.571389e-01
     vertex  4.840386e+00  0.000000e+00 -1.253263e+00
   endloop
 endfacet
 facet normal  9.948693e-01  0.000000e+00 -1.011683e-01
   outer loop
     vertex  4.942342e+00  5.000000e+01 -7.571389e-01
     vertex  4.993583e+00  5.000000e+01 -2.532458e-01
     vertex  4.993583e+00  0.000000e+00 -2.532458e-01
   endloop
 endfacet
 facet normal  9.795299e-01  0.000000e+00 -2.012985e-01
   outer loop
     vertex  4.840386e+00  5.000000e+01 -1.253263e+00
     vertex  4.942342e+00  5.000000e+01 -7.571389e-01
     vertex  4.840386e+00  0.000000e+00 -1.253263e+00
   endloop
 endfacet
 facet normal  9.541393e-01  0.000000e+00 -2.993631e-01
   outer loop
     vertex  4.688761e+00  5.000000e+01 -1.736526e+00
     vertex  4.840386e+00  5.000000e+01 -1.253263e+00
     vertex  4.840386e+00  0.000000e+00 -1.253263e+00
   endloop
 endfacet
 facet normal  9.541393e-01  0.000000e+00 -2.993631e-01
   outer loop
     vertex  4.688761e+00  5.000000e+01 -1.736526e+00
     vertex  4.840386e+00  0.000000e+00 -1.253263e+00
     vertex  4.688761e+00  0.000000e+00 -1.736526e+00
   endloop
 endfacet
 facet normal  9.189578e-01  0.000000e+00 -3.943559e-01
   outer loop
     vertex  4.489023e+00  5.000000e+01 -2.201971e+00
     vertex  4.688761e+00  5.000000e+01 -1.736526e+00
     vertex  4.688761e+00  0.000000e+00 -1.736526e+00
   endloop
 endfacet
 facet normal  9.189578e-01  0.000000e+00 -3.943559e-01
   outer loop
     vertex  4.489023e+00  5.000000e+01 -2.201971e+00
     vertex  4.688761e+00  0.000000e+00 -1.736526e+00
     vertex  4.489023e+00  0.000000e+00 -2.201971e+00
   endloop
 endfacet
 facet normal  8.743466e-01  0.000000e+00 -4.853020e-01
   outer loop
     vertex  4.489023e+00  5.000000e+01 -2.201971e+00
     vertex  4.489023e+00  0.000000e+00 -2.201971e+00
     vertex  4.243221e+00  0.000000e+00 -2.644820e+00
   endloop
 endfacet
 facet normal  8.743466e-01  0.000000e+00 -4.853020e-01
   outer loop
     vertex  4.243221e+00  5.000000e+01 -2.644820e+00
     vertex  4.489023e+00  5.000000e+01 -2.201971e+00
     vertex  4.243221e+00  0.000000e+00 -2.644820e+00
   endloop
 endfacet
 facet normal  8.207634e-01  0.000000e+00 -5.712682e-01
   outer loop
     vertex  3.953879e+00  5.000000e+01 -3.060530e+00
     vertex  4.243221e+00  5.000000e+01 -2.644820e+00
     vertex  4.243221e+00  0.000000e+00 -2.644820e+00
   endloop
 endfacet
 facet normal  8.207634e-01  0.000000e+00 -5.712682e-01
   outer loop
     vertex  3.953879e+00  5.000000e+01 -3.060530e+00
     vertex  4.243221e+00  0.000000e+00 -2.644820e+00
     vertex  3.953879e+00  0.000000e+00 -3.060530e+00
   endloop
 endfacet
 facet normal  7.587581e-01  0.000000e+00 -6.513725e-01
   outer loop
     vertex  3.953879e+00  5.000000e+01 -3.060530e+00
     vertex  3.953879e+00  0.000000e+00 -3.060530e+00
     vertex  3.623964e+00  0.000000e+00 -3.444835e+00
   endloop
 endfacet
 facet normal  7.587581e-01  0.000000e+00 -6.513725e-01
   outer loop
     vertex  3.623964e+00  5.000000e+01 -3.444835e+00
     vertex  3.953879e+00  5.000000e+01 -3.060530e+00
     vertex  3.623964e+00  0.000000e+00 -3.444835e+00
   endloop
 endfacet
 facet normal  6.889669e-01  0.000000e+00 -7.247928e-01
   outer loop
     vertex  3.256862e+00  5.000000e+01 -3.793791e+00
     vertex  3.623964e+00  5.000000e+01 -3.444835e+00
     vertex  3.623964e+00  0.000000e+00 -3.444835e+00
   endloop
 endfacet
 facet normal  6.889669e-01  0.000000e+00 -7.247928e-01
   outer loop
     vertex  3.256862e+00  5.000000e+01 -3.793791e+00
     vertex  3.623964e+00  0.000000e+00 -3.444835e+00
     vertex  3.256862e+00  0.000000e+00 -3.793791e+00
   endloop
 endfacet
 facet normal  6.121060e-01  0.000000e+00 -7.907757e-01
   outer loop
     vertex  2.856341e+00  5.000000e+01 -4.103817e+00
     vertex  3.256862e+00  5.000000e+01 -3.793791e+00
     vertex  3.256862e+00  0.000000e+00 -3.793791e+00
   endloop
 endfacet
 facet normal  6.121060e-01  0.000000e+00 -7.907757e-01
   outer loop
     vertex  2.856341e+00  5.000000e+01 -4.103817e+00
     vertex  3.256862e+00  0.000000e+00 -3.793791e+00
     vertex  2.856341e+00  0.000000e+00 -4.103817e+00
   endloop
 endfacet
 facet normal  5.289640e-01  0.000000e+00 -8.486443e-01
   outer loop
     vertex  2.856341e+00  5.000000e+01 -4.103817e+00
     vertex  2.856341e+00  0.000000e+00 -4.103817e+00
     vertex  2.426510e+00  0.000000e+00 -4.371733e+00
   endloop
 endfacet
 facet normal  5.289640e-01  0.000000e+00 -8.486443e-01
   outer loop
     vertex  2.426510e+00  5.000000e+01 -4.371733e+00
     vertex  2.856341e+00  5.000000e+01 -4.103817e+00
     vertex  2.426510e+00  0.000000e+00 -4.371733e+00
   endloop
 endfacet
 facet normal  4.403942e-01  0.000000e+00 -8.978045e-01
   outer loop
     vertex  1.971779e+00  5.000000e+01 -4.594789e+00
     vertex  2.426510e+00  5.000000e+01 -4.371733e+00
     vertex  2.426510e+00  0.000000e+00 -4.371733e+00
   endloop
 endfacet
 facet normal  4.403942e-01  0.000000e+00 -8.978045e-01
   outer loop
     vertex  1.971779e+00  5.000000e+01 -4.594789e+00
     vertex  2.426510e+00  0.000000e+00 -4.371733e+00
     vertex  1.971779e+00  0.000000e+00 -4.594789e+00
   endloop
 endfacet
 facet normal  3.473053e-01  0.000000e+00 -9.377521e-01
   outer loop
     vertex  1.971779e+00  5.000000e+01 -4.594789e+00
     vertex  1.971779e+00  0.000000e+00 -4.594789e+00
     vertex  1.496816e+00  0.000000e+00 -4.770696e+00
   endloop
 endfacet
 facet normal  3.473053e-01  0.000000e+00 -9.377521e-01
   outer loop
     vertex  1.496816e+00  5.000000e+01 -4.770696e+00
     vertex  1.971779e+00  5.000000e+01 -4.594789e+00
     vertex  1.496816e+00  0.000000e+00 -4.770696e+00
   endloop
 endfacet
 facet normal  2.506525e-01  0.000000e+00 -9.680771e-01
   outer loop
     vertex  1.006493e+00  5.000000e+01 -4.897650e+00
     vertex  1.496816e+00  5.000000e+01 -4.770696e+00
     vertex  1.496816e+00  0.000000e+00 -4.770696e+00
   endloop
 endfacet
 facet normal  2.506525e-01  0.000000e+00 -9.680771e-01
   outer loop
     vertex  1.006493e+00  5.000000e+01 -4.897650e+00
     vertex  1.496816e+00  0.000000e+00 -4.770696e+00
     vertex  1.006493e+00  0.000000e+00 -4.897650e+00
   endloop
 endfacet
 facet normal  1.514278e-01  0.000000e+00 -9.884683e-01
   outer loop
     vertex  1.006493e+00  5.000000e+01 -4.897650e+00
     vertex  1.006493e+00  0.000000e+00 -4.897650e+00
     vertex  5.058416e-01  0.000000e+00 -4.974347e+00
   endloop
 endfacet
 facet normal  1.514278e-01  0.000000e+00 -9.884683e-01
   outer loop
     vertex  5.058416e-01  5.000000e+01 -4.974347e+00
     vertex  1.006493e+00  5.000000e+01 -4.897650e+00
     vertex  5.058416e-01  0.000000e+00 -4.974347e+00
   endloop
 endfacet
 facet normal  5.064917e-02  0.000000e+00 -9.987165e-01
   outer loop
     vertex  6.123234e-16  5.000000e+01 -5.000000e+00
     vertex  5.058416e-01  5.000000e+01 -4.974347e+00
     vertex  5.058416e-01  0.000000e+00 -4.974347e+00
   endloop
 endfacet
 facet normal  5.064917e-02  0.000000e+00 -9.987165e-01
   outer loop
     vertex  6.123234e-16  5.000000e+01 -5.000000e+00
     vertex  5.058416e-01  0.000000e+00 -4.974347e+00
     vertex  6.123234e-16  0.000000e+00 -5.000000e+00
   endloop
 endfacet
 facet normal -5.064917e-02 -0.000000e+00 -9.987165e-01
   outer loop
     vertex -5.058416e-01  5.000000e+01 -4.974347e+00
     vertex  6.123234e-16  5.000000e+01 -5.000000e+00
     vertex  6.123234e-16  0.000000e+00 -5.000000e+00
   endloop
 endfacet
 facet normal -5.064917e-02  0.000000e+00 -9.987165e-01
   outer loop
     vertex -5.058416e-01  5.000000e+01 -4.974347e+00
     vertex  6.123234e-16  0.000000e+00 -5.000000e+00
     vertex -5.058416e-01  0.000000e+00 -4.974347e+00
   endloop
 endfacet
 facet normal -1.514278e-01 -0.000000e+00 -9.884683e-01
   outer loop
     vertex -1.006493e+00  5.000000e+01 -4.897650e+00
     vertex -5.058416e-01  5.000000e+01 -4.974347e+00
     vertex -5.058416e-01  0.000000e+00 -4.974347e+00
   endloop
 endfacet
 facet normal -1.514278e-01  0.000000e+00 -9.884683e-01
   outer loop
     vertex -1.006493e+00  5.000000e+01 -4.897650e+00
     vertex -5.058416e-01  0.000000e+00 -4.974347e+00
     vertex -1.006493e+00  0.000000e+00 -4.897650e+00
   endloop
 endfacet
 facet normal -2.506525e-01 -0.000000e+00 -9.680771e-01
   outer loop
     vertex -1.006493e+00  5.000000e+01 -4.897650e+00
     vertex -1.006493e+00  0.000000e+00 -4.897650e+00
     vertex -1.496816e+00  0.000000e+00 -4.770696e+00
   endloop
 endfacet
 facet normal -2.506525e-01  0.000000e+00 -9.680771e-01
   outer loop
     vertex -1.496816e+00  5.000000e+01 -4.770696e+00
     vertex -1.006493e+00  5.000000e+01 -4.897650e+00
     vertex -1.496816e+00  0.000000e+00 -4.770696e+00
   endloop
 endfacet
 facet normal -3.473053e-01 -0.000000e+00 -9.377521e-01
   outer loop
     vertex -1.971779e+00  5.000000e+01 -4.594789e+00
     vertex -1.496816e+00  5.000000e+01 -4.770696e+00
     vertex -1.496816e+00  0.000000e+00 -4.770696e+00
   endloop
 endfacet
 facet normal -3.473053e-01  0.000000e+00 -9.377521e-01
   outer loop
     vertex -1.971779e+00  5.000000e+01 -4.594789e+00
     vertex -1.496816e+00  0.000000e+00 -4.770696e+00
     vertex -1.971779e+00  0.000000e+00 -4.594789e+00
   endloop
 endfacet
 facet normal -4.403942e-01 -0.000000e+00 -8.978045e-01
   outer loop
     vertex -2.426510e+00  5.000000e+01 -4.371733e+00
     vertex -1.971779e+00  5.000000e+01 -4.594789e+00
     vertex -1.971779e+00  0.000000e+00 -4.594789e+00
   endloop
 endfacet
 facet normal -4.403942e-01  0.000000e+00 -8.978045e-01
   outer loop
     vertex -2.426510e+00  5.000000e+01 -4.371733e+00
     vertex -1.971779e+00  0.000000e+00 -4.594789e+00
     vertex -2.426510e+00  0.000000e+00 -4.371733e+00
   endloop
 endfacet
 facet normal -5.289640e-01 -0.000000e+00 -8.486443e-01
   outer loop
     vertex -2.426510e+00  5.000000e+01 -4.371733e+00
     vertex -2.426510e+00  0.000000e+00 -4.371733e+00
     vertex -2.856341e+00  0.000000e+00 -4.103817e+00
   endloop
 endfacet
 facet normal -5.289640e-01  0.000000e+00 -8.486443e-01
   outer loop
     vertex -2.856341e+00  5.000000e+01 -4.103817e+00
     vertex -2.426510e+00  5.000000e+01 -4.371733e+00
     vertex -2.856341e+00  0.000000e+00 -4.103817e+00
   endloop
 endfacet
 facet normal -6.121060e-01  0.000000e+00 -7.907757e-01
   outer loop
     vertex -3.256862e+00  5.000000e+01 -3.793791e+00
     vertex -2.856341e+00  0.000000e+00 -4.103817e+00
     vertex -3.256862e+00  0.000000e+00 -3.793791e+00
   endloop
 endfacet
 facet normal -6.121060e-01 -0.000000e+00 -7.907757e-01
   outer loop
     vertex -3.256862e+00  5.000000e+01 -3.793791e+00
     vertex -2.856341e+00  5.000000e+01 -4.103817e+00
     vertex -2.856341e+00  0.000000e+00 -4.103817e+00
   endloop
 endfacet
 facet normal -6.889669e-01  0.000000e+00 -7.247928e-01
   outer loop
     vertex -3.623964e+00  5.000000e+01 -3.444835e+00
     vertex -3.256862e+00  0.000000e+00 -3.793791e+00
     vertex -3.623964e+00  0.000000e+00 -3.444835e+00
   endloop
 endfacet
 facet normal -7.587581e-01 -0.000000e+00 -6.513725e-01
   outer loop
     vertex -3.623964e+00  5.000000e+01 -3.444835e+00
     vertex -3.623964e+00  0.000000e+00 -3.444835e+00
     vertex -3.953879e+00  0.000000e+00 -3.060530e+00
   endloop
 endfacet
 facet normal -6.889669e-01 -0.000000e+00 -7.247928e-01
   outer loop
     vertex -3.623964e+00  5.000000e+01 -3.444835e+00
     vertex -3.256862e+00  5.000000e+01 -3.793791e+00
     vertex -3.256862e+00  0.000000e+00 -3.793791e+00
   endloop
 endfacet
 facet normal -7.587581e-01  0.000000e+00 -6.513725e-01
   outer loop
     vertex -3.953879e+00  5.000000e+01 -3.060530e+00
     vertex -3.623964e+00  5.000000e+01 -3.444835e+00
     vertex -3.953879e+00  0.000000e+00 -3.060530e+00
   endloop
 endfacet
 facet normal -8.207634e-01  0.000000e+00 -5.712682e-01
   outer loop
     vertex -4.243221e+00  5.000000e+01 -2.644820e+00
     vertex -3.953879e+00  0.000000e+00 -3.060530e+00
     vertex -4.243221e+00  0.000000e+00 -2.644820e+00
   endloop
 endfacet
 facet normal -8.207634e-01 -0.000000e+00 -5.712682e-01
   outer loop
     vertex -4.243221e+00  5.000000e+01 -2.644820e+00
     vertex -3.953879e+00  5.000000e+01 -3.060530e+00
     vertex -3.953879e+00  0.000000e+00 -3.060530e+00
   endloop
 endfacet
 facet normal -8.743466e-01  0.000000e+00 -4.853020e-01
   outer loop
     vertex -4.489023e+00  5.000000e+01 -2.201971e+00
     vertex -4.243221e+00  0.000000e+00 -2.644820e+00
     vertex -4.489023e+00  0.000000e+00 -2.201971e+00
   endloop
 endfacet
 facet normal -8.743466e-01 -0.000000e+00 -4.853020e-01
   outer loop
     vertex -4.489023e+00  5.000000e+01 -2.201971e+00
     vertex -4.243221e+00  5.000000e+01 -2.644820e+00
     vertex -4.243221e+00  0.000000e+00 -2.644820e+00
   endloop
 endfacet
 facet normal -9.189578e-01 -0.000000e+00 -3.943559e-01
   outer loop
     vertex -4.688761e+00  5.000000e+01 -1.736526e+00
     vertex -4.489023e+00  5.000000e+01 -2.201971e+00
     vertex -4.489023e+00  0.000000e+00 -2.201971e+00
   endloop
 endfacet
 facet normal -9.189578e-01  0.000000e+00 -3.943559e-01
   outer loop
     vertex -4.688761e+00  5.000000e+01 -1.736526e+00
     vertex -4.489023e+00  0.000000e+00 -2.201971e+00
     vertex -4.688761e+00  0.000000e+00 -1.736526e+00
   endloop
 endfacet
 facet normal -9.541393e-01 -0.000000e+00 -2.993631e-01
   outer loop
     vertex -4.688761e+00  5.000000e+01 -1.736526e+00
     vertex -4.688761e+00  0.000000e+00 -1.736526e+00
     vertex -4.840386e+00  0.000000e+00 -1.253263e+00
   endloop
 endfacet
 facet normal -9.795299e-01 -0.000000e+00 -2.012985e-01
   outer loop
     vertex -4.840386e+00  5.000000e+01 -1.253263e+00
     vertex -4.840386e+00  0.000000e+00 -1.253263e+00
     vertex -4.942342e+00  0.000000e+00 -7.571389e-01
   endloop
 endfacet
 facet normal -9.541393e-01  0.000000e+00 -2.993631e-01
   outer loop
     vertex -4.840386e+00  5.000000e+01 -1.253263e+00
     vertex -4.688761e+00  5.000000e+01 -1.736526e+00
     vertex -4.840386e+00  0.000000e+00 -1.253263e+00
   endloop
 endfacet
 facet normal -9.948693e-01 -0.000000e+00 -1.011683e-01
   outer loop
     vertex -4.942342e+00  5.000000e+01 -7.571389e-01
     vertex -4.942342e+00  0.000000e+00 -7.571389e-01
     vertex -4.993583e+00  0.000000e+00 -2.532458e-01
   endloop
 endfacet
 facet normal -9.795299e-01  0.000000e+00 -2.012985e-01
   outer loop
     vertex -4.942342e+00  5.000000e+01 -7.571389e-01
     vertex -4.840386e+00  5.000000e+01 -1.253263e+00
     vertex -4.942342e+00  0.000000e+00 -7.571389e-01
   endloop
 endfacet
 facet normal -9.948693e-01  0.000000e+00 -1.011683e-01
   outer loop
     vertex -4.993583e+00  5.000000e+01 -2.532458e-01
     vertex -4.942342e+00  5.000000e+01 -7.571389e-01
     vertex -4.993583e+00  0.000000e+00 -2.532458e-01
   endloop
 endfacet
 facet normal -1.000000e+00 -0.000000e+00  0.000000e+00
   outer loop
     vertex -4.993583e+00  5.000000e+01  2.532458e-01
     vertex -4.993583e+00  0.000000e+00 -2.532458e-01
     vertex -4.993583e+00  0.000000e+00  2.532458e-01
   endloop
 endfacet
 facet normal -9.948693e-01  0.000000e+00  1.011683e-01
   outer loop
     vertex -4.993583e+00  5.000000e+01  2.532458e-01
     vertex -4.993583e+00  0.000000e+00  2.532458e-01
     vertex -4.942342e+00  0.000000e+00  7.571389e-01
   endloop
 endfacet
 facet normal -1.000000e+00 -0.000000e+00 -0.000000e+00
   outer loop
     vertex -4.993583e+00  5.000000e+01  2.532458e-01
     vertex -4.993583e+00  5.000000e+01 -2.532458e-01
     vertex -4.993583e+00  0.000000e+00 -2.532458e-01
   endloop
 endfacet
 facet normal -9.795299e-01  0.000000e+00  2.012985e-01
   outer loop
     vertex -4.942342e+00  5.000000e+01  7.571389e-01
     vertex -4.942342e+00  0.000000e+00  7.571389e-01
     vertex -4.840386e+00  0.000000e+00  1.253263e+00
   endloop
 endfacet
 facet normal -9.948693e-01  0.000000e+00  1.011683e-01
   outer loop
     vertex -4.942342e+00  5.000000e+01  7.571389e-01
     vertex -4.993583e+00  5.000000e+01  2.532458e-01
     vertex -4.942342e+00  0.000000e+00  7.571389e-01
   endloop
 endfacet
 facet normal -9.795299e-01  0.000000e+00  2.012985e-01
   outer loop
     vertex -4.840386e+00  5.000000e+01  1.253263e+00
     vertex -4.942342e+00  5.000000e+01  7.571389e-01
     vertex -4.840386e+00  0.000000e+00  1.253263e+00
   endloop
 endfacet
 facet normal -9.541393e-01  0.000000e+00  2.993631e-01
   outer loop
     vertex -4.688761e+00  5.000000e+01  1.736526e+00
     vertex -4.840386e+00  0.000000e+00  1.253263e+00
     vertex -4.688761e+00  0.000000e+00  1.736526e+00
   endloop
 endfacet
 facet normal -9.541393e-01  0.000000e+00  2.993631e-01
   outer loop
     vertex -4.688761e+00  5.000000e+01  1.736526e+00
     vertex -4.840386e+00  5.000000e+01  1.253263e+00
     vertex -4.840386e+00  0.000000e+00  1.253263e+00
   endloop
 endfacet
 facet normal -9.189578e-01  0.000000e+00  3.943559e-01
   outer loop
     vertex -4.489023e+00  5.000000e+01  2.201971e+00
     vertex -4.688761e+00  0.000000e+00  1.736526e+00
     vertex -4.489023e+00  0.000000e+00  2.201971e+00
   endloop
 endfacet
 facet normal -9.189578e-01  0.000000e+00  3.943559e-01
   outer loop
     vertex -4.489023e+00  5.000000e+01  2.201971e+00
     vertex -4.688761e+00  5.000000e+01  1.736526e+00
     vertex -4.688761e+00  0.000000e+00  1.736526e+00
   endloop
 endfacet
 facet normal -8.743466e-01  0.000000e+00  4.853020e-01
   outer loop
     vertex -4.243221e+00  5.000000e+01  2.644820e+00
     vertex -4.489023e+00  0.000000e+00  2.201971e+00
     vertex -4.243221e+00  0.000000e+00  2.644820e+00
   endloop
 endfacet
 facet normal -8.207634e-01  0.000000e+00  5.712682e-01
   outer loop
     vertex -4.243221e+00  5.000000e+01  2.644820e+00
     vertex -4.243221e+00  0.000000e+00  2.644820e+00
     vertex -3.953879e+00  0.000000e+00  3.060530e+00
   endloop
 endfacet
 facet normal -8.743466e-01  0.000000e+00  4.853020e-01
   outer loop
     vertex -4.243221e+00  5.000000e+01  2.644820e+00
     vertex -4.489023e+00  5.000000e+01  2.201971e+00
     vertex -4.489023e+00  0.000000e+00  2.201971e+00
   endloop
 endfacet
 facet normal -8.207634e-01  0.000000e+00  5.712682e-01
   outer loop
     vertex -3.953879e+00  5.000000e+01  3.060530e+00
     vertex -4.243221e+00  5.000000e+01  2.644820e+00
     vertex -3.953879e+00  0.000000e+00  3.060530e+00
   endloop
 endfacet
 facet normal -7.587581e-01  0.000000e+00  6.513725e-01
   outer loop
     vertex -3.623964e+00  5.000000e+01  3.444835e+00
     vertex -3.953879e+00  0.000000e+00  3.060530e+00
     vertex -3.623964e+00  0.000000e+00  3.444835e+00
   endloop
 endfacet
 facet normal -7.587581e-01  0.000000e+00  6.513725e-01
   outer loop
     vertex -3.623964e+00  5.000000e+01  3.444835e+00
     vertex -3.953879e+00  5.000000e+01  3.060530e+00
     vertex -3.953879e+00  0.000000e+00  3.060530e+00
   endloop
 endfacet
 facet normal -6.889669e-01  0.000000e+00  7.247928e-01
   outer loop
     vertex -3.256862e+00  5.000000e+01  3.793791e+00
     vertex -3.623964e+00  0.000000e+00  3.444835e+00
     vertex -3.256862e+00  0.000000e+00  3.793791e+00
   endloop
 endfacet
 facet normal -6.889669e-01  0.000000e+00  7.247928e-01
   outer loop
     vertex -3.256862e+00  5.000000e+01  3.793791e+00
     vertex -3.623964e+00  5.000000e+01  3.444835e+00
     vertex -3.623964e+00  0.000000e+00  3.444835e+00
   endloop
 endfacet
 facet normal -6.121060e-01  0.000000e+00  7.907757e-01
   outer loop
     vertex -2.856341e+00  5.000000e+01  4.103817e+00
     vertex -3.256862e+00  0.000000e+00  3.793791e+00
     vertex -2.856341e+00  0.000000e+00  4.103817e+00
   endloop
 endfacet
 facet normal -5.289640e-01  0.000000e+00  8.486443e-01
   outer loop
     vertex -2.856341e+00  5.000000e+01  4.103817e+00
     vertex -2.856341e+00  0.000000e+00  4.103817e+00
     vertex -2.426510e+00  0.000000e+00  4.371733e+00
   endloop
 endfacet
 facet normal -6.121060e-01  0.000000e+00  7.907757e-01
   outer loop
     vertex -2.856341e+00  5.000000e+01  4.103817e+00
     vertex -3.256862e+00  5.000000e+01  3.793791e+00
     vertex -3.256862e+00  0.000000e+00  3.793791e+00
   endloop
 endfacet
 facet normal -5.289640e-01  0.000000e+00  8.486443e-01
   outer loop
     vertex -2.426510e+00  5.000000e+01  4.371733e+00
     vertex -2.856341e+00  5.000000e+01  4.103817e+00
     vertex -2.426510e+00  0.000000e+00  4.371733e+00
   endloop
 endfacet
 facet normal -4.403942e-01  0.000000e+00  8.978045e-01
   outer loop
     vertex -1.971779e+00  5.000000e+01  4.594789e+00
     vertex -2.426510e+00  0.000000e+00  4.371733e+00
     vertex -1.971779e+00  0.000000e+00  4.594789e+00
   endloop
 endfacet
 facet normal -3.473053e-01  0.000000e+00  9.377521e-01
   outer loop
     vertex -1.971779e+00  5.000000e+01  4.594789e+00
     vertex -1.971779e+00  0.000000e+00  4.594789e+00
     vertex -1.496816e+00  0.000000e+00  4.770696e+00
   endloop
 endfacet
 facet normal -4.403942e-01  0.000000e+00  8.978045e-01
   outer loop
     vertex -1.971779e+00  5.000000e+01  4.594789e+00
     vertex -2.426510e+00  5.000000e+01  4.371733e+00
     vertex -2.426510e+00  0.000000e+00  4.371733e+00
   endloop
 endfacet
 facet normal -2.506525e-01  0.000000e+00  9.680771e-01
   outer loop
     vertex -1.496816e+00  5.000000e+01  4.770696e+00
     vertex -1.496816e+00  0.000000e+00  4.770696e+00
     vertex -1.006493e+00  0.000000e+00  4.897650e+00
   endloop
 endfacet
 facet normal -3.473053e-01  0.000000e+00  9.377521e-01
   outer loop
     vertex -1.496816e+00  5.000000e+01  4.770696e+00
     vertex -1.971779e+00  5.000000e+01  4.594789e+00
     vertex -1.496816e+00  0.000000e+00  4.770696e+00
   endloop
 endfacet
 facet normal -2.506525e-01  0.000000e+00  9.680771e-01
   outer loop
     vertex -1.006493e+00  5.000000e+01  4.897650e+00
     vertex -1.496816e+00  5.000000e+01  4.770696e+00
     vertex -1.006493e+00  0.000000e+00  4.897650e+00
   endloop
 endfacet
 facet normal -1.514278e-01  0.000000e+00  9.884683e-01
   outer loop
     vertex -5.058416e-01  5.000000e+01  4.974347e+00
     vertex -1.006493e+00  0.000000e+00  4.897650e+00
     vertex -5.058416e-01  0.000000e+00  4.974347e+00
   endloop
 endfacet
 facet normal -5.064917e-02  0.000000e+00  9.987165e-01
   outer loop
     vertex -5.058416e-01  5.000000e+01  4.974347e+00
     vertex -5.058416e-01  0.000000e+00  4.974347e+00
     vertex -1.224647e-15  0.000000e+00  5.000000e+00
   endloop
 endfacet
 facet normal -1.514278e-01  0.000000e+00  9.884683e-01
   outer loop
     vertex -5.058416e-01  5.000000e+01  4.974347e+00
     vertex -1.006493e+00  5.000000e+01  4.897650e+00
     vertex -1.006493e+00  0.000000e+00  4.897650e+00
   endloop
 endfacet
 facet normal -5.064917e-02  0.000000e+00  9.987165e-01
   outer loop
     vertex -1.224647e-15  5.000000e+01  5.000000e+00
     vertex -5.058416e-01  5.000000e+01  4.974347e+00
     vertex -1.224647e-15  0.000000e+00  5.000000e+00
   endloop
 endfacet
 facet normal  0.000000e+00  1.000000e+00  0.000000e+00
   outer loop
     vertex -2.856341e+00  5.000000e+01  4.103817e+00
     vertex  1.006493e+00  5.000000e+01 -4.897650e+00
     vertex -1.006493e+00  5.000000e+01 -4.897650e+00
   endloop
 endfacet
 facet normal  0.000000e+00  1.000000e+00  0.000000e+00
   outer loop
     vertex -2.856341e+00  5.000000e+01  4.103817e+00
     vertex -1.006493e+00  5.000000e+01 -4.897650e+00
     vertex -4.688761e+00  5.000000e+01  1.736526e+00
   endloop
 endfacet
 facet normal  0.000000e+00  1.000000e+00 -0.000000e+00
   outer loop
     vertex -2.856341e+00  5.000000e+01  4.103817e+00
     vertex -3.953879e+00  5.000000e+01  3.060530e+00
     vertex -3.256862e+00  5.000000e+01  3.793791e+00
   endloop
 endfacet
 facet normal  0.000000e+00  1.000000e+00 -0.000000e+00
   outer loop
     vertex -2.856341e+00  5.000000e+01  4.103817e+00
     vertex -4.688761e+00  5.000000e+01  1.736526e+00
     vertex -3.953879e+00  5.000000e+01  3.060530e+00
   endloop
 endfacet
 facet normal  0.000000e+00  1.000000e+00  0.000000e+00
   outer loop
     vertex -3.953879e+00  5.000000e+01 -3.060530e+00
     vertex -3.256862e+00  5.000000e+01 -3.793791e+00
     vertex -3.623964e+00  5.000000e+01 -3.444835e+00
   endloop
 endfacet
 facet normal  0.000000e+00  1.000000e+00  0.000000e+00
   outer loop
     vertex  4.489023e+00  5.000000e+01 -2.201971e+00
     vertex  2.426510e+00  5.000000e+01 -4.371733e+00
     vertex  1.006493e+00  5.000000e+01 -4.897650e+00
   endloop
 endfacet
 facet normal  0.000000e+00  1.000000e+00  0.000000e+00
   outer loop
     vertex  4.489023e+00  5.000000e+01 -2.201971e+00
     vertex  4.243221e+00  5.000000e+01 -2.644820e+00
     vertex  3.953879e+00  5.000000e+01 -3.060530e+00
   endloop
 endfacet
 facet normal  0.000000e+00  1.000000e+00  0.000000e+00
   outer loop
     vertex  4.489023e+00  5.000000e+01 -2.201971e+00
     vertex  2.856341e+00  5.000000e+01 -4.103817e+00
     vertex  2.426510e+00  5.000000e+01 -4.371733e+00
   endloop
 endfacet
 facet normal  0.000000e+00  1.000000e+00  0.000000e+00
   outer loop
     vertex  4.489023e+00  5.000000e+01 -2.201971e+00
     vertex  3.953879e+00  5.000000e+01 -3.060530e+00
     vertex  2.856341e+00  5.000000e+01 -4.103817e+00
   endloop
 endfacet
 facet normal  0.000000e+00  1.000000e+00  0.000000e+00
   outer loop
     vertex -2.426510e+00  5.000000e+01 -4.371733e+00
     vertex -2.856341e+00  5.000000e+01 -4.103817e+00
     vertex -3.256862e+00  5.000000e+01 -3.793791e+00
   endloop
 endfacet
 facet normal  0.000000e+00  1.000000e+00  0.000000e+00
   outer loop
     vertex  4.489023e+00  5.000000e+01 -2.201971e+00
     vertex  1.006493e+00  5.000000e+01 -4.897650e+00
     vertex -2.856341e+00  5.000000e+01  4.103817e+00
   endloop
 endfacet
 facet normal  0.000000e+00  1.000000e+00  0.000000e+00
   outer loop
     vertex -2.426510e+00  5.000000e+01 -4.371733e+00
     vertex -3.256862e+00  5.000000e+01 -3.793791e+00
     vertex -3.953879e+00  5.000000e+01 -3.060530e+00
   endloop
 endfacet
 facet normal  0.000000e+00  1.000000e+00 -0.000000e+00
   outer loop
     vertex  4.489023e+00  5.000000e+01 -2.201971e+00
     vertex -2.856341e+00  5.000000e+01  4.103817e+00
     vertex -2.426510e+00  5.000000e+01  4.371733e+00
   endloop
 endfacet
 facet normal  0.000000e+00  1.000000e+00  0.000000e+00
   outer loop
     vertex  4.688761e+00  5.000000e+01 -1.736526e+00
     vertex  4.489023e+00  5.000000e+01 -2.201971e+00
     vertex -2.426510e+00  5.000000e+01  4.371733e+00
   endloop
 endfacet
 facet normal  0.000000e+00  1.000000e+00 -0.000000e+00
   outer loop
     vertex  4.688761e+00  5.000000e+01 -1.736526e+00
     vertex -2.426510e+00  5.000000e+01  4.371733e+00
     vertex -1.971779e+00  5.000000e+01  4.594789e+00
   endloop
 endfacet
 facet normal  0.000000e+00  1.000000e+00  0.000000e+00
   outer loop
     vertex -1.496816e+00  5.000000e+01 -4.770696e+00
     vertex -1.971779e+00  5.000000e+01 -4.594789e+00
     vertex -2.426510e+00  5.000000e+01 -4.371733e+00
   endloop
 endfacet
 facet normal  0.000000e+00  1.000000e+00 -0.000000e+00
   outer loop
     vertex -1.006493e+00  5.000000e+01  4.897650e+00
     vertex -1.971779e+00  5.000000e+01  4.594789e+00
     vertex -1.496816e+00  5.000000e+01  4.770696e+00
   endloop
 endfacet
 facet normal  0.000000e+00  1.000000e+00  0.000000e+00
   outer loop
     vertex  4.942342e+00  5.000000e+01 -7.571389e-01
     vertex  4.840386e+00  5.000000e+01 -1.253263e+00
     vertex  4.688761e+00  5.000000e+01 -1.736526e+00
   endloop
 endfacet
 facet normal  0.000000e+00  1.000000e+00  0.000000e+00
   outer loop
     vertex -4.840386e+00  5.000000e+01 -1.253263e+00
     vertex -3.953879e+00  5.000000e+01 -3.060530e+00
     vertex -4.243221e+00  5.000000e+01 -2.644820e+00
   endloop
 endfacet
 facet normal  0.000000e+00  1.000000e+00  0.000000e+00
   outer loop
     vertex -4.840386e+00  5.000000e+01 -1.253263e+00
     vertex -4.243221e+00  5.000000e+01 -2.644820e+00
     vertex -4.489023e+00  5.000000e+01 -2.201971e+00
   endloop
 endfacet
 facet normal  0.000000e+00  1.000000e+00  0.000000e+00
   outer loop
     vertex -4.840386e+00  5.000000e+01 -1.253263e+00
     vertex -4.489023e+00  5.000000e+01 -2.201971e+00
     vertex -4.688761e+00  5.000000e+01 -1.736526e+00
   endloop
 endfacet
 facet normal  0.000000e+00  1.000000e+00  0.000000e+00
   outer loop
     vertex -1.006493e+00  5.000000e+01 -4.897650e+00
     vertex -2.426510e+00  5.000000e+01 -4.371733e+00
     vertex -3.953879e+00  5.000000e+01 -3.060530e+00
   endloop
 endfacet
 facet normal  0.000000e+00  1.000000e+00  0.000000e+00
   outer loop
     vertex -1.006493e+00  5.000000e+01 -4.897650e+00
     vertex -1.496816e+00  5.000000e+01 -4.770696e+00
     vertex -2.426510e+00  5.000000e+01 -4.371733e+00
   endloop
 endfacet
 facet normal  0.000000e+00  1.000000e+00 -0.000000e+00
   outer loop
     vertex -1.224647e-15  5.000000e+01  5.000000e+00
     vertex -1.006493e+00  5.000000e+01  4.897650e+00
     vertex -5.058416e-01  5.000000e+01  4.974347e+00
   endloop
 endfacet
 facet normal  0.000000e+00  1.000000e+00  0.000000e+00
   outer loop
     vertex -4.993583e+00  5.000000e+01 -2.532458e-01
     vertex -4.840386e+00  5.000000e+01 -1.253263e+00
     vertex -4.942342e+00  5.000000e+01 -7.571389e-01
   endloop
 endfacet
 facet normal  0.000000e+00  1.000000e+00  0.000000e+00
   outer loop
     vertex  4.942342e+00  5.000000e+01  7.571389e-01
     vertex  4.993583e+00  5.000000e+01  2.532458e-01
     vertex  4.993583e+00  5.000000e+01 -2.532458e-01
   endloop
 endfacet
 facet normal  0.000000e+00  1.000000e+00  0.000000e+00
   outer loop
     vertex  4.942342e+00  5.000000e+01  7.571389e-01
     vertex  4.993583e+00  5.000000e+01 -2.532458e-01
     vertex  4.942342e+00  5.000000e+01 -7.571389e-01
   endloop
 endfacet
 facet normal  0.000000e+00  1.000000e+00  0.000000e+00
   outer loop
     vertex  6.123234e-16  5.000000e+01 -5.000000e+00
     vertex -5.058416e-01  5.000000e+01 -4.974347e+00
     vertex -1.006493e+00  5.000000e+01 -4.897650e+00
   endloop
 endfacet
 facet normal -0.000000e+00  1.000000e+00 -0.000000e+00
   outer loop
     vertex  1.006493e+00  5.000000e+01  4.897650e+00
     vertex -1.224647e-15  5.000000e+01  5.000000e+00
     vertex  5.058416e-01  5.000000e+01  4.974347e+00
   endloop
 endfacet
 facet normal  0.000000e+00  1.000000e+00  0.000000e+00
   outer loop
     vertex  1.006493e+00  5.000000e+01  4.897650e+00
     vertex  4.688761e+00  5.000000e+01 -1.736526e+00
     vertex -1.971779e+00  5.000000e+01  4.594789e+00
   endloop
 endfacet
 facet normal  0.000000e+00  1.000000e+00 -0.000000e+00
   outer loop
     vertex  1.006493e+00  5.000000e+01  4.897650e+00
     vertex -1.006493e+00  5.000000e+01  4.897650e+00
     vertex -1.224647e-15  5.000000e+01  5.000000e+00
   endloop
 endfacet
 facet normal  0.000000e+00  1.000000e+00 -0.000000e+00
   outer loop
     vertex  1.006493e+00  5.000000e+01  4.897650e+00
     vertex -1.971779e+00  5.000000e+01  4.594789e+00
     vertex -1.006493e+00  5.000000e+01  4.897650e+00
   endloop
 endfacet
 facet normal  0.000000e+00  1.000000e+00 -0.000000e+00
   outer loop
     vertex -4.942342e+00  5.000000e+01  7.571389e-01
     vertex -4.993583e+00  5.000000e+01 -2.532458e-01
     vertex -4.993583e+00  5.000000e+01  2.532458e-01
   endloop
 endfacet
 facet normal  0.000000e+00  1.000000e+00  0.000000e+00
   outer loop
     vertex  4.688761e+00  5.000000e+01  1.736526e+00
     vertex  4.840386e+00  5.000000e+01  1.253263e+00
     vertex  4.942342e+00  5.000000e+01  7.571389e-01
   endloop
 endfacet
 facet normal  0.000000e+00  1.000000e+00  0.000000e+00
   outer loop
     vertex -4.942342e+00  5.000000e+01  7.571389e-01
     vertex -3.953879e+00  5.000000e+01 -3.060530e+00
     vertex -4.840386e+00  5.000000e+01 -1.253263e+00
   endloop
 endfacet
 facet normal  0.000000e+00  1.000000e+00  0.000000e+00
   outer loop
     vertex  4.688761e+00  5.000000e+01  1.736526e+00
     vertex  4.942342e+00  5.000000e+01 -7.571389e-01
     vertex  4.688761e+00  5.000000e+01 -1.736526e+00
   endloop
 endfacet
 facet normal  0.000000e+00  1.000000e+00  0.000000e+00
   outer loop
     vertex -4.942342e+00  5.000000e+01  7.571389e-01
     vertex -1.006493e+00  5.000000e+01 -4.897650e+00
     vertex -3.953879e+00  5.000000e+01 -3.060530e+00
   endloop
 endfacet
 facet normal  0.000000e+00  1.000000e+00  0.000000e+00
   outer loop
     vertex  4.688761e+00  5.000000e+01  1.736526e+00
     vertex  4.942342e+00  5.000000e+01  7.571389e-01
     vertex  4.942342e+00  5.000000e+01 -7.571389e-01
   endloop
 endfacet
 facet normal  0.000000e+00  1.000000e+00  0.000000e+00
   outer loop
     vertex  4.688761e+00  5.000000e+01  1.736526e+00
     vertex  4.688761e+00  5.000000e+01 -1.736526e+00
     vertex  1.006493e+00  5.000000e+01  4.897650e+00
   endloop
 endfacet
 facet normal  0.000000e+00  1.000000e+00  0.000000e+00
   outer loop
     vertex -4.942342e+00  5.000000e+01  7.571389e-01
     vertex -4.840386e+00  5.000000e+01 -1.253263e+00
     vertex -4.993583e+00  5.000000e+01 -2.532458e-01
   endloop
 endfacet
 facet normal -0.000000e+00  1.000000e+00 -0.000000e+00
   outer loop
     vertex  1.971779e+00  5.000000e+01  4.594789e+00
     vertex  1.006493e+00  5.000000e+01  4.897650e+00
     vertex  1.496816e+00  5.000000e+01  4.770696e+00
   endloop
 endfacet
 facet normal  0.000000e+00  1.000000e+00  0.000000e+00
   outer loop
     vertex  1.006493e+00  5.000000e+01 -4.897650e+00
     vertex  5.058416e-01  5.000000e+01 -4.974347e+00
     vertex  6.123234e-16  5.000000e+01 -5.000000e+00
   endloop
 endfacet
 facet normal  0.000000e+00  1.000000e+00  0.000000e+00
   outer loop
     vertex  1.006493e+00  5.000000e+01 -4.897650e+00
     vertex  6.123234e-16  5.000000e+01 -5.000000e+00
     vertex -1.006493e+00  5.000000e+01 -4.897650e+00
   endloop
 endfacet
 facet normal  0.000000e+00  1.000000e+00  0.000000e+00
   outer loop
     vertex  1.971779e+00  5.000000e+01  4.594789e+00
     vertex  4.688761e+00  5.000000e+01  1.736526e+00
     vertex  1.006493e+00  5.000000e+01  4.897650e+00
   endloop
 endfacet
 facet normal  0.000000e+00  1.000000e+00  0.000000e+00
   outer loop
     vertex  4.243221e+00  5.000000e+01  2.644820e+00
     vertex  4.489023e+00  5.000000e+01  2.201971e+00
     vertex  4.688761e+00  5.000000e+01  1.736526e+00
   endloop
 endfacet
 facet normal  0.000000e+00  1.000000e+00 -0.000000e+00
   outer loop
     vertex -4.688761e+00  5.000000e+01  1.736526e+00
     vertex -4.942342e+00  5.000000e+01  7.571389e-01
     vertex -4.840386e+00  5.000000e+01  1.253263e+00
   endloop
 endfacet
 facet normal  0.000000e+00  1.000000e+00  0.000000e+00
   outer loop
     vertex -4.688761e+00  5.000000e+01  1.736526e+00
     vertex -1.006493e+00  5.000000e+01 -4.897650e+00
     vertex -4.942342e+00  5.000000e+01  7.571389e-01
   endloop
 endfacet
 facet normal  0.000000e+00  1.000000e+00  0.000000e+00
   outer loop
     vertex  1.971779e+00  5.000000e+01 -4.594789e+00
     vertex  1.496816e+00  5.000000e+01 -4.770696e+00
     vertex  1.006493e+00  5.000000e+01 -4.897650e+00
   endloop
 endfacet
 facet normal -0.000000e+00  1.000000e+00 -0.000000e+00
   outer loop
     vertex  3.256862e+00  5.000000e+01  3.793791e+00
     vertex  1.971779e+00  5.000000e+01  4.594789e+00
     vertex  2.426510e+00  5.000000e+01  4.371733e+00
   endloop
 endfacet
 facet normal -0.000000e+00  1.000000e+00 -0.000000e+00
   outer loop
     vertex  3.256862e+00  5.000000e+01  3.793791e+00
     vertex  2.426510e+00  5.000000e+01  4.371733e+00
     vertex  2.856341e+00  5.000000e+01  4.103817e+00
   endloop
 endfacet
 facet normal  0.000000e+00  1.000000e+00  0.000000e+00
   outer loop
     vertex  3.256862e+00  5.000000e+01  3.793791e+00
     vertex  4.688761e+00  5.000000e+01  1.736526e+00
     vertex  1.971779e+00  5.000000e+01  4.594789e+00
   endloop
 endfacet
 facet normal  0.000000e+00  1.000000e+00  0.000000e+00
   outer loop
     vertex  3.623964e+00  5.000000e+01  3.444835e+00
     vertex  3.953879e+00  5.000000e+01  3.060530e+00
     vertex  4.243221e+00  5.000000e+01  2.644820e+00
   endloop
 endfacet
 facet normal  0.000000e+00  1.000000e+00  0.000000e+00
   outer loop
     vertex  2.426510e+00  5.000000e+01 -4.371733e+00
     vertex  1.971779e+00  5.000000e+01 -4.594789e+00
     vertex  1.006493e+00  5.000000e+01 -4.897650e+00
   endloop
 endfacet
 facet normal  0.000000e+00  1.000000e+00  0.000000e+00
   outer loop
     vertex  3.623964e+00  5.000000e+01  3.444835e+00
     vertex  4.243221e+00  5.000000e+01  2.644820e+00
     vertex  4.688761e+00  5.000000e+01  1.736526e+00
   endloop
 endfacet
 facet normal  0.000000e+00  1.000000e+00  0.000000e+00
   outer loop
     vertex  3.623964e+00  5.000000e+01  3.444835e+00
     vertex  4.688761e+00  5.000000e+01  1.736526e+00
     vertex  3.256862e+00  5.000000e+01  3.793791e+00
   endloop
 endfacet
 facet normal  0.000000e+00  1.000000e+00 -0.000000e+00
   outer loop
     vertex -3.953879e+00  5.000000e+01  3.060530e+00
     vertex -4.688761e+00  5.000000e+01  1.736526e+00
     vertex -4.489023e+00  5.000000e+01  2.201971e+00
   endloop
 endfacet
 facet normal  0.000000e+00  1.000000e+00 -0.000000e+00
   outer loop
     vertex -3.953879e+00  5.000000e+01  3.060530e+00
     vertex -4.489023e+00  5.000000e+01  2.201971e+00
     vertex -4.243221e+00  5.000000e+01  2.644820e+00
   endloop
 endfacet
 facet normal  0.000000e+00  1.000000e+00 -0.000000e+00
   outer loop
     vertex -3.256862e+00  5.000000e+01  3.793791e+00
     vertex -3.953879e+00  5.000000e+01  3.060530e+00
     vertex -3.623964e+00  5.000000e+01  3.444835e+00
   endloop
 endfacet
 facet normal  0.000000e+00  1.000000e+00  0.000000e+00
   outer loop
     vertex  3.953879e+00  5.000000e+01 -3.060530e+00
     vertex  3.623964e+00  5.000000e+01 -3.444835e+00
     vertex  3.256862e+00  5.000000e+01 -3.793791e+00
   endloop
 endfacet
 facet normal  0.000000e+00  1.000000e+00  0.000000e+00
   outer loop
     vertex  3.953879e+00  5.000000e+01 -3.060530e+00
     vertex  3.256862e+00  5.000000e+01 -3.793791e+00
     vertex  2.856341e+00  5.000000e+01 -4.103817e+00
   endloop
 endfacet
 facet normal  0.000000e+00 -1.000000e+00  0.000000e+00
   outer loop
     vertex -1.006493e+00  0.000000e+00 -4.897650e+00
     vertex  1.006493e+00  0.000000e+00 -4.897650e+00
     vertex -2.856341e+00  0.000000e+00  4.103817e+00
   endloop
 endfacet
 facet normal  0.000000e+00 -1.000000e+00  0.000000e+00
   outer loop
     vertex -4.688761e+00  0.000000e+00  1.736526e+00
     vertex -1.006493e+00  0.000000e+00 -4.897650e+00
     vertex -2.856341e+00  0.000000e+00  4.103817e+00
   endloop
 endfacet
 facet normal  0.000000e+00 -1.000000e+00 -0.000000e+00
   outer loop
     vertex -3.256862e+00  0.000000e+00  3.793791e+00
     vertex -3.953879e+00  0.000000e+00  3.060530e+00
     vertex -2.856341e+00  0.000000e+00  4.103817e+00
   endloop
 endfacet
 facet normal  0.000000e+00 -1.000000e+00 -0.000000e+00
   outer loop
     vertex -3.953879e+00  0.000000e+00  3.060530e+00
     vertex -4.688761e+00  0.000000e+00  1.736526e+00
     vertex -2.856341e+00  0.000000e+00  4.103817e+00
   endloop
 endfacet
 facet normal  0.000000e+00 -1.000000e+00  0.000000e+00
   outer loop
     vertex -3.623964e+00  0.000000e+00 -3.444835e+00
     vertex -3.256862e+00  0.000000e+00 -3.793791e+00
     vertex -3.953879e+00  0.000000e+00 -3.060530e+00
   endloop
 endfacet
 facet normal  0.000000e+00 -1.000000e+00  0.000000e+00
   outer loop
     vertex  1.006493e+00  0.000000e+00 -4.897650e+00
     vertex  2.426510e+00  0.000000e+00 -4.371733e+00
     vertex  4.489023e+00  0.000000e+00 -2.201971e+00
   endloop
 endfacet
 facet normal  0.000000e+00 -1.000000e+00  0.000000e+00
   outer loop
     vertex  3.953879e+00  0.000000e+00 -3.060530e+00
     vertex  4.243221e+00  0.000000e+00 -2.644820e+00
     vertex  4.489023e+00  0.000000e+00 -2.201971e+00
   endloop
 endfacet
 facet normal  0.000000e+00 -1.000000e+00  0.000000e+00
   outer loop
     vertex  2.426510e+00  0.000000e+00 -4.371733e+00
     vertex  2.856341e+00  0.000000e+00 -4.103817e+00
     vertex  4.489023e+00  0.000000e+00 -2.201971e+00
   endloop
 endfacet
 facet normal  0.000000e+00 -1.000000e+00  0.000000e+00
   outer loop
     vertex  2.856341e+00  0.000000e+00 -4.103817e+00
     vertex  3.953879e+00  0.000000e+00 -3.060530e+00
     vertex  4.489023e+00  0.000000e+00 -2.201971e+00
   endloop
 endfacet
 facet normal  0.000000e+00 -1.000000e+00  0.000000e+00
   outer loop
     vertex -3.256862e+00  0.000000e+00 -3.793791e+00
     vertex -2.856341e+00  0.000000e+00 -4.103817e+00
     vertex -2.426510e+00  0.000000e+00 -4.371733e+00
   endloop
 endfacet
 facet normal  0.000000e+00 -1.000000e+00  0.000000e+00
   outer loop
     vertex -2.856341e+00  0.000000e+00  4.103817e+00
     vertex  1.006493e+00  0.000000e+00 -4.897650e+00
     vertex  4.489023e+00  0.000000e+00 -2.201971e+00
   endloop
 endfacet
 facet normal  0.000000e+00 -1.000000e+00  0.000000e+00
   outer loop
     vertex -3.953879e+00  0.000000e+00 -3.060530e+00
     vertex -3.256862e+00  0.000000e+00 -3.793791e+00
     vertex -2.426510e+00  0.000000e+00 -4.371733e+00
   endloop
 endfacet
 facet normal  0.000000e+00 -1.000000e+00 -0.000000e+00
   outer loop
     vertex -2.426510e+00  0.000000e+00  4.371733e+00
     vertex -2.856341e+00  0.000000e+00  4.103817e+00
     vertex  4.489023e+00  0.000000e+00 -2.201971e+00
   endloop
 endfacet
 facet normal  0.000000e+00 -1.000000e+00  0.000000e+00
   outer loop
     vertex -2.426510e+00  0.000000e+00  4.371733e+00
     vertex  4.489023e+00  0.000000e+00 -2.201971e+00
     vertex  4.688761e+00  0.000000e+00 -1.736526e+00
   endloop
 endfacet
 facet normal  0.000000e+00 -1.000000e+00 -0.000000e+00
   outer loop
     vertex -1.971779e+00  0.000000e+00  4.594789e+00
     vertex -2.426510e+00  0.000000e+00  4.371733e+00
     vertex  4.688761e+00  0.000000e+00 -1.736526e+00
   endloop
 endfacet
 facet normal  0.000000e+00 -1.000000e+00  0.000000e+00
   outer loop
     vertex -2.426510e+00  0.000000e+00 -4.371733e+00
     vertex -1.971779e+00  0.000000e+00 -4.594789e+00
     vertex -1.496816e+00  0.000000e+00 -4.770696e+00
   endloop
 endfacet
 facet normal  0.000000e+00 -1.000000e+00 -0.000000e+00
   outer loop
     vertex -1.496816e+00  0.000000e+00  4.770696e+00
     vertex -1.971779e+00  0.000000e+00  4.594789e+00
     vertex -1.006493e+00  0.000000e+00  4.897650e+00
   endloop
 endfacet
 facet normal  0.000000e+00 -1.000000e+00  0.000000e+00
   outer loop
     vertex  4.688761e+00  0.000000e+00 -1.736526e+00
     vertex  4.840386e+00  0.000000e+00 -1.253263e+00
     vertex  4.942342e+00  0.000000e+00 -7.571389e-01
   endloop
 endfacet
 facet normal  0.000000e+00 -1.000000e+00  0.000000e+00
   outer loop
     vertex -4.243221e+00  0.000000e+00 -2.644820e+00
     vertex -3.953879e+00  0.000000e+00 -3.060530e+00
     vertex -4.840386e+00  0.000000e+00 -1.253263e+00
   endloop
 endfacet
 facet normal  0.000000e+00 -1.000000e+00  0.000000e+00
   outer loop
     vertex -4.489023e+00  0.000000e+00 -2.201971e+00
     vertex -4.243221e+00  0.000000e+00 -2.644820e+00
     vertex -4.840386e+00  0.000000e+00 -1.253263e+00
   endloop
 endfacet
 facet normal  0.000000e+00 -1.000000e+00  0.000000e+00
   outer loop
     vertex -4.688761e+00  0.000000e+00 -1.736526e+00
     vertex -4.489023e+00  0.000000e+00 -2.201971e+00
     vertex -4.840386e+00  0.000000e+00 -1.253263e+00
   endloop
 endfacet
 facet normal  0.000000e+00 -1.000000e+00  0.000000e+00
   outer loop
     vertex -3.953879e+00  0.000000e+00 -3.060530e+00
     vertex -2.426510e+00  0.000000e+00 -4.371733e+00
     vertex -1.006493e+00  0.000000e+00 -4.897650e+00
   endloop
 endfacet
 facet normal  0.000000e+00 -1.000000e+00  0.000000e+00
   outer loop
     vertex -2.426510e+00  0.000000e+00 -4.371733e+00
     vertex -1.496816e+00  0.000000e+00 -4.770696e+00
     vertex -1.006493e+00  0.000000e+00 -4.897650e+00
   endloop
 endfacet
 facet normal  0.000000e+00 -1.000000e+00 -0.000000e+00
   outer loop
     vertex -5.058416e-01  0.000000e+00  4.974347e+00
     vertex -1.006493e+00  0.000000e+00  4.897650e+00
     vertex -1.224647e-15  0.000000e+00  5.000000e+00
   endloop
 endfacet
 facet normal  0.000000e+00 -1.000000e+00  0.000000e+00
   outer loop
     vertex -4.942342e+00  0.000000e+00 -7.571389e-01
     vertex -4.840386e+00  0.000000e+00 -1.253263e+00
     vertex -4.993583e+00  0.000000e+00 -2.532458e-01
   endloop
 endfacet
 facet normal  0.000000e+00 -1.000000e+00  0.000000e+00
   outer loop
     vertex  4.993583e+00  0.000000e+00 -2.532458e-01
     vertex  4.993583e+00  0.000000e+00  2.532458e-01
     vertex  4.942342e+00  0.000000e+00  7.571389e-01
   endloop
 endfacet
 facet normal  0.000000e+00 -1.000000e+00  0.000000e+00
   outer loop
     vertex -1.006493e+00  0.000000e+00 -4.897650e+00
     vertex -5.058416e-01  0.000000e+00 -4.974347e+00
     vertex  6.123234e-16  0.000000e+00 -5.000000e+00
   endloop
 endfacet
 facet normal  0.000000e+00 -1.000000e+00  0.000000e+00
   outer loop
     vertex  4.942342e+00  0.000000e+00 -7.571389e-01
     vertex  4.993583e+00  0.000000e+00 -2.532458e-01
     vertex  4.942342e+00  0.000000e+00  7.571389e-01
   endloop
 endfacet
 facet normal -0.000000e+00 -1.000000e+00 -0.000000e+00
   outer loop
     vertex  5.058416e-01  0.000000e+00  4.974347e+00
     vertex -1.224647e-15  0.000000e+00  5.000000e+00
     vertex  1.006493e+00  0.000000e+00  4.897650e+00
   endloop
 endfacet
 facet normal  0.000000e+00 -1.000000e+00  0.000000e+00
   outer loop
     vertex -1.971779e+00  0.000000e+00  4.594789e+00
     vertex  4.688761e+00  0.000000e+00 -1.736526e+00
     vertex  1.006493e+00  0.000000e+00  4.897650e+00
   endloop
 endfacet
 facet normal  0.000000e+00 -1.000000e+00 -0.000000e+00
   outer loop
     vertex -1.224647e-15  0.000000e+00  5.000000e+00
     vertex -1.006493e+00  0.000000e+00  4.897650e+00
     vertex  1.006493e+00  0.000000e+00  4.897650e+00
   endloop
 endfacet
 facet normal  0.000000e+00 -1.000000e+00 -0.000000e+00
   outer loop
     vertex -1.006493e+00  0.000000e+00  4.897650e+00
     vertex -1.971779e+00  0.000000e+00  4.594789e+00
     vertex  1.006493e+00  0.000000e+00  4.897650e+00
   endloop
 endfacet
 facet normal  0.000000e+00 -1.000000e+00  0.000000e+00
   outer loop
     vertex -4.993583e+00  0.000000e+00  2.532458e-01
     vertex -4.993583e+00  0.000000e+00 -2.532458e-01
     vertex -4.942342e+00  0.000000e+00  7.571389e-01
   endloop
 endfacet
 facet normal  0.000000e+00 -1.000000e+00  0.000000e+00
   outer loop
     vertex -4.840386e+00  0.000000e+00 -1.253263e+00
     vertex -3.953879e+00  0.000000e+00 -3.060530e+00
     vertex -4.942342e+00  0.000000e+00  7.571389e-01
   endloop
 endfacet
 facet normal  0.000000e+00 -1.000000e+00  0.000000e+00
   outer loop
     vertex  4.942342e+00  0.000000e+00  7.571389e-01
     vertex  4.840386e+00  0.000000e+00  1.253263e+00
     vertex  4.688761e+00  0.000000e+00  1.736526e+00
   endloop
 endfacet
 facet normal  0.000000e+00 -1.000000e+00  0.000000e+00
   outer loop
     vertex -3.953879e+00  0.000000e+00 -3.060530e+00
     vertex -1.006493e+00  0.000000e+00 -4.897650e+00
     vertex -4.942342e+00  0.000000e+00  7.571389e-01
   endloop
 endfacet
 facet normal  0.000000e+00 -1.000000e+00  0.000000e+00
   outer loop
     vertex  4.688761e+00  0.000000e+00 -1.736526e+00
     vertex  4.942342e+00  0.000000e+00 -7.571389e-01
     vertex  4.688761e+00  0.000000e+00  1.736526e+00
   endloop
 endfacet
 facet normal  0.000000e+00 -1.000000e+00  0.000000e+00
   outer loop
     vertex  4.942342e+00  0.000000e+00 -7.571389e-01
     vertex  4.942342e+00  0.000000e+00  7.571389e-01
     vertex  4.688761e+00  0.000000e+00  1.736526e+00
   endloop
 endfacet
 facet normal  0.000000e+00 -1.000000e+00  0.000000e+00
   outer loop
     vertex -4.993583e+00  0.000000e+00 -2.532458e-01
     vertex -4.840386e+00  0.000000e+00 -1.253263e+00
     vertex -4.942342e+00  0.000000e+00  7.571389e-01
   endloop
 endfacet
 facet normal  0.000000e+00 -1.000000e+00  0.000000e+00
   outer loop
     vertex  1.006493e+00  0.000000e+00  4.897650e+00
     vertex  4.688761e+00  0.000000e+00 -1.736526e+00
     vertex  4.688761e+00  0.000000e+00  1.736526e+00
   endloop
 endfacet
 facet normal  0.000000e+00 -1.000000e+00  0.000000e+00
   outer loop
     vertex  6.123234e-16  0.000000e+00 -5.000000e+00
     vertex  5.058416e-01  0.000000e+00 -4.974347e+00
     vertex  1.006493e+00  0.000000e+00 -4.897650e+00
   endloop
 endfacet
 facet normal -0.000000e+00 -1.000000e+00 -0.000000e+00
   outer loop
     vertex  1.496816e+00  0.000000e+00  4.770696e+00
     vertex  1.006493e+00  0.000000e+00  4.897650e+00
     vertex  1.971779e+00  0.000000e+00  4.594789e+00
   endloop
 endfacet
 facet normal  0.000000e+00 -1.000000e+00  0.000000e+00
   outer loop
     vertex -1.006493e+00  0.000000e+00 -4.897650e+00
     vertex  6.123234e-16  0.000000e+00 -5.000000e+00
     vertex  1.006493e+00  0.000000e+00 -4.897650e+00
   endloop
 endfacet
 facet normal  0.000000e+00 -1.000000e+00  0.000000e+00
   outer loop
     vertex  1.006493e+00  0.000000e+00  4.897650e+00
     vertex  4.688761e+00  0.000000e+00  1.736526e+00
     vertex  1.971779e+00  0.000000e+00  4.594789e+00
   endloop
 endfacet
 facet normal  0.000000e+00 -1.000000e+00  0.000000e+00
   outer loop
     vertex  4.688761e+00  0.000000e+00  1.736526e+00
     vertex  4.489023e+00  0.000000e+00  2.201971e+00
     vertex  4.243221e+00  0.000000e+00  2.644820e+00
   endloop
 endfacet
 facet normal  0.000000e+00 -1.000000e+00 -0.000000e+00
   outer loop
     vertex -4.840386e+00  0.000000e+00  1.253263e+00
     vertex -4.942342e+00  0.000000e+00  7.571389e-01
     vertex -4.688761e+00  0.000000e+00  1.736526e+00
   endloop
 endfacet
 facet normal  0.000000e+00 -1.000000e+00  0.000000e+00
   outer loop
     vertex -4.942342e+00  0.000000e+00  7.571389e-01
     vertex -1.006493e+00  0.000000e+00 -4.897650e+00
     vertex -4.688761e+00  0.000000e+00  1.736526e+00
   endloop
 endfacet
 facet normal  0.000000e+00 -1.000000e+00  0.000000e+00
   outer loop
     vertex  1.006493e+00  0.000000e+00 -4.897650e+00
     vertex  1.496816e+00  0.000000e+00 -4.770696e+00
     vertex  1.971779e+00  0.000000e+00 -4.594789e+00
   endloop
 endfacet
 facet normal -0.000000e+00 -1.000000e+00 -0.000000e+00
   outer loop
     vertex  2.426510e+00  0.000000e+00  4.371733e+00
     vertex  1.971779e+00  0.000000e+00  4.594789e+00
     vertex  3.256862e+00  0.000000e+00  3.793791e+00
   endloop
 endfacet
 facet normal -0.000000e+00 -1.000000e+00 -0.000000e+00
   outer loop
     vertex  2.856341e+00  0.000000e+00  4.103817e+00
     vertex  2.426510e+00  0.000000e+00  4.371733e+00
     vertex  3.256862e+00  0.000000e+00  3.793791e+00
   endloop
 endfacet
 facet normal  0.000000e+00 -1.000000e+00  0.000000e+00
   outer loop
     vertex  1.971779e+00  0.000000e+00  4.594789e+00
     vertex  4.688761e+00  0.000000e+00  1.736526e+00
     vertex  3.256862e+00  0.000000e+00  3.793791e+00
   endloop
 endfacet
 facet normal  0.000000e+00 -1.000000e+00  0.000000e+00
   outer loop
     vertex  1.006493e+00  0.000000e+00 -4.897650e+00
     vertex  1.971779e+00  0.000000e+00 -4.594789e+00
     vertex  2.426510e+00  0.000000e+00 -4.371733e+00
   endloop
 endfacet
 facet normal  0.000000e+00 -1.000000e+00  0.000000e+00
   outer loop
     vertex  4.243221e+00  0.000000e+00  2.644820e+00
     vertex  3.953879e+00  0.000000e+00  3.060530e+00
     vertex  3.623964e+00  0.000000e+00  3.444835e+00
   endloop
 endfacet
 facet normal  0.000000e+00 -1.000000e+00  0.000000e+00
   outer loop
     vertex  4.688761e+00  0.000000e+00  1.736526e+00
     vertex  4.243221e+00  0.000000e+00  2.644820e+00
     vertex  3.623964e+00  0.000000e+00  3.444835e+00
   endloop
 endfacet
 facet normal  0.000000e+00 -1.000000e+00  0.000000e+00
   outer loop
     vertex  3.256862e+00  0.000000e+00  3.793791e+00
     vertex  4.688761e+00  0.000000e+00  1.736526e+00
     vertex  3.623964e+00  0.000000e+00  3.444835e+00
   endloop
 endfacet
 facet normal  0.000000e+00 -1.000000e+00 -0.000000e+00
   outer loop
     vertex -4.489023e+00  0.000000e+00  2.201971e+00
     vertex -4.688761e+00  0.000000e+00  1.736526e+00
     vertex -3.953879e+00  0.000000e+00  3.060530e+00
   endloop
 endfacet
 facet normal  0.000000e+00 -1.000000e+00 -0.000000e+00
   outer loop
     vertex -4.243221e+00  0.000000e+00  2.644820e+00
     vertex -4.489023e+00  0.000000e+00  2.201971e+00
     vertex -3.953879e+00  0.000000e+00  3.060530e+00
   endloop
 endfacet
 facet normal  0.000000e+00 -1.000000e+00 -0.000000e+00
   outer loop
     vertex -3.623964e+00  0.000000e+00  3.444835e+00
     vertex -3.953879e+00  0.000000e+00  3.060530e+00
     vertex -3.256862e+00  0.000000e+00  3.793791e+00
   endloop
 endfacet
 facet normal  0.000000e+00 -1.000000e+00  0.000000e+00
   outer loop
     vertex  3.256862e+00  0.000000e+00 -3.793791e+00
     vertex  3.623964e+00  0.000000e+00 -3.444835e+00
     vertex  3.953879e+00  0.000000e+00 -3.060530e+00
   endloop
 endfacet
 facet normal  0.000000e+00 -1.000000e+00  0.000000e+00
   outer loop
     vertex  2.856341e+00  0.000000e+00 -4.103817e+00
     vertex  3.256862e+00  0.000000e+00 -3.793791e+00
     vertex  3.953879e+00  0.000000e+00 -3.060530e+00
   endloop
 endfacet
endsolid
