<?xml version="1.0" encoding="UTF-8" standalone="no"?>
<!-- Created with Inkscape (http://www.inkscape.org/) -->

<svg
   xmlns:dc="http://purl.org/dc/elements/1.1/"
   xmlns:cc="http://creativecommons.org/ns#"
   xmlns:rdf="http://www.w3.org/1999/02/22-rdf-syntax-ns#"
   xmlns:svg="http://www.w3.org/2000/svg"
   xmlns="http://www.w3.org/2000/svg"
   xmlns:xlink="http://www.w3.org/1999/xlink"
   xmlns:sodipodi="http://sodipodi.sourceforge.net/DTD/sodipodi-0.dtd"
   xmlns:inkscape="http://www.inkscape.org/namespaces/inkscape"
   width="64px"
   height="64px"
   id="svg2985"
   version="1.1"
   inkscape:version="0.48.2 r9819"
   sodipodi:docname="unsettings.svg"
   inkscape:export-filename="/home/diesch/projects/unsettings/trunk/data/icons/unsettings.png"
   inkscape:export-xdpi="90"
   inkscape:export-ydpi="90">
  <defs
     id="defs2987">
    <linearGradient
       inkscape:collect="always"
       id="linearGradient4218">
      <stop
         style="stop-color:#979797;stop-opacity:1;"
         offset="0"
         id="stop4220" />
      <stop
         style="stop-color:#979797;stop-opacity:0;"
         offset="1"
         id="stop4222" />
    </linearGradient>
    <linearGradient
       x1="86.133"
       y1="105.1"
       gradientTransform="matrix(0.096142,0,0,0.096142,1.8469,1.943)"
       x2="84.639"
       gradientUnits="userSpaceOnUse"
       y2="20.895"
       id="linearGradient3260">
      <stop
         offset="0"
         style="stop-color:#e5e5e5"
         id="stop5130-1" />
      <stop
         offset="1"
         style="stop-color:#ababab"
         id="stop5132-1" />
    </linearGradient>
    <linearGradient
       x1="21"
       gradientTransform="translate(-17.058,0)"
       x2="21"
       gradientUnits="userSpaceOnUse"
       y2="16.005"
       id="linearGradient3264">
      <stop
         offset="0"
         style="stop-color:#aaa"
         id="stop3399-8" />
      <stop
         offset="1"
         style="stop-color:#8c8c8c"
         id="stop3401-1" />
    </linearGradient>
    <linearGradient
       x1="25"
       gradientTransform="translate(-17.058,0)"
       x2="25"
       gradientUnits="userSpaceOnUse"
       y2="16"
       id="linearGradient3262">
      <stop
         offset="0"
         style="stop-color:#f6f6f6"
         id="stop3311-2" />
      <stop
         offset="1"
         style="stop-color:#ccc"
         id="stop3313-9" />
    </linearGradient>
    <linearGradient
       x1="86.133"
       y1="105.1"
       gradientTransform="matrix(0.15623,0,0,0.15623,2.0012,2.1574)"
       x2="84.639"
       gradientUnits="userSpaceOnUse"
       y2="20.895"
       id="linearGradient3241">
      <stop
         offset="0"
         style="stop-color:#eee"
         id="stop5130-43" />
      <stop
         offset="1"
         style="stop-color:#a2a2a2"
         id="stop5132-0" />
    </linearGradient>
    <linearGradient
       x1="40"
       y1="1"
       gradientTransform="translate(-24.5,0)"
       x2="40"
       gradientUnits="userSpaceOnUse"
       y2="23.02"
       id="linearGradient3228">
      <stop
         offset="0"
         style="stop-color:#aaa"
         id="stop3399-7" />
      <stop
         offset="1"
         style="stop-color:#8c8c8c"
         id="stop3401-7" />
    </linearGradient>
    <linearGradient
       x1="34"
       y1="1"
       gradientTransform="translate(-24.5,0)"
       x2="34"
       gradientUnits="userSpaceOnUse"
       y2="23"
       id="linearGradient3218">
      <stop
         offset="0"
         style="stop-color:#f6f6f6"
         id="stop3311-8" />
      <stop
         offset="1"
         style="stop-color:#d2d2d2"
         id="stop3313-88" />
    </linearGradient>
    <linearGradient
       x1="86.133"
       y1="105.1"
       gradientTransform="matrix(0.2014,0,0,0.2014,3.1103,3.3117)"
       x2="84.639"
       gradientUnits="userSpaceOnUse"
       y2="20.895"
       id="linearGradient2868">
      <stop
         offset="0"
         style="stop-color:#fff"
         id="stop5130-4" />
      <stop
         offset="1"
         style="stop-color:#959595"
         id="stop5132-4" />
    </linearGradient>
    <linearGradient
       x1="25.923"
       y1="19"
       gradientTransform="matrix(0.93928,0.34315,-0.34315,0.93928,-1.7937,-25.634)"
       x2="25.923"
       gradientUnits="userSpaceOnUse"
       y2="47.045"
       id="linearGradient3328">
      <stop
         offset="0"
         style="stop-color:#aaa"
         id="stop3399-0" />
      <stop
         offset="1"
         style="stop-color:#8c8c8c"
         id="stop3401-3" />
    </linearGradient>
    <linearGradient
       x1="32.036"
       y1="19"
       gradientTransform="matrix(0.93928,0.34315,-0.34315,0.93928,-1.7937,-25.634)"
       x2="32.036"
       gradientUnits="userSpaceOnUse"
       y2="47.012"
       id="linearGradient3326">
      <stop
         offset="0"
         style="stop-color:#f6f6f6"
         id="stop3311-4" />
      <stop
         offset="1"
         style="stop-color:#d2d2d2"
         id="stop3313-8" />
    </linearGradient>
    <linearGradient
       x1="86.133"
       y1="105.1"
       gradientTransform="matrix(0.096142,0,0,0.096142,1.8469,1.943)"
       x2="84.639"
       gradientUnits="userSpaceOnUse"
       y2="20.895"
       id="linearGradient3260-5">
      <stop
         offset="0"
         style="stop-color:#e5e5e5"
         id="stop5130-1-7" />
      <stop
         offset="1"
         style="stop-color:#ababab"
         id="stop5132-1-6" />
    </linearGradient>
    <linearGradient
       x1="21"
       gradientTransform="translate(-17.058,0)"
       x2="21"
       gradientUnits="userSpaceOnUse"
       y2="16.005"
       id="linearGradient3264-1">
      <stop
         offset="0"
         style="stop-color:#aaa"
         id="stop3399-8-7" />
      <stop
         offset="1"
         style="stop-color:#8c8c8c"
         id="stop3401-1-6" />
    </linearGradient>
    <linearGradient
       x1="25"
       gradientTransform="translate(-17.058,0)"
       x2="25"
       gradientUnits="userSpaceOnUse"
       y2="16"
       id="linearGradient3262-4">
      <stop
         offset="0"
         style="stop-color:#f6f6f6"
         id="stop3311-2-5" />
      <stop
         offset="1"
         style="stop-color:#ccc"
         id="stop3313-9-0" />
    </linearGradient>
    <linearGradient
       x1="86.133"
       y1="105.1"
       gradientTransform="matrix(0.15623,0,0,0.15623,2.0012,2.1574)"
       x2="84.639"
       gradientUnits="userSpaceOnUse"
       y2="20.895"
       id="linearGradient3241-7">
      <stop
         offset="0"
         style="stop-color:#eee"
         id="stop5130-43-6" />
      <stop
         offset="1"
         style="stop-color:#a2a2a2"
         id="stop5132-0-3" />
    </linearGradient>
    <linearGradient
       x1="40"
       y1="1"
       gradientTransform="translate(-24.5,0)"
       x2="40"
       gradientUnits="userSpaceOnUse"
       y2="23.02"
       id="linearGradient3228-3">
      <stop
         offset="0"
         style="stop-color:#aaa"
         id="stop3399-7-8" />
      <stop
         offset="1"
         style="stop-color:#8c8c8c"
         id="stop3401-7-0" />
    </linearGradient>
    <linearGradient
       x1="34"
       y1="1"
       gradientTransform="translate(-24.5,0)"
       x2="34"
       gradientUnits="userSpaceOnUse"
       y2="23"
       id="linearGradient3218-6">
      <stop
         offset="0"
         style="stop-color:#f6f6f6"
         id="stop3311-8-6" />
      <stop
         offset="1"
         style="stop-color:#d2d2d2"
         id="stop3313-88-2" />
    </linearGradient>
    <linearGradient
       x1="86.133"
       y1="105.1"
       gradientTransform="matrix(0.2014,0,0,0.2014,3.1103,3.3117)"
       x2="84.639"
       gradientUnits="userSpaceOnUse"
       y2="20.895"
       id="linearGradient2868-4">
      <stop
         offset="0"
         style="stop-color:#fff"
         id="stop5130-4-7" />
      <stop
         offset="1"
         style="stop-color:#959595"
         id="stop5132-4-3" />
    </linearGradient>
    <linearGradient
       x1="25.923"
       y1="19"
       gradientTransform="matrix(0.93928,0.34315,-0.34315,0.93928,-1.7937,-25.634)"
       x2="25.923"
       gradientUnits="userSpaceOnUse"
       y2="47.045"
       id="linearGradient3328-9">
      <stop
         offset="0"
         style="stop-color:#aaa"
         id="stop3399-0-2" />
      <stop
         offset="1"
         style="stop-color:#8c8c8c"
         id="stop3401-3-3" />
    </linearGradient>
    <linearGradient
       x1="32.036"
       y1="19"
       gradientTransform="matrix(0.93928,0.34315,-0.34315,0.93928,-1.7937,-25.634)"
       x2="32.036"
       gradientUnits="userSpaceOnUse"
       y2="47.012"
       id="linearGradient3326-6">
      <stop
         offset="0"
         style="stop-color:#f6f6f6"
         id="stop3311-4-5" />
      <stop
         offset="1"
         style="stop-color:#d2d2d2"
         id="stop3313-8-4" />
    </linearGradient>
    <linearGradient
       inkscape:collect="always"
       xlink:href="#linearGradient4218"
       id="linearGradient4224"
       x1="12.564"
       y1="32.000001"
       x2="51.436"
       y2="32.000001"
       gradientUnits="userSpaceOnUse" />
    <linearGradient
       x1="12.579"
       y1="-7.8074"
       gradientTransform="matrix(0.95464,0,0,0.89653,1.0875,5.3852)"
       x2="12.579"
       gradientUnits="userSpaceOnUse"
       y2="41.827"
       id="linearGradient2852">
      <stop
         offset="0"
         style="stop-color:#fff"
         id="stop2240" />
      <stop
         offset="1"
         style="stop-color:#fff;stop-opacity:0"
         id="stop2242" />
    </linearGradient>
    <linearGradient
       x1="33.579"
       y1="5.7086"
       gradientTransform="matrix(0.81484,0,0,0.65962,-2.2595,3.234)"
       x2="33.579"
       gradientUnits="userSpaceOnUse"
       y2="16.323"
       id="linearGradient3636-65">
      <stop
         offset="0"
         style="stop-color:#fdfdf8"
         id="stop3793" />
      <stop
         offset="1"
         style="stop-color:#d6d3b4"
         id="stop3795" />
    </linearGradient>
    <linearGradient
       x1="16.916"
       y1="7.0006"
       x2="16.916"
       gradientUnits="userSpaceOnUse"
       y2="14"
       id="linearGradient3964">
      <stop
         offset="0"
         style="stop-color:#aeae94"
         id="stop3960" />
      <stop
         offset="1"
         style="stop-color:#626337"
         id="stop3962" />
    </linearGradient>
    <linearGradient
       x1="24.683"
       y1="9.2417"
       gradientTransform="matrix(0.95631,0,0,0.46801,1.055,9.6748)"
       x2="24.683"
       gradientUnits="userSpaceOnUse"
       y2="13.523"
       id="linearGradient3639">
      <stop
         offset="0"
         id="stop3284" />
      <stop
         offset="1"
         style="stop-opacity:0"
         id="stop3286" />
    </linearGradient>
    <linearGradient
       x1="16.626"
       y1="15.298"
       gradientTransform="matrix(0.95782,0,0,1.0183,1.0122,1.9221)"
       x2="20.055"
       gradientUnits="userSpaceOnUse"
       y2="24.628"
       id="linearGradient2849">
      <stop
         offset="0"
         style="stop-color:#fff"
         id="stop2687" />
      <stop
         offset="1"
         style="stop-color:#fff;stop-opacity:0"
         id="stop2689" />
    </linearGradient>
    <radialGradient
       r="23"
       gradientTransform="matrix(-1.8188e-8,-1.0657,1.3967,0,35.965,58.559)"
       cx="26.617"
       cy="-2.0645"
       gradientUnits="userSpaceOnUse"
       id="radialGradient3966">
      <stop
         offset="0"
         style="stop-color:#d78ec1"
         id="stop2749" />
      <stop
         offset=".26238"
         style="stop-color:#c564be"
         id="stop2751" />
      <stop
         offset=".66094"
         style="stop-color:#9d3ea4"
         id="stop2753" />
      <stop
         offset="1"
         style="stop-color:#5e2c73"
         id="stop2755" />
    </radialGradient>
    <linearGradient
       x1="10.014"
       y1="44.96"
       gradientTransform="matrix(0.95745,0,0,0.90347,1.0212,4.3056)"
       x2="10.014"
       gradientUnits="userSpaceOnUse"
       y2="2.8765"
       id="linearGradient2857">
      <stop
         offset="0"
         style="stop-color:#650d5c"
         id="stop2759" />
      <stop
         offset="1"
         style="stop-color:#ad53a5"
         id="stop2761" />
    </linearGradient>
    <radialGradient
       r="117.14"
       gradientTransform="matrix(-0.065534,0,0,0.024706,47.673,31.942)"
       cx="605.71"
       cy="486.65"
       gradientUnits="userSpaceOnUse"
       xlink:href="#linearGradient6221"
       id="radialGradient2782" />
    <radialGradient
       r="117.14"
       gradientTransform="matrix(0.065534,0,0,0.024706,0.32688,31.942)"
       cx="605.71"
       cy="486.65"
       gradientUnits="userSpaceOnUse"
       xlink:href="#linearGradient6221"
       id="radialGradient2785" />
    <linearGradient
       x1="302.86"
       y1="366.65"
       gradientTransform="matrix(0.065534,0,0,0.024706,0.31399,31.942)"
       x2="302.86"
       gradientUnits="userSpaceOnUse"
       y2="609.51"
       id="linearGradient2788">
      <stop
         offset="0"
         style="stop-opacity:0"
         id="stop5050-5" />
      <stop
         offset=".5"
         id="stop5056-9" />
      <stop
         offset="1"
         style="stop-opacity:0"
         id="stop5052-6" />
    </linearGradient>
    <linearGradient
       x1="-6.3078"
       y1="44.229"
       gradientTransform="matrix(0.50045,-0.49965,0.84917,0.84785,0.80738,-6.9351)"
       x2="-9.7747"
       gradientUnits="userSpaceOnUse"
       xlink:href="#linearGradient6221"
       y2="44.14"
       id="linearGradient4665" />
    <linearGradient
       id="linearGradient6221">
      <stop
         offset="0"
         id="stop6223" />
      <stop
         offset="1"
         style="stop-opacity:0"
         id="stop6225" />
    </linearGradient>
    <linearGradient
       x1="97.442"
       y1="35.152"
       gradientTransform="matrix(0.82274,-0.82219,0.71961,0.71912,-71.184,83.621)"
       x2="90.221"
       gradientUnits="userSpaceOnUse"
       y2="35.079"
       id="linearGradient4668">
      <stop
         offset="0"
         style="stop-color:#f8b17e"
         id="stop4958" />
      <stop
         offset=".26238"
         style="stop-color:#e35d4f"
         id="stop4960" />
      <stop
         offset=".66347"
         style="stop-color:#c6262e"
         id="stop4962" />
      <stop
         offset="1"
         style="stop-color:#690b54"
         id="stop4964" />
    </linearGradient>
    <linearGradient
       x1="29.278"
       y1="34.023"
       gradientTransform="translate(0.91859,2.0745)"
       x2="36.001"
       gradientUnits="userSpaceOnUse"
       y2="27.273"
       id="linearGradient4972">
      <stop
         offset="0"
         style="stop-color:#791235"
         id="stop2492" />
      <stop
         offset="1"
         style="stop-color:#dd3b27"
         id="stop2494" />
    </linearGradient>
    <radialGradient
       r="12.728"
       gradientTransform="matrix(0.23695,0,0,0.090597,36.781,43.759)"
       cx="21.96"
       cy="34.498"
       gradientUnits="userSpaceOnUse"
       xlink:href="#linearGradient6221"
       id="radialGradient2912" />
    <radialGradient
       r="12.728"
       gradientTransform="matrix(0.5406,0,0,0.16183,29.247,40.449)"
       cx="21.96"
       cy="34.498"
       gradientUnits="userSpaceOnUse"
       xlink:href="#linearGradient6221"
       id="radialGradient2915" />
    <linearGradient
       x1="326.6"
       y1="75.575"
       gradientTransform="matrix(1.363,0,0,1.3617,-402.9,-65.884)"
       x2="317.16"
       gradientUnits="userSpaceOnUse"
       y2="88.006"
       id="linearGradient4758">
      <stop
         offset="0"
         style="stop-color:#fff"
         id="stop7423" />
      <stop
         offset="1"
         style="stop-color:#fff;stop-opacity:0"
         id="stop7425" />
    </linearGradient>
    <linearGradient
       x1="302.29"
       y1="58.443"
       gradientTransform="matrix(1.363,0,0,1.3617,-402.9,-65.884)"
       x2="308.65"
       gradientUnits="userSpaceOnUse"
       y2="60.768"
       id="linearGradient4734">
      <stop
         offset="0"
         style="stop-color:#babdb6"
         id="stop7383" />
      <stop
         offset="1"
         style="stop-color:#fff"
         id="stop7385" />
    </linearGradient>
    <linearGradient
       x1="304.76"
       y1="64.295"
       gradientTransform="matrix(1.363,0,0,1.3617,-402.9,-65.884)"
       x2="335.3"
       gradientUnits="userSpaceOnUse"
       y2="81.926"
       id="linearGradient2958">
      <stop
         offset="0"
         style="stop-color:#d3d7cf"
         id="stop4436" />
      <stop
         offset=".18304"
         style="stop-color:#babdb6"
         id="stop4438" />
      <stop
         offset=".31893"
         style="stop-color:#fff"
         id="stop4440" />
      <stop
         offset=".87644"
         style="stop-color:#babdb6"
         id="stop4442" />
      <stop
         offset="1"
         style="stop-color:#eeeeec"
         id="stop4444" />
    </linearGradient>
    <linearGradient
       x1="324.5"
       y1="70.282"
       gradientTransform="matrix(1.363,0,0,1.3617,-402.9,-65.884)"
       x2="330.06"
       gradientUnits="userSpaceOnUse"
       y2="99.274"
       id="linearGradient2960">
      <stop
         offset="0"
         style="stop-color:#888a85"
         id="stop7446" />
      <stop
         offset="1"
         style="stop-color:#555753"
         id="stop7448" />
    </linearGradient>
    <linearGradient
       x1="14.018"
       y1="36.943"
       gradientTransform="matrix(2.7784,-0.054815,0.054815,2.7784,-6.883,-3.8866)"
       x2="15.416"
       gradientUnits="userSpaceOnUse"
       y2="38.268"
       id="linearGradient2719-69-752-179-525">
      <stop
         offset="0"
         id="stop3205" />
      <stop
         offset="1"
         style="stop-opacity:0"
         id="stop3207" />
    </linearGradient>
    <linearGradient
       x1="12.005"
       y1="35.688"
       gradientTransform="matrix(3.1871,-0.083424,0.083424,3.1871,-8.6874,-16.508)"
       x2="10.651"
       gradientUnits="userSpaceOnUse"
       y2="33.195"
       id="linearGradient2723-207-870-812-510">
      <stop
         offset="0"
         style="stop-color:#bababa"
         id="stop3211" />
      <stop
         offset="1"
         style="stop-color:#bababa;stop-opacity:0"
         id="stop3213" />
    </linearGradient>
    <linearGradient
       x1="9.7503"
       y1="32.284"
       gradientTransform="matrix(2.779,0,0,2.779,-5.7018,-1.0396)"
       x2="16.915"
       gradientUnits="userSpaceOnUse"
       y2="39.443"
       id="linearGradient2727-611-236-922-438">
      <stop
         offset="0"
         style="stop-color:#484848"
         id="stop3193" />
      <stop
         offset="0"
         style="stop-color:#878787"
         id="stop3195" />
      <stop
         offset="0"
         style="stop-color:#6b6b6b"
         id="stop3197" />
      <stop
         offset=".75"
         style="stop-color:#4d4d4d"
         id="stop3199" />
      <stop
         offset="1"
         style="stop-color:#4e4e4e"
         id="stop3201" />
    </linearGradient>
    <linearGradient
       x1="31.177"
       y1="19.822"
       gradientTransform="matrix(3.1641,0,0,3.1641,-13.729,-16.758)"
       x2="40.859"
       gradientUnits="userSpaceOnUse"
       y2="9.6569"
       id="linearGradient2730">
      <stop
         offset="0"
         style="stop-color:#b9b9b9"
         id="stop2252" />
      <stop
         offset="1"
         style="stop-color:#fff;stop-opacity:0"
         id="stop2254" />
    </linearGradient>
    <linearGradient
       x1="39.98"
       y1="3.4716"
       gradientTransform="matrix(2.779,0,0,2.779,-4.7193,0.92543)"
       x2="39.98"
       gradientUnits="userSpaceOnUse"
       y2="14.369"
       id="linearGradient2733">
      <stop
         offset="0"
         style="stop-color:#d8d8d8"
         id="stop5548" />
      <stop
         offset="1"
         style="stop-color:#fff"
         id="stop5550" />
    </linearGradient>
    <linearGradient
       x1="64"
       y1="21.523"
       gradientTransform="matrix(0.99032,0,0,0.98867,0.63563,-0.95317)"
       x2="64"
       gradientUnits="userSpaceOnUse"
       xlink:href="#XMLID_6_"
       y2="103.07"
       id="linearGradient2436" />
    <linearGradient
       x1="64"
       y1="21.523"
       x2="64"
       gradientUnits="userSpaceOnUse"
       xlink:href="#XMLID_5_"
       y2="103.07"
       id="XMLID_6_">
      <stop
         offset="0"
         style="stop-color:#d9d9d9"
         id="stop31" />
      <stop
         offset="1"
         style="stop-color:#ccc"
         id="stop33" />
    </linearGradient>
    <linearGradient
       x1="64"
       y1="21.941"
       x2="64"
       gradientUnits="userSpaceOnUse"
       y2="104.06"
       id="XMLID_5_">
      <stop
         offset="0"
         style="stop-color:#dadada"
         id="stop24" />
      <stop
         offset="1"
         style="stop-color:#ccc"
         id="stop26" />
    </linearGradient>
    <linearGradient
       x1="49.273"
       y1="22.275"
       gradientTransform="matrix(0.99032,0,0,0.98867,0.63563,-0.95317)"
       x2="49.374"
       gradientUnits="userSpaceOnUse"
       xlink:href="#XMLID_6_"
       y2="102.05"
       id="linearGradient2438" />
    <linearGradient
       x1="64"
       y1="21.941"
       gradientTransform="matrix(0.85808,0,0,0.85665,9.0991,8.1142)"
       x2="64"
       gradientUnits="userSpaceOnUse"
       xlink:href="#XMLID_5_"
       y2="104.06"
       id="linearGradient2441" />
    <linearGradient
       x1="86.133"
       y1="105.1"
       gradientTransform="matrix(0.85808,0,0,0.85665,9.0991,8.1142)"
       x2="84.639"
       gradientUnits="userSpaceOnUse"
       y2="20.895"
       id="linearGradient2443">
      <stop
         offset="0"
         style="stop-color:#fff"
         id="stop5130" />
      <stop
         offset="1"
         style="stop-color:#959595"
         id="stop5132" />
    </linearGradient>
    <linearGradient
       x1="64"
       y1="6.8743"
       x2="64"
       gradientUnits="userSpaceOnUse"
       y2="117.23"
       id="linearGradient3226">
      <stop
         offset="0"
         style="stop-color:#f2f2f2"
         id="stop11" />
      <stop
         offset="1"
         style="stop-color:#d8d8d8"
         id="stop13" />
    </linearGradient>
    <radialGradient
       r="7.2284"
       gradientTransform="scale(1.9022,0.5257)"
       cx="6.7027"
       cy="73.616"
       gradientUnits="userSpaceOnUse"
       id="radialGradient2693">
      <stop
         offset="0"
         id="stop10693" />
      <stop
         offset="1"
         style="stop-opacity:0"
         id="stop10695" />
    </radialGradient>
  </defs>
  <sodipodi:namedview
     id="base"
     pagecolor="#ffffff"
     bordercolor="#666666"
     borderopacity="1.0"
     inkscape:pageopacity="0.0"
     inkscape:pageshadow="2"
     inkscape:zoom="15.285625"
     inkscape:cx="32.475367"
     inkscape:cy="31.897688"
     inkscape:current-layer="layer1"
     showgrid="true"
     inkscape:document-units="px"
     inkscape:grid-bbox="true"
     inkscape:window-width="1600"
     inkscape:window-height="1176"
     inkscape:window-x="0"
     inkscape:window-y="24"
     inkscape:window-maximized="1" />
  <metadata
     id="metadata2990">
    <rdf:RDF>
      <cc:Work
         rdf:about="">
        <dc:format>image/svg+xml</dc:format>
        <dc:type
           rdf:resource="http://purl.org/dc/dcmitype/StillImage" />
        <dc:title></dc:title>
      </cc:Work>
    </rdf:RDF>
  </metadata>
  <g
     id="layer1"
     inkscape:label="Layer 1"
     inkscape:groupmode="layer">
    <text
       xml:space="preserve"
       style="font-size:90px;font-style:normal;font-weight:normal;line-height:125%;letter-spacing:0px;word-spacing:0px;fill:#77216f;fill-opacity:1;stroke:none;font-family:Sans"
       x="1.5153668"
       y="-49.887688"
       id="text2993"
       sodipodi:linespacing="125%"><tspan
         sodipodi:role="line"
         id="tspan2995"
         x="1.5153668"
         y="-49.887688"
         style="font-size:90px;font-style:normal;font-variant:normal;font-weight:normal;font-stretch:normal;fill:#77216f;fill-opacity:1;stroke:none;font-family:Ubuntu;-inkscape-font-specification:Ubuntu"></tspan><tspan
         sodipodi:role="line"
         x="1.5153668"
         y="62.612312"
         style="font-size:90px;font-style:normal;font-variant:normal;font-weight:normal;font-stretch:normal;fill:#77216f;fill-opacity:1;stroke:none;font-family:Ubuntu;-inkscape-font-specification:Ubuntu"
         id="tspan3837">U</tspan></text>
    <flowRoot
       xml:space="preserve"
       id="flowRoot2997"
       style="fill:black;stroke:none;stroke-opacity:1;stroke-width:1px;stroke-linejoin:miter;stroke-linecap:butt;fill-opacity:1;font-family:Sans;font-style:normal;font-weight:normal;font-size:3px;line-height:125%;letter-spacing:0px;word-spacing:0px"><flowRegion
         id="flowRegion2999"><rect
           id="rect3001"
           width="33.248459"
           height="3.6796715"
           x="9.9876795"
           y="24.706366" /></flowRegion><flowPara
         id="flowPara3003" /></flowRoot>    <flowRoot
       xml:space="preserve"
       id="flowRoot21556"
       style="fill:black;stroke:none;stroke-opacity:1;stroke-width:1px;stroke-linejoin:miter;stroke-linecap:butt;fill-opacity:1;font-family:Sans;font-style:normal;font-weight:normal;font-size:3px;line-height:125%;letter-spacing:0px;word-spacing:0px"><flowRegion
         id="flowRegion21558"><rect
           id="rect21560"
           width="22.603697"
           height="21.815195"
           x="34.956879"
           y="108.22176" /></flowRegion><flowPara
         id="flowPara21562"></flowPara></flowRoot>    <flowRoot
       xml:space="preserve"
       id="flowRoot21583"
       style="fill:black;stroke:none;stroke-opacity:1;stroke-width:1px;stroke-linejoin:miter;stroke-linecap:butt;fill-opacity:1;font-family:Sans;font-style:normal;font-weight:normal;font-size:3px;line-height:125%;letter-spacing:0px;word-spacing:0px"><flowRegion
         id="flowRegion21585"><rect
           id="rect21587"
           width="0.98562628"
           height="12.944558"
           x="65.445587"
           y="48.95277" /></flowRegion><flowPara
         id="flowPara21589"></flowPara></flowRoot>    <g
       id="layer1-0"
       transform="matrix(0.64687191,0,0,0.64687191,16.950512,16.40153)">
      <path
         transform="matrix(1.6,0,0,1.8447,3.6,-30.399)"
         d="m 26.5,38.7 a 13.75,3.8 0 1 1 -27.5,0 13.75,3.8 0 1 1 27.5,0 z"
         style="opacity:0.4;fill:url(#radialGradient2693)"
         id="path10689"
         inkscape:connector-curvature="0" />
      <path
         transform="scale(0.375,0.375)"
         d="m 117.44,48.543 h -4.5238 c -1.221,0 -2.6327,-1.0144 -3.0209,-2.1695 -0.0216,-0.06005 -2.8076,-6.7928 -2.8076,-6.7928 -0.57335,-1.1514 -0.29608,-2.862 0.56678,-3.7244 l 3.1986,-3.1932 c 0.73502,-0.73474 1.1411,-1.7144 1.1411,-2.7588 0,-1.0444 -0.40604,-2.024 -1.1411,-2.7578 l -12.596,-12.573 c -0.73502,-0.7338 -1.7163,-1.1382 -2.7624,-1.1392 -1.0461,0 -2.0274,0.40444 -2.7624,1.1392 l -3.1986,3.1932 c -0.86285,0.86048 -2.5773,1.1382 -3.6685,0.59398 -0.061,-0.028 -6.805,-2.808 -6.805,-2.808 -1.219,-0.41 -2.235,-1.82 -2.235,-3.039 v -4.5173 c -0.002,-2.1515 -1.755,-3.9015 -3.91,-3.9015 h -17.81 c -2.1552,0 -3.9082,1.75 -3.9082,3.9017 v 4.5173 c 0,1.2189 -1.0161,2.6284 -2.1731,3.0159 -0.06016,0.02252 -6.8041,2.8029 -6.8041,2.8029 -1.1533,0.5724 -2.8677,0.29464 -3.7306,-0.56677 l -3.1986,-3.1923 c -0.73596,-0.73474 -1.7172,-1.1392 -2.7634,-1.1392 -1.0461,0 -2.0274,0.40537 -2.7624,1.1392 l -12.594,12.573 c -1.5236,1.5211 -1.5236,3.9955 0,5.5166 l 3.1986,3.1932 c 0.86191,0.86142 1.1401,2.573 0.59497,3.6624 -0.0282,0.06099 -2.8141,6.7937 -2.8141,6.7937 -0.41075,1.2161 -1.8216,2.2295 -3.0425,2.2295 h -3.3518 c -2.1543,9.39e-4 -5.0803,1.751 -5.0803,3.9026 v 17.779 c 0,2.1517 1.753,3.9017 3.9082,3.9017 h 4.5248 c 1.221,0 2.6327,1.0134 3.02,2.1695 0.02256,0.06006 2.8085,6.7928 2.8085,6.7928 0.57335,1.1514 0.29514,2.862 -0.56677,3.7244 l -3.1986,3.1932 c -1.5236,1.5211 -1.5236,3.9955 0,5.5166 l 12.595,12.573 c 0.73502,0.73381 1.7163,1.1392 2.7624,1.1392 1.0471,0 2.0284,-0.40538 2.7634,-1.1392 l 3.1986,-3.1932 c 0.86285,-0.86047 2.5773,-1.1382 3.6685,-0.59399 0.06109,0.0281 6.805,2.8095 6.805,2.8095 1.2172,0.41006 2.2333,1.8186 2.2333,3.0375 v 4.5163 c 0,2.1517 1.753,3.9017 3.9082,3.9017 h 17.809 c 2.1543,0 3.9073,-1.75 3.9073,-3.9017 v -4.5163 c 0,-1.2189 1.0161,-2.6284 2.174,-3.0159 0.06015,-0.0216 6.8041,-2.8029 6.8041,-2.8029 1.1533,-0.57241 2.8686,-0.29557 3.7306,0.56584 l 3.1986,3.1932 c 0.73502,0.73381 1.7163,1.1392 2.7624,1.1392 1.0461,0 2.0274,-0.40538 2.7624,-1.1392 l 12.594,-12.573 c 0.73503,-0.7338 1.1411,-1.7134 1.1411,-2.7578 0,-1.0444 -0.40604,-2.024 -1.1411,-2.7578 l -3.1986,-3.1932 c -0.86285,-0.86142 -1.1401,-2.573 -0.59497,-3.6624 0.0282,-0.06099 2.8141,-6.7937 2.8141,-6.7937 0.41075,-1.2152 1.8216,-2.2295 3.0425,-2.2295 h 4.5238 c 2.1552,0 3.9082,-1.75 3.9082,-3.9017 v -17.781 c 0.003,-2.1517 -1.7501,-3.9017 -3.9054,-3.9017 z M 64.018,77.935 c -9.169,0 -16.629,-7.4468 -16.629,-16.601 0,-9.1537 7.4602,-16.601 16.629,-16.601 9.1699,0 16.628,7.4478 16.628,16.601 0,9.1547 -7.4583,16.601 -16.628,16.601 z"
         style="opacity:0.1;fill:#030303;stroke-width:2.66669989"
         id="path6"
         inkscape:connector-curvature="0" />
      <path
         transform="scale(0.375,0.375)"
         d="m 117.43,48.521 h -4.5239 c -1.221,0 -2.6327,-1.0162 -3.0209,-2.1732 -0.0216,-0.06006 -2.8076,-6.8031 -2.8076,-6.8031 -0.57335,-1.1532 -0.29607,-2.8667 0.56678,-3.73 l 3.1986,-3.1989 c 0.73502,-0.73568 1.1411,-1.7172 1.1411,-2.7635 0,-1.0453 -0.40606,-2.0269 -1.1411,-2.7625 l -12.602,-12.594 c -0.73502,-0.73568 -1.7163,-1.141 -2.7624,-1.141 -1.0461,0 -2.0274,0.40537 -2.7624,1.141 l -3.1986,3.1979 c -0.86285,0.86235 -2.5773,1.1401 -3.6685,0.59492 -0.0611,-0.02815 -6.805,-2.8132 -6.805,-2.8132 -1.2181,-0.411 -2.2342,-1.8223 -2.2342,-3.0431 v -4.5248 c -0.003,-2.1559 -1.755,-3.9088 -3.91,-3.9088 h -17.81 c -2.1552,0 -3.9082,1.7529 -3.9082,3.9083 v 4.5248 c 0,1.2208 -1.0161,2.633 -2.1731,3.0206 -0.06016,0.02252 -6.8041,2.8076 -6.8041,2.8076 -1.1533,0.57334 -2.8677,0.29558 -3.7306,-0.56677 l -3.198,-3.197 c -0.73596,-0.73568 -1.7172,-1.141 -2.7634,-1.141 -1.0461,0 -2.0274,0.40631 -2.7624,1.141 l -12.595,12.594 c -1.5236,1.5239 -1.5236,4.0031 0,5.526 l 3.1986,3.1989 c 0.86191,0.86236 1.1401,2.5767 0.59497,3.669 -0.0282,0.06099 -2.8141,6.805 -2.8141,6.805 -0.41074,1.218 -1.8216,2.2333 -3.0425,2.2333 h -3.3518 c -2.1539,-10e-4 -5.0799,1.752 -5.0799,3.907 v 17.809 c 0,2.1545 1.753,3.9073 3.9082,3.9073 h 4.5248 c 1.221,0 2.6327,1.0153 3.02,2.1732 0.02256,0.06005 2.8085,6.8031 2.8085,6.8031 0.57336,1.1532 0.29514,2.8676 -0.56677,3.7309 l -3.1986,3.1989 c -1.5236,1.523 -1.5236,4.0031 0,5.526 l 12.595,12.594 c 0.73502,0.73567 1.7163,1.141 2.7624,1.141 1.0471,0 2.0284,-0.40536 2.7634,-1.141 l 3.1986,-3.198 c 0.86285,-0.86236 2.5773,-1.1411 3.6685,-0.59492 0.06109,0.0272 6.805,2.8132 6.805,2.8132 1.2172,0.411 2.2333,1.8214 2.2333,3.0431 v 4.5238 c 0,2.1554 1.753,3.9083 3.9082,3.9083 h 17.809 c 2.1543,0 3.9073,-1.7529 3.9073,-3.9083 v -4.5238 c 0,-1.2218 1.0161,-2.633 2.174,-3.0215 0.06016,-0.0216 6.8041,-2.8076 6.8041,-2.8076 1.1533,-0.57335 2.8686,-0.29465 3.7306,0.56678 l 3.1986,3.1979 c 0.73502,0.73569 1.7163,1.141 2.7624,1.141 1.0461,0 2.0274,-0.40535 2.7624,-1.141 l 12.594,-12.593 c 0.73503,-0.73474 1.1411,-1.7163 1.1411,-2.7625 0,-1.0463 -0.40604,-2.0278 -1.1411,-2.7625 l -3.1986,-3.1989 c -0.86284,-0.86235 -1.1401,-2.5777 -0.59497,-3.6681 0.0282,-0.06193 2.8141,-6.805 2.8141,-6.805 0.41075,-1.2189 1.8216,-2.2342 3.0426,-2.2342 h 4.5238 c 2.1552,0 3.9082,-1.7529 3.9082,-3.9073 v -17.809 c 0.003,-2.1554 -1.7501,-3.9083 -3.9054,-3.9083 z M 64.001,79.248 c -9.9472,0 -18.039,-8.0784 -18.039,-18.008 0,-9.9307 8.0918,-18.009 18.039,-18.009 9.9463,0 18.038,8.0784 18.038,18.009 0,9.9297 -8.0918,18.008 -18.038,18.008 z"
         style="fill:url(#linearGradient3226);stroke:#888888;stroke-width:2.66549993;stroke-linecap:round;stroke-linejoin:round"
         id="path8"
         inkscape:connector-curvature="0" />
      <path
         transform="scale(0.375,0.375)"
         d="m 64.016,26.442 c -19.685,0 -35.7,15.989 -35.7,35.641 0,19.652 16.015,35.641 35.7,35.641 19.685,0 35.7,-15.989 35.7,-35.641 0,-19.652 -16.015,-35.641 -35.7,-35.641 z m 0,61.855 c -14.502,0 -26.257,-11.734 -26.257,-26.214 0,-14.479 11.755,-26.214 26.257,-26.214 14.502,0 26.257,11.735 26.257,26.214 0,14.478 -11.755,26.214 -26.257,26.214 z"
         style="fill:url(#linearGradient2441);stroke:url(#linearGradient2443);stroke-width:2.66549993"
         id="path28"
         inkscape:connector-curvature="0" />
      <path
         transform="scale(0.375,0.375)"
         d="m 64.016,30.684 c -16.955,0 -30.7,13.722 -30.7,30.649 0,16.927 13.745,30.649 30.7,30.649 16.955,0 30.7,-13.722 30.7,-30.649 0,-16.927 -13.745,-30.649 -30.7,-30.649 z m 0,50.917 c -11.213,0 -20.302,-9.0741 -20.302,-20.268 0,-11.195 9.0882,-20.268 20.302,-20.268 11.212,0 20.302,9.0731 20.302,20.268 0,11.194 -9.0892,20.268 -20.302,20.268 z"
         style="fill:url(#linearGradient2436);stroke:url(#linearGradient2438);stroke-width:2.66549993"
         id="path35"
         inkscape:connector-curvature="0" />
      <path
         transform="scale(0.375,0.375)"
         d="M 57.46,78.563 C 60.098,76.302 99.492,36.01 99.492,36.01 l 9.7264,-0.69475 15.284,-21.19 -12.734,-11.344 -19.8,17.021 v 9.7264 l -40.295,41.858 c -1.9105,1.9106 3.3545,9.2598 5.7861,7.1756 z"
         style="fill:url(#linearGradient2733);stroke:#888a85;stroke-width:2.66669989;stroke-linejoin:round"
         id="path2144"
         inkscape:connector-curvature="0" />
      <path
         transform="scale(0.375,0.375)"
         d="M 57.154,75.273 C 59.2005,73.5189 98.365,33.412 98.365,33.412 l 9.2665,-0.7847 13.333,-17.916 -9.1435,-8.0654 -17.329,14.927 0.49126,9.0208 -40.109,42.059 c -1.4825,1.4825 0.39223,4.2375 2.279,2.6203 z"
         style="opacity:0.53977003;fill:none;stroke:url(#linearGradient2730);stroke-width:2.66669989;stroke-linejoin:round"
         id="path3085"
         inkscape:connector-curvature="0" />
      <path
         transform="scale(0.375,0.375)"
         d="m 13.056,121.24 c 4.1659,4.6362 15.737,6.7338 20.869,-2.2463 2.2374,-3.9154 6.6255,-14.88 26.203,-32.5 3.288,-2.9559 6.771,-9.7175 3.8183,-13.365 l -7.6422,-7.6422 c -3.1264,-3.4737 -11.816,-1.8534 -15.381,3.0087 -10.628,14.543 -27.99,26.12 -31.906,27.518 -7.4924,2.6759 -6.6492,13.72 -1.6923,18.974 l 5.7316,6.2527 z"
         style="fill:url(#linearGradient2727-611-236-922-438);stroke:#373737;stroke-width:2.66669989;stroke-linecap:round;stroke-linejoin:round"
         id="path2142"
         inkscape:connector-curvature="0" />
      <path
         transform="matrix(0.67738,0,0,0.67738,5.7143,7.0658)"
         d="m 20.771,28.201 a 1.7678,1.7678 0 1 1 -3.5355,0 1.7678,1.7678 0 1 1 3.5355,0 z"
         style="opacity:0.60227003;fill:#bababa"
         id="path3101"
         inkscape:connector-curvature="0" />
      <path
         transform="scale(0.375,0.375)"
         d="m 45.374,76.979 c 0,0 -22.687,23.097 -33.314,27.012"
         style="fill:none;stroke:url(#linearGradient2723-207-870-812-510);stroke-width:2.66669989;stroke-linecap:round;stroke-linejoin:round"
         id="path3103"
         inkscape:connector-curvature="0" />
      <path
         transform="scale(0.375,0.375)"
         d="m 14.134,117.68 c 4.5604,5.5234 14.554,6.8384 17.691,-1.1726 2.1558,-5.5041 10.548,-17.927 25.938,-31.779 2.5848,-2.3237 5.3229,-7.6393 3.0017,-10.507 l -6.0078,-6.0078 c -2.4577,-2.7308 -9.2892,-1.457 -12.092,2.3652 -8.3547,11.433 -26.843,26.388 -31.312,27.862 -6.9193,2.2833 -5.6227,10.193 -1.7259,14.323 l 4.5058,4.9155 z"
         style="opacity:0.19886002;fill:none;stroke:#bababa;stroke-width:2.66669989"
         id="path2270"
         inkscape:connector-curvature="0" />
      <path
         transform="scale(0.375,0.375)"
         d="m 52.163,82.156 c 0,0 -23.17,20.938 -28.204,34.363"
         style="opacity:0.27841001;fill:none;stroke:url(#linearGradient2719-69-752-179-525);stroke-width:2.66669989;stroke-linecap:round;stroke-linejoin:round"
         id="path2247"
         inkscape:connector-curvature="0" />
    </g>
  </g>
</svg>
