solid
 facet normal  7.066562e-01 -7.066562e-01  3.569233e-02
   outer loop
     vertex -1.354454e+01  2.586687e+01  3.566959e-01
     vertex -1.353553e+01  2.585786e+01 -1.224647e-15
     vertex  3.535534e+00  4.292893e+01 -1.224647e-15
   endloop
 endfacet
 facet normal  7.066562e-01 -7.066562e-01  3.569233e-02
   outer loop
     vertex -1.354454e+01  2.586687e+01  3.566959e-01
     vertex  3.535534e+00  4.292893e+01 -1.224647e-15
     vertex  3.526526e+00  4.293794e+01  3.566959e-01
   endloop
 endfacet
 facet normal  7.030553e-01 -7.030553e-01  1.068951e-01
   outer loop
     vertex -1.354454e+01  2.586687e+01  3.566959e-01
     vertex  3.526526e+00  4.293794e+01  3.566959e-01
     vertex  3.499547e+00  4.296492e+01  7.115742e-01
   endloop
 endfacet
 facet normal  7.030553e-01 -7.030553e-01  1.068951e-01
   outer loop
     vertex -1.357152e+01  2.589385e+01  7.115742e-01
     vertex -1.354454e+01  2.586687e+01  3.566959e-01
     vertex  3.499547e+00  4.296492e+01  7.115742e-01
   endloop
 endfacet
 facet normal  6.958717e-01 -6.958717e-01  1.775532e-01
   outer loop
     vertex -1.361633e+01  2.593866e+01  1.062826e+00
     vertex  3.499547e+00  4.296492e+01  7.115742e-01
     vertex  3.454736e+00  4.300973e+01  1.062826e+00
   endloop
 endfacet
 facet normal  6.958717e-01 -6.958717e-01  1.775532e-01
   outer loop
     vertex -1.361633e+01  2.593866e+01  1.062826e+00
     vertex -1.357152e+01  2.589385e+01  7.115742e-01
     vertex  3.499547e+00  4.296492e+01  7.115742e-01
   endloop
 endfacet
 facet normal  6.851421e-01 -6.851421e-01  2.473065e-01
   outer loop
     vertex -1.367875e+01  2.600108e+01  1.408663e+00
     vertex  3.454736e+00  4.300973e+01  1.062826e+00
     vertex  3.392320e+00  4.307215e+01  1.408663e+00
   endloop
 endfacet
 facet normal  6.851421e-01 -6.851421e-01  2.473065e-01
   outer loop
     vertex -1.367875e+01  2.600108e+01  1.408663e+00
     vertex -1.361633e+01  2.593866e+01  1.062826e+00
     vertex  3.454736e+00  4.300973e+01  1.062826e+00
   endloop
 endfacet
 facet normal  6.709212e-01 -6.709212e-01  3.157996e-01
   outer loop
     vertex -1.375845e+01  2.608078e+01  1.747321e+00
     vertex  3.392320e+00  4.307215e+01  1.408663e+00
     vertex  3.312618e+00  4.315185e+01  1.747321e+00
   endloop
 endfacet
 facet normal  6.709212e-01 -6.709212e-01  3.157996e-01
   outer loop
     vertex -1.375845e+01  2.608078e+01  1.747321e+00
     vertex -1.367875e+01  2.600108e+01  1.408663e+00
     vertex  3.392320e+00  4.307215e+01  1.408663e+00
   endloop
 endfacet
 facet normal  6.532815e-01 -6.532815e-01  3.826834e-01
   outer loop
     vertex -1.385503e+01  2.617736e+01  2.077075e+00
     vertex -1.375845e+01  2.608078e+01  1.747321e+00
     vertex  3.312618e+00  4.315185e+01  1.747321e+00
   endloop
 endfacet
 facet normal  6.532815e-01 -6.532815e-01  3.826834e-01
   outer loop
     vertex -1.385503e+01  2.617736e+01  2.077075e+00
     vertex  3.312618e+00  4.315185e+01  1.747321e+00
     vertex  3.216035e+00  4.324843e+01  2.077075e+00
   endloop
 endfacet
 facet normal  6.323128e-01 -6.323128e-01  4.476172e-01
   outer loop
     vertex -1.396800e+01  2.629033e+01  2.396245e+00
     vertex -1.385503e+01  2.617736e+01  2.077075e+00
     vertex  3.216035e+00  4.324843e+01  2.077075e+00
   endloop
 endfacet
 facet normal  6.323128e-01 -6.323128e-01  4.476172e-01
   outer loop
     vertex -1.396800e+01  2.629033e+01  2.396245e+00
     vertex  3.216035e+00  4.324843e+01  2.077075e+00
     vertex  3.103064e+00  4.336140e+01  2.396245e+00
   endloop
 endfacet
 facet normal  6.081219e-01 -6.081219e-01  5.102700e-01
   outer loop
     vertex -1.409679e+01  2.641912e+01  2.703204e+00
     vertex -1.396800e+01  2.629033e+01  2.396245e+00
     vertex  3.103064e+00  4.336140e+01  2.396245e+00
   endloop
 endfacet
 facet normal  6.081219e-01 -6.081219e-01  5.102700e-01
   outer loop
     vertex -1.409679e+01  2.641912e+01  2.703204e+00
     vertex  3.103064e+00  4.336140e+01  2.396245e+00
     vertex  2.974280e+00  4.349019e+01  2.703204e+00
   endloop
 endfacet
 facet normal  5.808322e-01 -5.808322e-01  5.703226e-01
   outer loop
     vertex -1.409679e+01  2.641912e+01  2.703204e+00
     vertex  2.974280e+00  4.349019e+01  2.703204e+00
     vertex  2.830341e+00  4.363413e+01  2.996388e+00
   endloop
 endfacet
 facet normal  5.808322e-01 -5.808322e-01  5.703226e-01
   outer loop
     vertex -1.424073e+01  2.656306e+01  2.996388e+00
     vertex -1.409679e+01  2.641912e+01  2.703204e+00
     vertex  2.830341e+00  4.363413e+01  2.996388e+00
   endloop
 endfacet
 facet normal  5.505827e-01 -5.505827e-01  6.274690e-01
   outer loop
     vertex -1.439909e+01  2.672142e+01  3.274304e+00
     vertex -1.424073e+01  2.656306e+01  2.996388e+00
     vertex  2.830341e+00  4.363413e+01  2.996388e+00
   endloop
 endfacet
 facet normal  5.505827e-01 -5.505827e-01  6.274690e-01
   outer loop
     vertex -1.439909e+01  2.672142e+01  3.274304e+00
     vertex  2.830341e+00  4.363413e+01  2.996388e+00
     vertex  2.671978e+00  4.379249e+01  3.274304e+00
   endloop
 endfacet
 facet normal  4.818352e-01 -4.818352e-01  7.318945e-01
   outer loop
     vertex -1.457107e+01  2.689340e+01  3.535534e+00
     vertex  2.500000e+00  4.396447e+01  3.535534e+00
     vertex  2.315282e+00  4.414918e+01  3.778748e+00
   endloop
 endfacet
 facet normal  5.175276e-01 -5.175276e-01  6.814179e-01
   outer loop
     vertex -1.457107e+01  2.689340e+01  3.535534e+00
     vertex -1.439909e+01  2.672142e+01  3.274304e+00
     vertex  2.671978e+00  4.379249e+01  3.274304e+00
   endloop
 endfacet
 facet normal  5.175276e-01 -5.175276e-01  6.814179e-01
   outer loop
     vertex -1.457107e+01  2.689340e+01  3.535534e+00
     vertex  2.671978e+00  4.379249e+01  3.274304e+00
     vertex  2.500000e+00  4.396447e+01  3.535534e+00
   endloop
 endfacet
 facet normal  4.818352e-01 -4.818352e-01  7.318945e-01
   outer loop
     vertex -1.475579e+01  2.707812e+01  3.778748e+00
     vertex -1.457107e+01  2.689340e+01  3.535534e+00
     vertex  2.315282e+00  4.414918e+01  3.778748e+00
   endloop
 endfacet
 facet normal  4.436876e-01 -4.436876e-01  7.786415e-01
   outer loop
     vertex -1.495230e+01  2.727463e+01  4.002706e+00
     vertex  2.315282e+00  4.414918e+01  3.778748e+00
     vertex  2.118767e+00  4.434570e+01  4.002706e+00
   endloop
 endfacet
 facet normal  4.436876e-01 -4.436876e-01  7.786415e-01
   outer loop
     vertex -1.495230e+01  2.727463e+01  4.002706e+00
     vertex -1.475579e+01  2.707812e+01  3.778748e+00
     vertex  2.315282e+00  4.414918e+01  3.778748e+00
   endloop
 endfacet
 facet normal  4.032790e-01 -4.032790e-01  8.214208e-01
   outer loop
     vertex -1.515961e+01  2.748194e+01  4.206268e+00
     vertex  2.118767e+00  4.434570e+01  4.002706e+00
     vertex  1.911454e+00  4.455301e+01  4.206268e+00
   endloop
 endfacet
 facet normal  4.032790e-01 -4.032790e-01  8.214208e-01
   outer loop
     vertex -1.515961e+01  2.748194e+01  4.206268e+00
     vertex -1.495230e+01  2.727463e+01  4.002706e+00
     vertex  2.118767e+00  4.434570e+01  4.002706e+00
   endloop
 endfacet
 facet normal  3.608154e-01 -3.608154e-01  8.600142e-01
   outer loop
     vertex -1.537667e+01  2.769900e+01  4.388395e+00
     vertex  1.911454e+00  4.455301e+01  4.206268e+00
     vertex  1.694401e+00  4.477007e+01  4.388395e+00
   endloop
 endfacet
 facet normal  3.608154e-01 -3.608154e-01  8.600142e-01
   outer loop
     vertex -1.537667e+01  2.769900e+01  4.388395e+00
     vertex -1.515961e+01  2.748194e+01  4.206268e+00
     vertex  1.911454e+00  4.455301e+01  4.206268e+00
   endloop
 endfacet
 facet normal  3.165132e-01 -3.165132e-01  8.942253e-01
   outer loop
     vertex -1.560235e+01  2.792468e+01  4.548160e+00
     vertex  1.694401e+00  4.477007e+01  4.388395e+00
     vertex  1.468714e+00  4.499575e+01  4.548160e+00
   endloop
 endfacet
 facet normal  3.165132e-01 -3.165132e-01  8.942253e-01
   outer loop
     vertex -1.560235e+01  2.792468e+01  4.548160e+00
     vertex -1.537667e+01  2.769900e+01  4.388395e+00
     vertex  1.694401e+00  4.477007e+01  4.388395e+00
   endloop
 endfacet
 facet normal  2.705981e-01 -2.705981e-01  9.238795e-01
   outer loop
     vertex -1.583553e+01  2.815786e+01  4.684749e+00
     vertex  1.468714e+00  4.499575e+01  4.548160e+00
     vertex  1.235542e+00  4.522892e+01  4.684749e+00
   endloop
 endfacet
 facet normal  2.233040e-01 -2.233040e-01  9.488259e-01
   outer loop
     vertex -1.583553e+01  2.815786e+01  4.684749e+00
     vertex  1.235542e+00  4.522892e+01  4.684749e+00
     vertex  9.960750e-01  4.546839e+01  4.797465e+00
   endloop
 endfacet
 facet normal  2.705981e-01 -2.705981e-01  9.238795e-01
   outer loop
     vertex -1.583553e+01  2.815786e+01  4.684749e+00
     vertex -1.560235e+01  2.792468e+01  4.548160e+00
     vertex  1.468714e+00  4.499575e+01  4.548160e+00
   endloop
 endfacet
 facet normal  2.233040e-01 -2.233040e-01  9.488259e-01
   outer loop
     vertex -1.607499e+01  2.839732e+01  4.797465e+00
     vertex -1.583553e+01  2.815786e+01  4.684749e+00
     vertex  9.960750e-01  4.546839e+01  4.797465e+00
   endloop
 endfacet
 facet normal  1.748721e-01 -1.748721e-01  9.689373e-01
   outer loop
     vertex -1.631954e+01  2.864187e+01  4.885734e+00
     vertex  9.960750e-01  4.546839e+01  4.797465e+00
     vertex  7.515318e-01  4.571293e+01  4.885734e+00
   endloop
 endfacet
 facet normal  1.255491e-01 -1.255491e-01  9.841112e-01
   outer loop
     vertex -1.631954e+01  2.864187e+01  4.885734e+00
     vertex  7.515318e-01  4.571293e+01  4.885734e+00
     vertex  5.031589e-01  4.596131e+01  4.949107e+00
   endloop
 endfacet
 facet normal  1.748721e-01 -1.748721e-01  9.689373e-01
   outer loop
     vertex -1.631954e+01  2.864187e+01  4.885734e+00
     vertex -1.607499e+01  2.839732e+01  4.797465e+00
     vertex  9.960750e-01  4.546839e+01  4.797465e+00
   endloop
 endfacet
 facet normal  1.255491e-01 -1.255491e-01  9.841112e-01
   outer loop
     vertex -1.656791e+01  2.889024e+01  4.949107e+00
     vertex -1.631954e+01  2.864187e+01  4.885734e+00
     vertex  5.031589e-01  4.596131e+01  4.949107e+00
   endloop
 endfacet
 facet normal  7.558627e-02 -7.558627e-02  9.942703e-01
   outer loop
     vertex -1.681885e+01  2.914118e+01  4.987261e+00
     vertex  5.031589e-01  4.596131e+01  4.949107e+00
     vertex  2.522221e-01  4.621224e+01  4.987261e+00
   endloop
 endfacet
 facet normal  7.558627e-02 -7.558627e-02  9.942703e-01
   outer loop
     vertex -1.681885e+01  2.914118e+01  4.987261e+00
     vertex -1.656791e+01  2.889024e+01  4.949107e+00
     vertex  5.031589e-01  4.596131e+01  4.949107e+00
   endloop
 endfacet
 facet normal  2.523829e-02 -2.523829e-02  9.993628e-01
   outer loop
     vertex -1.707107e+01  2.939340e+01  5.000000e+00
     vertex  2.522221e-01  4.621224e+01  4.987261e+00
     vertex  1.001535e-15  4.646447e+01  5.000000e+00
   endloop
 endfacet
 facet normal -2.523829e-02  2.523829e-02  9.993628e-01
   outer loop
     vertex -1.707107e+01  2.939340e+01  5.000000e+00
     vertex  1.001535e-15  4.646447e+01  5.000000e+00
     vertex -2.522221e-01  4.671669e+01  4.987261e+00
   endloop
 endfacet
 facet normal  2.523829e-02 -2.523829e-02  9.993628e-01
   outer loop
     vertex -1.707107e+01  2.939340e+01  5.000000e+00
     vertex -1.681885e+01  2.914118e+01  4.987261e+00
     vertex  2.522221e-01  4.621224e+01  4.987261e+00
   endloop
 endfacet
 facet normal -2.523829e-02  2.523829e-02  9.993628e-01
   outer loop
     vertex -1.732329e+01  2.964562e+01  4.987261e+00
     vertex -1.707107e+01  2.939340e+01  5.000000e+00
     vertex -2.522221e-01  4.671669e+01  4.987261e+00
   endloop
 endfacet
 facet normal -7.558627e-02  7.558627e-02  9.942703e-01
   outer loop
     vertex -1.757423e+01  2.989656e+01  4.949107e+00
     vertex -2.522221e-01  4.671669e+01  4.987261e+00
     vertex -5.031589e-01  4.696763e+01  4.949107e+00
   endloop
 endfacet
 facet normal -7.558627e-02  7.558627e-02  9.942703e-01
   outer loop
     vertex -1.757423e+01  2.989656e+01  4.949107e+00
     vertex -1.732329e+01  2.964562e+01  4.987261e+00
     vertex -2.522221e-01  4.671669e+01  4.987261e+00
   endloop
 endfacet
 facet normal -1.255491e-01  1.255491e-01  9.841112e-01
   outer loop
     vertex -1.782260e+01  3.014493e+01  4.885734e+00
     vertex -5.031589e-01  4.696763e+01  4.949107e+00
     vertex -7.515318e-01  4.721600e+01  4.885734e+00
   endloop
 endfacet
 facet normal -1.748721e-01  1.748721e-01  9.689373e-01
   outer loop
     vertex -1.782260e+01  3.014493e+01  4.885734e+00
     vertex -7.515318e-01  4.721600e+01  4.885734e+00
     vertex -9.960750e-01  4.746054e+01  4.797465e+00
   endloop
 endfacet
 facet normal -1.255491e-01  1.255491e-01  9.841112e-01
   outer loop
     vertex -1.782260e+01  3.014493e+01  4.885734e+00
     vertex -1.757423e+01  2.989656e+01  4.949107e+00
     vertex -5.031589e-01  4.696763e+01  4.949107e+00
   endloop
 endfacet
 facet normal -1.748721e-01  1.748721e-01  9.689373e-01
   outer loop
     vertex -1.806714e+01  3.038947e+01  4.797465e+00
     vertex -1.782260e+01  3.014493e+01  4.885734e+00
     vertex -9.960750e-01  4.746054e+01  4.797465e+00
   endloop
 endfacet
 facet normal -2.233040e-01  2.233040e-01  9.488259e-01
   outer loop
     vertex -1.830661e+01  3.062894e+01  4.684749e+00
     vertex -9.960750e-01  4.746054e+01  4.797465e+00
     vertex -1.235542e+00  4.770001e+01  4.684749e+00
   endloop
 endfacet
 facet normal -2.705981e-01  2.705981e-01  9.238795e-01
   outer loop
     vertex -1.830661e+01  3.062894e+01  4.684749e+00
     vertex -1.235542e+00  4.770001e+01  4.684749e+00
     vertex -1.468714e+00  4.793318e+01  4.548160e+00
   endloop
 endfacet
 facet normal -2.233040e-01  2.233040e-01  9.488259e-01
   outer loop
     vertex -1.830661e+01  3.062894e+01  4.684749e+00
     vertex -1.806714e+01  3.038947e+01  4.797465e+00
     vertex -9.960750e-01  4.746054e+01  4.797465e+00
   endloop
 endfacet
 facet normal -3.165132e-01  3.165132e-01  8.942253e-01
   outer loop
     vertex -1.853978e+01  3.086211e+01  4.548160e+00
     vertex -1.468714e+00  4.793318e+01  4.548160e+00
     vertex -1.694401e+00  4.815887e+01  4.388395e+00
   endloop
 endfacet
 facet normal -2.705981e-01  2.705981e-01  9.238795e-01
   outer loop
     vertex -1.853978e+01  3.086211e+01  4.548160e+00
     vertex -1.830661e+01  3.062894e+01  4.684749e+00
     vertex -1.468714e+00  4.793318e+01  4.548160e+00
   endloop
 endfacet
 facet normal -3.165132e-01  3.165132e-01  8.942253e-01
   outer loop
     vertex -1.876547e+01  3.108780e+01  4.388395e+00
     vertex -1.853978e+01  3.086211e+01  4.548160e+00
     vertex -1.694401e+00  4.815887e+01  4.388395e+00
   endloop
 endfacet
 facet normal -3.608154e-01  3.608154e-01  8.600142e-01
   outer loop
     vertex -1.898252e+01  3.130485e+01  4.206268e+00
     vertex -1.876547e+01  3.108780e+01  4.388395e+00
     vertex -1.694401e+00  4.815887e+01  4.388395e+00
   endloop
 endfacet
 facet normal -3.608154e-01  3.608154e-01  8.600142e-01
   outer loop
     vertex -1.898252e+01  3.130485e+01  4.206268e+00
     vertex -1.694401e+00  4.815887e+01  4.388395e+00
     vertex -1.911454e+00  4.837592e+01  4.206268e+00
   endloop
 endfacet
 facet normal -4.032790e-01  4.032790e-01  8.214208e-01
   outer loop
     vertex -1.898252e+01  3.130485e+01  4.206268e+00
     vertex -1.911454e+00  4.837592e+01  4.206268e+00
     vertex -2.118767e+00  4.858323e+01  4.002706e+00
   endloop
 endfacet
 facet normal -4.032790e-01  4.032790e-01  8.214208e-01
   outer loop
     vertex -1.918983e+01  3.151216e+01  4.002706e+00
     vertex -1.898252e+01  3.130485e+01  4.206268e+00
     vertex -2.118767e+00  4.858323e+01  4.002706e+00
   endloop
 endfacet
 facet normal -4.436876e-01  4.436876e-01  7.786415e-01
   outer loop
     vertex -1.938635e+01  3.170868e+01  3.778748e+00
     vertex -1.918983e+01  3.151216e+01  4.002706e+00
     vertex -2.118767e+00  4.858323e+01  4.002706e+00
   endloop
 endfacet
 facet normal -4.436876e-01  4.436876e-01  7.786415e-01
   outer loop
     vertex -1.938635e+01  3.170868e+01  3.778748e+00
     vertex -2.118767e+00  4.858323e+01  4.002706e+00
     vertex -2.315282e+00  4.877975e+01  3.778748e+00
   endloop
 endfacet
 facet normal -4.818352e-01  4.818352e-01  7.318945e-01
   outer loop
     vertex -1.957107e+01  3.189340e+01  3.535534e+00
     vertex -1.938635e+01  3.170868e+01  3.778748e+00
     vertex -2.315282e+00  4.877975e+01  3.778748e+00
   endloop
 endfacet
 facet normal -4.818352e-01  4.818352e-01  7.318945e-01
   outer loop
     vertex -1.957107e+01  3.189340e+01  3.535534e+00
     vertex -2.315282e+00  4.877975e+01  3.778748e+00
     vertex -2.500000e+00  4.896447e+01  3.535534e+00
   endloop
 endfacet
 facet normal -5.175276e-01  5.175276e-01  6.814179e-01
   outer loop
     vertex -1.957107e+01  3.189340e+01  3.535534e+00
     vertex -2.500000e+00  4.896447e+01  3.535534e+00
     vertex -2.671978e+00  4.913644e+01  3.274304e+00
   endloop
 endfacet
 facet normal -5.175276e-01  5.175276e-01  6.814179e-01
   outer loop
     vertex -1.974305e+01  3.206538e+01  3.274304e+00
     vertex -1.957107e+01  3.189340e+01  3.535534e+00
     vertex -2.671978e+00  4.913644e+01  3.274304e+00
   endloop
 endfacet
 facet normal -5.505827e-01  5.505827e-01  6.274690e-01
   outer loop
     vertex -1.990141e+01  3.222374e+01  2.996388e+00
     vertex -1.974305e+01  3.206538e+01  3.274304e+00
     vertex -2.671978e+00  4.913644e+01  3.274304e+00
   endloop
 endfacet
 facet normal -5.505827e-01  5.505827e-01  6.274690e-01
   outer loop
     vertex -1.990141e+01  3.222374e+01  2.996388e+00
     vertex -2.671978e+00  4.913644e+01  3.274304e+00
     vertex -2.830341e+00  4.929481e+01  2.996388e+00
   endloop
 endfacet
 facet normal -5.808322e-01  5.808322e-01  5.703226e-01
   outer loop
     vertex -2.004535e+01  3.236768e+01  2.703204e+00
     vertex -2.830341e+00  4.929481e+01  2.996388e+00
     vertex -2.974280e+00  4.943875e+01  2.703204e+00
   endloop
 endfacet
 facet normal -6.081219e-01  6.081219e-01  5.102700e-01
   outer loop
     vertex -2.004535e+01  3.236768e+01  2.703204e+00
     vertex -2.974280e+00  4.943875e+01  2.703204e+00
     vertex -3.103064e+00  4.956753e+01  2.396245e+00
   endloop
 endfacet
 facet normal -5.808322e-01  5.808322e-01  5.703226e-01
   outer loop
     vertex -2.004535e+01  3.236768e+01  2.703204e+00
     vertex -1.990141e+01  3.222374e+01  2.996388e+00
     vertex -2.830341e+00  4.929481e+01  2.996388e+00
   endloop
 endfacet
 facet normal -6.081219e-01  6.081219e-01  5.102700e-01
   outer loop
     vertex -2.017413e+01  3.249646e+01  2.396245e+00
     vertex -2.004535e+01  3.236768e+01  2.703204e+00
     vertex -3.103064e+00  4.956753e+01  2.396245e+00
   endloop
 endfacet
 facet normal -6.323128e-01  6.323128e-01  4.476172e-01
   outer loop
     vertex -2.028710e+01  3.260943e+01  2.077075e+00
     vertex -3.103064e+00  4.956753e+01  2.396245e+00
     vertex -3.216035e+00  4.968050e+01  2.077075e+00
   endloop
 endfacet
 facet normal -6.323128e-01  6.323128e-01  4.476172e-01
   outer loop
     vertex -2.028710e+01  3.260943e+01  2.077075e+00
     vertex -2.017413e+01  3.249646e+01  2.396245e+00
     vertex -3.103064e+00  4.956753e+01  2.396245e+00
   endloop
 endfacet
 facet normal -6.532815e-01  6.532815e-01  3.826834e-01
   outer loop
     vertex -2.038369e+01  3.270602e+01  1.747321e+00
     vertex -3.216035e+00  4.968050e+01  2.077075e+00
     vertex -3.312618e+00  4.977708e+01  1.747321e+00
   endloop
 endfacet
 facet normal -6.709212e-01  6.709212e-01  3.157996e-01
   outer loop
     vertex -2.038369e+01  3.270602e+01  1.747321e+00
     vertex -3.312618e+00  4.977708e+01  1.747321e+00
     vertex -3.392320e+00  4.985679e+01  1.408663e+00
   endloop
 endfacet
 facet normal -6.532815e-01  6.532815e-01  3.826834e-01
   outer loop
     vertex -2.038369e+01  3.270602e+01  1.747321e+00
     vertex -2.028710e+01  3.260943e+01  2.077075e+00
     vertex -3.216035e+00  4.968050e+01  2.077075e+00
   endloop
 endfacet
 facet normal -6.709212e-01  6.709212e-01  3.157996e-01
   outer loop
     vertex -2.046339e+01  3.278572e+01  1.408663e+00
     vertex -2.038369e+01  3.270602e+01  1.747321e+00
     vertex -3.392320e+00  4.985679e+01  1.408663e+00
   endloop
 endfacet
 facet normal -6.851421e-01  6.851421e-01  2.473065e-01
   outer loop
     vertex -2.052580e+01  3.284813e+01  1.062826e+00
     vertex -3.392320e+00  4.985679e+01  1.408663e+00
     vertex -3.454736e+00  4.991920e+01  1.062826e+00
   endloop
 endfacet
 facet normal -6.851421e-01  6.851421e-01  2.473065e-01
   outer loop
     vertex -2.052580e+01  3.284813e+01  1.062826e+00
     vertex -2.046339e+01  3.278572e+01  1.408663e+00
     vertex -3.392320e+00  4.985679e+01  1.408663e+00
   endloop
 endfacet
 facet normal -6.958717e-01  6.958717e-01  1.775532e-01
   outer loop
     vertex -2.057062e+01  3.289295e+01  7.115742e-01
     vertex -3.454736e+00  4.991920e+01  1.062826e+00
     vertex -3.499547e+00  4.996401e+01  7.115742e-01
   endloop
 endfacet
 facet normal -6.958717e-01  6.958717e-01  1.775532e-01
   outer loop
     vertex -2.057062e+01  3.289295e+01  7.115742e-01
     vertex -2.052580e+01  3.284813e+01  1.062826e+00
     vertex -3.454736e+00  4.991920e+01  1.062826e+00
   endloop
 endfacet
 facet normal -7.030553e-01  7.030553e-01  1.068951e-01
   outer loop
     vertex -2.059759e+01  3.291992e+01  3.566959e-01
     vertex -3.499547e+00  4.996401e+01  7.115742e-01
     vertex -3.526526e+00  4.999099e+01  3.566959e-01
   endloop
 endfacet
 facet normal -7.066562e-01  7.066562e-01  3.569233e-02
   outer loop
     vertex -2.059759e+01  3.291992e+01  3.566959e-01
     vertex -3.526526e+00  4.999099e+01  3.566959e-01
     vertex -3.535534e+00  5.000000e+01  5.053215e-15
   endloop
 endfacet
 facet normal -7.030553e-01  7.030553e-01  1.068951e-01
   outer loop
     vertex -2.059759e+01  3.291992e+01  3.566959e-01
     vertex -2.057062e+01  3.289295e+01  7.115742e-01
     vertex -3.499547e+00  4.996401e+01  7.115742e-01
   endloop
 endfacet
 facet normal -7.066562e-01  7.066562e-01  3.569233e-02
   outer loop
     vertex -2.060660e+01  3.292893e+01  5.053215e-15
     vertex -2.059759e+01  3.291992e+01  3.566959e-01
     vertex -3.535534e+00  5.000000e+01  5.053215e-15
   endloop
 endfacet
 facet normal -7.066562e-01  7.066562e-01 -3.569233e-02
   outer loop
     vertex -2.059759e+01  3.291992e+01 -3.566959e-01
     vertex -3.535534e+00  5.000000e+01  5.053215e-15
     vertex -3.526526e+00  4.999099e+01 -3.566959e-01
   endloop
 endfacet
 facet normal -7.066562e-01  7.066562e-01 -3.569233e-02
   outer loop
     vertex -2.059759e+01  3.291992e+01 -3.566959e-01
     vertex -2.060660e+01  3.292893e+01  5.053215e-15
     vertex -3.535534e+00  5.000000e+01  5.053215e-15
   endloop
 endfacet
 facet normal -7.030553e-01  7.030553e-01 -1.068951e-01
   outer loop
     vertex -2.057062e+01  3.289295e+01 -7.115742e-01
     vertex -3.526526e+00  4.999099e+01 -3.566959e-01
     vertex -3.499547e+00  4.996401e+01 -7.115742e-01
   endloop
 endfacet
 facet normal -6.958717e-01  6.958717e-01 -1.775532e-01
   outer loop
     vertex -2.057062e+01  3.289295e+01 -7.115742e-01
     vertex -3.499547e+00  4.996401e+01 -7.115742e-01
     vertex -3.454736e+00  4.991920e+01 -1.062826e+00
   endloop
 endfacet
 facet normal -7.030553e-01  7.030553e-01 -1.068951e-01
   outer loop
     vertex -2.057062e+01  3.289295e+01 -7.115742e-01
     vertex -2.059759e+01  3.291992e+01 -3.566959e-01
     vertex -3.526526e+00  4.999099e+01 -3.566959e-01
   endloop
 endfacet
 facet normal -6.958717e-01  6.958717e-01 -1.775532e-01
   outer loop
     vertex -2.052580e+01  3.284813e+01 -1.062826e+00
     vertex -2.057062e+01  3.289295e+01 -7.115742e-01
     vertex -3.454736e+00  4.991920e+01 -1.062826e+00
   endloop
 endfacet
 facet normal -6.851421e-01  6.851421e-01 -2.473065e-01
   outer loop
     vertex -2.046339e+01  3.278572e+01 -1.408663e+00
     vertex -3.454736e+00  4.991920e+01 -1.062826e+00
     vertex -3.392320e+00  4.985679e+01 -1.408663e+00
   endloop
 endfacet
 facet normal -6.851421e-01  6.851421e-01 -2.473065e-01
   outer loop
     vertex -2.046339e+01  3.278572e+01 -1.408663e+00
     vertex -2.052580e+01  3.284813e+01 -1.062826e+00
     vertex -3.454736e+00  4.991920e+01 -1.062826e+00
   endloop
 endfacet
 facet normal -6.709212e-01  6.709212e-01 -3.157996e-01
   outer loop
     vertex -2.038369e+01  3.270602e+01 -1.747321e+00
     vertex -3.392320e+00  4.985679e+01 -1.408663e+00
     vertex -3.312618e+00  4.977708e+01 -1.747321e+00
   endloop
 endfacet
 facet normal -6.532815e-01  6.532815e-01 -3.826834e-01
   outer loop
     vertex -2.038369e+01  3.270602e+01 -1.747321e+00
     vertex -3.312618e+00  4.977708e+01 -1.747321e+00
     vertex -3.216035e+00  4.968050e+01 -2.077075e+00
   endloop
 endfacet
 facet normal -6.709212e-01  6.709212e-01 -3.157996e-01
   outer loop
     vertex -2.038369e+01  3.270602e+01 -1.747321e+00
     vertex -2.046339e+01  3.278572e+01 -1.408663e+00
     vertex -3.392320e+00  4.985679e+01 -1.408663e+00
   endloop
 endfacet
 facet normal -6.532815e-01  6.532815e-01 -3.826834e-01
   outer loop
     vertex -2.028710e+01  3.260943e+01 -2.077075e+00
     vertex -2.038369e+01  3.270602e+01 -1.747321e+00
     vertex -3.216035e+00  4.968050e+01 -2.077075e+00
   endloop
 endfacet
 facet normal -6.323128e-01  6.323128e-01 -4.476172e-01
   outer loop
     vertex -2.017413e+01  3.249646e+01 -2.396245e+00
     vertex -3.216035e+00  4.968050e+01 -2.077075e+00
     vertex -3.103064e+00  4.956753e+01 -2.396245e+00
   endloop
 endfacet
 facet normal -6.323128e-01  6.323128e-01 -4.476172e-01
   outer loop
     vertex -2.017413e+01  3.249646e+01 -2.396245e+00
     vertex -2.028710e+01  3.260943e+01 -2.077075e+00
     vertex -3.216035e+00  4.968050e+01 -2.077075e+00
   endloop
 endfacet
 facet normal -6.081219e-01  6.081219e-01 -5.102700e-01
   outer loop
     vertex -2.004535e+01  3.236768e+01 -2.703204e+00
     vertex -3.103064e+00  4.956753e+01 -2.396245e+00
     vertex -2.974280e+00  4.943875e+01 -2.703204e+00
   endloop
 endfacet
 facet normal -5.808322e-01  5.808322e-01 -5.703226e-01
   outer loop
     vertex -2.004535e+01  3.236768e+01 -2.703204e+00
     vertex -2.974280e+00  4.943875e+01 -2.703204e+00
     vertex -2.830341e+00  4.929481e+01 -2.996388e+00
   endloop
 endfacet
 facet normal -6.081219e-01  6.081219e-01 -5.102700e-01
   outer loop
     vertex -2.004535e+01  3.236768e+01 -2.703204e+00
     vertex -2.017413e+01  3.249646e+01 -2.396245e+00
     vertex -3.103064e+00  4.956753e+01 -2.396245e+00
   endloop
 endfacet
 facet normal -5.808322e-01  5.808322e-01 -5.703226e-01
   outer loop
     vertex -1.990141e+01  3.222374e+01 -2.996388e+00
     vertex -2.004535e+01  3.236768e+01 -2.703204e+00
     vertex -2.830341e+00  4.929481e+01 -2.996388e+00
   endloop
 endfacet
 facet normal -5.505827e-01  5.505827e-01 -6.274690e-01
   outer loop
     vertex -1.974305e+01  3.206538e+01 -3.274304e+00
     vertex -2.830341e+00  4.929481e+01 -2.996388e+00
     vertex -2.671978e+00  4.913644e+01 -3.274304e+00
   endloop
 endfacet
 facet normal -5.505827e-01  5.505827e-01 -6.274690e-01
   outer loop
     vertex -1.974305e+01  3.206538e+01 -3.274304e+00
     vertex -1.990141e+01  3.222374e+01 -2.996388e+00
     vertex -2.830341e+00  4.929481e+01 -2.996388e+00
   endloop
 endfacet
 facet normal -5.175276e-01  5.175276e-01 -6.814179e-01
   outer loop
     vertex -1.957107e+01  3.189340e+01 -3.535534e+00
     vertex -2.671978e+00  4.913644e+01 -3.274304e+00
     vertex -2.500000e+00  4.896447e+01 -3.535534e+00
   endloop
 endfacet
 facet normal -5.175276e-01  5.175276e-01 -6.814179e-01
   outer loop
     vertex -1.957107e+01  3.189340e+01 -3.535534e+00
     vertex -1.974305e+01  3.206538e+01 -3.274304e+00
     vertex -2.671978e+00  4.913644e+01 -3.274304e+00
   endloop
 endfacet
 facet normal -4.818352e-01  4.818352e-01 -7.318945e-01
   outer loop
     vertex -1.938635e+01  3.170868e+01 -3.778748e+00
     vertex -1.957107e+01  3.189340e+01 -3.535534e+00
     vertex -2.500000e+00  4.896447e+01 -3.535534e+00
   endloop
 endfacet
 facet normal -4.818352e-01  4.818352e-01 -7.318945e-01
   outer loop
     vertex -1.938635e+01  3.170868e+01 -3.778748e+00
     vertex -2.500000e+00  4.896447e+01 -3.535534e+00
     vertex -2.315282e+00  4.877975e+01 -3.778748e+00
   endloop
 endfacet
 facet normal -4.436876e-01  4.436876e-01 -7.786415e-01
   outer loop
     vertex -1.918983e+01  3.151216e+01 -4.002706e+00
     vertex -1.938635e+01  3.170868e+01 -3.778748e+00
     vertex -2.315282e+00  4.877975e+01 -3.778748e+00
   endloop
 endfacet
 facet normal -4.436876e-01  4.436876e-01 -7.786415e-01
   outer loop
     vertex -1.918983e+01  3.151216e+01 -4.002706e+00
     vertex -2.315282e+00  4.877975e+01 -3.778748e+00
     vertex -2.118767e+00  4.858323e+01 -4.002706e+00
   endloop
 endfacet
 facet normal -4.032790e-01  4.032790e-01 -8.214208e-01
   outer loop
     vertex -1.918983e+01  3.151216e+01 -4.002706e+00
     vertex -2.118767e+00  4.858323e+01 -4.002706e+00
     vertex -1.911454e+00  4.837592e+01 -4.206268e+00
   endloop
 endfacet
 facet normal -4.032790e-01  4.032790e-01 -8.214208e-01
   outer loop
     vertex -1.898252e+01  3.130485e+01 -4.206268e+00
     vertex -1.918983e+01  3.151216e+01 -4.002706e+00
     vertex -1.911454e+00  4.837592e+01 -4.206268e+00
   endloop
 endfacet
 facet normal -3.608154e-01  3.608154e-01 -8.600142e-01
   outer loop
     vertex -1.898252e+01  3.130485e+01 -4.206268e+00
     vertex -1.911454e+00  4.837592e+01 -4.206268e+00
     vertex -1.694401e+00  4.815887e+01 -4.388395e+00
   endloop
 endfacet
 facet normal -3.608154e-01  3.608154e-01 -8.600142e-01
   outer loop
     vertex -1.876547e+01  3.108780e+01 -4.388395e+00
     vertex -1.898252e+01  3.130485e+01 -4.206268e+00
     vertex -1.694401e+00  4.815887e+01 -4.388395e+00
   endloop
 endfacet
 facet normal -3.165132e-01  3.165132e-01 -8.942253e-01
   outer loop
     vertex -1.876547e+01  3.108780e+01 -4.388395e+00
     vertex -1.694401e+00  4.815887e+01 -4.388395e+00
     vertex -1.468714e+00  4.793318e+01 -4.548160e+00
   endloop
 endfacet
 facet normal -3.165132e-01  3.165132e-01 -8.942253e-01
   outer loop
     vertex -1.853978e+01  3.086211e+01 -4.548160e+00
     vertex -1.876547e+01  3.108780e+01 -4.388395e+00
     vertex -1.468714e+00  4.793318e+01 -4.548160e+00
   endloop
 endfacet
 facet normal -2.705981e-01  2.705981e-01 -9.238795e-01
   outer loop
     vertex -1.830661e+01  3.062894e+01 -4.684749e+00
     vertex -1.853978e+01  3.086211e+01 -4.548160e+00
     vertex -1.468714e+00  4.793318e+01 -4.548160e+00
   endloop
 endfacet
 facet normal -2.705981e-01  2.705981e-01 -9.238795e-01
   outer loop
     vertex -1.830661e+01  3.062894e+01 -4.684749e+00
     vertex -1.468714e+00  4.793318e+01 -4.548160e+00
     vertex -1.235542e+00  4.770001e+01 -4.684749e+00
   endloop
 endfacet
 facet normal -2.233040e-01  2.233040e-01 -9.488259e-01
   outer loop
     vertex -1.806714e+01  3.038947e+01 -4.797465e+00
     vertex -1.830661e+01  3.062894e+01 -4.684749e+00
     vertex -1.235542e+00  4.770001e+01 -4.684749e+00
   endloop
 endfacet
 facet normal -2.233040e-01  2.233040e-01 -9.488259e-01
   outer loop
     vertex -1.806714e+01  3.038947e+01 -4.797465e+00
     vertex -1.235542e+00  4.770001e+01 -4.684749e+00
     vertex -9.960750e-01  4.746054e+01 -4.797465e+00
   endloop
 endfacet
 facet normal -1.748721e-01  1.748721e-01 -9.689373e-01
   outer loop
     vertex -1.806714e+01  3.038947e+01 -4.797465e+00
     vertex -9.960750e-01  4.746054e+01 -4.797465e+00
     vertex -7.515318e-01  4.721600e+01 -4.885734e+00
   endloop
 endfacet
 facet normal -1.748721e-01  1.748721e-01 -9.689373e-01
   outer loop
     vertex -1.782260e+01  3.014493e+01 -4.885734e+00
     vertex -1.806714e+01  3.038947e+01 -4.797465e+00
     vertex -7.515318e-01  4.721600e+01 -4.885734e+00
   endloop
 endfacet
 facet normal -1.255491e-01  1.255491e-01 -9.841112e-01
   outer loop
     vertex -1.757423e+01  2.989656e+01 -4.949107e+00
     vertex -1.782260e+01  3.014493e+01 -4.885734e+00
     vertex -7.515318e-01  4.721600e+01 -4.885734e+00
   endloop
 endfacet
 facet normal -1.255491e-01  1.255491e-01 -9.841112e-01
   outer loop
     vertex -1.757423e+01  2.989656e+01 -4.949107e+00
     vertex -7.515318e-01  4.721600e+01 -4.885734e+00
     vertex -5.031589e-01  4.696763e+01 -4.949107e+00
   endloop
 endfacet
 facet normal -7.558627e-02  7.558627e-02 -9.942703e-01
   outer loop
     vertex -1.732329e+01  2.964562e+01 -4.987261e+00
     vertex -1.757423e+01  2.989656e+01 -4.949107e+00
     vertex -5.031589e-01  4.696763e+01 -4.949107e+00
   endloop
 endfacet
 facet normal -7.558627e-02  7.558627e-02 -9.942703e-01
   outer loop
     vertex -1.732329e+01  2.964562e+01 -4.987261e+00
     vertex -5.031589e-01  4.696763e+01 -4.949107e+00
     vertex -2.522221e-01  4.671669e+01 -4.987261e+00
   endloop
 endfacet
 facet normal -2.523829e-02  2.523829e-02 -9.993628e-01
   outer loop
     vertex -1.707107e+01  2.939340e+01 -5.000000e+00
     vertex -1.732329e+01  2.964562e+01 -4.987261e+00
     vertex -2.522221e-01  4.671669e+01 -4.987261e+00
   endloop
 endfacet
 facet normal -2.523829e-02  2.523829e-02 -9.993628e-01
   outer loop
     vertex -1.707107e+01  2.939340e+01 -5.000000e+00
     vertex -2.522221e-01  4.671669e+01 -4.987261e+00
     vertex -6.929837e-15  4.646447e+01 -5.000000e+00
   endloop
 endfacet
 facet normal  2.523829e-02 -2.523829e-02 -9.993628e-01
   outer loop
     vertex -1.681885e+01  2.914118e+01 -4.987261e+00
     vertex -1.707107e+01  2.939340e+01 -5.000000e+00
     vertex -6.929837e-15  4.646447e+01 -5.000000e+00
   endloop
 endfacet
 facet normal  2.523829e-02 -2.523829e-02 -9.993628e-01
   outer loop
     vertex -1.681885e+01  2.914118e+01 -4.987261e+00
     vertex -6.929837e-15  4.646447e+01 -5.000000e+00
     vertex  2.522221e-01  4.621224e+01 -4.987261e+00
   endloop
 endfacet
 facet normal  7.558627e-02 -7.558627e-02 -9.942703e-01
   outer loop
     vertex -1.656791e+01  2.889024e+01 -4.949107e+00
     vertex -1.681885e+01  2.914118e+01 -4.987261e+00
     vertex  2.522221e-01  4.621224e+01 -4.987261e+00
   endloop
 endfacet
 facet normal  7.558627e-02 -7.558627e-02 -9.942703e-01
   outer loop
     vertex -1.656791e+01  2.889024e+01 -4.949107e+00
     vertex  2.522221e-01  4.621224e+01 -4.987261e+00
     vertex  5.031589e-01  4.596131e+01 -4.949107e+00
   endloop
 endfacet
 facet normal  1.255491e-01 -1.255491e-01 -9.841112e-01
   outer loop
     vertex -1.631954e+01  2.864187e+01 -4.885734e+00
     vertex -1.656791e+01  2.889024e+01 -4.949107e+00
     vertex  5.031589e-01  4.596131e+01 -4.949107e+00
   endloop
 endfacet
 facet normal  1.255491e-01 -1.255491e-01 -9.841112e-01
   outer loop
     vertex -1.631954e+01  2.864187e+01 -4.885734e+00
     vertex  5.031589e-01  4.596131e+01 -4.949107e+00
     vertex  7.515318e-01  4.571293e+01 -4.885734e+00
   endloop
 endfacet
 facet normal  1.748721e-01 -1.748721e-01 -9.689373e-01
   outer loop
     vertex -1.631954e+01  2.864187e+01 -4.885734e+00
     vertex  7.515318e-01  4.571293e+01 -4.885734e+00
     vertex  9.960750e-01  4.546839e+01 -4.797465e+00
   endloop
 endfacet
 facet normal  1.748721e-01 -1.748721e-01 -9.689373e-01
   outer loop
     vertex -1.607499e+01  2.839732e+01 -4.797465e+00
     vertex -1.631954e+01  2.864187e+01 -4.885734e+00
     vertex  9.960750e-01  4.546839e+01 -4.797465e+00
   endloop
 endfacet
 facet normal  2.233040e-01 -2.233040e-01 -9.488259e-01
   outer loop
     vertex -1.583553e+01  2.815786e+01 -4.684749e+00
     vertex  9.960750e-01  4.546839e+01 -4.797465e+00
     vertex  1.235542e+00  4.522892e+01 -4.684749e+00
   endloop
 endfacet
 facet normal  2.233040e-01 -2.233040e-01 -9.488259e-01
   outer loop
     vertex -1.583553e+01  2.815786e+01 -4.684749e+00
     vertex -1.607499e+01  2.839732e+01 -4.797465e+00
     vertex  9.960750e-01  4.546839e+01 -4.797465e+00
   endloop
 endfacet
 facet normal  2.705981e-01 -2.705981e-01 -9.238795e-01
   outer loop
     vertex -1.560235e+01  2.792468e+01 -4.548160e+00
     vertex  1.235542e+00  4.522892e+01 -4.684749e+00
     vertex  1.468714e+00  4.499575e+01 -4.548160e+00
   endloop
 endfacet
 facet normal  2.705981e-01 -2.705981e-01 -9.238795e-01
   outer loop
     vertex -1.560235e+01  2.792468e+01 -4.548160e+00
     vertex -1.583553e+01  2.815786e+01 -4.684749e+00
     vertex  1.235542e+00  4.522892e+01 -4.684749e+00
   endloop
 endfacet
 facet normal  3.165132e-01 -3.165132e-01 -8.942253e-01
   outer loop
     vertex -1.537667e+01  2.769900e+01 -4.388395e+00
     vertex  1.468714e+00  4.499575e+01 -4.548160e+00
     vertex  1.694401e+00  4.477007e+01 -4.388395e+00
   endloop
 endfacet
 facet normal  3.165132e-01 -3.165132e-01 -8.942253e-01
   outer loop
     vertex -1.537667e+01  2.769900e+01 -4.388395e+00
     vertex -1.560235e+01  2.792468e+01 -4.548160e+00
     vertex  1.468714e+00  4.499575e+01 -4.548160e+00
   endloop
 endfacet
 facet normal  3.608154e-01 -3.608154e-01 -8.600142e-01
   outer loop
     vertex -1.515961e+01  2.748194e+01 -4.206268e+00
     vertex  1.694401e+00  4.477007e+01 -4.388395e+00
     vertex  1.911454e+00  4.455301e+01 -4.206268e+00
   endloop
 endfacet
 facet normal  4.032790e-01 -4.032790e-01 -8.214208e-01
   outer loop
     vertex -1.515961e+01  2.748194e+01 -4.206268e+00
     vertex  1.911454e+00  4.455301e+01 -4.206268e+00
     vertex  2.118767e+00  4.434570e+01 -4.002706e+00
   endloop
 endfacet
 facet normal  3.608154e-01 -3.608154e-01 -8.600142e-01
   outer loop
     vertex -1.515961e+01  2.748194e+01 -4.206268e+00
     vertex -1.537667e+01  2.769900e+01 -4.388395e+00
     vertex  1.694401e+00  4.477007e+01 -4.388395e+00
   endloop
 endfacet
 facet normal  4.436876e-01 -4.436876e-01 -7.786415e-01
   outer loop
     vertex -1.495230e+01  2.727463e+01 -4.002706e+00
     vertex  2.118767e+00  4.434570e+01 -4.002706e+00
     vertex  2.315282e+00  4.414918e+01 -3.778748e+00
   endloop
 endfacet
 facet normal  4.032790e-01 -4.032790e-01 -8.214208e-01
   outer loop
     vertex -1.495230e+01  2.727463e+01 -4.002706e+00
     vertex -1.515961e+01  2.748194e+01 -4.206268e+00
     vertex  2.118767e+00  4.434570e+01 -4.002706e+00
   endloop
 endfacet
 facet normal  4.436876e-01 -4.436876e-01 -7.786415e-01
   outer loop
     vertex -1.475579e+01  2.707812e+01 -3.778748e+00
     vertex -1.495230e+01  2.727463e+01 -4.002706e+00
     vertex  2.315282e+00  4.414918e+01 -3.778748e+00
   endloop
 endfacet
 facet normal  4.818352e-01 -4.818352e-01 -7.318945e-01
   outer loop
     vertex -1.457107e+01  2.689340e+01 -3.535534e+00
     vertex  2.315282e+00  4.414918e+01 -3.778748e+00
     vertex  2.500000e+00  4.396447e+01 -3.535534e+00
   endloop
 endfacet
 facet normal  5.175276e-01 -5.175276e-01 -6.814179e-01
   outer loop
     vertex -1.457107e+01  2.689340e+01 -3.535534e+00
     vertex  2.500000e+00  4.396447e+01 -3.535534e+00
     vertex  2.671978e+00  4.379249e+01 -3.274304e+00
   endloop
 endfacet
 facet normal  4.818352e-01 -4.818352e-01 -7.318945e-01
   outer loop
     vertex -1.457107e+01  2.689340e+01 -3.535534e+00
     vertex -1.475579e+01  2.707812e+01 -3.778748e+00
     vertex  2.315282e+00  4.414918e+01 -3.778748e+00
   endloop
 endfacet
 facet normal  5.175276e-01 -5.175276e-01 -6.814179e-01
   outer loop
     vertex -1.439909e+01  2.672142e+01 -3.274304e+00
     vertex -1.457107e+01  2.689340e+01 -3.535534e+00
     vertex  2.671978e+00  4.379249e+01 -3.274304e+00
   endloop
 endfacet
 facet normal  5.505827e-01 -5.505827e-01 -6.274690e-01
   outer loop
     vertex -1.424073e+01  2.656306e+01 -2.996388e+00
     vertex  2.671978e+00  4.379249e+01 -3.274304e+00
     vertex  2.830341e+00  4.363413e+01 -2.996388e+00
   endloop
 endfacet
 facet normal  5.505827e-01 -5.505827e-01 -6.274690e-01
   outer loop
     vertex -1.424073e+01  2.656306e+01 -2.996388e+00
     vertex -1.439909e+01  2.672142e+01 -3.274304e+00
     vertex  2.671978e+00  4.379249e+01 -3.274304e+00
   endloop
 endfacet
 facet normal  5.808322e-01 -5.808322e-01 -5.703226e-01
   outer loop
     vertex -1.409679e+01  2.641912e+01 -2.703204e+00
     vertex  2.830341e+00  4.363413e+01 -2.996388e+00
     vertex  2.974280e+00  4.349019e+01 -2.703204e+00
   endloop
 endfacet
 facet normal  5.808322e-01 -5.808322e-01 -5.703226e-01
   outer loop
     vertex -1.409679e+01  2.641912e+01 -2.703204e+00
     vertex -1.424073e+01  2.656306e+01 -2.996388e+00
     vertex  2.830341e+00  4.363413e+01 -2.996388e+00
   endloop
 endfacet
 facet normal  6.081219e-01 -6.081219e-01 -5.102700e-01
   outer loop
     vertex -1.396800e+01  2.629033e+01 -2.396245e+00
     vertex -1.409679e+01  2.641912e+01 -2.703204e+00
     vertex  2.974280e+00  4.349019e+01 -2.703204e+00
   endloop
 endfacet
 facet normal  6.081219e-01 -6.081219e-01 -5.102700e-01
   outer loop
     vertex -1.396800e+01  2.629033e+01 -2.396245e+00
     vertex  2.974280e+00  4.349019e+01 -2.703204e+00
     vertex  3.103064e+00  4.336140e+01 -2.396245e+00
   endloop
 endfacet
 facet normal  6.323128e-01 -6.323128e-01 -4.476172e-01
   outer loop
     vertex -1.385503e+01  2.617736e+01 -2.077075e+00
     vertex -1.396800e+01  2.629033e+01 -2.396245e+00
     vertex  3.103064e+00  4.336140e+01 -2.396245e+00
   endloop
 endfacet
 facet normal  6.323128e-01 -6.323128e-01 -4.476172e-01
   outer loop
     vertex -1.385503e+01  2.617736e+01 -2.077075e+00
     vertex  3.103064e+00  4.336140e+01 -2.396245e+00
     vertex  3.216035e+00  4.324843e+01 -2.077075e+00
   endloop
 endfacet
 facet normal  6.532815e-01 -6.532815e-01 -3.826834e-01
   outer loop
     vertex -1.385503e+01  2.617736e+01 -2.077075e+00
     vertex  3.216035e+00  4.324843e+01 -2.077075e+00
     vertex  3.312618e+00  4.315185e+01 -1.747321e+00
   endloop
 endfacet
 facet normal  6.532815e-01 -6.532815e-01 -3.826834e-01
   outer loop
     vertex -1.375845e+01  2.608078e+01 -1.747321e+00
     vertex -1.385503e+01  2.617736e+01 -2.077075e+00
     vertex  3.312618e+00  4.315185e+01 -1.747321e+00
   endloop
 endfacet
 facet normal  6.709212e-01 -6.709212e-01 -3.157996e-01
   outer loop
     vertex -1.367875e+01  2.600108e+01 -1.408663e+00
     vertex -1.375845e+01  2.608078e+01 -1.747321e+00
     vertex  3.312618e+00  4.315185e+01 -1.747321e+00
   endloop
 endfacet
 facet normal  6.709212e-01 -6.709212e-01 -3.157996e-01
   outer loop
     vertex -1.367875e+01  2.600108e+01 -1.408663e+00
     vertex  3.312618e+00  4.315185e+01 -1.747321e+00
     vertex  3.392320e+00  4.307215e+01 -1.408663e+00
   endloop
 endfacet
 facet normal  6.851421e-01 -6.851421e-01 -2.473065e-01
   outer loop
     vertex -1.361633e+01  2.593866e+01 -1.062826e+00
     vertex -1.367875e+01  2.600108e+01 -1.408663e+00
     vertex  3.392320e+00  4.307215e+01 -1.408663e+00
   endloop
 endfacet
 facet normal  6.851421e-01 -6.851421e-01 -2.473065e-01
   outer loop
     vertex -1.361633e+01  2.593866e+01 -1.062826e+00
     vertex  3.392320e+00  4.307215e+01 -1.408663e+00
     vertex  3.454736e+00  4.300973e+01 -1.062826e+00
   endloop
 endfacet
 facet normal  6.958717e-01 -6.958717e-01 -1.775532e-01
   outer loop
     vertex -1.357152e+01  2.589385e+01 -7.115742e-01
     vertex -1.361633e+01  2.593866e+01 -1.062826e+00
     vertex  3.454736e+00  4.300973e+01 -1.062826e+00
   endloop
 endfacet
 facet normal  6.958717e-01 -6.958717e-01 -1.775532e-01
   outer loop
     vertex -1.357152e+01  2.589385e+01 -7.115742e-01
     vertex  3.454736e+00  4.300973e+01 -1.062826e+00
     vertex  3.499547e+00  4.296492e+01 -7.115742e-01
   endloop
 endfacet
 facet normal  7.030553e-01 -7.030553e-01 -1.068951e-01
   outer loop
     vertex -1.354454e+01  2.586687e+01 -3.566959e-01
     vertex -1.357152e+01  2.589385e+01 -7.115742e-01
     vertex  3.499547e+00  4.296492e+01 -7.115742e-01
   endloop
 endfacet
 facet normal  7.030553e-01 -7.030553e-01 -1.068951e-01
   outer loop
     vertex -1.354454e+01  2.586687e+01 -3.566959e-01
     vertex  3.499547e+00  4.296492e+01 -7.115742e-01
     vertex  3.526526e+00  4.293794e+01 -3.566959e-01
   endloop
 endfacet
 facet normal  7.066562e-01 -7.066562e-01 -3.569233e-02
   outer loop
     vertex -1.353553e+01  2.585786e+01 -1.224647e-15
     vertex -1.354454e+01  2.586687e+01 -3.566959e-01
     vertex  3.526526e+00  4.293794e+01 -3.566959e-01
   endloop
 endfacet
 facet normal  7.066562e-01 -7.066562e-01 -3.569233e-02
   outer loop
     vertex -1.353553e+01  2.585786e+01 -1.224647e-15
     vertex  3.526526e+00  4.293794e+01 -3.566959e-01
     vertex  3.535534e+00  4.292893e+01 -1.224647e-15
   endloop
 endfacet
 facet normal -7.071068e-01 -7.071068e-01  0.000000e+00
   outer loop
     vertex -1.656791e+01  2.889024e+01  4.949107e+00
     vertex -1.732329e+01  2.964562e+01  4.987261e+00
     vertex -1.782260e+01  3.014493e+01  4.885734e+00
   endloop
 endfacet
 facet normal -7.071068e-01 -7.071068e-01  0.000000e+00
   outer loop
     vertex -1.656791e+01  2.889024e+01  4.949107e+00
     vertex -1.681885e+01  2.914118e+01  4.987261e+00
     vertex -1.707107e+01  2.939340e+01  5.000000e+00
   endloop
 endfacet
 facet normal -7.071068e-01 -7.071068e-01  0.000000e+00
   outer loop
     vertex -1.656791e+01  2.889024e+01  4.949107e+00
     vertex -1.707107e+01  2.939340e+01  5.000000e+00
     vertex -1.732329e+01  2.964562e+01  4.987261e+00
   endloop
 endfacet
 facet normal -7.071068e-01 -7.071068e-01  0.000000e+00
   outer loop
     vertex -1.656791e+01  2.889024e+01  4.949107e+00
     vertex -1.782260e+01  3.014493e+01  4.885734e+00
     vertex -1.357152e+01  2.589385e+01  7.115742e-01
   endloop
 endfacet
 facet normal -7.071068e-01 -7.071068e-01  7.361307e-16
   outer loop
     vertex -1.537667e+01  2.769900e+01 -4.388395e+00
     vertex -2.046339e+01  3.278572e+01 -1.408663e+00
     vertex -1.830661e+01  3.062894e+01 -4.684749e+00
   endloop
 endfacet
 facet normal -7.071068e-01 -7.071068e-01  0.000000e+00
   outer loop
     vertex -1.537667e+01  2.769900e+01 -4.388395e+00
     vertex -1.830661e+01  3.062894e+01 -4.684749e+00
     vertex -1.681885e+01  2.914118e+01 -4.987261e+00
   endloop
 endfacet
 facet normal -7.071068e-01 -7.071068e-01  0.000000e+00
   outer loop
     vertex -1.974305e+01  3.206538e+01 -3.274304e+00
     vertex -1.957107e+01  3.189340e+01 -3.535534e+00
     vertex -1.938635e+01  3.170868e+01 -3.778748e+00
   endloop
 endfacet
 facet normal -7.071068e-01 -7.071068e-01  0.000000e+00
   outer loop
     vertex -1.537667e+01  2.769900e+01 -4.388395e+00
     vertex -1.656791e+01  2.889024e+01 -4.949107e+00
     vertex -1.607499e+01  2.839732e+01 -4.797465e+00
   endloop
 endfacet
 facet normal -7.071068e-01 -7.071068e-01  0.000000e+00
   outer loop
     vertex -1.537667e+01  2.769900e+01 -4.388395e+00
     vertex -1.681885e+01  2.914118e+01 -4.987261e+00
     vertex -1.656791e+01  2.889024e+01 -4.949107e+00
   endloop
 endfacet
 facet normal -7.071068e-01 -7.071068e-01  0.000000e+00
   outer loop
     vertex -1.537667e+01  2.769900e+01 -4.388395e+00
     vertex -1.607499e+01  2.839732e+01 -4.797465e+00
     vertex -1.583553e+01  2.815786e+01 -4.684749e+00
   endloop
 endfacet
 facet normal -7.071068e-01 -7.071068e-01  0.000000e+00
   outer loop
     vertex -1.537667e+01  2.769900e+01 -4.388395e+00
     vertex -1.583553e+01  2.815786e+01 -4.684749e+00
     vertex -1.560235e+01  2.792468e+01 -4.548160e+00
   endloop
 endfacet
 facet normal -7.071068e-01 -7.071068e-01  0.000000e+00
   outer loop
     vertex -1.607499e+01  2.839732e+01  4.797465e+00
     vertex -1.631954e+01  2.864187e+01  4.885734e+00
     vertex -1.656791e+01  2.889024e+01  4.949107e+00
   endloop
 endfacet
 facet normal -7.071068e-01 -7.071068e-01  2.931751e-15
   outer loop
     vertex -1.375845e+01  2.608078e+01  1.747321e+00
     vertex -1.357152e+01  2.589385e+01  7.115742e-01
     vertex -1.361633e+01  2.593866e+01  1.062826e+00
   endloop
 endfacet
 facet normal -7.071068e-01 -7.071068e-01  1.221609e-14
   outer loop
     vertex -1.375845e+01  2.608078e+01  1.747321e+00
     vertex -1.361633e+01  2.593866e+01  1.062826e+00
     vertex -1.367875e+01  2.600108e+01  1.408663e+00
   endloop
 endfacet
 facet normal -7.071068e-01 -7.071068e-01 -1.630292e-15
   outer loop
     vertex -1.583553e+01  2.815786e+01  4.684749e+00
     vertex -1.656791e+01  2.889024e+01  4.949107e+00
     vertex -1.357152e+01  2.589385e+01  7.115742e-01
   endloop
 endfacet
 facet normal -7.071068e-01 -7.071068e-01  3.212180e-14
   outer loop
     vertex -1.583553e+01  2.815786e+01  4.684749e+00
     vertex -1.607499e+01  2.839732e+01  4.797465e+00
     vertex -1.656791e+01  2.889024e+01  4.949107e+00
   endloop
 endfacet
 facet normal -7.071068e-01 -7.071068e-01  1.801873e-13
   outer loop
     vertex -2.004535e+01  3.236768e+01 -2.703204e+00
     vertex -1.990141e+01  3.222374e+01 -2.996388e+00
     vertex -1.974305e+01  3.206538e+01 -3.274304e+00
   endloop
 endfacet
 facet normal -7.071068e-01 -7.071068e-01 -1.641402e-15
   outer loop
     vertex -1.583553e+01  2.815786e+01  4.684749e+00
     vertex -1.357152e+01  2.589385e+01  7.115742e-01
     vertex -1.375845e+01  2.608078e+01  1.747321e+00
   endloop
 endfacet
 facet normal -7.071068e-01 -7.071068e-01  4.409245e-14
   outer loop
     vertex -2.004535e+01  3.236768e+01  2.703204e+00
     vertex -2.017413e+01  3.249646e+01  2.396245e+00
     vertex -2.028710e+01  3.260943e+01  2.077075e+00
   endloop
 endfacet
 facet normal -7.071068e-01 -7.071068e-01  7.693724e-15
   outer loop
     vertex -2.004535e+01  3.236768e+01 -2.703204e+00
     vertex -1.938635e+01  3.170868e+01 -3.778748e+00
     vertex -1.918983e+01  3.151216e+01 -4.002706e+00
   endloop
 endfacet
 facet normal -7.071068e-01 -7.071068e-01  1.261928e-14
   outer loop
     vertex -2.004535e+01  3.236768e+01  2.703204e+00
     vertex -2.028710e+01  3.260943e+01  2.077075e+00
     vertex -2.038369e+01  3.270602e+01  1.747321e+00
   endloop
 endfacet
 facet normal -7.071068e-01 -7.071068e-01  5.563117e-15
   outer loop
     vertex -2.004535e+01  3.236768e+01 -2.703204e+00
     vertex -1.918983e+01  3.151216e+01 -4.002706e+00
     vertex -1.898252e+01  3.130485e+01 -4.206268e+00
   endloop
 endfacet
 facet normal -7.071068e-01 -7.071068e-01  4.951981e-14
   outer loop
     vertex -2.004535e+01  3.236768e+01  2.703204e+00
     vertex -2.038369e+01  3.270602e+01  1.747321e+00
     vertex -2.046339e+01  3.278572e+01  1.408663e+00
   endloop
 endfacet
 facet normal -7.071068e-01 -7.071068e-01 -1.892656e-14
   outer loop
     vertex -2.004535e+01  3.236768e+01  2.703204e+00
     vertex -2.046339e+01  3.278572e+01  1.408663e+00
     vertex -2.052580e+01  3.284813e+01  1.062826e+00
   endloop
 endfacet
 facet normal -7.071068e-01 -7.071068e-01  1.743633e-14
   outer loop
     vertex -2.004535e+01  3.236768e+01 -2.703204e+00
     vertex -1.974305e+01  3.206538e+01 -3.274304e+00
     vertex -1.938635e+01  3.170868e+01 -3.778748e+00
   endloop
 endfacet
 facet normal -7.071068e-01 -7.071068e-01  4.733664e-15
   outer loop
     vertex -1.876547e+01  3.108780e+01 -4.388395e+00
     vertex -2.004535e+01  3.236768e+01 -2.703204e+00
     vertex -1.898252e+01  3.130485e+01 -4.206268e+00
   endloop
 endfacet
 facet normal -7.071068e-01 -7.071068e-01  0.000000e+00
   outer loop
     vertex -1.495230e+01  2.727463e+01 -4.002706e+00
     vertex -2.052580e+01  3.284813e+01  1.062826e+00
     vertex -2.059759e+01  3.291992e+01 -3.566959e-01
   endloop
 endfacet
 facet normal -7.071068e-01 -7.071068e-01 -2.607531e-15
   outer loop
     vertex -1.495230e+01  2.727463e+01 -4.002706e+00
     vertex -2.059759e+01  3.291992e+01 -3.566959e-01
     vertex -2.046339e+01  3.278572e+01 -1.408663e+00
   endloop
 endfacet
 facet normal -7.071068e-01 -7.071068e-01  0.000000e+00
   outer loop
     vertex -1.495230e+01  2.727463e+01 -4.002706e+00
     vertex -2.046339e+01  3.278572e+01 -1.408663e+00
     vertex -1.537667e+01  2.769900e+01 -4.388395e+00
   endloop
 endfacet
 facet normal -7.071068e-01 -7.071068e-01  0.000000e+00
   outer loop
     vertex -1.495230e+01  2.727463e+01 -4.002706e+00
     vertex -2.004535e+01  3.236768e+01  2.703204e+00
     vertex -2.052580e+01  3.284813e+01  1.062826e+00
   endloop
 endfacet
 facet normal -7.071068e-01 -7.071068e-01  8.245860e-14
   outer loop
     vertex -1.495230e+01  2.727463e+01 -4.002706e+00
     vertex -1.537667e+01  2.769900e+01 -4.388395e+00
     vertex -1.515961e+01  2.748194e+01 -4.206268e+00
   endloop
 endfacet
 facet normal -7.071068e-01 -7.071068e-01  2.142910e-14
   outer loop
     vertex -1.853978e+01  3.086211e+01 -4.548160e+00
     vertex -2.004535e+01  3.236768e+01 -2.703204e+00
     vertex -1.876547e+01  3.108780e+01 -4.388395e+00
   endloop
 endfacet
 facet normal -7.071068e-01 -7.071068e-01  4.428332e-14
   outer loop
     vertex -1.515961e+01  2.748194e+01  4.206268e+00
     vertex -1.537667e+01  2.769900e+01  4.388395e+00
     vertex -1.560235e+01  2.792468e+01  4.548160e+00
   endloop
 endfacet
 facet normal -7.071068e-01 -7.071068e-01  4.428332e-14
   outer loop
     vertex -2.028710e+01  3.260943e+01 -2.077075e+00
     vertex -2.017413e+01  3.249646e+01 -2.396245e+00
     vertex -2.004535e+01  3.236768e+01 -2.703204e+00
   endloop
 endfacet
 facet normal -7.071068e-01 -7.071068e-01 -1.274674e-14
   outer loop
     vertex -1.409679e+01  2.641912e+01  2.703204e+00
     vertex -1.375845e+01  2.608078e+01  1.747321e+00
     vertex -1.385503e+01  2.617736e+01  2.077075e+00
   endloop
 endfacet
 facet normal -7.071068e-01 -7.071068e-01 -4.390157e-14
   outer loop
     vertex -1.409679e+01  2.641912e+01  2.703204e+00
     vertex -1.385503e+01  2.617736e+01  2.077075e+00
     vertex -1.396800e+01  2.629033e+01  2.396245e+00
   endloop
 endfacet
 facet normal -7.071068e-01 -7.071068e-01  0.000000e+00
   outer loop
     vertex -1.457107e+01  2.689340e+01 -3.535534e+00
     vertex -2.004535e+01  3.236768e+01  2.703204e+00
     vertex -1.495230e+01  2.727463e+01 -4.002706e+00
   endloop
 endfacet
 facet normal -7.071068e-01 -7.071068e-01  7.482355e-14
   outer loop
     vertex -1.457107e+01  2.689340e+01 -3.535534e+00
     vertex -1.495230e+01  2.727463e+01 -4.002706e+00
     vertex -1.475579e+01  2.707812e+01 -3.778748e+00
   endloop
 endfacet
 facet normal -7.071068e-01 -7.071068e-01  2.146923e-14
   outer loop
     vertex -1.495230e+01  2.727463e+01  4.002706e+00
     vertex -1.560235e+01  2.792468e+01  4.548160e+00
     vertex -1.583553e+01  2.815786e+01  4.684749e+00
   endloop
 endfacet
 facet normal -7.071068e-01 -7.071068e-01  2.133000e-15
   outer loop
     vertex -1.495230e+01  2.727463e+01  4.002706e+00
     vertex -1.583553e+01  2.815786e+01  4.684749e+00
     vertex -1.375845e+01  2.608078e+01  1.747321e+00
   endloop
 endfacet
 facet normal -7.071068e-01 -7.071068e-01 -4.231919e-14
   outer loop
     vertex -1.495230e+01  2.727463e+01  4.002706e+00
     vertex -1.515961e+01  2.748194e+01  4.206268e+00
     vertex -1.560235e+01  2.792468e+01  4.548160e+00
   endloop
 endfacet
 facet normal -7.071068e-01 -7.071068e-01 -1.962209e-13
   outer loop
     vertex -1.957107e+01  3.189340e+01  3.535534e+00
     vertex -1.974305e+01  3.206538e+01  3.274304e+00
     vertex -1.990141e+01  3.222374e+01  2.996388e+00
   endloop
 endfacet
 facet normal -7.071068e-01 -7.071068e-01  0.000000e+00
   outer loop
     vertex -2.046339e+01  3.278572e+01 -1.408663e+00
     vertex -2.004535e+01  3.236768e+01 -2.703204e+00
     vertex -1.853978e+01  3.086211e+01 -4.548160e+00
   endloop
 endfacet
 facet normal -7.071068e-01 -7.071068e-01  2.050206e-14
   outer loop
     vertex -2.046339e+01  3.278572e+01 -1.408663e+00
     vertex -2.028710e+01  3.260943e+01 -2.077075e+00
     vertex -2.004535e+01  3.236768e+01 -2.703204e+00
   endloop
 endfacet
 facet normal -7.071068e-01 -7.071068e-01  3.779353e-14
   outer loop
     vertex -2.046339e+01  3.278572e+01 -1.408663e+00
     vertex -2.038369e+01  3.270602e+01 -1.747321e+00
     vertex -2.028710e+01  3.260943e+01 -2.077075e+00
   endloop
 endfacet
 facet normal -7.071068e-01 -7.071068e-01 -1.037141e-14
   outer loop
     vertex -2.046339e+01  3.278572e+01 -1.408663e+00
     vertex -1.853978e+01  3.086211e+01 -4.548160e+00
     vertex -1.830661e+01  3.062894e+01 -4.684749e+00
   endloop
 endfacet
 facet normal -7.071068e-01 -7.071068e-01 -3.130373e-14
   outer loop
     vertex -1.439909e+01  2.672142e+01  3.274304e+00
     vertex -1.409679e+01  2.641912e+01  2.703204e+00
     vertex -1.424073e+01  2.656306e+01  2.996388e+00
   endloop
 endfacet
 facet normal -7.071068e-01 -7.071068e-01  0.000000e+00
   outer loop
     vertex -1.439909e+01  2.672142e+01  3.274304e+00
     vertex -1.475579e+01  2.707812e+01  3.778748e+00
     vertex -1.495230e+01  2.727463e+01  4.002706e+00
   endloop
 endfacet
 facet normal -7.071068e-01 -7.071068e-01  1.229949e-14
   outer loop
     vertex -1.439909e+01  2.672142e+01  3.274304e+00
     vertex -1.375845e+01  2.608078e+01  1.747321e+00
     vertex -1.409679e+01  2.641912e+01  2.703204e+00
   endloop
 endfacet
 facet normal -7.071068e-01 -7.071068e-01 -1.503577e-15
   outer loop
     vertex -1.424073e+01  2.656306e+01 -2.996388e+00
     vertex -2.004535e+01  3.236768e+01  2.703204e+00
     vertex -1.457107e+01  2.689340e+01 -3.535534e+00
   endloop
 endfacet
 facet normal -7.071068e-01 -7.071068e-01  1.868656e-15
   outer loop
     vertex -1.439909e+01  2.672142e+01  3.274304e+00
     vertex -1.495230e+01  2.727463e+01  4.002706e+00
     vertex -1.375845e+01  2.608078e+01  1.747321e+00
   endloop
 endfacet
 facet normal -7.071068e-01 -7.071068e-01  3.054022e-14
   outer loop
     vertex -1.424073e+01  2.656306e+01 -2.996388e+00
     vertex -1.457107e+01  2.689340e+01 -3.535534e+00
     vertex -1.439909e+01  2.672142e+01 -3.274304e+00
   endloop
 endfacet
 facet normal -7.071068e-01 -7.071068e-01  0.000000e+00
   outer loop
     vertex -1.782260e+01  3.014493e+01 -4.885734e+00
     vertex -1.830661e+01  3.062894e+01 -4.684749e+00
     vertex -1.806714e+01  3.038947e+01 -4.797465e+00
   endloop
 endfacet
 facet normal -7.071068e-01 -7.071068e-01  0.000000e+00
   outer loop
     vertex -1.457107e+01  2.689340e+01  3.535534e+00
     vertex -1.475579e+01  2.707812e+01  3.778748e+00
     vertex -1.439909e+01  2.672142e+01  3.274304e+00
   endloop
 endfacet
 facet normal -7.071068e-01 -7.071068e-01  0.000000e+00
   outer loop
     vertex -1.918983e+01  3.151216e+01  4.002706e+00
     vertex -1.938635e+01  3.170868e+01  3.778748e+00
     vertex -1.957107e+01  3.189340e+01  3.535534e+00
   endloop
 endfacet
 facet normal -7.071068e-01 -7.071068e-01  3.369851e-14
   outer loop
     vertex -1.918983e+01  3.151216e+01  4.002706e+00
     vertex -1.990141e+01  3.222374e+01  2.996388e+00
     vertex -2.004535e+01  3.236768e+01  2.703204e+00
   endloop
 endfacet
 facet normal -7.071068e-01 -7.071068e-01 -1.877759e-14
   outer loop
     vertex -1.918983e+01  3.151216e+01  4.002706e+00
     vertex -1.957107e+01  3.189340e+01  3.535534e+00
     vertex -1.990141e+01  3.222374e+01  2.996388e+00
   endloop
 endfacet
 facet normal -7.071068e-01 -7.071068e-01  1.011397e-16
   outer loop
     vertex -1.918983e+01  3.151216e+01  4.002706e+00
     vertex -2.004535e+01  3.236768e+01  2.703204e+00
     vertex -1.424073e+01  2.656306e+01 -2.996388e+00
   endloop
 endfacet
 facet normal -7.071068e-01 -7.071068e-01  0.000000e+00
   outer loop
     vertex -1.757423e+01  2.989656e+01 -4.949107e+00
     vertex -1.830661e+01  3.062894e+01 -4.684749e+00
     vertex -1.782260e+01  3.014493e+01 -4.885734e+00
   endloop
 endfacet
 facet normal -7.071068e-01 -7.071068e-01  0.000000e+00
   outer loop
     vertex -1.876547e+01  3.108780e+01  4.388395e+00
     vertex -1.898252e+01  3.130485e+01  4.206268e+00
     vertex -1.918983e+01  3.151216e+01  4.002706e+00
   endloop
 endfacet
 facet normal -7.071068e-01 -7.071068e-01 -3.860475e-14
   outer loop
     vertex -2.059759e+01  3.291992e+01 -3.566959e-01
     vertex -2.057062e+01  3.289295e+01 -7.115742e-01
     vertex -2.052580e+01  3.284813e+01 -1.062826e+00
   endloop
 endfacet
 facet normal -7.071068e-01 -7.071068e-01  2.686376e-14
   outer loop
     vertex -2.059759e+01  3.291992e+01 -3.566959e-01
     vertex -2.052580e+01  3.284813e+01 -1.062826e+00
     vertex -2.046339e+01  3.278572e+01 -1.408663e+00
   endloop
 endfacet
 facet normal -7.071068e-01 -7.071068e-01  8.663429e-17
   outer loop
     vertex -1.853978e+01  3.086211e+01  4.548160e+00
     vertex -1.918983e+01  3.151216e+01  4.002706e+00
     vertex -1.424073e+01  2.656306e+01 -2.996388e+00
   endloop
 endfacet
 facet normal -7.071068e-01 -7.071068e-01  0.000000e+00
   outer loop
     vertex -1.853978e+01  3.086211e+01  4.548160e+00
     vertex -1.876547e+01  3.108780e+01  4.388395e+00
     vertex -1.918983e+01  3.151216e+01  4.002706e+00
   endloop
 endfacet
 facet normal -7.071068e-01 -7.071068e-01 -1.099020e-14
   outer loop
     vertex -1.375845e+01  2.608078e+01 -1.747321e+00
     vertex -1.424073e+01  2.656306e+01 -2.996388e+00
     vertex -1.409679e+01  2.641912e+01 -2.703204e+00
   endloop
 endfacet
 facet normal -7.071068e-01 -7.071068e-01  0.000000e+00
   outer loop
     vertex -1.375845e+01  2.608078e+01 -1.747321e+00
     vertex -1.409679e+01  2.641912e+01 -2.703204e+00
     vertex -1.396800e+01  2.629033e+01 -2.396245e+00
   endloop
 endfacet
 facet normal -7.071068e-01 -7.071068e-01  0.000000e+00
   outer loop
     vertex -1.375845e+01  2.608078e+01 -1.747321e+00
     vertex -1.396800e+01  2.629033e+01 -2.396245e+00
     vertex -1.385503e+01  2.617736e+01 -2.077075e+00
   endloop
 endfacet
 facet normal -7.071068e-01 -7.071068e-01  0.000000e+00
   outer loop
     vertex -1.681885e+01  2.914118e+01 -4.987261e+00
     vertex -1.830661e+01  3.062894e+01 -4.684749e+00
     vertex -1.757423e+01  2.989656e+01 -4.949107e+00
   endloop
 endfacet
 facet normal -7.071068e-01 -7.071068e-01  0.000000e+00
   outer loop
     vertex -1.681885e+01  2.914118e+01 -4.987261e+00
     vertex -1.757423e+01  2.989656e+01 -4.949107e+00
     vertex -1.732329e+01  2.964562e+01 -4.987261e+00
   endloop
 endfacet
 facet normal -7.071068e-01 -7.071068e-01  0.000000e+00
   outer loop
     vertex -1.681885e+01  2.914118e+01 -4.987261e+00
     vertex -1.732329e+01  2.964562e+01 -4.987261e+00
     vertex -1.707107e+01  2.939340e+01 -5.000000e+00
   endloop
 endfacet
 facet normal -7.071068e-01 -7.071068e-01  0.000000e+00
   outer loop
     vertex -1.806714e+01  3.038947e+01  4.797465e+00
     vertex -1.830661e+01  3.062894e+01  4.684749e+00
     vertex -1.853978e+01  3.086211e+01  4.548160e+00
   endloop
 endfacet
 facet normal -7.071068e-01 -7.071068e-01 -1.565186e-14
   outer loop
     vertex -1.361633e+01  2.593866e+01 -1.062826e+00
     vertex -1.375845e+01  2.608078e+01 -1.747321e+00
     vertex -1.367875e+01  2.600108e+01 -1.408663e+00
   endloop
 endfacet
 facet normal -7.071068e-01 -7.071068e-01  0.000000e+00
   outer loop
     vertex -1.782260e+01  3.014493e+01  4.885734e+00
     vertex -1.806714e+01  3.038947e+01  4.797465e+00
     vertex -1.853978e+01  3.086211e+01  4.548160e+00
   endloop
 endfacet
 facet normal -7.071068e-01 -7.071068e-01  7.026637e-15
   outer loop
     vertex -2.057062e+01  3.289295e+01  7.115742e-01
     vertex -2.059759e+01  3.291992e+01  3.566959e-01
     vertex -2.060660e+01  3.292893e+01  5.053215e-15
   endloop
 endfacet
 facet normal -7.071068e-01 -7.071068e-01  5.269222e-15
   outer loop
     vertex -1.354454e+01  2.586687e+01 -3.566959e-01
     vertex -1.375845e+01  2.608078e+01 -1.747321e+00
     vertex -1.361633e+01  2.593866e+01 -1.062826e+00
   endloop
 endfacet
 facet normal -7.071068e-01 -7.071068e-01  0.000000e+00
   outer loop
     vertex -1.354454e+01  2.586687e+01 -3.566959e-01
     vertex -1.782260e+01  3.014493e+01  4.885734e+00
     vertex -1.853978e+01  3.086211e+01  4.548160e+00
   endloop
 endfacet
 facet normal -7.071068e-01 -7.071068e-01 -5.249101e-15
   outer loop
     vertex -1.354454e+01  2.586687e+01 -3.566959e-01
     vertex -1.361633e+01  2.593866e+01 -1.062826e+00
     vertex -1.357152e+01  2.589385e+01 -7.115742e-01
   endloop
 endfacet
 facet normal -7.071068e-01 -7.071068e-01 -4.696395e-15
   outer loop
     vertex -2.052580e+01  3.284813e+01  1.062826e+00
     vertex -2.060660e+01  3.292893e+01  5.053215e-15
     vertex -2.059759e+01  3.291992e+01 -3.566959e-01
   endloop
 endfacet
 facet normal -7.071068e-01 -7.071068e-01 -6.809902e-16
   outer loop
     vertex -1.354454e+01  2.586687e+01 -3.566959e-01
     vertex -1.424073e+01  2.656306e+01 -2.996388e+00
     vertex -1.375845e+01  2.608078e+01 -1.747321e+00
   endloop
 endfacet
 facet normal -7.071068e-01 -7.071068e-01  1.639550e-14
   outer loop
     vertex -2.052580e+01  3.284813e+01  1.062826e+00
     vertex -2.057062e+01  3.289295e+01  7.115742e-01
     vertex -2.060660e+01  3.292893e+01  5.053215e-15
   endloop
 endfacet
 facet normal -7.071068e-01 -7.071068e-01  4.539867e-16
   outer loop
     vertex -1.354454e+01  2.586687e+01 -3.566959e-01
     vertex -1.853978e+01  3.086211e+01  4.548160e+00
     vertex -1.424073e+01  2.656306e+01 -2.996388e+00
   endloop
 endfacet
 facet normal -7.071068e-01 -7.071068e-01  0.000000e+00
   outer loop
     vertex -1.732329e+01  2.964562e+01  4.987261e+00
     vertex -1.757423e+01  2.989656e+01  4.949107e+00
     vertex -1.782260e+01  3.014493e+01  4.885734e+00
   endloop
 endfacet
 facet normal -7.071068e-01 -7.071068e-01  0.000000e+00
   outer loop
     vertex -1.607499e+01  2.839732e+01 -4.797465e+00
     vertex -1.656791e+01  2.889024e+01 -4.949107e+00
     vertex -1.631954e+01  2.864187e+01 -4.885734e+00
   endloop
 endfacet
 facet normal -7.071068e-01 -7.071068e-01  0.000000e+00
   outer loop
     vertex -1.357152e+01  2.589385e+01  7.115742e-01
     vertex -1.353553e+01  2.585786e+01 -1.224647e-15
     vertex -1.354454e+01  2.586687e+01  3.566959e-01
   endloop
 endfacet
 facet normal -7.071068e-01 -7.071068e-01  0.000000e+00
   outer loop
     vertex -1.357152e+01  2.589385e+01  7.115742e-01
     vertex -1.782260e+01  3.014493e+01  4.885734e+00
     vertex -1.354454e+01  2.586687e+01 -3.566959e-01
   endloop
 endfacet
 facet normal -7.071068e-01 -7.071068e-01  0.000000e+00
   outer loop
     vertex -1.357152e+01  2.589385e+01  7.115742e-01
     vertex -1.354454e+01  2.586687e+01 -3.566959e-01
     vertex -1.353553e+01  2.585786e+01 -1.224647e-15
   endloop
 endfacet
 facet normal  7.071068e-01  7.071068e-01  1.230556e-14
   outer loop
     vertex  3.526526e+00  4.293794e+01  3.566959e-01
     vertex  3.535534e+00  4.292893e+01 -1.224647e-15
     vertex  3.499547e+00  4.296492e+01  7.115742e-01
   endloop
 endfacet
 facet normal  7.071068e-01  7.071068e-01  2.519568e-14
   outer loop
     vertex -2.315282e+00  4.877975e+01 -3.778748e+00
     vertex -2.500000e+00  4.896447e+01 -3.535534e+00
     vertex -2.671978e+00  4.913644e+01 -3.274304e+00
   endloop
 endfacet
 facet normal  7.071068e-01  7.071068e-01 -2.413698e-15
   outer loop
     vertex  3.526526e+00  4.293794e+01 -3.566959e-01
     vertex -1.468714e+00  4.793318e+01  4.548160e+00
     vertex  3.499547e+00  4.296492e+01  7.115742e-01
   endloop
 endfacet
 facet normal  7.071068e-01  7.071068e-01 -4.697375e-15
   outer loop
     vertex  3.535534e+00  4.292893e+01 -1.224647e-15
     vertex  3.526526e+00  4.293794e+01 -3.566959e-01
     vertex  3.499547e+00  4.296492e+01  7.115742e-01
   endloop
 endfacet
 facet normal  7.071068e-01  7.071068e-01 -1.328822e-14
   outer loop
     vertex -1.468714e+00  4.793318e+01  4.548160e+00
     vertex -7.515318e-01  4.721600e+01  4.885734e+00
     vertex  5.031589e-01  4.596131e+01  4.949107e+00
   endloop
 endfacet
 facet normal  7.071068e-01  7.071068e-01  7.379692e-15
   outer loop
     vertex -7.515318e-01  4.721600e+01  4.885734e+00
     vertex -2.522221e-01  4.671669e+01  4.987261e+00
     vertex  5.031589e-01  4.596131e+01  4.949107e+00
   endloop
 endfacet
 facet normal  7.071068e-01  7.071068e-01 -2.748620e-14
   outer loop
     vertex  1.001535e-15  4.646447e+01  5.000000e+00
     vertex  2.522221e-01  4.621224e+01  4.987261e+00
     vertex  5.031589e-01  4.596131e+01  4.949107e+00
   endloop
 endfacet
 facet normal  7.071068e-01  7.071068e-01 -1.019740e-14
   outer loop
     vertex -2.522221e-01  4.671669e+01  4.987261e+00
     vertex  1.001535e-15  4.646447e+01  5.000000e+00
     vertex  5.031589e-01  4.596131e+01  4.949107e+00
   endloop
 endfacet
 facet normal  7.071068e-01  7.071068e-01  1.393942e-14
   outer loop
     vertex  9.960750e-01  4.546839e+01 -4.797465e+00
     vertex  5.031589e-01  4.596131e+01 -4.949107e+00
     vertex  1.694401e+00  4.477007e+01 -4.388395e+00
   endloop
 endfacet
 facet normal  7.071068e-01  7.071068e-01 -3.942781e-16
   outer loop
     vertex  3.499547e+00  4.296492e+01  7.115742e-01
     vertex -1.468714e+00  4.793318e+01  4.548160e+00
     vertex  5.031589e-01  4.596131e+01  4.949107e+00
   endloop
 endfacet
 facet normal  7.071068e-01  7.071068e-01 -2.802163e-14
   outer loop
     vertex  5.031589e-01  4.596131e+01 -4.949107e+00
     vertex  2.522221e-01  4.621224e+01 -4.987261e+00
     vertex  1.694401e+00  4.477007e+01 -4.388395e+00
   endloop
 endfacet
 facet normal  7.071068e-01  7.071068e-01 -1.019740e-15
   outer loop
     vertex  1.235542e+00  4.522892e+01 -4.684749e+00
     vertex  9.960750e-01  4.546839e+01 -4.797465e+00
     vertex  1.694401e+00  4.477007e+01 -4.388395e+00
   endloop
 endfacet
 facet normal  7.071068e-01  7.071068e-01  1.068908e-14
   outer loop
     vertex  1.468714e+00  4.499575e+01 -4.548160e+00
     vertex  1.235542e+00  4.522892e+01 -4.684749e+00
     vertex  1.694401e+00  4.477007e+01 -4.388395e+00
   endloop
 endfacet
 facet normal  7.071068e-01  7.071068e-01 -1.908764e-14
   outer loop
     vertex -2.671978e+00  4.913644e+01 -3.274304e+00
     vertex -2.830341e+00  4.929481e+01 -2.996388e+00
     vertex -2.974280e+00  4.943875e+01 -2.703204e+00
   endloop
 endfacet
 facet normal  7.071068e-01  7.071068e-01  2.510066e-14
   outer loop
     vertex -2.315282e+00  4.877975e+01 -3.778748e+00
     vertex -2.671978e+00  4.913644e+01 -3.274304e+00
     vertex -2.974280e+00  4.943875e+01 -2.703204e+00
   endloop
 endfacet
 facet normal  7.071068e-01  7.071068e-01  1.244514e-13
   outer loop
     vertex  5.031589e-01  4.596131e+01  4.949107e+00
     vertex  7.515318e-01  4.571293e+01  4.885734e+00
     vertex  9.960750e-01  4.546839e+01  4.797465e+00
   endloop
 endfacet
 facet normal  7.071068e-01  7.071068e-01  3.168548e-14
   outer loop
     vertex -3.216035e+00  4.968050e+01  2.077075e+00
     vertex -3.103064e+00  4.956753e+01  2.396245e+00
     vertex -2.974280e+00  4.943875e+01  2.703204e+00
   endloop
 endfacet
 facet normal  7.071068e-01  7.071068e-01  1.580596e-14
   outer loop
     vertex -3.312618e+00  4.977708e+01  1.747321e+00
     vertex -3.216035e+00  4.968050e+01  2.077075e+00
     vertex -2.974280e+00  4.943875e+01  2.703204e+00
   endloop
 endfacet
 facet normal  7.071068e-01  7.071068e-01  1.757154e-14
   outer loop
     vertex -3.392320e+00  4.985679e+01  1.408663e+00
     vertex -3.312618e+00  4.977708e+01  1.747321e+00
     vertex -2.974280e+00  4.943875e+01  2.703204e+00
   endloop
 endfacet
 facet normal  7.071068e-01  7.071068e-01  1.816411e-14
   outer loop
     vertex  3.454736e+00  4.300973e+01  1.062826e+00
     vertex  3.499547e+00  4.296492e+01  7.115742e-01
     vertex  3.312618e+00  4.315185e+01  1.747321e+00
   endloop
 endfacet
 facet normal  7.071068e-01  7.071068e-01  1.419492e-14
   outer loop
     vertex -3.454736e+00  4.991920e+01  1.062826e+00
     vertex -3.392320e+00  4.985679e+01  1.408663e+00
     vertex -2.974280e+00  4.943875e+01  2.703204e+00
   endloop
 endfacet
 facet normal  7.071068e-01  7.071068e-01 -1.431573e-14
   outer loop
     vertex  3.392320e+00  4.307215e+01  1.408663e+00
     vertex  3.454736e+00  4.300973e+01  1.062826e+00
     vertex  3.312618e+00  4.315185e+01  1.747321e+00
   endloop
 endfacet
 facet normal  7.071068e-01  7.071068e-01 -1.630292e-15
   outer loop
     vertex  3.499547e+00  4.296492e+01  7.115742e-01
     vertex  5.031589e-01  4.596131e+01  4.949107e+00
     vertex  1.235542e+00  4.522892e+01  4.684749e+00
   endloop
 endfacet
 facet normal  7.071068e-01  7.071068e-01 -3.875010e-14
   outer loop
     vertex  5.031589e-01  4.596131e+01  4.949107e+00
     vertex  9.960750e-01  4.546839e+01  4.797465e+00
     vertex  1.235542e+00  4.522892e+01  4.684749e+00
   endloop
 endfacet
 facet normal  7.071068e-01  7.071068e-01 -1.592405e-15
   outer loop
     vertex  3.312618e+00  4.315185e+01  1.747321e+00
     vertex  3.499547e+00  4.296492e+01  7.115742e-01
     vertex  1.235542e+00  4.522892e+01  4.684749e+00
   endloop
 endfacet
 facet normal  7.071068e-01  7.071068e-01  1.019740e-13
   outer loop
     vertex -1.911454e+00  4.837592e+01 -4.206268e+00
     vertex -2.118767e+00  4.858323e+01 -4.002706e+00
     vertex -1.468714e+00  4.793318e+01 -4.548160e+00
   endloop
 endfacet
 facet normal  7.071068e-01  7.071068e-01 -1.969844e-13
   outer loop
     vertex  1.911454e+00  4.455301e+01 -4.206268e+00
     vertex  1.694401e+00  4.477007e+01 -4.388395e+00
     vertex  2.118767e+00  4.434570e+01 -4.002706e+00
   endloop
 endfacet
 facet normal  7.071068e-01  7.071068e-01 -1.099448e-13
   outer loop
     vertex -1.694401e+00  4.815887e+01 -4.388395e+00
     vertex -1.911454e+00  4.837592e+01 -4.206268e+00
     vertex -1.468714e+00  4.793318e+01 -4.548160e+00
   endloop
 endfacet
 facet normal  7.071068e-01  7.071068e-01 -1.338044e-13
   outer loop
     vertex -2.974280e+00  4.943875e+01 -2.703204e+00
     vertex -3.103064e+00  4.956753e+01 -2.396245e+00
     vertex -3.216035e+00  4.968050e+01 -2.077075e+00
   endloop
 endfacet
 facet normal  7.071068e-01  7.071068e-01 -1.022344e-14
   outer loop
     vertex -1.468714e+00  4.793318e+01 -4.548160e+00
     vertex -2.118767e+00  4.858323e+01 -4.002706e+00
     vertex -1.235542e+00  4.770001e+01 -4.684749e+00
   endloop
 endfacet
 facet normal  7.071068e-01  7.071068e-01  2.137816e-14
   outer loop
     vertex  2.315282e+00  4.414918e+01 -3.778748e+00
     vertex  2.118767e+00  4.434570e+01 -4.002706e+00
     vertex  2.500000e+00  4.396447e+01 -3.535534e+00
   endloop
 endfacet
 facet normal  7.071068e-01  7.071068e-01  6.871550e-15
   outer loop
     vertex  1.468714e+00  4.499575e+01  4.548160e+00
     vertex  1.694401e+00  4.477007e+01  4.388395e+00
     vertex  1.911454e+00  4.455301e+01  4.206268e+00
   endloop
 endfacet
 facet normal  7.071068e-01  7.071068e-01 -3.473950e-14
   outer loop
     vertex -2.830341e+00  4.929481e+01  2.996388e+00
     vertex -2.671978e+00  4.913644e+01  3.274304e+00
     vertex -2.500000e+00  4.896447e+01  3.535534e+00
   endloop
 endfacet
 facet normal  7.071068e-01  7.071068e-01 -1.249181e-14
   outer loop
     vertex  3.216035e+00  4.324843e+01  2.077075e+00
     vertex  3.312618e+00  4.315185e+01  1.747321e+00
     vertex  2.974280e+00  4.349019e+01  2.703204e+00
   endloop
 endfacet
 facet normal  7.071068e-01  7.071068e-01 -4.428332e-14
   outer loop
     vertex  3.103064e+00  4.336140e+01  2.396245e+00
     vertex  3.216035e+00  4.324843e+01  2.077075e+00
     vertex  2.974280e+00  4.349019e+01  2.703204e+00
   endloop
 endfacet
 facet normal  7.071068e-01  7.071068e-01 -1.459265e-15
   outer loop
     vertex -2.315282e+00  4.877975e+01 -3.778748e+00
     vertex -2.974280e+00  4.943875e+01 -2.703204e+00
     vertex -3.392320e+00  4.985679e+01 -1.408663e+00
   endloop
 endfacet
 facet normal  7.071068e-01  7.071068e-01  2.711254e-14
   outer loop
     vertex -2.974280e+00  4.943875e+01 -2.703204e+00
     vertex -3.216035e+00  4.968050e+01 -2.077075e+00
     vertex -3.392320e+00  4.985679e+01 -1.408663e+00
   endloop
 endfacet
 facet normal  7.071068e-01  7.071068e-01  1.214128e-15
   outer loop
     vertex -1.235542e+00  4.770001e+01 -4.684749e+00
     vertex -2.118767e+00  4.858323e+01 -4.002706e+00
     vertex -3.392320e+00  4.985679e+01 -1.408663e+00
   endloop
 endfacet
 facet normal  7.071068e-01  7.071068e-01  8.638810e-14
   outer loop
     vertex  1.235542e+00  4.522892e+01  4.684749e+00
     vertex  1.468714e+00  4.499575e+01  4.548160e+00
     vertex  2.118767e+00  4.434570e+01  4.002706e+00
   endloop
 endfacet
 facet normal  7.071068e-01  7.071068e-01  4.332894e-14
   outer loop
     vertex -3.216035e+00  4.968050e+01 -2.077075e+00
     vertex -3.312618e+00  4.977708e+01 -1.747321e+00
     vertex -3.392320e+00  4.985679e+01 -1.408663e+00
   endloop
 endfacet
 facet normal  7.071068e-01  7.071068e-01  1.733557e-14
   outer loop
     vertex  1.468714e+00  4.499575e+01  4.548160e+00
     vertex  1.911454e+00  4.455301e+01  4.206268e+00
     vertex  2.118767e+00  4.434570e+01  4.002706e+00
   endloop
 endfacet
 facet normal  7.071068e-01  7.071068e-01  9.439532e-15
   outer loop
     vertex -2.118767e+00  4.858323e+01 -4.002706e+00
     vertex -2.315282e+00  4.877975e+01 -3.778748e+00
     vertex -3.392320e+00  4.985679e+01 -1.408663e+00
   endloop
 endfacet
 facet normal  7.071068e-01  7.071068e-01 -1.149648e-14
   outer loop
     vertex  2.500000e+00  4.396447e+01 -3.535534e+00
     vertex  2.118767e+00  4.434570e+01 -4.002706e+00
     vertex  2.830341e+00  4.363413e+01 -2.996388e+00
   endloop
 endfacet
 facet normal  7.071068e-01  7.071068e-01  9.772872e-14
   outer loop
     vertex  2.671978e+00  4.379249e+01 -3.274304e+00
     vertex  2.500000e+00  4.396447e+01 -3.535534e+00
     vertex  2.830341e+00  4.363413e+01 -2.996388e+00
   endloop
 endfacet
 facet normal  7.071068e-01  7.071068e-01  5.191838e-14
   outer loop
     vertex -9.960750e-01  4.746054e+01 -4.797465e+00
     vertex -1.235542e+00  4.770001e+01 -4.684749e+00
     vertex -7.515318e-01  4.721600e+01 -4.885734e+00
   endloop
 endfacet
 facet normal  7.071068e-01  7.071068e-01  1.846494e-15
   outer loop
     vertex  1.235542e+00  4.522892e+01  4.684749e+00
     vertex  2.118767e+00  4.434570e+01  4.002706e+00
     vertex  2.315282e+00  4.414918e+01  3.778748e+00
   endloop
 endfacet
 facet normal  7.071068e-01  7.071068e-01  1.985115e-14
   outer loop
     vertex -2.500000e+00  4.896447e+01  3.535534e+00
     vertex -2.315282e+00  4.877975e+01  3.778748e+00
     vertex -2.118767e+00  4.858323e+01  4.002706e+00
   endloop
 endfacet
 facet normal  7.071068e-01  7.071068e-01  4.477748e-14
   outer loop
     vertex -2.974280e+00  4.943875e+01  2.703204e+00
     vertex -2.830341e+00  4.929481e+01  2.996388e+00
     vertex -2.118767e+00  4.858323e+01  4.002706e+00
   endloop
 endfacet
 facet normal  7.071068e-01  7.071068e-01  8.843881e-17
   outer loop
     vertex -1.235542e+00  4.770001e+01 -4.684749e+00
     vertex -3.454736e+00  4.991920e+01  1.062826e+00
     vertex -2.118767e+00  4.858323e+01  4.002706e+00
   endloop
 endfacet
 facet normal  7.071068e-01  7.071068e-01  9.391119e-14
   outer loop
     vertex  2.830341e+00  4.363413e+01  2.996388e+00
     vertex  2.974280e+00  4.349019e+01  2.703204e+00
     vertex  2.671978e+00  4.379249e+01  3.274304e+00
   endloop
 endfacet
 facet normal  7.071068e-01  7.071068e-01 -1.562004e-15
   outer loop
     vertex -3.454736e+00  4.991920e+01  1.062826e+00
     vertex -2.974280e+00  4.943875e+01  2.703204e+00
     vertex -2.118767e+00  4.858323e+01  4.002706e+00
   endloop
 endfacet
 facet normal  7.071068e-01  7.071068e-01  1.704206e-15
   outer loop
     vertex  3.312618e+00  4.315185e+01  1.747321e+00
     vertex  1.235542e+00  4.522892e+01  4.684749e+00
     vertex  2.671978e+00  4.379249e+01  3.274304e+00
   endloop
 endfacet
 facet normal  7.071068e-01  7.071068e-01  1.352944e-14
   outer loop
     vertex  2.974280e+00  4.349019e+01  2.703204e+00
     vertex  3.312618e+00  4.315185e+01  1.747321e+00
     vertex  2.671978e+00  4.379249e+01  3.274304e+00
   endloop
 endfacet
 facet normal  7.071068e-01  7.071068e-01 -2.682513e-14
   outer loop
     vertex -2.830341e+00  4.929481e+01  2.996388e+00
     vertex -2.500000e+00  4.896447e+01  3.535534e+00
     vertex -2.118767e+00  4.858323e+01  4.002706e+00
   endloop
 endfacet
 facet normal  7.071068e-01  7.071068e-01 -1.949309e-15
   outer loop
     vertex  1.235542e+00  4.522892e+01  4.684749e+00
     vertex  2.315282e+00  4.414918e+01  3.778748e+00
     vertex  2.671978e+00  4.379249e+01  3.274304e+00
   endloop
 endfacet
 facet normal  7.071068e-01  7.071068e-01 -9.585552e-14
   outer loop
     vertex -7.515318e-01  4.721600e+01 -4.885734e+00
     vertex -1.235542e+00  4.770001e+01 -4.684749e+00
     vertex -5.031589e-01  4.696763e+01 -4.949107e+00
   endloop
 endfacet
 facet normal  7.071068e-01  7.071068e-01  1.679712e-14
   outer loop
     vertex  2.671978e+00  4.379249e+01  3.274304e+00
     vertex  2.315282e+00  4.414918e+01  3.778748e+00
     vertex  2.500000e+00  4.396447e+01  3.535534e+00
   endloop
 endfacet
 facet normal  7.071068e-01  7.071068e-01 -4.275631e-14
   outer loop
     vertex -2.118767e+00  4.858323e+01  4.002706e+00
     vertex -1.911454e+00  4.837592e+01  4.206268e+00
     vertex -1.694401e+00  4.815887e+01  4.388395e+00
   endloop
 endfacet
 facet normal  7.071068e-01  7.071068e-01 -2.982444e-14
   outer loop
     vertex -3.454736e+00  4.991920e+01 -1.062826e+00
     vertex -3.499547e+00  4.996401e+01 -7.115742e-01
     vertex -3.526526e+00  4.999099e+01 -3.566959e-01
   endloop
 endfacet
 facet normal  7.071068e-01  7.071068e-01  2.963618e-15
   outer loop
     vertex -3.392320e+00  4.985679e+01 -1.408663e+00
     vertex -3.454736e+00  4.991920e+01 -1.062826e+00
     vertex -3.526526e+00  4.999099e+01 -3.566959e-01
   endloop
 endfacet
 facet normal  7.071068e-01  7.071068e-01 -3.733978e-17
   outer loop
     vertex  2.522221e-01  4.621224e+01 -4.987261e+00
     vertex -1.235542e+00  4.770001e+01 -4.684749e+00
     vertex -1.468714e+00  4.793318e+01  4.548160e+00
   endloop
 endfacet
 facet normal  7.071068e-01  7.071068e-01  1.062137e-16
   outer loop
     vertex  1.694401e+00  4.477007e+01 -4.388395e+00
     vertex  2.522221e-01  4.621224e+01 -4.987261e+00
     vertex -1.468714e+00  4.793318e+01  4.548160e+00
   endloop
 endfacet
 facet normal  7.071068e-01  7.071068e-01  2.505962e-16
   outer loop
     vertex  2.118767e+00  4.434570e+01 -4.002706e+00
     vertex  1.694401e+00  4.477007e+01 -4.388395e+00
     vertex -1.468714e+00  4.793318e+01  4.548160e+00
   endloop
 endfacet
 facet normal  7.071068e-01  7.071068e-01  1.392799e-15
   outer loop
     vertex  2.830341e+00  4.363413e+01 -2.996388e+00
     vertex  2.118767e+00  4.434570e+01 -4.002706e+00
     vertex -1.468714e+00  4.793318e+01  4.548160e+00
   endloop
 endfacet
 facet normal  7.071068e-01  7.071068e-01  3.842577e-17
   outer loop
     vertex -1.235542e+00  4.770001e+01 -4.684749e+00
     vertex -2.118767e+00  4.858323e+01  4.002706e+00
     vertex -1.468714e+00  4.793318e+01  4.548160e+00
   endloop
 endfacet
 facet normal  7.071068e-01  7.071068e-01 -1.055430e-13
   outer loop
     vertex -2.118767e+00  4.858323e+01  4.002706e+00
     vertex -1.694401e+00  4.815887e+01  4.388395e+00
     vertex -1.468714e+00  4.793318e+01  4.548160e+00
   endloop
 endfacet
 facet normal  7.071068e-01  7.071068e-01  0.000000e+00
   outer loop
     vertex  2.830341e+00  4.363413e+01 -2.996388e+00
     vertex -1.468714e+00  4.793318e+01  4.548160e+00
     vertex  3.312618e+00  4.315185e+01 -1.747321e+00
   endloop
 endfacet
 facet normal  7.071068e-01  7.071068e-01  1.073462e-14
   outer loop
     vertex  2.974280e+00  4.349019e+01 -2.703204e+00
     vertex  2.830341e+00  4.363413e+01 -2.996388e+00
     vertex  3.312618e+00  4.315185e+01 -1.747321e+00
   endloop
 endfacet
 facet normal  7.071068e-01  7.071068e-01  3.747543e-14
   outer loop
     vertex  3.103064e+00  4.336140e+01 -2.396245e+00
     vertex  2.974280e+00  4.349019e+01 -2.703204e+00
     vertex  3.312618e+00  4.315185e+01 -1.747321e+00
   endloop
 endfacet
 facet normal  7.071068e-01  7.071068e-01  4.570904e-15
   outer loop
     vertex -5.031589e-01  4.696763e+01 -4.949107e+00
     vertex -1.235542e+00  4.770001e+01 -4.684749e+00
     vertex  2.522221e-01  4.621224e+01 -4.987261e+00
   endloop
 endfacet
 facet normal  7.071068e-01  7.071068e-01 -7.864108e-14
   outer loop
     vertex  3.216035e+00  4.324843e+01 -2.077075e+00
     vertex  3.103064e+00  4.336140e+01 -2.396245e+00
     vertex  3.312618e+00  4.315185e+01 -1.747321e+00
   endloop
 endfacet
 facet normal  7.071068e-01  7.071068e-01 -7.546073e-14
   outer loop
     vertex -2.522221e-01  4.671669e+01 -4.987261e+00
     vertex -5.031589e-01  4.696763e+01 -4.949107e+00
     vertex  2.522221e-01  4.621224e+01 -4.987261e+00
   endloop
 endfacet
 facet normal  7.071068e-01  7.071068e-01 -3.054022e-15
   outer loop
     vertex -6.929837e-15  4.646447e+01 -5.000000e+00
     vertex -2.522221e-01  4.671669e+01 -4.987261e+00
     vertex  2.522221e-01  4.621224e+01 -4.987261e+00
   endloop
 endfacet
 facet normal  7.071068e-01  7.071068e-01 -8.398562e-14
   outer loop
     vertex -1.468714e+00  4.793318e+01  4.548160e+00
     vertex -1.235542e+00  4.770001e+01  4.684749e+00
     vertex -9.960750e-01  4.746054e+01  4.797465e+00
   endloop
 endfacet
 facet normal  7.071068e-01  7.071068e-01 -5.516328e-14
   outer loop
     vertex  3.392320e+00  4.307215e+01 -1.408663e+00
     vertex  3.312618e+00  4.315185e+01 -1.747321e+00
     vertex  3.454736e+00  4.300973e+01 -1.062826e+00
   endloop
 endfacet
 facet normal  7.071068e-01  7.071068e-01  6.220411e-14
   outer loop
     vertex -1.468714e+00  4.793318e+01  4.548160e+00
     vertex -9.960750e-01  4.746054e+01  4.797465e+00
     vertex -7.515318e-01  4.721600e+01  4.885734e+00
   endloop
 endfacet
 facet normal  7.071068e-01  7.071068e-01 -1.230855e-14
   outer loop
     vertex -3.535534e+00  5.000000e+01  5.053215e-15
     vertex -3.526526e+00  4.999099e+01  3.566959e-01
     vertex -3.499547e+00  4.996401e+01  7.115742e-01
   endloop
 endfacet
 facet normal  7.071068e-01  7.071068e-01 -1.317096e-15
   outer loop
     vertex -1.235542e+00  4.770001e+01 -4.684749e+00
     vertex -3.392320e+00  4.985679e+01 -1.408663e+00
     vertex -3.454736e+00  4.991920e+01  1.062826e+00
   endloop
 endfacet
 facet normal  7.071068e-01  7.071068e-01 -8.484075e-16
   outer loop
     vertex -3.392320e+00  4.985679e+01 -1.408663e+00
     vertex -3.526526e+00  4.999099e+01 -3.566959e-01
     vertex -3.454736e+00  4.991920e+01  1.062826e+00
   endloop
 endfacet
 facet normal  7.071068e-01  7.071068e-01  1.528074e-14
   outer loop
     vertex  3.454736e+00  4.300973e+01 -1.062826e+00
     vertex  3.312618e+00  4.315185e+01 -1.747321e+00
     vertex  3.526526e+00  4.293794e+01 -3.566959e-01
   endloop
 endfacet
 facet normal  7.071068e-01  7.071068e-01  4.109345e-15
   outer loop
     vertex -3.526526e+00  4.999099e+01 -3.566959e-01
     vertex -3.535534e+00  5.000000e+01  5.053215e-15
     vertex -3.454736e+00  4.991920e+01  1.062826e+00
   endloop
 endfacet
 facet normal  7.071068e-01  7.071068e-01  4.110825e-15
   outer loop
     vertex -3.535534e+00  5.000000e+01  5.053215e-15
     vertex -3.499547e+00  4.996401e+01  7.115742e-01
     vertex -3.454736e+00  4.991920e+01  1.062826e+00
   endloop
 endfacet
 facet normal  7.071068e-01  7.071068e-01  6.108045e-15
   outer loop
     vertex  3.499547e+00  4.296492e+01 -7.115742e-01
     vertex  3.454736e+00  4.300973e+01 -1.062826e+00
     vertex  3.526526e+00  4.293794e+01 -3.566959e-01
   endloop
 endfacet
 facet normal  7.071068e-01  7.071068e-01  1.256750e-15
   outer loop
     vertex  3.312618e+00  4.315185e+01 -1.747321e+00
     vertex -1.468714e+00  4.793318e+01  4.548160e+00
     vertex  3.526526e+00  4.293794e+01 -3.566959e-01
   endloop
 endfacet
 facet normal  7.071068e-01  7.071068e-01  3.817528e-15
   outer loop
     vertex -7.515318e-01  4.721600e+01  4.885734e+00
     vertex -5.031589e-01  4.696763e+01  4.949107e+00
     vertex -2.522221e-01  4.671669e+01  4.987261e+00
   endloop
 endfacet
 facet normal  7.071068e-01  7.071068e-01 -2.137816e-13
   outer loop
     vertex  7.515318e-01  4.571293e+01 -4.885734e+00
     vertex  5.031589e-01  4.596131e+01 -4.949107e+00
     vertex  9.960750e-01  4.546839e+01 -4.797465e+00
   endloop
 endfacet
endsolid
