solid
 facet normal  0.000000e+00 -3.925982e-02  9.992290e-01
   outer loop
     vertex  3.000000e+01  5.000000e+00  5.000000e+00
     vertex  0.000000e+00  5.000000e+00  5.000000e+00
     vertex  0.000000e+00  4.607705e+00  4.984587e+00
   endloop
 endfacet
 facet normal  0.000000e+00 -3.925982e-02  9.992290e-01
   outer loop
     vertex  3.000000e+01  4.607705e+00  4.984587e+00
     vertex  3.000000e+01  5.000000e+00  5.000000e+00
     vertex  0.000000e+00  4.607705e+00  4.984587e+00
   endloop
 endfacet
 facet normal  0.000000e+00 -1.175374e-01  9.930685e-01
   outer loop
     vertex  3.000000e+01  4.607705e+00  4.984587e+00
     vertex  0.000000e+00  4.607705e+00  4.984587e+00
     vertex  0.000000e+00  4.217828e+00  4.938442e+00
   endloop
 endfacet
 facet normal  0.000000e+00 -1.175374e-01  9.930685e-01
   outer loop
     vertex  3.000000e+01  4.217828e+00  4.938442e+00
     vertex  3.000000e+01  4.607705e+00  4.984587e+00
     vertex  0.000000e+00  4.217828e+00  4.938442e+00
   endloop
 endfacet
 facet normal  0.000000e+00 -1.950903e-01  9.807853e-01
   outer loop
     vertex  3.000000e+01  4.217828e+00  4.938442e+00
     vertex  0.000000e+00  4.217828e+00  4.938442e+00
     vertex  0.000000e+00  3.832773e+00  4.861850e+00
   endloop
 endfacet
 facet normal  0.000000e+00 -1.950903e-01  9.807853e-01
   outer loop
     vertex  3.000000e+01  3.832773e+00  4.861850e+00
     vertex  3.000000e+01  4.217828e+00  4.938442e+00
     vertex  0.000000e+00  3.832773e+00  4.861850e+00
   endloop
 endfacet
 facet normal  0.000000e+00 -2.714404e-01  9.624552e-01
   outer loop
     vertex  3.000000e+01  3.454915e+00  4.755283e+00
     vertex  3.000000e+01  3.832773e+00  4.861850e+00
     vertex  0.000000e+00  3.832773e+00  4.861850e+00
   endloop
 endfacet
 facet normal  0.000000e+00 -2.714404e-01  9.624552e-01
   outer loop
     vertex  3.000000e+01  3.454915e+00  4.755283e+00
     vertex  0.000000e+00  3.832773e+00  4.861850e+00
     vertex  0.000000e+00  3.454915e+00  4.755283e+00
   endloop
 endfacet
 facet normal  0.000000e+00 -3.461171e-01  9.381913e-01
   outer loop
     vertex  3.000000e+01  3.454915e+00  4.755283e+00
     vertex  0.000000e+00  3.454915e+00  4.755283e+00
     vertex  0.000000e+00  3.086583e+00  4.619398e+00
   endloop
 endfacet
 facet normal  0.000000e+00 -4.186597e-01  9.081432e-01
   outer loop
     vertex  3.000000e+01  3.086583e+00  4.619398e+00
     vertex  0.000000e+00  3.086583e+00  4.619398e+00
     vertex  0.000000e+00  2.730048e+00  4.455033e+00
   endloop
 endfacet
 facet normal  0.000000e+00 -3.461171e-01  9.381913e-01
   outer loop
     vertex  3.000000e+01  3.086583e+00  4.619398e+00
     vertex  3.000000e+01  3.454915e+00  4.755283e+00
     vertex  0.000000e+00  3.086583e+00  4.619398e+00
   endloop
 endfacet
 facet normal  0.000000e+00 -4.186597e-01  9.081432e-01
   outer loop
     vertex  3.000000e+01  2.730048e+00  4.455033e+00
     vertex  3.000000e+01  3.086583e+00  4.619398e+00
     vertex  0.000000e+00  2.730048e+00  4.455033e+00
   endloop
 endfacet
 facet normal  0.000000e+00 -4.886212e-01  8.724960e-01
   outer loop
     vertex  3.000000e+01  2.387507e+00  4.263201e+00
     vertex  0.000000e+00  2.730048e+00  4.455033e+00
     vertex  0.000000e+00  2.387507e+00  4.263201e+00
   endloop
 endfacet
 facet normal  0.000000e+00 -4.886212e-01  8.724960e-01
   outer loop
     vertex  3.000000e+01  2.387507e+00  4.263201e+00
     vertex  3.000000e+01  2.730048e+00  4.455033e+00
     vertex  0.000000e+00  2.730048e+00  4.455033e+00
   endloop
 endfacet
 facet normal  0.000000e+00 -5.555702e-01  8.314696e-01
   outer loop
     vertex  3.000000e+01  2.061074e+00  4.045085e+00
     vertex  0.000000e+00  2.387507e+00  4.263201e+00
     vertex  0.000000e+00  2.061074e+00  4.045085e+00
   endloop
 endfacet
 facet normal  0.000000e+00 -6.190939e-01  7.853169e-01
   outer loop
     vertex  3.000000e+01  2.061074e+00  4.045085e+00
     vertex  0.000000e+00  2.061074e+00  4.045085e+00
     vertex  0.000000e+00  1.752760e+00  3.802030e+00
   endloop
 endfacet
 facet normal  0.000000e+00 -5.555702e-01  8.314696e-01
   outer loop
     vertex  3.000000e+01  2.061074e+00  4.045085e+00
     vertex  3.000000e+01  2.387507e+00  4.263201e+00
     vertex  0.000000e+00  2.387507e+00  4.263201e+00
   endloop
 endfacet
 facet normal  0.000000e+00 -6.190939e-01  7.853169e-01
   outer loop
     vertex  3.000000e+01  1.752760e+00  3.802030e+00
     vertex  3.000000e+01  2.061074e+00  4.045085e+00
     vertex  0.000000e+00  1.752760e+00  3.802030e+00
   endloop
 endfacet
 facet normal  0.000000e+00 -6.788007e-01  7.343225e-01
   outer loop
     vertex  3.000000e+01  1.464466e+00  3.535534e+00
     vertex  3.000000e+01  1.752760e+00  3.802030e+00
     vertex  0.000000e+00  1.752760e+00  3.802030e+00
   endloop
 endfacet
 facet normal  0.000000e+00 -6.788007e-01  7.343225e-01
   outer loop
     vertex  3.000000e+01  1.464466e+00  3.535534e+00
     vertex  0.000000e+00  1.752760e+00  3.802030e+00
     vertex  0.000000e+00  1.464466e+00  3.535534e+00
   endloop
 endfacet
 facet normal  0.000000e+00 -7.343225e-01  6.788007e-01
   outer loop
     vertex  3.000000e+01  1.197970e+00  3.247240e+00
     vertex  3.000000e+01  1.464466e+00  3.535534e+00
     vertex  0.000000e+00  1.464466e+00  3.535534e+00
   endloop
 endfacet
 facet normal  0.000000e+00 -7.343225e-01  6.788007e-01
   outer loop
     vertex  3.000000e+01  1.197970e+00  3.247240e+00
     vertex  0.000000e+00  1.464466e+00  3.535534e+00
     vertex  0.000000e+00  1.197970e+00  3.247240e+00
   endloop
 endfacet
 facet normal  0.000000e+00 -7.853169e-01  6.190939e-01
   outer loop
     vertex  3.000000e+01  9.549150e-01  2.938926e+00
     vertex  3.000000e+01  1.197970e+00  3.247240e+00
     vertex  0.000000e+00  1.197970e+00  3.247240e+00
   endloop
 endfacet
 facet normal  0.000000e+00 -7.853169e-01  6.190939e-01
   outer loop
     vertex  3.000000e+01  9.549150e-01  2.938926e+00
     vertex  0.000000e+00  1.197970e+00  3.247240e+00
     vertex  0.000000e+00  9.549150e-01  2.938926e+00
   endloop
 endfacet
 facet normal  0.000000e+00 -8.314696e-01  5.555702e-01
   outer loop
     vertex  3.000000e+01  7.367992e-01  2.612493e+00
     vertex  3.000000e+01  9.549150e-01  2.938926e+00
     vertex  0.000000e+00  9.549150e-01  2.938926e+00
   endloop
 endfacet
 facet normal  0.000000e+00 -8.314696e-01  5.555702e-01
   outer loop
     vertex  3.000000e+01  7.367992e-01  2.612493e+00
     vertex  0.000000e+00  9.549150e-01  2.938926e+00
     vertex  0.000000e+00  7.367992e-01  2.612493e+00
   endloop
 endfacet
 facet normal  0.000000e+00 -8.724960e-01  4.886212e-01
   outer loop
     vertex  3.000000e+01  5.449674e-01  2.269952e+00
     vertex  3.000000e+01  7.367992e-01  2.612493e+00
     vertex  0.000000e+00  7.367992e-01  2.612493e+00
   endloop
 endfacet
 facet normal  0.000000e+00 -8.724960e-01  4.886212e-01
   outer loop
     vertex  3.000000e+01  5.449674e-01  2.269952e+00
     vertex  0.000000e+00  7.367992e-01  2.612493e+00
     vertex  0.000000e+00  5.449674e-01  2.269952e+00
   endloop
 endfacet
 facet normal  0.000000e+00 -9.081432e-01  4.186597e-01
   outer loop
     vertex  3.000000e+01  3.806023e-01  1.913417e+00
     vertex  3.000000e+01  5.449674e-01  2.269952e+00
     vertex  0.000000e+00  5.449674e-01  2.269952e+00
   endloop
 endfacet
 facet normal  0.000000e+00 -9.081432e-01  4.186597e-01
   outer loop
     vertex  3.000000e+01  3.806023e-01  1.913417e+00
     vertex  0.000000e+00  5.449674e-01  2.269952e+00
     vertex  0.000000e+00  3.806023e-01  1.913417e+00
   endloop
 endfacet
 facet normal  0.000000e+00 -9.381913e-01  3.461171e-01
   outer loop
     vertex  3.000000e+01  2.447174e-01  1.545085e+00
     vertex  3.000000e+01  3.806023e-01  1.913417e+00
     vertex  0.000000e+00  3.806023e-01  1.913417e+00
   endloop
 endfacet
 facet normal  0.000000e+00 -9.381913e-01  3.461171e-01
   outer loop
     vertex  3.000000e+01  2.447174e-01  1.545085e+00
     vertex  0.000000e+00  3.806023e-01  1.913417e+00
     vertex  0.000000e+00  2.447174e-01  1.545085e+00
   endloop
 endfacet
 facet normal  0.000000e+00 -9.624552e-01  2.714404e-01
   outer loop
     vertex  3.000000e+01  1.381504e-01  1.167227e+00
     vertex  3.000000e+01  2.447174e-01  1.545085e+00
     vertex  0.000000e+00  2.447174e-01  1.545085e+00
   endloop
 endfacet
 facet normal  0.000000e+00 -9.624552e-01  2.714404e-01
   outer loop
     vertex  3.000000e+01  1.381504e-01  1.167227e+00
     vertex  0.000000e+00  2.447174e-01  1.545085e+00
     vertex  0.000000e+00  1.381504e-01  1.167227e+00
   endloop
 endfacet
 facet normal  0.000000e+00 -9.807853e-01  1.950903e-01
   outer loop
     vertex  3.000000e+01  1.381504e-01  1.167227e+00
     vertex  0.000000e+00  1.381504e-01  1.167227e+00
     vertex  0.000000e+00  6.155830e-02  7.821723e-01
   endloop
 endfacet
 facet normal  0.000000e+00 -9.807853e-01  1.950903e-01
   outer loop
     vertex  3.000000e+01  6.155830e-02  7.821723e-01
     vertex  3.000000e+01  1.381504e-01  1.167227e+00
     vertex  0.000000e+00  6.155830e-02  7.821723e-01
   endloop
 endfacet
 facet normal  0.000000e+00 -9.930685e-01  1.175374e-01
   outer loop
     vertex  3.000000e+01  1.541333e-02  3.922955e-01
     vertex  3.000000e+01  6.155830e-02  7.821723e-01
     vertex  0.000000e+00  6.155830e-02  7.821723e-01
   endloop
 endfacet
 facet normal  0.000000e+00 -9.930685e-01  1.175374e-01
   outer loop
     vertex  3.000000e+01  1.541333e-02  3.922955e-01
     vertex  0.000000e+00  6.155830e-02  7.821723e-01
     vertex  0.000000e+00  1.541333e-02  3.922955e-01
   endloop
 endfacet
 facet normal  0.000000e+00 -9.992290e-01  3.925982e-02
   outer loop
     vertex  3.000000e+01  0.000000e+00  3.061617e-16
     vertex  0.000000e+00  1.541333e-02  3.922955e-01
     vertex  0.000000e+00  0.000000e+00  3.061617e-16
   endloop
 endfacet
 facet normal  0.000000e+00 -9.992290e-01  3.925982e-02
   outer loop
     vertex  3.000000e+01  0.000000e+00  3.061617e-16
     vertex  3.000000e+01  1.541333e-02  3.922955e-01
     vertex  0.000000e+00  1.541333e-02  3.922955e-01
   endloop
 endfacet
 facet normal  0.000000e+00 -9.992290e-01 -3.925982e-02
   outer loop
     vertex  3.000000e+01  1.541333e-02 -3.922955e-01
     vertex  0.000000e+00  0.000000e+00  3.061617e-16
     vertex  0.000000e+00  1.541333e-02 -3.922955e-01
   endloop
 endfacet
 facet normal -0.000000e+00 -9.992290e-01 -3.925982e-02
   outer loop
     vertex  3.000000e+01  1.541333e-02 -3.922955e-01
     vertex  3.000000e+01  0.000000e+00  3.061617e-16
     vertex  0.000000e+00  0.000000e+00  3.061617e-16
   endloop
 endfacet
 facet normal  0.000000e+00 -9.930685e-01 -1.175374e-01
   outer loop
     vertex  3.000000e+01  6.155830e-02 -7.821723e-01
     vertex  0.000000e+00  1.541333e-02 -3.922955e-01
     vertex  0.000000e+00  6.155830e-02 -7.821723e-01
   endloop
 endfacet
 facet normal -0.000000e+00 -9.807853e-01 -1.950903e-01
   outer loop
     vertex  3.000000e+01  6.155830e-02 -7.821723e-01
     vertex  0.000000e+00  6.155830e-02 -7.821723e-01
     vertex  0.000000e+00  1.381504e-01 -1.167227e+00
   endloop
 endfacet
 facet normal -0.000000e+00 -9.930685e-01 -1.175374e-01
   outer loop
     vertex  3.000000e+01  6.155830e-02 -7.821723e-01
     vertex  3.000000e+01  1.541333e-02 -3.922955e-01
     vertex  0.000000e+00  1.541333e-02 -3.922955e-01
   endloop
 endfacet
 facet normal  0.000000e+00 -9.807853e-01 -1.950903e-01
   outer loop
     vertex  3.000000e+01  1.381504e-01 -1.167227e+00
     vertex  3.000000e+01  6.155830e-02 -7.821723e-01
     vertex  0.000000e+00  1.381504e-01 -1.167227e+00
   endloop
 endfacet
 facet normal  0.000000e+00 -9.624552e-01 -2.714404e-01
   outer loop
     vertex  3.000000e+01  2.447174e-01 -1.545085e+00
     vertex  0.000000e+00  1.381504e-01 -1.167227e+00
     vertex  0.000000e+00  2.447174e-01 -1.545085e+00
   endloop
 endfacet
 facet normal -0.000000e+00 -9.624552e-01 -2.714404e-01
   outer loop
     vertex  3.000000e+01  2.447174e-01 -1.545085e+00
     vertex  3.000000e+01  1.381504e-01 -1.167227e+00
     vertex  0.000000e+00  1.381504e-01 -1.167227e+00
   endloop
 endfacet
 facet normal  0.000000e+00 -9.381913e-01 -3.461171e-01
   outer loop
     vertex  3.000000e+01  3.806023e-01 -1.913417e+00
     vertex  0.000000e+00  2.447174e-01 -1.545085e+00
     vertex  0.000000e+00  3.806023e-01 -1.913417e+00
   endloop
 endfacet
 facet normal -0.000000e+00 -9.381913e-01 -3.461171e-01
   outer loop
     vertex  3.000000e+01  3.806023e-01 -1.913417e+00
     vertex  3.000000e+01  2.447174e-01 -1.545085e+00
     vertex  0.000000e+00  2.447174e-01 -1.545085e+00
   endloop
 endfacet
 facet normal  0.000000e+00 -9.081432e-01 -4.186597e-01
   outer loop
     vertex  3.000000e+01  5.449674e-01 -2.269952e+00
     vertex  0.000000e+00  3.806023e-01 -1.913417e+00
     vertex  0.000000e+00  5.449674e-01 -2.269952e+00
   endloop
 endfacet
 facet normal -0.000000e+00 -9.081432e-01 -4.186597e-01
   outer loop
     vertex  3.000000e+01  5.449674e-01 -2.269952e+00
     vertex  3.000000e+01  3.806023e-01 -1.913417e+00
     vertex  0.000000e+00  3.806023e-01 -1.913417e+00
   endloop
 endfacet
 facet normal  0.000000e+00 -8.724960e-01 -4.886212e-01
   outer loop
     vertex  3.000000e+01  7.367992e-01 -2.612493e+00
     vertex  0.000000e+00  5.449674e-01 -2.269952e+00
     vertex  0.000000e+00  7.367992e-01 -2.612493e+00
   endloop
 endfacet
 facet normal -0.000000e+00 -8.724960e-01 -4.886212e-01
   outer loop
     vertex  3.000000e+01  7.367992e-01 -2.612493e+00
     vertex  3.000000e+01  5.449674e-01 -2.269952e+00
     vertex  0.000000e+00  5.449674e-01 -2.269952e+00
   endloop
 endfacet
 facet normal  0.000000e+00 -8.314696e-01 -5.555702e-01
   outer loop
     vertex  3.000000e+01  9.549150e-01 -2.938926e+00
     vertex  0.000000e+00  7.367992e-01 -2.612493e+00
     vertex  0.000000e+00  9.549150e-01 -2.938926e+00
   endloop
 endfacet
 facet normal -0.000000e+00 -8.314696e-01 -5.555702e-01
   outer loop
     vertex  3.000000e+01  9.549150e-01 -2.938926e+00
     vertex  3.000000e+01  7.367992e-01 -2.612493e+00
     vertex  0.000000e+00  7.367992e-01 -2.612493e+00
   endloop
 endfacet
 facet normal  0.000000e+00 -7.853169e-01 -6.190939e-01
   outer loop
     vertex  3.000000e+01  1.197970e+00 -3.247240e+00
     vertex  0.000000e+00  9.549150e-01 -2.938926e+00
     vertex  0.000000e+00  1.197970e+00 -3.247240e+00
   endloop
 endfacet
 facet normal -0.000000e+00 -7.853169e-01 -6.190939e-01
   outer loop
     vertex  3.000000e+01  1.197970e+00 -3.247240e+00
     vertex  3.000000e+01  9.549150e-01 -2.938926e+00
     vertex  0.000000e+00  9.549150e-01 -2.938926e+00
   endloop
 endfacet
 facet normal  0.000000e+00 -7.343225e-01 -6.788007e-01
   outer loop
     vertex  3.000000e+01  1.464466e+00 -3.535534e+00
     vertex  0.000000e+00  1.197970e+00 -3.247240e+00
     vertex  0.000000e+00  1.464466e+00 -3.535534e+00
   endloop
 endfacet
 facet normal -0.000000e+00 -7.343225e-01 -6.788007e-01
   outer loop
     vertex  3.000000e+01  1.464466e+00 -3.535534e+00
     vertex  3.000000e+01  1.197970e+00 -3.247240e+00
     vertex  0.000000e+00  1.197970e+00 -3.247240e+00
   endloop
 endfacet
 facet normal  0.000000e+00 -6.788007e-01 -7.343225e-01
   outer loop
     vertex  3.000000e+01  1.752760e+00 -3.802030e+00
     vertex  0.000000e+00  1.464466e+00 -3.535534e+00
     vertex  0.000000e+00  1.752760e+00 -3.802030e+00
   endloop
 endfacet
 facet normal -0.000000e+00 -6.788007e-01 -7.343225e-01
   outer loop
     vertex  3.000000e+01  1.752760e+00 -3.802030e+00
     vertex  3.000000e+01  1.464466e+00 -3.535534e+00
     vertex  0.000000e+00  1.464466e+00 -3.535534e+00
   endloop
 endfacet
 facet normal  0.000000e+00 -6.190939e-01 -7.853169e-01
   outer loop
     vertex  3.000000e+01  2.061074e+00 -4.045085e+00
     vertex  0.000000e+00  1.752760e+00 -3.802030e+00
     vertex  0.000000e+00  2.061074e+00 -4.045085e+00
   endloop
 endfacet
 facet normal -0.000000e+00 -6.190939e-01 -7.853169e-01
   outer loop
     vertex  3.000000e+01  2.061074e+00 -4.045085e+00
     vertex  3.000000e+01  1.752760e+00 -3.802030e+00
     vertex  0.000000e+00  1.752760e+00 -3.802030e+00
   endloop
 endfacet
 facet normal  0.000000e+00 -5.555702e-01 -8.314696e-01
   outer loop
     vertex  3.000000e+01  2.387507e+00 -4.263201e+00
     vertex  0.000000e+00  2.061074e+00 -4.045085e+00
     vertex  0.000000e+00  2.387507e+00 -4.263201e+00
   endloop
 endfacet
 facet normal -0.000000e+00 -5.555702e-01 -8.314696e-01
   outer loop
     vertex  3.000000e+01  2.387507e+00 -4.263201e+00
     vertex  3.000000e+01  2.061074e+00 -4.045085e+00
     vertex  0.000000e+00  2.061074e+00 -4.045085e+00
   endloop
 endfacet
 facet normal -0.000000e+00 -4.886212e-01 -8.724960e-01
   outer loop
     vertex  3.000000e+01  2.730048e+00 -4.455033e+00
     vertex  3.000000e+01  2.387507e+00 -4.263201e+00
     vertex  0.000000e+00  2.387507e+00 -4.263201e+00
   endloop
 endfacet
 facet normal  0.000000e+00 -4.886212e-01 -8.724960e-01
   outer loop
     vertex  3.000000e+01  2.730048e+00 -4.455033e+00
     vertex  0.000000e+00  2.387507e+00 -4.263201e+00
     vertex  0.000000e+00  2.730048e+00 -4.455033e+00
   endloop
 endfacet
 facet normal -0.000000e+00 -4.186597e-01 -9.081432e-01
   outer loop
     vertex  3.000000e+01  2.730048e+00 -4.455033e+00
     vertex  0.000000e+00  2.730048e+00 -4.455033e+00
     vertex  0.000000e+00  3.086583e+00 -4.619398e+00
   endloop
 endfacet
 facet normal  0.000000e+00 -4.186597e-01 -9.081432e-01
   outer loop
     vertex  3.000000e+01  3.086583e+00 -4.619398e+00
     vertex  3.000000e+01  2.730048e+00 -4.455033e+00
     vertex  0.000000e+00  3.086583e+00 -4.619398e+00
   endloop
 endfacet
 facet normal -0.000000e+00 -3.461171e-01 -9.381913e-01
   outer loop
     vertex  3.000000e+01  3.454915e+00 -4.755283e+00
     vertex  3.000000e+01  3.086583e+00 -4.619398e+00
     vertex  0.000000e+00  3.086583e+00 -4.619398e+00
   endloop
 endfacet
 facet normal  0.000000e+00 -3.461171e-01 -9.381913e-01
   outer loop
     vertex  3.000000e+01  3.454915e+00 -4.755283e+00
     vertex  0.000000e+00  3.086583e+00 -4.619398e+00
     vertex  0.000000e+00  3.454915e+00 -4.755283e+00
   endloop
 endfacet
 facet normal -0.000000e+00 -2.714404e-01 -9.624552e-01
   outer loop
     vertex  3.000000e+01  3.832773e+00 -4.861850e+00
     vertex  3.000000e+01  3.454915e+00 -4.755283e+00
     vertex  0.000000e+00  3.454915e+00 -4.755283e+00
   endloop
 endfacet
 facet normal  0.000000e+00 -2.714404e-01 -9.624552e-01
   outer loop
     vertex  3.000000e+01  3.832773e+00 -4.861850e+00
     vertex  0.000000e+00  3.454915e+00 -4.755283e+00
     vertex  0.000000e+00  3.832773e+00 -4.861850e+00
   endloop
 endfacet
 facet normal  0.000000e+00 -1.950903e-01 -9.807853e-01
   outer loop
     vertex  3.000000e+01  4.217828e+00 -4.938442e+00
     vertex  0.000000e+00  3.832773e+00 -4.861850e+00
     vertex  0.000000e+00  4.217828e+00 -4.938442e+00
   endloop
 endfacet
 facet normal -0.000000e+00 -1.950903e-01 -9.807853e-01
   outer loop
     vertex  3.000000e+01  4.217828e+00 -4.938442e+00
     vertex  3.000000e+01  3.832773e+00 -4.861850e+00
     vertex  0.000000e+00  3.832773e+00 -4.861850e+00
   endloop
 endfacet
 facet normal  0.000000e+00 -1.175374e-01 -9.930685e-01
   outer loop
     vertex  3.000000e+01  4.607705e+00 -4.984587e+00
     vertex  0.000000e+00  4.217828e+00 -4.938442e+00
     vertex  0.000000e+00  4.607705e+00 -4.984587e+00
   endloop
 endfacet
 facet normal -0.000000e+00 -1.175374e-01 -9.930685e-01
   outer loop
     vertex  3.000000e+01  4.607705e+00 -4.984587e+00
     vertex  3.000000e+01  4.217828e+00 -4.938442e+00
     vertex  0.000000e+00  4.217828e+00 -4.938442e+00
   endloop
 endfacet
 facet normal  0.000000e+00 -3.925982e-02 -9.992290e-01
   outer loop
     vertex  3.000000e+01  5.000000e+00 -5.000000e+00
     vertex  0.000000e+00  4.607705e+00 -4.984587e+00
     vertex  0.000000e+00  5.000000e+00 -5.000000e+00
   endloop
 endfacet
 facet normal -0.000000e+00 -3.925982e-02 -9.992290e-01
   outer loop
     vertex  3.000000e+01  5.000000e+00 -5.000000e+00
     vertex  3.000000e+01  4.607705e+00 -4.984587e+00
     vertex  0.000000e+00  4.607705e+00 -4.984587e+00
   endloop
 endfacet
 facet normal  0.000000e+00  3.925982e-02 -9.992290e-01
   outer loop
     vertex  3.000000e+01  5.392295e+00 -4.984587e+00
     vertex  0.000000e+00  5.000000e+00 -5.000000e+00
     vertex  0.000000e+00  5.392295e+00 -4.984587e+00
   endloop
 endfacet
 facet normal  0.000000e+00  3.925982e-02 -9.992290e-01
   outer loop
     vertex  3.000000e+01  5.392295e+00 -4.984587e+00
     vertex  3.000000e+01  5.000000e+00 -5.000000e+00
     vertex  0.000000e+00  5.000000e+00 -5.000000e+00
   endloop
 endfacet
 facet normal  0.000000e+00  1.175374e-01 -9.930685e-01
   outer loop
     vertex  3.000000e+01  5.782172e+00 -4.938442e+00
     vertex  0.000000e+00  5.392295e+00 -4.984587e+00
     vertex  0.000000e+00  5.782172e+00 -4.938442e+00
   endloop
 endfacet
 facet normal  0.000000e+00  1.175374e-01 -9.930685e-01
   outer loop
     vertex  3.000000e+01  5.782172e+00 -4.938442e+00
     vertex  3.000000e+01  5.392295e+00 -4.984587e+00
     vertex  0.000000e+00  5.392295e+00 -4.984587e+00
   endloop
 endfacet
 facet normal  0.000000e+00  1.950903e-01 -9.807853e-01
   outer loop
     vertex  3.000000e+01  6.167227e+00 -4.861850e+00
     vertex  0.000000e+00  5.782172e+00 -4.938442e+00
     vertex  0.000000e+00  6.167227e+00 -4.861850e+00
   endloop
 endfacet
 facet normal  0.000000e+00  1.950903e-01 -9.807853e-01
   outer loop
     vertex  3.000000e+01  6.167227e+00 -4.861850e+00
     vertex  3.000000e+01  5.782172e+00 -4.938442e+00
     vertex  0.000000e+00  5.782172e+00 -4.938442e+00
   endloop
 endfacet
 facet normal  0.000000e+00  2.714404e-01 -9.624552e-01
   outer loop
     vertex  3.000000e+01  6.545085e+00 -4.755283e+00
     vertex  0.000000e+00  6.167227e+00 -4.861850e+00
     vertex  0.000000e+00  6.545085e+00 -4.755283e+00
   endloop
 endfacet
 facet normal  0.000000e+00  3.461171e-01 -9.381913e-01
   outer loop
     vertex  3.000000e+01  6.545085e+00 -4.755283e+00
     vertex  0.000000e+00  6.545085e+00 -4.755283e+00
     vertex  0.000000e+00  6.913417e+00 -4.619398e+00
   endloop
 endfacet
 facet normal  0.000000e+00  2.714404e-01 -9.624552e-01
   outer loop
     vertex  3.000000e+01  6.545085e+00 -4.755283e+00
     vertex  3.000000e+01  6.167227e+00 -4.861850e+00
     vertex  0.000000e+00  6.167227e+00 -4.861850e+00
   endloop
 endfacet
 facet normal  0.000000e+00  3.461171e-01 -9.381913e-01
   outer loop
     vertex  3.000000e+01  6.913417e+00 -4.619398e+00
     vertex  3.000000e+01  6.545085e+00 -4.755283e+00
     vertex  0.000000e+00  6.913417e+00 -4.619398e+00
   endloop
 endfacet
 facet normal  0.000000e+00  4.186597e-01 -9.081432e-01
   outer loop
     vertex  3.000000e+01  7.269952e+00 -4.455033e+00
     vertex  0.000000e+00  6.913417e+00 -4.619398e+00
     vertex  0.000000e+00  7.269952e+00 -4.455033e+00
   endloop
 endfacet
 facet normal  0.000000e+00  4.186597e-01 -9.081432e-01
   outer loop
     vertex  3.000000e+01  7.269952e+00 -4.455033e+00
     vertex  3.000000e+01  6.913417e+00 -4.619398e+00
     vertex  0.000000e+00  6.913417e+00 -4.619398e+00
   endloop
 endfacet
 facet normal  0.000000e+00  4.886212e-01 -8.724960e-01
   outer loop
     vertex  3.000000e+01  7.612493e+00 -4.263201e+00
     vertex  0.000000e+00  7.269952e+00 -4.455033e+00
     vertex  0.000000e+00  7.612493e+00 -4.263201e+00
   endloop
 endfacet
 facet normal  0.000000e+00  4.886212e-01 -8.724960e-01
   outer loop
     vertex  3.000000e+01  7.612493e+00 -4.263201e+00
     vertex  3.000000e+01  7.269952e+00 -4.455033e+00
     vertex  0.000000e+00  7.269952e+00 -4.455033e+00
   endloop
 endfacet
 facet normal  0.000000e+00  5.555702e-01 -8.314696e-01
   outer loop
     vertex  3.000000e+01  7.938926e+00 -4.045085e+00
     vertex  0.000000e+00  7.612493e+00 -4.263201e+00
     vertex  0.000000e+00  7.938926e+00 -4.045085e+00
   endloop
 endfacet
 facet normal  0.000000e+00  5.555702e-01 -8.314696e-01
   outer loop
     vertex  3.000000e+01  7.938926e+00 -4.045085e+00
     vertex  3.000000e+01  7.612493e+00 -4.263201e+00
     vertex  0.000000e+00  7.612493e+00 -4.263201e+00
   endloop
 endfacet
 facet normal  0.000000e+00  6.190939e-01 -7.853169e-01
   outer loop
     vertex  3.000000e+01  8.247240e+00 -3.802030e+00
     vertex  0.000000e+00  7.938926e+00 -4.045085e+00
     vertex  0.000000e+00  8.247240e+00 -3.802030e+00
   endloop
 endfacet
 facet normal  0.000000e+00  6.190939e-01 -7.853169e-01
   outer loop
     vertex  3.000000e+01  8.247240e+00 -3.802030e+00
     vertex  3.000000e+01  7.938926e+00 -4.045085e+00
     vertex  0.000000e+00  7.938926e+00 -4.045085e+00
   endloop
 endfacet
 facet normal  0.000000e+00  6.788007e-01 -7.343225e-01
   outer loop
     vertex  3.000000e+01  8.535534e+00 -3.535534e+00
     vertex  0.000000e+00  8.247240e+00 -3.802030e+00
     vertex  0.000000e+00  8.535534e+00 -3.535534e+00
   endloop
 endfacet
 facet normal  0.000000e+00  7.343225e-01 -6.788007e-01
   outer loop
     vertex  3.000000e+01  8.535534e+00 -3.535534e+00
     vertex  0.000000e+00  8.535534e+00 -3.535534e+00
     vertex  0.000000e+00  8.802030e+00 -3.247240e+00
   endloop
 endfacet
 facet normal  0.000000e+00  6.788007e-01 -7.343225e-01
   outer loop
     vertex  3.000000e+01  8.535534e+00 -3.535534e+00
     vertex  3.000000e+01  8.247240e+00 -3.802030e+00
     vertex  0.000000e+00  8.247240e+00 -3.802030e+00
   endloop
 endfacet
 facet normal  0.000000e+00  7.853169e-01 -6.190939e-01
   outer loop
     vertex  3.000000e+01  8.802030e+00 -3.247240e+00
     vertex  0.000000e+00  8.802030e+00 -3.247240e+00
     vertex  0.000000e+00  9.045085e+00 -2.938926e+00
   endloop
 endfacet
 facet normal  0.000000e+00  7.343225e-01 -6.788007e-01
   outer loop
     vertex  3.000000e+01  8.802030e+00 -3.247240e+00
     vertex  3.000000e+01  8.535534e+00 -3.535534e+00
     vertex  0.000000e+00  8.802030e+00 -3.247240e+00
   endloop
 endfacet
 facet normal  0.000000e+00  7.853169e-01 -6.190939e-01
   outer loop
     vertex  3.000000e+01  9.045085e+00 -2.938926e+00
     vertex  3.000000e+01  8.802030e+00 -3.247240e+00
     vertex  0.000000e+00  9.045085e+00 -2.938926e+00
   endloop
 endfacet
 facet normal  0.000000e+00  8.314696e-01 -5.555702e-01
   outer loop
     vertex  3.000000e+01  9.263201e+00 -2.612493e+00
     vertex  0.000000e+00  9.045085e+00 -2.938926e+00
     vertex  0.000000e+00  9.263201e+00 -2.612493e+00
   endloop
 endfacet
 facet normal  0.000000e+00  8.314696e-01 -5.555702e-01
   outer loop
     vertex  3.000000e+01  9.263201e+00 -2.612493e+00
     vertex  3.000000e+01  9.045085e+00 -2.938926e+00
     vertex  0.000000e+00  9.045085e+00 -2.938926e+00
   endloop
 endfacet
 facet normal  0.000000e+00  8.724960e-01 -4.886212e-01
   outer loop
     vertex  3.000000e+01  9.455033e+00 -2.269952e+00
     vertex  0.000000e+00  9.263201e+00 -2.612493e+00
     vertex  0.000000e+00  9.455033e+00 -2.269952e+00
   endloop
 endfacet
 facet normal  0.000000e+00  8.724960e-01 -4.886212e-01
   outer loop
     vertex  3.000000e+01  9.455033e+00 -2.269952e+00
     vertex  3.000000e+01  9.263201e+00 -2.612493e+00
     vertex  0.000000e+00  9.263201e+00 -2.612493e+00
   endloop
 endfacet
 facet normal  0.000000e+00  9.081432e-01 -4.186597e-01
   outer loop
     vertex  3.000000e+01  9.619398e+00 -1.913417e+00
     vertex  0.000000e+00  9.455033e+00 -2.269952e+00
     vertex  0.000000e+00  9.619398e+00 -1.913417e+00
   endloop
 endfacet
 facet normal  0.000000e+00  9.081432e-01 -4.186597e-01
   outer loop
     vertex  3.000000e+01  9.619398e+00 -1.913417e+00
     vertex  3.000000e+01  9.455033e+00 -2.269952e+00
     vertex  0.000000e+00  9.455033e+00 -2.269952e+00
   endloop
 endfacet
 facet normal  0.000000e+00  9.381913e-01 -3.461171e-01
   outer loop
     vertex  3.000000e+01  9.755283e+00 -1.545085e+00
     vertex  0.000000e+00  9.619398e+00 -1.913417e+00
     vertex  0.000000e+00  9.755283e+00 -1.545085e+00
   endloop
 endfacet
 facet normal  0.000000e+00  9.381913e-01 -3.461171e-01
   outer loop
     vertex  3.000000e+01  9.755283e+00 -1.545085e+00
     vertex  3.000000e+01  9.619398e+00 -1.913417e+00
     vertex  0.000000e+00  9.619398e+00 -1.913417e+00
   endloop
 endfacet
 facet normal  0.000000e+00  9.624552e-01 -2.714404e-01
   outer loop
     vertex  3.000000e+01  9.861850e+00 -1.167227e+00
     vertex  0.000000e+00  9.755283e+00 -1.545085e+00
     vertex  0.000000e+00  9.861850e+00 -1.167227e+00
   endloop
 endfacet
 facet normal  0.000000e+00  9.624552e-01 -2.714404e-01
   outer loop
     vertex  3.000000e+01  9.861850e+00 -1.167227e+00
     vertex  3.000000e+01  9.755283e+00 -1.545085e+00
     vertex  0.000000e+00  9.755283e+00 -1.545085e+00
   endloop
 endfacet
 facet normal  0.000000e+00  9.807853e-01 -1.950903e-01
   outer loop
     vertex  3.000000e+01  9.938442e+00 -7.821723e-01
     vertex  0.000000e+00  9.861850e+00 -1.167227e+00
     vertex  0.000000e+00  9.938442e+00 -7.821723e-01
   endloop
 endfacet
 facet normal  0.000000e+00  9.807853e-01 -1.950903e-01
   outer loop
     vertex  3.000000e+01  9.938442e+00 -7.821723e-01
     vertex  3.000000e+01  9.861850e+00 -1.167227e+00
     vertex  0.000000e+00  9.861850e+00 -1.167227e+00
   endloop
 endfacet
 facet normal  0.000000e+00  9.930685e-01 -1.175374e-01
   outer loop
     vertex  3.000000e+01  9.984587e+00 -3.922955e-01
     vertex  0.000000e+00  9.938442e+00 -7.821723e-01
     vertex  0.000000e+00  9.984587e+00 -3.922955e-01
   endloop
 endfacet
 facet normal  0.000000e+00  9.930685e-01 -1.175374e-01
   outer loop
     vertex  3.000000e+01  9.984587e+00 -3.922955e-01
     vertex  3.000000e+01  9.938442e+00 -7.821723e-01
     vertex  0.000000e+00  9.938442e+00 -7.821723e-01
   endloop
 endfacet
 facet normal  0.000000e+00  9.992290e-01 -3.925982e-02
   outer loop
     vertex  3.000000e+01  1.000000e+01 -9.184851e-16
     vertex  3.000000e+01  9.984587e+00 -3.922955e-01
     vertex  0.000000e+00  9.984587e+00 -3.922955e-01
   endloop
 endfacet
 facet normal  0.000000e+00  9.992290e-01 -3.925982e-02
   outer loop
     vertex  3.000000e+01  1.000000e+01 -9.184851e-16
     vertex  0.000000e+00  9.984587e+00 -3.922955e-01
     vertex  0.000000e+00  1.000000e+01 -9.184851e-16
   endloop
 endfacet
 facet normal  0.000000e+00  9.992290e-01  3.925982e-02
   outer loop
     vertex  3.000000e+01  9.984587e+00  3.922955e-01
     vertex  3.000000e+01  1.000000e+01 -9.184851e-16
     vertex  0.000000e+00  1.000000e+01 -9.184851e-16
   endloop
 endfacet
 facet normal  0.000000e+00  9.992290e-01  3.925982e-02
   outer loop
     vertex  3.000000e+01  9.984587e+00  3.922955e-01
     vertex  0.000000e+00  1.000000e+01 -9.184851e-16
     vertex  0.000000e+00  9.984587e+00  3.922955e-01
   endloop
 endfacet
 facet normal  0.000000e+00  9.930685e-01  1.175374e-01
   outer loop
     vertex  3.000000e+01  9.938442e+00  7.821723e-01
     vertex  3.000000e+01  9.984587e+00  3.922955e-01
     vertex  0.000000e+00  9.984587e+00  3.922955e-01
   endloop
 endfacet
 facet normal  0.000000e+00  9.930685e-01  1.175374e-01
   outer loop
     vertex  3.000000e+01  9.938442e+00  7.821723e-01
     vertex  0.000000e+00  9.984587e+00  3.922955e-01
     vertex  0.000000e+00  9.938442e+00  7.821723e-01
   endloop
 endfacet
 facet normal  0.000000e+00  9.807853e-01  1.950903e-01
   outer loop
     vertex  3.000000e+01  9.861850e+00  1.167227e+00
     vertex  3.000000e+01  9.938442e+00  7.821723e-01
     vertex  0.000000e+00  9.938442e+00  7.821723e-01
   endloop
 endfacet
 facet normal  0.000000e+00  9.807853e-01  1.950903e-01
   outer loop
     vertex  3.000000e+01  9.861850e+00  1.167227e+00
     vertex  0.000000e+00  9.938442e+00  7.821723e-01
     vertex  0.000000e+00  9.861850e+00  1.167227e+00
   endloop
 endfacet
 facet normal  0.000000e+00  9.624552e-01  2.714404e-01
   outer loop
     vertex  3.000000e+01  9.755283e+00  1.545085e+00
     vertex  3.000000e+01  9.861850e+00  1.167227e+00
     vertex  0.000000e+00  9.861850e+00  1.167227e+00
   endloop
 endfacet
 facet normal  0.000000e+00  9.624552e-01  2.714404e-01
   outer loop
     vertex  3.000000e+01  9.755283e+00  1.545085e+00
     vertex  0.000000e+00  9.861850e+00  1.167227e+00
     vertex  0.000000e+00  9.755283e+00  1.545085e+00
   endloop
 endfacet
 facet normal  0.000000e+00  9.381913e-01  3.461171e-01
   outer loop
     vertex  3.000000e+01  9.755283e+00  1.545085e+00
     vertex  0.000000e+00  9.755283e+00  1.545085e+00
     vertex  0.000000e+00  9.619398e+00  1.913417e+00
   endloop
 endfacet
 facet normal  0.000000e+00  9.381913e-01  3.461171e-01
   outer loop
     vertex  3.000000e+01  9.619398e+00  1.913417e+00
     vertex  3.000000e+01  9.755283e+00  1.545085e+00
     vertex  0.000000e+00  9.619398e+00  1.913417e+00
   endloop
 endfacet
 facet normal  0.000000e+00  9.081432e-01  4.186597e-01
   outer loop
     vertex  3.000000e+01  9.619398e+00  1.913417e+00
     vertex  0.000000e+00  9.619398e+00  1.913417e+00
     vertex  0.000000e+00  9.455033e+00  2.269952e+00
   endloop
 endfacet
 facet normal  0.000000e+00  9.081432e-01  4.186597e-01
   outer loop
     vertex  3.000000e+01  9.455033e+00  2.269952e+00
     vertex  3.000000e+01  9.619398e+00  1.913417e+00
     vertex  0.000000e+00  9.455033e+00  2.269952e+00
   endloop
 endfacet
 facet normal  0.000000e+00  8.724960e-01  4.886212e-01
   outer loop
     vertex  3.000000e+01  9.263201e+00  2.612493e+00
     vertex  3.000000e+01  9.455033e+00  2.269952e+00
     vertex  0.000000e+00  9.455033e+00  2.269952e+00
   endloop
 endfacet
 facet normal  0.000000e+00  8.724960e-01  4.886212e-01
   outer loop
     vertex  3.000000e+01  9.263201e+00  2.612493e+00
     vertex  0.000000e+00  9.455033e+00  2.269952e+00
     vertex  0.000000e+00  9.263201e+00  2.612493e+00
   endloop
 endfacet
 facet normal  0.000000e+00  8.314696e-01  5.555702e-01
   outer loop
     vertex  3.000000e+01  9.045085e+00  2.938926e+00
     vertex  3.000000e+01  9.263201e+00  2.612493e+00
     vertex  0.000000e+00  9.263201e+00  2.612493e+00
   endloop
 endfacet
 facet normal  0.000000e+00  8.314696e-01  5.555702e-01
   outer loop
     vertex  3.000000e+01  9.045085e+00  2.938926e+00
     vertex  0.000000e+00  9.263201e+00  2.612493e+00
     vertex  0.000000e+00  9.045085e+00  2.938926e+00
   endloop
 endfacet
 facet normal  0.000000e+00  7.853169e-01  6.190939e-01
   outer loop
     vertex  3.000000e+01  9.045085e+00  2.938926e+00
     vertex  0.000000e+00  9.045085e+00  2.938926e+00
     vertex  0.000000e+00  8.802030e+00  3.247240e+00
   endloop
 endfacet
 facet normal  0.000000e+00  7.853169e-01  6.190939e-01
   outer loop
     vertex  3.000000e+01  8.802030e+00  3.247240e+00
     vertex  3.000000e+01  9.045085e+00  2.938926e+00
     vertex  0.000000e+00  8.802030e+00  3.247240e+00
   endloop
 endfacet
 facet normal  0.000000e+00  7.343225e-01  6.788007e-01
   outer loop
     vertex  3.000000e+01  8.535534e+00  3.535534e+00
     vertex  3.000000e+01  8.802030e+00  3.247240e+00
     vertex  0.000000e+00  8.802030e+00  3.247240e+00
   endloop
 endfacet
 facet normal  0.000000e+00  7.343225e-01  6.788007e-01
   outer loop
     vertex  3.000000e+01  8.535534e+00  3.535534e+00
     vertex  0.000000e+00  8.802030e+00  3.247240e+00
     vertex  0.000000e+00  8.535534e+00  3.535534e+00
   endloop
 endfacet
 facet normal  0.000000e+00  6.788007e-01  7.343225e-01
   outer loop
     vertex  3.000000e+01  8.535534e+00  3.535534e+00
     vertex  0.000000e+00  8.535534e+00  3.535534e+00
     vertex  0.000000e+00  8.247240e+00  3.802030e+00
   endloop
 endfacet
 facet normal  0.000000e+00  6.788007e-01  7.343225e-01
   outer loop
     vertex  3.000000e+01  8.247240e+00  3.802030e+00
     vertex  3.000000e+01  8.535534e+00  3.535534e+00
     vertex  0.000000e+00  8.247240e+00  3.802030e+00
   endloop
 endfacet
 facet normal  0.000000e+00  6.190939e-01  7.853169e-01
   outer loop
     vertex  3.000000e+01  8.247240e+00  3.802030e+00
     vertex  0.000000e+00  8.247240e+00  3.802030e+00
     vertex  0.000000e+00  7.938926e+00  4.045085e+00
   endloop
 endfacet
 facet normal  0.000000e+00  6.190939e-01  7.853169e-01
   outer loop
     vertex  3.000000e+01  7.938926e+00  4.045085e+00
     vertex  3.000000e+01  8.247240e+00  3.802030e+00
     vertex  0.000000e+00  7.938926e+00  4.045085e+00
   endloop
 endfacet
 facet normal  0.000000e+00  5.555702e-01  8.314696e-01
   outer loop
     vertex  3.000000e+01  7.612493e+00  4.263201e+00
     vertex  0.000000e+00  7.938926e+00  4.045085e+00
     vertex  0.000000e+00  7.612493e+00  4.263201e+00
   endloop
 endfacet
 facet normal  0.000000e+00  5.555702e-01  8.314696e-01
   outer loop
     vertex  3.000000e+01  7.612493e+00  4.263201e+00
     vertex  3.000000e+01  7.938926e+00  4.045085e+00
     vertex  0.000000e+00  7.938926e+00  4.045085e+00
   endloop
 endfacet
 facet normal  0.000000e+00  4.886212e-01  8.724960e-01
   outer loop
     vertex  3.000000e+01  7.269952e+00  4.455033e+00
     vertex  0.000000e+00  7.612493e+00  4.263201e+00
     vertex  0.000000e+00  7.269952e+00  4.455033e+00
   endloop
 endfacet
 facet normal  0.000000e+00  4.886212e-01  8.724960e-01
   outer loop
     vertex  3.000000e+01  7.269952e+00  4.455033e+00
     vertex  3.000000e+01  7.612493e+00  4.263201e+00
     vertex  0.000000e+00  7.612493e+00  4.263201e+00
   endloop
 endfacet
 facet normal  0.000000e+00  4.186597e-01  9.081432e-01
   outer loop
     vertex  3.000000e+01  6.913417e+00  4.619398e+00
     vertex  0.000000e+00  7.269952e+00  4.455033e+00
     vertex  0.000000e+00  6.913417e+00  4.619398e+00
   endloop
 endfacet
 facet normal  0.000000e+00  4.186597e-01  9.081432e-01
   outer loop
     vertex  3.000000e+01  6.913417e+00  4.619398e+00
     vertex  3.000000e+01  7.269952e+00  4.455033e+00
     vertex  0.000000e+00  7.269952e+00  4.455033e+00
   endloop
 endfacet
 facet normal  0.000000e+00  3.461171e-01  9.381913e-01
   outer loop
     vertex  3.000000e+01  6.545085e+00  4.755283e+00
     vertex  0.000000e+00  6.913417e+00  4.619398e+00
     vertex  0.000000e+00  6.545085e+00  4.755283e+00
   endloop
 endfacet
 facet normal  0.000000e+00  3.461171e-01  9.381913e-01
   outer loop
     vertex  3.000000e+01  6.545085e+00  4.755283e+00
     vertex  3.000000e+01  6.913417e+00  4.619398e+00
     vertex  0.000000e+00  6.913417e+00  4.619398e+00
   endloop
 endfacet
 facet normal  0.000000e+00  2.714404e-01  9.624552e-01
   outer loop
     vertex  3.000000e+01  6.167227e+00  4.861850e+00
     vertex  0.000000e+00  6.545085e+00  4.755283e+00
     vertex  0.000000e+00  6.167227e+00  4.861850e+00
   endloop
 endfacet
 facet normal  0.000000e+00  2.714404e-01  9.624552e-01
   outer loop
     vertex  3.000000e+01  6.167227e+00  4.861850e+00
     vertex  3.000000e+01  6.545085e+00  4.755283e+00
     vertex  0.000000e+00  6.545085e+00  4.755283e+00
   endloop
 endfacet
 facet normal  0.000000e+00  1.950903e-01  9.807853e-01
   outer loop
     vertex  3.000000e+01  5.782172e+00  4.938442e+00
     vertex  0.000000e+00  6.167227e+00  4.861850e+00
     vertex  0.000000e+00  5.782172e+00  4.938442e+00
   endloop
 endfacet
 facet normal  0.000000e+00  1.950903e-01  9.807853e-01
   outer loop
     vertex  3.000000e+01  5.782172e+00  4.938442e+00
     vertex  3.000000e+01  6.167227e+00  4.861850e+00
     vertex  0.000000e+00  6.167227e+00  4.861850e+00
   endloop
 endfacet
 facet normal  0.000000e+00  1.175374e-01  9.930685e-01
   outer loop
     vertex  3.000000e+01  5.392295e+00  4.984587e+00
     vertex  0.000000e+00  5.782172e+00  4.938442e+00
     vertex  0.000000e+00  5.392295e+00  4.984587e+00
   endloop
 endfacet
 facet normal  0.000000e+00  1.175374e-01  9.930685e-01
   outer loop
     vertex  3.000000e+01  5.392295e+00  4.984587e+00
     vertex  3.000000e+01  5.782172e+00  4.938442e+00
     vertex  0.000000e+00  5.782172e+00  4.938442e+00
   endloop
 endfacet
 facet normal  0.000000e+00  3.925982e-02  9.992290e-01
   outer loop
     vertex  3.000000e+01  5.000000e+00  5.000000e+00
     vertex  3.000000e+01  5.392295e+00  4.984587e+00
     vertex  0.000000e+00  5.392295e+00  4.984587e+00
   endloop
 endfacet
 facet normal  0.000000e+00  3.925982e-02  9.992290e-01
   outer loop
     vertex  3.000000e+01  5.000000e+00  5.000000e+00
     vertex  0.000000e+00  5.392295e+00  4.984587e+00
     vertex  0.000000e+00  5.000000e+00  5.000000e+00
   endloop
 endfacet
 facet normal  1.000000e+00 -0.000000e+00  0.000000e+00
   outer loop
     vertex  3.000000e+01  2.387507e+00 -4.263201e+00
     vertex  3.000000e+01  2.730048e+00 -4.455033e+00
     vertex  3.000000e+01  9.984587e+00  3.922955e-01
   endloop
 endfacet
 facet normal  1.000000e+00  0.000000e+00  0.000000e+00
   outer loop
     vertex  3.000000e+01  3.806023e-01  1.913417e+00
     vertex  3.000000e+01  2.447174e-01  1.545085e+00
     vertex  3.000000e+01  1.381504e-01  1.167227e+00
   endloop
 endfacet
 facet normal  1.000000e+00  0.000000e+00  0.000000e+00
   outer loop
     vertex  3.000000e+01  8.247240e+00 -3.802030e+00
     vertex  3.000000e+01  8.535534e+00 -3.535534e+00
     vertex  3.000000e+01  8.802030e+00 -3.247240e+00
   endloop
 endfacet
 facet normal  1.000000e+00  0.000000e+00  0.000000e+00
   outer loop
     vertex  3.000000e+01  5.449674e-01  2.269952e+00
     vertex  3.000000e+01  3.806023e-01  1.913417e+00
     vertex  3.000000e+01  1.381504e-01  1.167227e+00
   endloop
 endfacet
 facet normal  1.000000e+00  0.000000e+00 -0.000000e+00
   outer loop
     vertex  3.000000e+01  2.730048e+00  4.455033e+00
     vertex  3.000000e+01  3.832773e+00  4.861850e+00
     vertex  3.000000e+01  3.086583e+00  4.619398e+00
   endloop
 endfacet
 facet normal  1.000000e+00  0.000000e+00  0.000000e+00
   outer loop
     vertex  3.000000e+01  7.367992e-01  2.612493e+00
     vertex  3.000000e+01  5.449674e-01  2.269952e+00
     vertex  3.000000e+01  1.381504e-01  1.167227e+00
   endloop
 endfacet
 facet normal  1.000000e+00  0.000000e+00  0.000000e+00
   outer loop
     vertex  3.000000e+01  7.612493e+00 -4.263201e+00
     vertex  3.000000e+01  7.938926e+00 -4.045085e+00
     vertex  3.000000e+01  8.247240e+00 -3.802030e+00
   endloop
 endfacet
 facet normal  1.000000e+00 -0.000000e+00 -0.000000e+00
   outer loop
     vertex  3.000000e+01  8.802030e+00  3.247240e+00
     vertex  3.000000e+01  9.619398e+00  1.913417e+00
     vertex  3.000000e+01  9.455033e+00  2.269952e+00
   endloop
 endfacet
 facet normal  1.000000e+00 -0.000000e+00  0.000000e+00
   outer loop
     vertex  3.000000e+01  9.263201e+00 -2.612493e+00
     vertex  3.000000e+01  8.802030e+00 -3.247240e+00
     vertex  3.000000e+01  9.045085e+00 -2.938926e+00
   endloop
 endfacet
 facet normal  1.000000e+00 -0.000000e+00 -0.000000e+00
   outer loop
     vertex  3.000000e+01  8.802030e+00  3.247240e+00
     vertex  3.000000e+01  9.455033e+00  2.269952e+00
     vertex  3.000000e+01  9.263201e+00  2.612493e+00
   endloop
 endfacet
 facet normal  1.000000e+00  0.000000e+00 -0.000000e+00
   outer loop
     vertex  3.000000e+01  9.549150e-01  2.938926e+00
     vertex  3.000000e+01  4.607705e+00  4.984587e+00
     vertex  3.000000e+01  3.832773e+00  4.861850e+00
   endloop
 endfacet
 facet normal  1.000000e+00 -0.000000e+00 -0.000000e+00
   outer loop
     vertex  3.000000e+01  8.802030e+00  3.247240e+00
     vertex  3.000000e+01  9.263201e+00  2.612493e+00
     vertex  3.000000e+01  9.045085e+00  2.938926e+00
   endloop
 endfacet
 facet normal  1.000000e+00 -0.000000e+00  0.000000e+00
   outer loop
     vertex  3.000000e+01  9.549150e-01  2.938926e+00
     vertex  3.000000e+01  1.541333e-02  3.922955e-01
     vertex  3.000000e+01  4.607705e+00  4.984587e+00
   endloop
 endfacet
 facet normal  1.000000e+00 -0.000000e+00  0.000000e+00
   outer loop
     vertex  3.000000e+01  9.263201e+00 -2.612493e+00
     vertex  3.000000e+01  8.247240e+00 -3.802030e+00
     vertex  3.000000e+01  8.802030e+00 -3.247240e+00
   endloop
 endfacet
 facet normal  1.000000e+00  0.000000e+00  0.000000e+00
   outer loop
     vertex  3.000000e+01  9.549150e-01  2.938926e+00
     vertex  3.000000e+01  1.381504e-01  1.167227e+00
     vertex  3.000000e+01  1.541333e-02  3.922955e-01
   endloop
 endfacet
 facet normal  1.000000e+00  0.000000e+00  0.000000e+00
   outer loop
     vertex  3.000000e+01  9.549150e-01  2.938926e+00
     vertex  3.000000e+01  7.367992e-01  2.612493e+00
     vertex  3.000000e+01  1.381504e-01  1.167227e+00
   endloop
 endfacet
 facet normal  1.000000e+00  0.000000e+00 -0.000000e+00
   outer loop
     vertex  3.000000e+01  2.061074e+00  4.045085e+00
     vertex  3.000000e+01  2.730048e+00  4.455033e+00
     vertex  3.000000e+01  2.387507e+00  4.263201e+00
   endloop
 endfacet
 facet normal  1.000000e+00  0.000000e+00  0.000000e+00
   outer loop
     vertex  3.000000e+01  1.464466e+00 -3.535534e+00
     vertex  3.000000e+01  1.752760e+00 -3.802030e+00
     vertex  3.000000e+01  2.061074e+00 -4.045085e+00
   endloop
 endfacet
 facet normal  1.000000e+00  0.000000e+00  0.000000e+00
   outer loop
     vertex  3.000000e+01  1.464466e+00 -3.535534e+00
     vertex  3.000000e+01  2.061074e+00 -4.045085e+00
     vertex  3.000000e+01  2.387507e+00 -4.263201e+00
   endloop
 endfacet
 facet normal  1.000000e+00  0.000000e+00  0.000000e+00
   outer loop
     vertex  3.000000e+01  7.269952e+00 -4.455033e+00
     vertex  3.000000e+01  7.612493e+00 -4.263201e+00
     vertex  3.000000e+01  8.247240e+00 -3.802030e+00
   endloop
 endfacet
 facet normal  1.000000e+00  0.000000e+00  0.000000e+00
   outer loop
     vertex  3.000000e+01  7.269952e+00 -4.455033e+00
     vertex  3.000000e+01  8.247240e+00 -3.802030e+00
     vertex  3.000000e+01  9.263201e+00 -2.612493e+00
   endloop
 endfacet
 facet normal  1.000000e+00  0.000000e+00  0.000000e+00
   outer loop
     vertex  3.000000e+01  1.752760e+00  3.802030e+00
     vertex  3.000000e+01  1.197970e+00  3.247240e+00
     vertex  3.000000e+01  9.549150e-01  2.938926e+00
   endloop
 endfacet
 facet normal  1.000000e+00 -0.000000e+00  0.000000e+00
   outer loop
     vertex  3.000000e+01  9.619398e+00 -1.913417e+00
     vertex  3.000000e+01  9.263201e+00 -2.612493e+00
     vertex  3.000000e+01  9.455033e+00 -2.269952e+00
   endloop
 endfacet
 facet normal  1.000000e+00  0.000000e+00 -0.000000e+00
   outer loop
     vertex  3.000000e+01  1.752760e+00  3.802030e+00
     vertex  3.000000e+01  3.832773e+00  4.861850e+00
     vertex  3.000000e+01  2.730048e+00  4.455033e+00
   endloop
 endfacet
 facet normal  1.000000e+00 -0.000000e+00  0.000000e+00
   outer loop
     vertex  3.000000e+01  1.752760e+00  3.802030e+00
     vertex  3.000000e+01  9.549150e-01  2.938926e+00
     vertex  3.000000e+01  3.832773e+00  4.861850e+00
   endloop
 endfacet
 facet normal  1.000000e+00 -0.000000e+00 -0.000000e+00
   outer loop
     vertex  3.000000e+01  8.247240e+00  3.802030e+00
     vertex  3.000000e+01  8.802030e+00  3.247240e+00
     vertex  3.000000e+01  8.535534e+00  3.535534e+00
   endloop
 endfacet
 facet normal  1.000000e+00  0.000000e+00 -0.000000e+00
   outer loop
     vertex  3.000000e+01  1.752760e+00  3.802030e+00
     vertex  3.000000e+01  2.730048e+00  4.455033e+00
     vertex  3.000000e+01  2.061074e+00  4.045085e+00
   endloop
 endfacet
 facet normal  1.000000e+00 -0.000000e+00  0.000000e+00
   outer loop
     vertex  3.000000e+01  1.464466e+00  3.535534e+00
     vertex  3.000000e+01  1.197970e+00  3.247240e+00
     vertex  3.000000e+01  1.752760e+00  3.802030e+00
   endloop
 endfacet
 facet normal  1.000000e+00 -0.000000e+00 -0.000000e+00
   outer loop
     vertex  3.000000e+01  7.938926e+00  4.045085e+00
     vertex  3.000000e+01  8.802030e+00  3.247240e+00
     vertex  3.000000e+01  8.247240e+00  3.802030e+00
   endloop
 endfacet
 facet normal  1.000000e+00  0.000000e+00  0.000000e+00
   outer loop
     vertex  3.000000e+01  9.549150e-01 -2.938926e+00
     vertex  3.000000e+01  1.197970e+00 -3.247240e+00
     vertex  3.000000e+01  1.464466e+00 -3.535534e+00
   endloop
 endfacet
 facet normal  1.000000e+00 -0.000000e+00  0.000000e+00
   outer loop
     vertex  3.000000e+01  9.549150e-01 -2.938926e+00
     vertex  3.000000e+01  2.387507e+00 -4.263201e+00
     vertex  3.000000e+01  9.984587e+00  3.922955e-01
   endloop
 endfacet
 facet normal  1.000000e+00  0.000000e+00  0.000000e+00
   outer loop
     vertex  3.000000e+01  9.549150e-01 -2.938926e+00
     vertex  3.000000e+01  1.464466e+00 -3.535534e+00
     vertex  3.000000e+01  2.387507e+00 -4.263201e+00
   endloop
 endfacet
 facet normal  1.000000e+00  0.000000e+00  0.000000e+00
   outer loop
     vertex  3.000000e+01  6.167227e+00 -4.861850e+00
     vertex  3.000000e+01  6.545085e+00 -4.755283e+00
     vertex  3.000000e+01  6.913417e+00 -4.619398e+00
   endloop
 endfacet
 facet normal  1.000000e+00  0.000000e+00  0.000000e+00
   outer loop
     vertex  3.000000e+01  6.167227e+00 -4.861850e+00
     vertex  3.000000e+01  6.913417e+00 -4.619398e+00
     vertex  3.000000e+01  7.269952e+00 -4.455033e+00
   endloop
 endfacet
 facet normal  1.000000e+00 -0.000000e+00 -0.000000e+00
   outer loop
     vertex  3.000000e+01  7.612493e+00  4.263201e+00
     vertex  3.000000e+01  9.984587e+00  3.922955e-01
     vertex  3.000000e+01  9.619398e+00  1.913417e+00
   endloop
 endfacet
 facet normal  1.000000e+00 -0.000000e+00 -0.000000e+00
   outer loop
     vertex  3.000000e+01  7.612493e+00  4.263201e+00
     vertex  3.000000e+01  9.619398e+00  1.913417e+00
     vertex  3.000000e+01  8.802030e+00  3.247240e+00
   endloop
 endfacet
 facet normal  1.000000e+00 -0.000000e+00 -0.000000e+00
   outer loop
     vertex  3.000000e+01  7.612493e+00  4.263201e+00
     vertex  3.000000e+01  8.802030e+00  3.247240e+00
     vertex  3.000000e+01  7.938926e+00  4.045085e+00
   endloop
 endfacet
 facet normal  1.000000e+00 -0.000000e+00  0.000000e+00
   outer loop
     vertex  3.000000e+01  9.861850e+00 -1.167227e+00
     vertex  3.000000e+01  9.619398e+00 -1.913417e+00
     vertex  3.000000e+01  9.755283e+00 -1.545085e+00
   endloop
 endfacet
 facet normal  1.000000e+00 -0.000000e+00 -0.000000e+00
   outer loop
     vertex  3.000000e+01  6.913417e+00  4.619398e+00
     vertex  3.000000e+01  7.612493e+00  4.263201e+00
     vertex  3.000000e+01  7.269952e+00  4.455033e+00
   endloop
 endfacet
 facet normal  1.000000e+00  0.000000e+00  0.000000e+00
   outer loop
     vertex  3.000000e+01  3.806023e-01 -1.913417e+00
     vertex  3.000000e+01  5.449674e-01 -2.269952e+00
     vertex  3.000000e+01  7.367992e-01 -2.612493e+00
   endloop
 endfacet
 facet normal  1.000000e+00  0.000000e+00  0.000000e+00
   outer loop
     vertex  3.000000e+01  3.806023e-01 -1.913417e+00
     vertex  3.000000e+01  7.367992e-01 -2.612493e+00
     vertex  3.000000e+01  9.549150e-01 -2.938926e+00
   endloop
 endfacet
 facet normal  1.000000e+00  0.000000e+00  0.000000e+00
   outer loop
     vertex  3.000000e+01  5.392295e+00 -4.984587e+00
     vertex  3.000000e+01  6.167227e+00 -4.861850e+00
     vertex  3.000000e+01  7.269952e+00 -4.455033e+00
   endloop
 endfacet
 facet normal  1.000000e+00  0.000000e+00  0.000000e+00
   outer loop
     vertex  3.000000e+01  5.392295e+00 -4.984587e+00
     vertex  3.000000e+01  5.782172e+00 -4.938442e+00
     vertex  3.000000e+01  6.167227e+00 -4.861850e+00
   endloop
 endfacet
 facet normal  1.000000e+00  0.000000e+00  0.000000e+00
   outer loop
     vertex  3.000000e+01  1.381504e-01 -1.167227e+00
     vertex  3.000000e+01  2.447174e-01 -1.545085e+00
     vertex  3.000000e+01  3.806023e-01 -1.913417e+00
   endloop
 endfacet
 facet normal  1.000000e+00  0.000000e+00  0.000000e+00
   outer loop
     vertex  3.000000e+01  5.392295e+00 -4.984587e+00
     vertex  3.000000e+01  7.269952e+00 -4.455033e+00
     vertex  3.000000e+01  9.263201e+00 -2.612493e+00
   endloop
 endfacet
 facet normal  1.000000e+00  0.000000e+00  0.000000e+00
   outer loop
     vertex  3.000000e+01  5.392295e+00 -4.984587e+00
     vertex  3.000000e+01  9.263201e+00 -2.612493e+00
     vertex  3.000000e+01  9.619398e+00 -1.913417e+00
   endloop
 endfacet
 facet normal  1.000000e+00 -0.000000e+00  0.000000e+00
   outer loop
     vertex  3.000000e+01  1.000000e+01 -9.184851e-16
     vertex  3.000000e+01  9.619398e+00 -1.913417e+00
     vertex  3.000000e+01  9.861850e+00 -1.167227e+00
   endloop
 endfacet
 facet normal  1.000000e+00  0.000000e+00  0.000000e+00
   outer loop
     vertex  3.000000e+01  1.381504e-01 -1.167227e+00
     vertex  3.000000e+01  3.806023e-01 -1.913417e+00
     vertex  3.000000e+01  9.549150e-01 -2.938926e+00
   endloop
 endfacet
 facet normal  1.000000e+00 -0.000000e+00  0.000000e+00
   outer loop
     vertex  3.000000e+01  1.000000e+01 -9.184851e-16
     vertex  3.000000e+01  5.392295e+00 -4.984587e+00
     vertex  3.000000e+01  9.619398e+00 -1.913417e+00
   endloop
 endfacet
 facet normal  1.000000e+00 -0.000000e+00  0.000000e+00
   outer loop
     vertex  3.000000e+01  1.000000e+01 -9.184851e-16
     vertex  3.000000e+01  9.861850e+00 -1.167227e+00
     vertex  3.000000e+01  9.938442e+00 -7.821723e-01
   endloop
 endfacet
 facet normal  1.000000e+00 -0.000000e+00  0.000000e+00
   outer loop
     vertex  3.000000e+01  1.000000e+01 -9.184851e-16
     vertex  3.000000e+01  9.938442e+00 -7.821723e-01
     vertex  3.000000e+01  9.984587e+00 -3.922955e-01
   endloop
 endfacet
 facet normal  1.000000e+00 -0.000000e+00 -0.000000e+00
   outer loop
     vertex  3.000000e+01  6.167227e+00  4.861850e+00
     vertex  3.000000e+01  9.984587e+00  3.922955e-01
     vertex  3.000000e+01  7.612493e+00  4.263201e+00
   endloop
 endfacet
 facet normal  1.000000e+00 -0.000000e+00 -0.000000e+00
   outer loop
     vertex  3.000000e+01  6.167227e+00  4.861850e+00
     vertex  3.000000e+01  6.913417e+00  4.619398e+00
     vertex  3.000000e+01  6.545085e+00  4.755283e+00
   endloop
 endfacet
 facet normal  1.000000e+00 -0.000000e+00 -0.000000e+00
   outer loop
     vertex  3.000000e+01  6.167227e+00  4.861850e+00
     vertex  3.000000e+01  7.612493e+00  4.263201e+00
     vertex  3.000000e+01  6.913417e+00  4.619398e+00
   endloop
 endfacet
 facet normal  1.000000e+00 -0.000000e+00  0.000000e+00
   outer loop
     vertex  3.000000e+01  4.607705e+00 -4.984587e+00
     vertex  3.000000e+01  5.000000e+00 -5.000000e+00
     vertex  3.000000e+01  5.392295e+00 -4.984587e+00
   endloop
 endfacet
 facet normal  1.000000e+00 -0.000000e+00  0.000000e+00
   outer loop
     vertex  3.000000e+01  9.984587e+00  3.922955e-01
     vertex  3.000000e+01  5.392295e+00 -4.984587e+00
     vertex  3.000000e+01  1.000000e+01 -9.184851e-16
   endloop
 endfacet
 facet normal  1.000000e+00 -0.000000e+00 -0.000000e+00
   outer loop
     vertex  3.000000e+01  5.392295e+00  4.984587e+00
     vertex  3.000000e+01  6.167227e+00  4.861850e+00
     vertex  3.000000e+01  5.782172e+00  4.938442e+00
   endloop
 endfacet
 facet normal  1.000000e+00  0.000000e+00  0.000000e+00
   outer loop
     vertex  3.000000e+01  1.541333e-02 -3.922955e-01
     vertex  3.000000e+01  6.155830e-02 -7.821723e-01
     vertex  3.000000e+01  1.381504e-01 -1.167227e+00
   endloop
 endfacet
 facet normal  1.000000e+00 -0.000000e+00  0.000000e+00
   outer loop
     vertex  3.000000e+01  1.541333e-02 -3.922955e-01
     vertex  3.000000e+01  9.549150e-01 -2.938926e+00
     vertex  3.000000e+01  9.984587e+00  3.922955e-01
   endloop
 endfacet
 facet normal  1.000000e+00  0.000000e+00  0.000000e+00
   outer loop
     vertex  3.000000e+01  1.541333e-02 -3.922955e-01
     vertex  3.000000e+01  1.381504e-01 -1.167227e+00
     vertex  3.000000e+01  9.549150e-01 -2.938926e+00
   endloop
 endfacet
 facet normal  1.000000e+00  0.000000e+00 -0.000000e+00
   outer loop
     vertex  3.000000e+01  1.541333e-02 -3.922955e-01
     vertex  3.000000e+01  9.984587e+00  3.922955e-01
     vertex  3.000000e+01  6.167227e+00  4.861850e+00
   endloop
 endfacet
 facet normal  1.000000e+00  0.000000e+00 -0.000000e+00
   outer loop
     vertex  3.000000e+01  1.541333e-02 -3.922955e-01
     vertex  3.000000e+01  6.167227e+00  4.861850e+00
     vertex  3.000000e+01  5.392295e+00  4.984587e+00
   endloop
 endfacet
 facet normal  1.000000e+00 -0.000000e+00 -0.000000e+00
   outer loop
     vertex  3.000000e+01  9.861850e+00  1.167227e+00
     vertex  3.000000e+01  9.984587e+00  3.922955e-01
     vertex  3.000000e+01  9.938442e+00  7.821723e-01
   endloop
 endfacet
 facet normal  1.000000e+00  0.000000e+00  0.000000e+00
   outer loop
     vertex  3.000000e+01  1.541333e-02  3.922955e-01
     vertex  3.000000e+01  0.000000e+00  3.061617e-16
     vertex  3.000000e+01  1.541333e-02 -3.922955e-01
   endloop
 endfacet
 facet normal  1.000000e+00 -0.000000e+00  0.000000e+00
   outer loop
     vertex  3.000000e+01  1.541333e-02  3.922955e-01
     vertex  3.000000e+01  1.541333e-02 -3.922955e-01
     vertex  3.000000e+01  5.392295e+00  4.984587e+00
   endloop
 endfacet
 facet normal  1.000000e+00 -0.000000e+00  0.000000e+00
   outer loop
     vertex  3.000000e+01  4.607705e+00  4.984587e+00
     vertex  3.000000e+01  1.541333e-02  3.922955e-01
     vertex  3.000000e+01  5.392295e+00  4.984587e+00
   endloop
 endfacet
 facet normal  1.000000e+00  0.000000e+00  0.000000e+00
   outer loop
     vertex  3.000000e+01  3.454915e+00 -4.755283e+00
     vertex  3.000000e+01  3.832773e+00 -4.861850e+00
     vertex  3.000000e+01  4.217828e+00 -4.938442e+00
   endloop
 endfacet
 facet normal  1.000000e+00  0.000000e+00 -0.000000e+00
   outer loop
     vertex  3.000000e+01  4.607705e+00  4.984587e+00
     vertex  3.000000e+01  5.392295e+00  4.984587e+00
     vertex  3.000000e+01  5.000000e+00  5.000000e+00
   endloop
 endfacet
 facet normal  1.000000e+00  0.000000e+00  0.000000e+00
   outer loop
     vertex  3.000000e+01  3.454915e+00 -4.755283e+00
     vertex  3.000000e+01  4.217828e+00 -4.938442e+00
     vertex  3.000000e+01  4.607705e+00 -4.984587e+00
   endloop
 endfacet
 facet normal  1.000000e+00 -0.000000e+00 -0.000000e+00
   outer loop
     vertex  3.000000e+01  9.619398e+00  1.913417e+00
     vertex  3.000000e+01  9.984587e+00  3.922955e-01
     vertex  3.000000e+01  9.861850e+00  1.167227e+00
   endloop
 endfacet
 facet normal  1.000000e+00  0.000000e+00  0.000000e+00
   outer loop
     vertex  3.000000e+01  1.381504e-01  1.167227e+00
     vertex  3.000000e+01  6.155830e-02  7.821723e-01
     vertex  3.000000e+01  1.541333e-02  3.922955e-01
   endloop
 endfacet
 facet normal  1.000000e+00  0.000000e+00 -0.000000e+00
   outer loop
     vertex  3.000000e+01  3.832773e+00  4.861850e+00
     vertex  3.000000e+01  4.607705e+00  4.984587e+00
     vertex  3.000000e+01  4.217828e+00  4.938442e+00
   endloop
 endfacet
 facet normal  1.000000e+00 -0.000000e+00 -0.000000e+00
   outer loop
     vertex  3.000000e+01  9.619398e+00  1.913417e+00
     vertex  3.000000e+01  9.861850e+00  1.167227e+00
     vertex  3.000000e+01  9.755283e+00  1.545085e+00
   endloop
 endfacet
 facet normal  1.000000e+00 -0.000000e+00  0.000000e+00
   outer loop
     vertex  3.000000e+01  2.730048e+00 -4.455033e+00
     vertex  3.000000e+01  5.392295e+00 -4.984587e+00
     vertex  3.000000e+01  9.984587e+00  3.922955e-01
   endloop
 endfacet
 facet normal  1.000000e+00  0.000000e+00  0.000000e+00
   outer loop
     vertex  3.000000e+01  2.730048e+00 -4.455033e+00
     vertex  3.000000e+01  3.454915e+00 -4.755283e+00
     vertex  3.000000e+01  4.607705e+00 -4.984587e+00
   endloop
 endfacet
 facet normal  1.000000e+00 -0.000000e+00  0.000000e+00
   outer loop
     vertex  3.000000e+01  2.730048e+00 -4.455033e+00
     vertex  3.000000e+01  4.607705e+00 -4.984587e+00
     vertex  3.000000e+01  5.392295e+00 -4.984587e+00
   endloop
 endfacet
 facet normal  1.000000e+00  0.000000e+00  0.000000e+00
   outer loop
     vertex  3.000000e+01  2.730048e+00 -4.455033e+00
     vertex  3.000000e+01  3.086583e+00 -4.619398e+00
     vertex  3.000000e+01  3.454915e+00 -4.755283e+00
   endloop
 endfacet
 facet normal  1.000000e+00  0.000000e+00 -0.000000e+00
   outer loop
     vertex  3.000000e+01  3.086583e+00  4.619398e+00
     vertex  3.000000e+01  3.832773e+00  4.861850e+00
     vertex  3.000000e+01  3.454915e+00  4.755283e+00
   endloop
 endfacet
 facet normal -1.000000e+00 -0.000000e+00  0.000000e+00
   outer loop
     vertex  0.000000e+00  9.984587e+00  3.922955e-01
     vertex  0.000000e+00  2.730048e+00 -4.455033e+00
     vertex  0.000000e+00  2.387507e+00 -4.263201e+00
   endloop
 endfacet
 facet normal -1.000000e+00  0.000000e+00  0.000000e+00
   outer loop
     vertex  0.000000e+00  1.381504e-01  1.167227e+00
     vertex  0.000000e+00  2.447174e-01  1.545085e+00
     vertex  0.000000e+00  3.806023e-01  1.913417e+00
   endloop
 endfacet
 facet normal -1.000000e+00  0.000000e+00  0.000000e+00
   outer loop
     vertex  0.000000e+00  8.802030e+00 -3.247240e+00
     vertex  0.000000e+00  8.535534e+00 -3.535534e+00
     vertex  0.000000e+00  8.247240e+00 -3.802030e+00
   endloop
 endfacet
 facet normal -1.000000e+00  0.000000e+00  0.000000e+00
   outer loop
     vertex  0.000000e+00  1.381504e-01  1.167227e+00
     vertex  0.000000e+00  3.806023e-01  1.913417e+00
     vertex  0.000000e+00  5.449674e-01  2.269952e+00
   endloop
 endfacet
 facet normal -1.000000e+00  0.000000e+00 -0.000000e+00
   outer loop
     vertex  0.000000e+00  3.086583e+00  4.619398e+00
     vertex  0.000000e+00  3.832773e+00  4.861850e+00
     vertex  0.000000e+00  2.730048e+00  4.455033e+00
   endloop
 endfacet
 facet normal -1.000000e+00  0.000000e+00  0.000000e+00
   outer loop
     vertex  0.000000e+00  1.381504e-01  1.167227e+00
     vertex  0.000000e+00  5.449674e-01  2.269952e+00
     vertex  0.000000e+00  7.367992e-01  2.612493e+00
   endloop
 endfacet
 facet normal -1.000000e+00  0.000000e+00  0.000000e+00
   outer loop
     vertex  0.000000e+00  8.247240e+00 -3.802030e+00
     vertex  0.000000e+00  7.938926e+00 -4.045085e+00
     vertex  0.000000e+00  7.612493e+00 -4.263201e+00
   endloop
 endfacet
 facet normal -1.000000e+00 -0.000000e+00 -0.000000e+00
   outer loop
     vertex  0.000000e+00  9.455033e+00  2.269952e+00
     vertex  0.000000e+00  9.619398e+00  1.913417e+00
     vertex  0.000000e+00  8.802030e+00  3.247240e+00
   endloop
 endfacet
 facet normal -1.000000e+00 -0.000000e+00  0.000000e+00
   outer loop
     vertex  0.000000e+00  9.045085e+00 -2.938926e+00
     vertex  0.000000e+00  8.802030e+00 -3.247240e+00
     vertex  0.000000e+00  9.263201e+00 -2.612493e+00
   endloop
 endfacet
 facet normal -1.000000e+00 -0.000000e+00 -0.000000e+00
   outer loop
     vertex  0.000000e+00  9.263201e+00  2.612493e+00
     vertex  0.000000e+00  9.455033e+00  2.269952e+00
     vertex  0.000000e+00  8.802030e+00  3.247240e+00
   endloop
 endfacet
 facet normal -1.000000e+00  0.000000e+00 -0.000000e+00
   outer loop
     vertex  0.000000e+00  3.832773e+00  4.861850e+00
     vertex  0.000000e+00  4.607705e+00  4.984587e+00
     vertex  0.000000e+00  9.549150e-01  2.938926e+00
   endloop
 endfacet
 facet normal -1.000000e+00 -0.000000e+00 -0.000000e+00
   outer loop
     vertex  0.000000e+00  9.045085e+00  2.938926e+00
     vertex  0.000000e+00  9.263201e+00  2.612493e+00
     vertex  0.000000e+00  8.802030e+00  3.247240e+00
   endloop
 endfacet
 facet normal -1.000000e+00 -0.000000e+00  0.000000e+00
   outer loop
     vertex  0.000000e+00  4.607705e+00  4.984587e+00
     vertex  0.000000e+00  1.541333e-02  3.922955e-01
     vertex  0.000000e+00  9.549150e-01  2.938926e+00
   endloop
 endfacet
 facet normal -1.000000e+00 -0.000000e+00  0.000000e+00
   outer loop
     vertex  0.000000e+00  8.802030e+00 -3.247240e+00
     vertex  0.000000e+00  8.247240e+00 -3.802030e+00
     vertex  0.000000e+00  9.263201e+00 -2.612493e+00
   endloop
 endfacet
 facet normal -1.000000e+00  0.000000e+00  0.000000e+00
   outer loop
     vertex  0.000000e+00  1.541333e-02  3.922955e-01
     vertex  0.000000e+00  1.381504e-01  1.167227e+00
     vertex  0.000000e+00  9.549150e-01  2.938926e+00
   endloop
 endfacet
 facet normal -1.000000e+00  0.000000e+00  0.000000e+00
   outer loop
     vertex  0.000000e+00  1.381504e-01  1.167227e+00
     vertex  0.000000e+00  7.367992e-01  2.612493e+00
     vertex  0.000000e+00  9.549150e-01  2.938926e+00
   endloop
 endfacet
 facet normal -1.000000e+00  0.000000e+00 -0.000000e+00
   outer loop
     vertex  0.000000e+00  2.387507e+00  4.263201e+00
     vertex  0.000000e+00  2.730048e+00  4.455033e+00
     vertex  0.000000e+00  2.061074e+00  4.045085e+00
   endloop
 endfacet
 facet normal -1.000000e+00  0.000000e+00  0.000000e+00
   outer loop
     vertex  0.000000e+00  2.061074e+00 -4.045085e+00
     vertex  0.000000e+00  1.752760e+00 -3.802030e+00
     vertex  0.000000e+00  1.464466e+00 -3.535534e+00
   endloop
 endfacet
 facet normal -1.000000e+00  0.000000e+00  0.000000e+00
   outer loop
     vertex  0.000000e+00  2.387507e+00 -4.263201e+00
     vertex  0.000000e+00  2.061074e+00 -4.045085e+00
     vertex  0.000000e+00  1.464466e+00 -3.535534e+00
   endloop
 endfacet
 facet normal -1.000000e+00  0.000000e+00  0.000000e+00
   outer loop
     vertex  0.000000e+00  8.247240e+00 -3.802030e+00
     vertex  0.000000e+00  7.612493e+00 -4.263201e+00
     vertex  0.000000e+00  7.269952e+00 -4.455033e+00
   endloop
 endfacet
 facet normal -1.000000e+00  0.000000e+00  0.000000e+00
   outer loop
     vertex  0.000000e+00  9.263201e+00 -2.612493e+00
     vertex  0.000000e+00  8.247240e+00 -3.802030e+00
     vertex  0.000000e+00  7.269952e+00 -4.455033e+00
   endloop
 endfacet
 facet normal -1.000000e+00  0.000000e+00  0.000000e+00
   outer loop
     vertex  0.000000e+00  9.549150e-01  2.938926e+00
     vertex  0.000000e+00  1.197970e+00  3.247240e+00
     vertex  0.000000e+00  1.752760e+00  3.802030e+00
   endloop
 endfacet
 facet normal -1.000000e+00 -0.000000e+00  0.000000e+00
   outer loop
     vertex  0.000000e+00  9.455033e+00 -2.269952e+00
     vertex  0.000000e+00  9.263201e+00 -2.612493e+00
     vertex  0.000000e+00  9.619398e+00 -1.913417e+00
   endloop
 endfacet
 facet normal -1.000000e+00  0.000000e+00 -0.000000e+00
   outer loop
     vertex  0.000000e+00  2.730048e+00  4.455033e+00
     vertex  0.000000e+00  3.832773e+00  4.861850e+00
     vertex  0.000000e+00  1.752760e+00  3.802030e+00
   endloop
 endfacet
 facet normal -1.000000e+00 -0.000000e+00  0.000000e+00
   outer loop
     vertex  0.000000e+00  3.832773e+00  4.861850e+00
     vertex  0.000000e+00  9.549150e-01  2.938926e+00
     vertex  0.000000e+00  1.752760e+00  3.802030e+00
   endloop
 endfacet
 facet normal -1.000000e+00 -0.000000e+00 -0.000000e+00
   outer loop
     vertex  0.000000e+00  8.535534e+00  3.535534e+00
     vertex  0.000000e+00  8.802030e+00  3.247240e+00
     vertex  0.000000e+00  8.247240e+00  3.802030e+00
   endloop
 endfacet
 facet normal -1.000000e+00  0.000000e+00 -0.000000e+00
   outer loop
     vertex  0.000000e+00  2.061074e+00  4.045085e+00
     vertex  0.000000e+00  2.730048e+00  4.455033e+00
     vertex  0.000000e+00  1.752760e+00  3.802030e+00
   endloop
 endfacet
 facet normal -1.000000e+00 -0.000000e+00  0.000000e+00
   outer loop
     vertex  0.000000e+00  1.752760e+00  3.802030e+00
     vertex  0.000000e+00  1.197970e+00  3.247240e+00
     vertex  0.000000e+00  1.464466e+00  3.535534e+00
   endloop
 endfacet
 facet normal -1.000000e+00 -0.000000e+00 -0.000000e+00
   outer loop
     vertex  0.000000e+00  8.247240e+00  3.802030e+00
     vertex  0.000000e+00  8.802030e+00  3.247240e+00
     vertex  0.000000e+00  7.938926e+00  4.045085e+00
   endloop
 endfacet
 facet normal -1.000000e+00  0.000000e+00  0.000000e+00
   outer loop
     vertex  0.000000e+00  1.464466e+00 -3.535534e+00
     vertex  0.000000e+00  1.197970e+00 -3.247240e+00
     vertex  0.000000e+00  9.549150e-01 -2.938926e+00
   endloop
 endfacet
 facet normal -1.000000e+00 -0.000000e+00  0.000000e+00
   outer loop
     vertex  0.000000e+00  9.984587e+00  3.922955e-01
     vertex  0.000000e+00  2.387507e+00 -4.263201e+00
     vertex  0.000000e+00  9.549150e-01 -2.938926e+00
   endloop
 endfacet
 facet normal -1.000000e+00  0.000000e+00  0.000000e+00
   outer loop
     vertex  0.000000e+00  2.387507e+00 -4.263201e+00
     vertex  0.000000e+00  1.464466e+00 -3.535534e+00
     vertex  0.000000e+00  9.549150e-01 -2.938926e+00
   endloop
 endfacet
 facet normal -1.000000e+00  0.000000e+00  0.000000e+00
   outer loop
     vertex  0.000000e+00  6.913417e+00 -4.619398e+00
     vertex  0.000000e+00  6.545085e+00 -4.755283e+00
     vertex  0.000000e+00  6.167227e+00 -4.861850e+00
   endloop
 endfacet
 facet normal -1.000000e+00  0.000000e+00  0.000000e+00
   outer loop
     vertex  0.000000e+00  7.269952e+00 -4.455033e+00
     vertex  0.000000e+00  6.913417e+00 -4.619398e+00
     vertex  0.000000e+00  6.167227e+00 -4.861850e+00
   endloop
 endfacet
 facet normal -1.000000e+00 -0.000000e+00 -0.000000e+00
   outer loop
     vertex  0.000000e+00  9.619398e+00  1.913417e+00
     vertex  0.000000e+00  9.984587e+00  3.922955e-01
     vertex  0.000000e+00  7.612493e+00  4.263201e+00
   endloop
 endfacet
 facet normal -1.000000e+00 -0.000000e+00 -0.000000e+00
   outer loop
     vertex  0.000000e+00  8.802030e+00  3.247240e+00
     vertex  0.000000e+00  9.619398e+00  1.913417e+00
     vertex  0.000000e+00  7.612493e+00  4.263201e+00
   endloop
 endfacet
 facet normal -1.000000e+00 -0.000000e+00 -0.000000e+00
   outer loop
     vertex  0.000000e+00  7.938926e+00  4.045085e+00
     vertex  0.000000e+00  8.802030e+00  3.247240e+00
     vertex  0.000000e+00  7.612493e+00  4.263201e+00
   endloop
 endfacet
 facet normal -1.000000e+00 -0.000000e+00  0.000000e+00
   outer loop
     vertex  0.000000e+00  9.755283e+00 -1.545085e+00
     vertex  0.000000e+00  9.619398e+00 -1.913417e+00
     vertex  0.000000e+00  9.861850e+00 -1.167227e+00
   endloop
 endfacet
 facet normal -1.000000e+00 -0.000000e+00 -0.000000e+00
   outer loop
     vertex  0.000000e+00  7.269952e+00  4.455033e+00
     vertex  0.000000e+00  7.612493e+00  4.263201e+00
     vertex  0.000000e+00  6.913417e+00  4.619398e+00
   endloop
 endfacet
 facet normal -1.000000e+00  0.000000e+00  0.000000e+00
   outer loop
     vertex  0.000000e+00  7.367992e-01 -2.612493e+00
     vertex  0.000000e+00  5.449674e-01 -2.269952e+00
     vertex  0.000000e+00  3.806023e-01 -1.913417e+00
   endloop
 endfacet
 facet normal -1.000000e+00  0.000000e+00  0.000000e+00
   outer loop
     vertex  0.000000e+00  9.549150e-01 -2.938926e+00
     vertex  0.000000e+00  7.367992e-01 -2.612493e+00
     vertex  0.000000e+00  3.806023e-01 -1.913417e+00
   endloop
 endfacet
 facet normal -1.000000e+00  0.000000e+00  0.000000e+00
   outer loop
     vertex  0.000000e+00  7.269952e+00 -4.455033e+00
     vertex  0.000000e+00  6.167227e+00 -4.861850e+00
     vertex  0.000000e+00  5.392295e+00 -4.984587e+00
   endloop
 endfacet
 facet normal -1.000000e+00  0.000000e+00  0.000000e+00
   outer loop
     vertex  0.000000e+00  6.167227e+00 -4.861850e+00
     vertex  0.000000e+00  5.782172e+00 -4.938442e+00
     vertex  0.000000e+00  5.392295e+00 -4.984587e+00
   endloop
 endfacet
 facet normal -1.000000e+00  0.000000e+00  0.000000e+00
   outer loop
     vertex  0.000000e+00  3.806023e-01 -1.913417e+00
     vertex  0.000000e+00  2.447174e-01 -1.545085e+00
     vertex  0.000000e+00  1.381504e-01 -1.167227e+00
   endloop
 endfacet
 facet normal -1.000000e+00  0.000000e+00  0.000000e+00
   outer loop
     vertex  0.000000e+00  9.263201e+00 -2.612493e+00
     vertex  0.000000e+00  7.269952e+00 -4.455033e+00
     vertex  0.000000e+00  5.392295e+00 -4.984587e+00
   endloop
 endfacet
 facet normal -1.000000e+00  0.000000e+00  0.000000e+00
   outer loop
     vertex  0.000000e+00  9.619398e+00 -1.913417e+00
     vertex  0.000000e+00  9.263201e+00 -2.612493e+00
     vertex  0.000000e+00  5.392295e+00 -4.984587e+00
   endloop
 endfacet
 facet normal -1.000000e+00 -0.000000e+00  0.000000e+00
   outer loop
     vertex  0.000000e+00  9.861850e+00 -1.167227e+00
     vertex  0.000000e+00  9.619398e+00 -1.913417e+00
     vertex  0.000000e+00  1.000000e+01 -9.184851e-16
   endloop
 endfacet
 facet normal -1.000000e+00  0.000000e+00  0.000000e+00
   outer loop
     vertex  0.000000e+00  9.549150e-01 -2.938926e+00
     vertex  0.000000e+00  3.806023e-01 -1.913417e+00
     vertex  0.000000e+00  1.381504e-01 -1.167227e+00
   endloop
 endfacet
 facet normal -1.000000e+00 -0.000000e+00  0.000000e+00
   outer loop
     vertex  0.000000e+00  9.619398e+00 -1.913417e+00
     vertex  0.000000e+00  5.392295e+00 -4.984587e+00
     vertex  0.000000e+00  1.000000e+01 -9.184851e-16
   endloop
 endfacet
 facet normal -1.000000e+00 -0.000000e+00  0.000000e+00
   outer loop
     vertex  0.000000e+00  9.938442e+00 -7.821723e-01
     vertex  0.000000e+00  9.861850e+00 -1.167227e+00
     vertex  0.000000e+00  1.000000e+01 -9.184851e-16
   endloop
 endfacet
 facet normal -1.000000e+00 -0.000000e+00  0.000000e+00
   outer loop
     vertex  0.000000e+00  9.984587e+00 -3.922955e-01
     vertex  0.000000e+00  9.938442e+00 -7.821723e-01
     vertex  0.000000e+00  1.000000e+01 -9.184851e-16
   endloop
 endfacet
 facet normal -1.000000e+00 -0.000000e+00 -0.000000e+00
   outer loop
     vertex  0.000000e+00  7.612493e+00  4.263201e+00
     vertex  0.000000e+00  9.984587e+00  3.922955e-01
     vertex  0.000000e+00  6.167227e+00  4.861850e+00
   endloop
 endfacet
 facet normal -1.000000e+00 -0.000000e+00 -0.000000e+00
   outer loop
     vertex  0.000000e+00  6.545085e+00  4.755283e+00
     vertex  0.000000e+00  6.913417e+00  4.619398e+00
     vertex  0.000000e+00  6.167227e+00  4.861850e+00
   endloop
 endfacet
 facet normal -1.000000e+00 -0.000000e+00 -0.000000e+00
   outer loop
     vertex  0.000000e+00  6.913417e+00  4.619398e+00
     vertex  0.000000e+00  7.612493e+00  4.263201e+00
     vertex  0.000000e+00  6.167227e+00  4.861850e+00
   endloop
 endfacet
 facet normal -1.000000e+00 -0.000000e+00  0.000000e+00
   outer loop
     vertex  0.000000e+00  5.392295e+00 -4.984587e+00
     vertex  0.000000e+00  5.000000e+00 -5.000000e+00
     vertex  0.000000e+00  4.607705e+00 -4.984587e+00
   endloop
 endfacet
 facet normal -1.000000e+00 -0.000000e+00  0.000000e+00
   outer loop
     vertex  0.000000e+00  1.000000e+01 -9.184851e-16
     vertex  0.000000e+00  5.392295e+00 -4.984587e+00
     vertex  0.000000e+00  9.984587e+00  3.922955e-01
   endloop
 endfacet
 facet normal -1.000000e+00 -0.000000e+00 -0.000000e+00
   outer loop
     vertex  0.000000e+00  5.782172e+00  4.938442e+00
     vertex  0.000000e+00  6.167227e+00  4.861850e+00
     vertex  0.000000e+00  5.392295e+00  4.984587e+00
   endloop
 endfacet
 facet normal -1.000000e+00  0.000000e+00  0.000000e+00
   outer loop
     vertex  0.000000e+00  1.381504e-01 -1.167227e+00
     vertex  0.000000e+00  6.155830e-02 -7.821723e-01
     vertex  0.000000e+00  1.541333e-02 -3.922955e-01
   endloop
 endfacet
 facet normal -1.000000e+00 -0.000000e+00  0.000000e+00
   outer loop
     vertex  0.000000e+00  9.984587e+00  3.922955e-01
     vertex  0.000000e+00  9.549150e-01 -2.938926e+00
     vertex  0.000000e+00  1.541333e-02 -3.922955e-01
   endloop
 endfacet
 facet normal -1.000000e+00  0.000000e+00  0.000000e+00
   outer loop
     vertex  0.000000e+00  9.549150e-01 -2.938926e+00
     vertex  0.000000e+00  1.381504e-01 -1.167227e+00
     vertex  0.000000e+00  1.541333e-02 -3.922955e-01
   endloop
 endfacet
 facet normal -1.000000e+00  0.000000e+00 -0.000000e+00
   outer loop
     vertex  0.000000e+00  6.167227e+00  4.861850e+00
     vertex  0.000000e+00  9.984587e+00  3.922955e-01
     vertex  0.000000e+00  1.541333e-02 -3.922955e-01
   endloop
 endfacet
 facet normal -1.000000e+00  0.000000e+00 -0.000000e+00
   outer loop
     vertex  0.000000e+00  5.392295e+00  4.984587e+00
     vertex  0.000000e+00  6.167227e+00  4.861850e+00
     vertex  0.000000e+00  1.541333e-02 -3.922955e-01
   endloop
 endfacet
 facet normal -1.000000e+00 -0.000000e+00 -0.000000e+00
   outer loop
     vertex  0.000000e+00  9.938442e+00  7.821723e-01
     vertex  0.000000e+00  9.984587e+00  3.922955e-01
     vertex  0.000000e+00  9.861850e+00  1.167227e+00
   endloop
 endfacet
 facet normal -1.000000e+00  0.000000e+00  0.000000e+00
   outer loop
     vertex  0.000000e+00  1.541333e-02 -3.922955e-01
     vertex  0.000000e+00  0.000000e+00  3.061617e-16
     vertex  0.000000e+00  1.541333e-02  3.922955e-01
   endloop
 endfacet
 facet normal -1.000000e+00 -0.000000e+00  0.000000e+00
   outer loop
     vertex  0.000000e+00  5.392295e+00  4.984587e+00
     vertex  0.000000e+00  1.541333e-02 -3.922955e-01
     vertex  0.000000e+00  1.541333e-02  3.922955e-01
   endloop
 endfacet
 facet normal -1.000000e+00 -0.000000e+00  0.000000e+00
   outer loop
     vertex  0.000000e+00  5.392295e+00  4.984587e+00
     vertex  0.000000e+00  1.541333e-02  3.922955e-01
     vertex  0.000000e+00  4.607705e+00  4.984587e+00
   endloop
 endfacet
 facet normal -1.000000e+00  0.000000e+00  0.000000e+00
   outer loop
     vertex  0.000000e+00  4.217828e+00 -4.938442e+00
     vertex  0.000000e+00  3.832773e+00 -4.861850e+00
     vertex  0.000000e+00  3.454915e+00 -4.755283e+00
   endloop
 endfacet
 facet normal -1.000000e+00 -0.000000e+00 -0.000000e+00
   outer loop
     vertex  0.000000e+00  5.000000e+00  5.000000e+00
     vertex  0.000000e+00  5.392295e+00  4.984587e+00
     vertex  0.000000e+00  4.607705e+00  4.984587e+00
   endloop
 endfacet
 facet normal -1.000000e+00  0.000000e+00  0.000000e+00
   outer loop
     vertex  0.000000e+00  4.607705e+00 -4.984587e+00
     vertex  0.000000e+00  4.217828e+00 -4.938442e+00
     vertex  0.000000e+00  3.454915e+00 -4.755283e+00
   endloop
 endfacet
 facet normal -1.000000e+00 -0.000000e+00 -0.000000e+00
   outer loop
     vertex  0.000000e+00  9.861850e+00  1.167227e+00
     vertex  0.000000e+00  9.984587e+00  3.922955e-01
     vertex  0.000000e+00  9.619398e+00  1.913417e+00
   endloop
 endfacet
 facet normal -1.000000e+00  0.000000e+00  0.000000e+00
   outer loop
     vertex  0.000000e+00  1.541333e-02  3.922955e-01
     vertex  0.000000e+00  6.155830e-02  7.821723e-01
     vertex  0.000000e+00  1.381504e-01  1.167227e+00
   endloop
 endfacet
 facet normal -1.000000e+00  0.000000e+00 -0.000000e+00
   outer loop
     vertex  0.000000e+00  4.217828e+00  4.938442e+00
     vertex  0.000000e+00  4.607705e+00  4.984587e+00
     vertex  0.000000e+00  3.832773e+00  4.861850e+00
   endloop
 endfacet
 facet normal -1.000000e+00 -0.000000e+00 -0.000000e+00
   outer loop
     vertex  0.000000e+00  9.755283e+00  1.545085e+00
     vertex  0.000000e+00  9.861850e+00  1.167227e+00
     vertex  0.000000e+00  9.619398e+00  1.913417e+00
   endloop
 endfacet
 facet normal -1.000000e+00 -0.000000e+00  0.000000e+00
   outer loop
     vertex  0.000000e+00  9.984587e+00  3.922955e-01
     vertex  0.000000e+00  5.392295e+00 -4.984587e+00
     vertex  0.000000e+00  2.730048e+00 -4.455033e+00
   endloop
 endfacet
 facet normal -1.000000e+00  0.000000e+00  0.000000e+00
   outer loop
     vertex  0.000000e+00  4.607705e+00 -4.984587e+00
     vertex  0.000000e+00  3.454915e+00 -4.755283e+00
     vertex  0.000000e+00  2.730048e+00 -4.455033e+00
   endloop
 endfacet
 facet normal -1.000000e+00  0.000000e+00  0.000000e+00
   outer loop
     vertex  0.000000e+00  5.392295e+00 -4.984587e+00
     vertex  0.000000e+00  4.607705e+00 -4.984587e+00
     vertex  0.000000e+00  2.730048e+00 -4.455033e+00
   endloop
 endfacet
 facet normal -1.000000e+00  0.000000e+00  0.000000e+00
   outer loop
     vertex  0.000000e+00  3.454915e+00 -4.755283e+00
     vertex  0.000000e+00  3.086583e+00 -4.619398e+00
     vertex  0.000000e+00  2.730048e+00 -4.455033e+00
   endloop
 endfacet
 facet normal -1.000000e+00  0.000000e+00 -0.000000e+00
   outer loop
     vertex  0.000000e+00  3.454915e+00  4.755283e+00
     vertex  0.000000e+00  3.832773e+00  4.861850e+00
     vertex  0.000000e+00  3.086583e+00  4.619398e+00
   endloop
 endfacet
endsolid
