<?xml version="1.0" encoding="UTF-8" standalone="no"?>
<!-- Created with Inkscape (http://www.inkscape.org/) -->

<svg
   xmlns:dc="http://purl.org/dc/elements/1.1/"
   xmlns:cc="http://creativecommons.org/ns#"
   xmlns:rdf="http://www.w3.org/1999/02/22-rdf-syntax-ns#"
   xmlns:svg="http://www.w3.org/2000/svg"
   xmlns="http://www.w3.org/2000/svg"
   xmlns:xlink="http://www.w3.org/1999/xlink"
   xmlns:sodipodi="http://sodipodi.sourceforge.net/DTD/sodipodi-0.dtd"
   xmlns:inkscape="http://www.inkscape.org/namespaces/inkscape"
   width="300"
   height="300"
   id="svg2"
   version="1.1"
   inkscape:version="0.91 r13725"
   sodipodi:docname="icon.svg">
  <title
     id="title4018">Logo</title>
  <defs
     id="defs4">
    <linearGradient
       id="linearGradient4006"
       inkscape:collect="always">
      <stop
         id="stop4008"
         offset="0"
         style="stop-color:#08486d;stop-opacity:1" />
      <stop
         id="stop4010"
         offset="1"
         style="stop-color:#bce5ff;stop-opacity:1" />
    </linearGradient>
    <linearGradient
       id="linearGradient3980">
      <stop
         style="stop-color:#faebd6;stop-opacity:1;"
         offset="0"
         id="stop3982" />
      <stop
         id="stop3994"
         offset="0.27431589"
         style="stop-color:#f6d9c1;stop-opacity:1" />
      <stop
         id="stop3992"
         offset="0.47968742"
         style="stop-color:#fdf8e4;stop-opacity:1" />
      <stop
         id="stop3990"
         offset="0.63578653"
         style="stop-color:#fae6c8;stop-opacity:1" />
      <stop
         id="stop3988"
         offset="0.79457289"
         style="stop-color:#fdfbee;stop-opacity:1" />
      <stop
         style="stop-color:#fbf7e6;stop-opacity:1"
         offset="1"
         id="stop3984" />
    </linearGradient>
    <linearGradient
       inkscape:collect="always"
       id="linearGradient3957">
      <stop
         style="stop-color:#08486d;stop-opacity:1"
         offset="0"
         id="stop3959" />
      <stop
         style="stop-color:#bce5ff;stop-opacity:1"
         offset="1"
         id="stop3961" />
    </linearGradient>
    <linearGradient
       id="linearGradient3941">
      <stop
         style="stop-color:#640000;stop-opacity:1"
         offset="0"
         id="stop3943" />
      <stop
         id="stop3951"
         offset="0.3301037"
         style="stop-color:#830e0e;stop-opacity:1" />
      <stop
         id="stop3949"
         offset="0.83025163"
         style="stop-color:#ffeeee;stop-opacity:1" />
      <stop
         style="stop-color:#ffb2b2;stop-opacity:1"
         offset="1"
         id="stop3945" />
    </linearGradient>
    <radialGradient
       inkscape:collect="always"
       xlink:href="#linearGradient3957"
       id="radialGradient3965"
       cx="341.95941"
       cy="646.76099"
       fx="341.95941"
       fy="646.76099"
       r="55.048237"
       gradientTransform="matrix(-0.60815358,-0.01111438,0.00672307,-0.36805048,383.27417,1163.6229)"
       gradientUnits="userSpaceOnUse" />
    <radialGradient
       inkscape:collect="always"
       xlink:href="#linearGradient4006"
       id="radialGradient3973"
       cx="341.43155"
       cy="632.44543"
       fx="341.43155"
       fy="632.44543"
       r="55.048237"
       gradientTransform="matrix(-8.6069348e-4,0.39036283,-0.54729629,-0.0012073,455.01895,791.07105)"
       gradientUnits="userSpaceOnUse" />
    <linearGradient
       inkscape:collect="always"
       xlink:href="#linearGradient3980"
       id="linearGradient3986"
       x1="490.27417"
       y1="429.3674"
       x2="494.71146"
       y2="876.25891"
       gradientUnits="userSpaceOnUse"
       gradientTransform="matrix(0.33364447,0,0,0.33372583,-14.436239,718.05339)" />
    <filter
       inkscape:collect="always"
       style="color-interpolation-filters:sRGB"
       id="filter4601"
       x="-0.050291155"
       width="1.1005823"
       y="-0.050509317"
       height="1.1010186">
      <feGaussianBlur
         inkscape:collect="always"
         stdDeviation="6.2156724"
         id="feGaussianBlur4603" />
    </filter>
  </defs>
  <sodipodi:namedview
     id="base"
     pagecolor="#ffffff"
     bordercolor="#666666"
     borderopacity="1.0"
     inkscape:pageopacity="0.0"
     inkscape:pageshadow="2"
     inkscape:zoom="1"
     inkscape:cx="117.22688"
     inkscape:cy="78.321552"
     inkscape:document-units="px"
     inkscape:current-layer="layer1"
     showgrid="false"
     borderlayer="true"
     inkscape:window-width="1920"
     inkscape:window-height="1016"
     inkscape:window-x="0"
     inkscape:window-y="27"
     inkscape:window-maximized="1"
     inkscape:snap-page="true" />
  <metadata
     id="metadata7">
    <rdf:RDF>
      <cc:Work
         rdf:about="">
        <dc:format>image/svg+xml</dc:format>
        <dc:type
           rdf:resource="http://purl.org/dc/dcmitype/StillImage" />
        <dc:title>Logo</dc:title>
        <dc:creator>
          <cc:Agent>
            <dc:title>Okami</dc:title>
          </cc:Agent>
        </dc:creator>
        <dc:rights>
          <cc:Agent>
            <dc:title>Okami</dc:title>
          </cc:Agent>
        </dc:rights>
        <dc:publisher>
          <cc:Agent>
            <dc:title>Okami</dc:title>
          </cc:Agent>
        </dc:publisher>
        <cc:license
           rdf:resource="http://creativecommons.org/licenses/by-sa/3.0/" />
      </cc:Work>
      <cc:License
         rdf:about="http://creativecommons.org/licenses/by-sa/3.0/">
        <cc:permits
           rdf:resource="http://creativecommons.org/ns#Reproduction" />
        <cc:permits
           rdf:resource="http://creativecommons.org/ns#Distribution" />
        <cc:requires
           rdf:resource="http://creativecommons.org/ns#Notice" />
        <cc:requires
           rdf:resource="http://creativecommons.org/ns#Attribution" />
        <cc:permits
           rdf:resource="http://creativecommons.org/ns#DerivativeWorks" />
        <cc:requires
           rdf:resource="http://creativecommons.org/ns#ShareAlike" />
      </cc:License>
    </rdf:RDF>
  </metadata>
  <g
     inkscape:label="Layer 1"
     inkscape:groupmode="layer"
     id="layer1"
     transform="translate(0,-752.3622)"
     style="display:inline">
    <path
       style="fill:none;fill-opacity:1;stroke:#000000;stroke-width:20;stroke-linecap:round;stroke-linejoin:round;stroke-miterlimit:4;stroke-dasharray:none;stroke-opacity:1;opacity:0.267;filter:url(#filter4601)"
       d="m 298.90625,767.7372 c -55.55679,3.02136 -77.49632,37.07373 -94.125,32.15625 -1.20218,-0.35551 -2.38094,-0.73435 -3.53125,-1.09375 -0.32438,-0.18013 -0.64124,-0.35112 -0.96875,-0.53125 l 0.75,0.46875 c -17.28495,-5.41643 -29.2872,-11.04297 -51.875,-10.84375 -21.17712,0.18677 -41.46907,13.1613 -49.0625,16.5 -0.0326,0.0194 -0.0612,0.0431 -0.0937,0.0625 -0.64916,0.28235 -1.23886,0.50425 -1.6875,0.625 -16.20224,4.36062 -79.47294,-2.50074 -96.03125,6.1875 7.6867,26.1937 27.87985,39.46148 45.71875,54.34375 -11.14679,24.82962 -22.84379,57.40231 -22.21875,78.21875 0.4837,16.10922 28.7366,55.45762 57.90625,87.81255 -14.47711,6.4177 -29.14321,12.7478 -34.4375,23.9062 l 86.8125,0.3438 65.34375,7.1875 1.96875,-6.9063 1.4375,0 c -0.82019,1.2408 -1.60651,2.4902 -2.375,3.7188 l 6.1875,1.4062 c 1.52452,-1.6153 3.08488,-3.3316 4.65625,-5.0937 l 59.21875,0.25 c -9.30878,-18.6285 -24.44613,-21.0664 -38.875,-25.4688 21.43939,-29.013 41.06303,-63.42738 42,-81.90625 1.33343,-26.29727 -2.44344,-62.9237 -10.09375,-91.1875 -0.005,-0.006 0.005,-0.0256 0,-0.0312 -0.16224,-0.59905 -0.3343,-1.22117 -0.5,-1.8125 10.535,-23.09051 31.36597,-68.76704 33.875,-88.3125 z"
       id="path3302"
       inkscape:connector-curvature="0" />
    <path
       style="fill:#3d3d3d;fill-opacity:1;stroke:#000000;stroke-width:2.68822122;stroke-linecap:butt;stroke-linejoin:miter;stroke-miterlimit:4;stroke-dasharray:none;stroke-opacity:1"
       d="M 85.12296,1031.0131 56.81228,994.90813 37.93851,968.71437 27.79384,948.18412 l 0.23592,-12.97889 15.09904,-46.25204 42.93785,-55.21927 54.26212,-25.01386 69.36114,33.50913 56.1495,65.60239 6.13398,43.89224 -6.14827,22.29732 -20.68596,35.70866 -14.84717,20.1905 c 15.38457,5.1875 32.17741,6.4621 42.20602,26.5311 l -223.23524,-0.8966 c 5.46956,-11.5278 20.92655,-17.8997 35.86019,-24.5417 z"
       id="path3998"
       inkscape:connector-curvature="0"
       sodipodi:nodetypes="ccccccccccccccccc" />
    <path
       style="fill:#edc88a;fill-opacity:1;stroke:#8a6337;stroke-width:2.68822122;stroke-linecap:butt;stroke-linejoin:miter;stroke-miterlimit:4;stroke-dasharray:none;stroke-opacity:1"
       d="m 74.50077,929.95416 c -8.93947,23.5447 -13.37608,59.03259 4.75338,94.97074 -3.3933,-19.2202 -11.47832,-43.76118 4.7134,-83.7275 z"
       id="path3867"
       inkscape:connector-curvature="0"
       sodipodi:nodetypes="cccc" />
    <path
       sodipodi:nodetypes="cccc"
       inkscape:connector-curvature="0"
       id="path3841"
       d="m 93.23799,901.32388 c -12.80766,13.36209 -20.76345,71.43852 8.8005,124.37402 -5.10273,-23.1588 -17.45638,-53.87353 14.09115,-112.44258 z"
       style="fill:#e8c488;fill-opacity:1;stroke:#8a6337;stroke-width:2.68822122;stroke-linecap:butt;stroke-linejoin:miter;stroke-miterlimit:4;stroke-dasharray:none;stroke-opacity:1" />
    <path
       sodipodi:nodetypes="cccc"
       inkscape:connector-curvature="0"
       id="path3845"
       d="m 100.64051,934.85867 c -10.86962,14.98184 -18.43037,60.03316 19.7151,98.30253 -8.20749,-22.2483 -27.12919,-40.47532 -3.84757,-102.7952 z"
       style="fill:#e8ce91;fill-opacity:1;stroke:#8a6337;stroke-width:2.68822122;stroke-linecap:butt;stroke-linejoin:miter;stroke-miterlimit:4;stroke-dasharray:none;stroke-opacity:1" />
    <path
       style="fill:#fbe8bf;fill-opacity:1;stroke:#8a6337;stroke-width:2.68822122;stroke-linecap:butt;stroke-linejoin:miter;stroke-miterlimit:4;stroke-dasharray:none;stroke-opacity:1"
       d="m 118.45499,925.67312 c -9.21121,25.02356 -29.92361,70.27824 19.87951,107.28208 -10.04397,-23.922 -17.0772,-56.75126 -10.38743,-99.6503 z"
       id="path3847"
       inkscape:connector-curvature="0"
       sodipodi:nodetypes="cccc" />
    <path
       sodipodi:nodetypes="cccc"
       inkscape:connector-curvature="0"
       id="path3849"
       d="m 200.17441,904.81885 c 14.84101,11.05887 26.10275,65.81179 5.70051,122.90965 1.20245,-23.6841 8.30635,-56.01965 -32.49266,-108.56198 z"
       style="fill:#eabe75;fill-opacity:1;stroke:#8a6337;stroke-width:2.68822122;stroke-linecap:butt;stroke-linejoin:miter;stroke-miterlimit:4;stroke-dasharray:none;stroke-opacity:1" />
    <path
       style="fill:#efc382;fill-opacity:1;stroke:#8a6337;stroke-width:2.68822122;stroke-linecap:butt;stroke-linejoin:miter;stroke-miterlimit:4;stroke-dasharray:none;stroke-opacity:1"
       d="m 174.7221,910.77824 c 14.84102,11.05886 45.12048,60.8059 24.71824,117.90386 1.20246,-23.6842 8.30637,-56.01975 -32.49265,-108.56208 z"
       id="path3851"
       inkscape:connector-curvature="0"
       sodipodi:nodetypes="cccc" />
    <path
       sodipodi:nodetypes="cccc"
       inkscape:connector-curvature="0"
       id="path3853"
       d="m 179.96131,928.04989 c 13.15374,13.02137 36.19977,66.50674 8.03449,120.19971 4.49351,-23.2846 16.03729,-54.31296 -17.03563,-112.03397 z"
       style="fill:#edce93;fill-opacity:1;stroke:#8a6337;stroke-width:2.68822122;stroke-linecap:butt;stroke-linejoin:miter;stroke-miterlimit:4;stroke-dasharray:none;stroke-opacity:1" />
    <path
       style="fill:#fbe8bf;fill-opacity:1;stroke:#8a6337;stroke-width:2.68822122;stroke-linecap:butt;stroke-linejoin:miter;stroke-miterlimit:4;stroke-dasharray:none;stroke-opacity:1"
       d="m 109.87741,905.4127 c -10.86963,14.98183 -24.94337,71.49638 11.55062,119.9128 -8.20748,-22.2482 -24.62685,-50.99454 -1.34523,-113.31443 z"
       id="path3843"
       inkscape:connector-curvature="0"
       sodipodi:nodetypes="cccc" />
    <path
       style="fill:#f6cfbe;fill-opacity:1;stroke:#000000;stroke-width:2.68822122;stroke-linecap:butt;stroke-linejoin:miter;stroke-miterlimit:4;stroke-dasharray:none;stroke-opacity:1"
       d="m 128.69724,999.38431 c 2.27715,21.02599 -7.49586,28.93549 -19.65332,28.61819 l 7.90483,25.793 84.44543,9.2919 8.50303,-29.9219 c -19.33277,-5.2484 -18.64692,-15.2732 -16.01409,-52.65214 z"
       id="path3996"
       inkscape:connector-curvature="0"
       sodipodi:nodetypes="ccccccc" />
    <path
       sodipodi:nodetypes="cccc"
       inkscape:connector-curvature="0"
       id="path3839"
       d="m 81.49573,924.89426 c -13.40462,21.3198 -23.58097,49.563 -12.89063,88.37094 0.46156,-19.51227 -3.7956,-39.49254 19.9556,-75.48158 z"
       style="fill:#f8ecc6;fill-opacity:1;stroke:#8a6337;stroke-width:2.68822122;stroke-linecap:butt;stroke-linejoin:miter;stroke-miterlimit:4;stroke-dasharray:none;stroke-opacity:1" />
    <path
       sodipodi:nodetypes="cccc"
       inkscape:connector-curvature="0"
       id="path3871"
       d="m 73.81698,926.60293 c -7.01594,24.18797 -6.493,72.59338 14.46942,106.95557 -4.64299,-20.8865 -12.06242,-65.25851 -0.11798,-99.54497 z"
       style="fill:#f4efc6;fill-opacity:1;stroke:#8a6337;stroke-width:2.68822122;stroke-linecap:butt;stroke-linejoin:miter;stroke-miterlimit:4;stroke-dasharray:none;stroke-opacity:1" />
    <path
       sodipodi:nodetypes="cccc"
       inkscape:connector-curvature="0"
       id="path4000"
       d="m 106.90631,869.28806 c -17.12467,7.01886 -58.82342,47.66893 -53.26131,108.04825 4.72501,-23.23882 5.8855,-56.32557 58.46828,-97.06582 z"
       style="fill:#f2ce8f;fill-opacity:1;stroke:#8a6337;stroke-width:2.68822122;stroke-linecap:butt;stroke-linejoin:miter;stroke-miterlimit:4;stroke-dasharray:none;stroke-opacity:1" />
    <path
       style="fill:#f6cfbe;fill-opacity:1;fill-rule:evenodd;stroke:#000000;stroke-width:2.688;stroke-linecap:butt;stroke-linejoin:miter;stroke-opacity:1;stroke-miterlimit:4;stroke-dasharray:none"
       d="M 94.627024,968.06499 C 80.615042,962.04466 73.368886,948.32019 83.557974,933.06315 Z"
       id="path4605"
       inkscape:connector-curvature="0"
       sodipodi:nodetypes="ccc" />
    <path
       style="fill:url(#linearGradient3986);fill-opacity:1;stroke:#000000;stroke-width:2.688;stroke-linecap:butt;stroke-linejoin:miter;stroke-miterlimit:4;stroke-dasharray:none;stroke-opacity:1"
       d="m 80.28663,928.12619 c 3.64456,17.29503 10.5481,41.61505 19.87663,53.02121 17.31947,21.1768 39.13447,30.4625 49.50748,30.3056 15.56737,-0.2358 59.26322,-30.27283 68.31914,-58.51624 10.27303,-32.03929 3.93715,-54.79853 7.32126,-81.60783 L 88.04028,861.31715 73.97955,923.53319 Z"
       id="path3863"
       inkscape:connector-curvature="0"
       sodipodi:nodetypes="cssscccc" />
    <path
       style="fill:#f6dcb1;fill-opacity:1;stroke:#8a6337;stroke-width:2.68822122;stroke-linecap:butt;stroke-linejoin:miter;stroke-miterlimit:4;stroke-dasharray:none;stroke-opacity:1"
       d="m 200.59011,885.23761 c 16.93992,8.69036 64.10463,72.889 49.2251,109.94675 1.1051,-14.47599 -1.95012,-36.84615 -54.83505,-99.1647 z"
       id="path3857"
       inkscape:connector-curvature="0"
       sodipodi:nodetypes="cccc" />
    <path
       style="fill:#ecd5ab;fill-opacity:1;stroke:#000000;stroke-width:2.68822122;stroke-linecap:butt;stroke-linejoin:miter;stroke-miterlimit:4;stroke-dasharray:none;stroke-opacity:1"
       d="m 91.85335,830.08995 40.03734,56.97177 89.60737,26.45969 -1.19159,-80.80933 -98.42511,-21.45381 z"
       id="path3869"
       inkscape:connector-curvature="0" />
    <path
       sodipodi:nodetypes="cccc"
       inkscape:connector-curvature="0"
       id="path3855"
       d="m 202.39372,836.48401 c 57.19958,26.75334 56.82665,109.99304 25.37198,151.40711 6.38641,-10.66367 28.67285,-91.91536 -36.07023,-150.56505 z"
       style="fill:#dbb779;fill-opacity:1;stroke:#8a6337;stroke-width:2.68822122;stroke-linecap:butt;stroke-linejoin:miter;stroke-miterlimit:4;stroke-dasharray:none;stroke-opacity:1" />
    <path
       sodipodi:nodetypes="cccc"
       inkscape:connector-curvature="0"
       id="path3859"
       d="m 227.35953,907.34576 c 11.12663,14.79185 30.65647,69.87499 -4.99621,118.91454 7.82215,-22.3867 23.74281,-51.41231 -0.61124,-113.32078 z"
       style="fill:#f0dab3;fill-opacity:1;stroke:#8a6337;stroke-width:2.68822122;stroke-linecap:butt;stroke-linejoin:miter;stroke-miterlimit:4;stroke-dasharray:none;stroke-opacity:1" />
    <path
       sodipodi:nodetypes="cccc"
       inkscape:connector-curvature="0"
       id="path3803"
       d="M 86.96089,826.10844 C 39.138,854.95122 54.98785,982.00364 92.81869,1013.8952 82.35602,992.37333 61.77095,945.07457 107.74012,854.36627 Z"
       style="fill:#f2ce85;fill-opacity:1;stroke:#8a6337;stroke-width:2.68822122;stroke-linecap:butt;stroke-linejoin:miter;stroke-miterlimit:4;stroke-dasharray:none;stroke-opacity:1" />
    <path
       style="fill:#ffffff;stroke:none;stroke-width:4.02807999;stroke-miterlimit:4;stroke-dasharray:none"
       d="m 125.43196,932.78819 c 0,9.58841 -8.14829,17.36137 -18.19973,17.36137 -10.05142,0 -16.11395,-8.00268 -18.19971,-17.36137 -2.94496,-13.21387 7.24157,-18.47761 18.19971,-17.36139 9.99972,1.01861 18.19973,7.77296 18.19973,17.36139 z"
       id="path3774"
       inkscape:connector-curvature="0"
       sodipodi:nodetypes="sssss" />
    <path
       sodipodi:nodetypes="cccc"
       inkscape:connector-curvature="0"
       id="path3801"
       d="m 77.17699,826.62678 c -23.68321,70.617 -11.6223,101.29245 23.71013,121.65731 -7.124,-8.75011 -37.78269,-50.58042 -7.75885,-118.74361 z"
       style="fill:#f8e2b0;fill-opacity:1;stroke:#8a6337;stroke-width:2.68822122;stroke-linecap:butt;stroke-linejoin:miter;stroke-miterlimit:4;stroke-dasharray:none;stroke-opacity:1" />
    <path
       style="fill:#ffffff;stroke:none;stroke-width:4.02807999;stroke-miterlimit:4;stroke-dasharray:none"
       d="m 200.69959,931.41271 c -2.49622,8.96805 -9.26893,16.02977 -19.32035,16.02977 -10.05143,0 -18.19972,-7.54655 -18.19972,-16.8557 0,-9.30915 8.22956,-15.57977 18.19972,-16.8557 12.60489,-1.61311 22.24623,7.16995 19.32035,17.68163 z"
       id="path3776"
       inkscape:connector-curvature="0"
       sodipodi:nodetypes="sssss" />
    <path
       sodipodi:nodetypes="cccc"
       inkscape:connector-curvature="0"
       id="path3788"
       d="m 92.80663,832.23534 c 6.41599,23.08693 20.41358,79.71201 73.64008,89.15246 -10.00328,-4.11361 -42.63458,-32.75157 -58.8644,-98.92587 z"
       style="fill:#fdeec8;fill-opacity:1;stroke:#8a6337;stroke-width:2.68822122;stroke-linecap:butt;stroke-linejoin:miter;stroke-miterlimit:4;stroke-dasharray:none;stroke-opacity:1" />
    <path
       style="fill:#fce6bd;fill-opacity:1;stroke:#8a6337;stroke-width:2.68822122;stroke-linecap:butt;stroke-linejoin:miter;stroke-miterlimit:4;stroke-dasharray:none;stroke-opacity:1"
       d="m 222.78598,904.97397 c 11.35253,15.24375 27.24047,92.97364 -9.47873,120.09453 7.82217,-22.3867 23.74281,-51.41239 -0.61123,-113.32086 z"
       id="path3861"
       inkscape:connector-curvature="0"
       sodipodi:nodetypes="cccc" />
    <path
       style="fill:#fddba3;fill-opacity:1;stroke:#8a6337;stroke-width:2.68822122;stroke-linecap:butt;stroke-linejoin:miter;stroke-miterlimit:4;stroke-dasharray:none;stroke-opacity:1"
       d="m 183.70404,873.02439 c 16.9612,3.37647 67.77877,75.39852 39.81712,136.14671 0.59655,-24.20436 5.18851,-73.29601 -36.92066,-127.24439 z"
       id="path3837"
       inkscape:connector-curvature="0"
       sodipodi:nodetypes="cccc" />
    <path
       style="fill:#eed7a5;fill-opacity:1;stroke:#8a6337;stroke-width:2.68822122;stroke-linecap:butt;stroke-linejoin:miter;stroke-miterlimit:4;stroke-dasharray:none;stroke-opacity:1"
       d="m 217.45497,838.74235 c 35.46806,48.08915 19.409,162.93035 -20.8718,186.11805 10.5872,-21.5529 42.22911,-103.43972 3.19071,-181.22102 z"
       id="path3809"
       inkscape:connector-curvature="0"
       sodipodi:nodetypes="cccc" />
    <path
       sodipodi:nodetypes="cccc"
       inkscape:connector-curvature="0"
       id="path3807"
       d="m 112.11034,815.07228 c 62.97364,52.15281 58.85869,104.47641 120.58865,101.30963 C 192.93663,894.8506 205.11242,858.32796 137.7533,809.92338 Z"
       style="fill:#f1d099;fill-opacity:1;stroke:#8a6337;stroke-width:2.68822122;stroke-linecap:butt;stroke-linejoin:miter;stroke-miterlimit:4;stroke-dasharray:none;stroke-opacity:1" />
    <path
       sodipodi:nodetypes="cccc"
       inkscape:connector-curvature="0"
       id="path3835"
       d="m 94.95148,832.71208 c 7.09693,17.16871 60.06393,70.91774 118.68211,60.5474 -23.45273,-5.99271 -67.23226,-10.61504 -107.71952,-65.79166 z"
       style="fill:#f2bf88;fill-opacity:1;stroke:#8a6337;stroke-width:2.68822122;stroke-linecap:butt;stroke-linejoin:miter;stroke-miterlimit:4;stroke-dasharray:none;stroke-opacity:1" />
    <path
       style="fill:#f2ce8f;fill-opacity:1;stroke:#8a6337;stroke-width:2.68822122;stroke-linecap:butt;stroke-linejoin:miter;stroke-miterlimit:4;stroke-dasharray:none;stroke-opacity:1"
       d="m 104.48418,826.99107 c 7.07332,17.1057 47.85011,58.681 108.19614,52.91938 -23.24855,-4.64987 -56.33086,-5.70203 -97.23354,-58.16366 z"
       id="path3784"
       inkscape:connector-curvature="0"
       sodipodi:nodetypes="cccc" />
    <path
       style="fill:#f7e9c3;fill-opacity:1;stroke:#8a6337;stroke-width:2.68822122;stroke-linecap:butt;stroke-linejoin:miter;stroke-miterlimit:4;stroke-dasharray:none;stroke-opacity:1"
       d="m 87.32532,836.52609 c 9.45099,62.44808 89.36836,85.66626 137.98582,67.22192 -12.03336,3.10613 -88.41099,1.008 -126.30826,-77.71045 z"
       id="path3786"
       inkscape:connector-curvature="0"
       sodipodi:nodetypes="cccc" />
    <path
       style="fill:#5d5d5d;fill-opacity:1;stroke:#000000;stroke-width:2.68822122;stroke-linecap:butt;stroke-linejoin:miter;stroke-miterlimit:4;stroke-dasharray:none;stroke-opacity:1"
       d="m 202.43266,1059.884 c 22.36907,-35.7613 67.84345,-76.90732 66.25225,-111.55975 -2.55479,-55.63797 -97.88381,-130.17341 -132.95718,-126.28123 -58.0949,6.44692 -103.46509,81.30431 -105.36029,122.00039 -0.84892,18.22927 49.0254,79.27349 82.17163,110.95739 l -5.62792,0.6743 C 71.73394,1022.1978 26.38846,964.26714 25.77457,943.82198 25.14953,923.00554 36.85615,890.45448 48.00294,865.62486 30.16404,850.74259 9.96655,837.47388 2.27985,811.28018 c 16.55831,-8.68824 79.82278,-1.84211 96.02502,-6.20273 5.64236,-1.51857 27.7586,-16.97808 50.86477,-17.18186 24.18271,-0.21329 36.22206,6.25633 55.61232,11.99047 16.62868,4.91748 38.56664,-29.11331 94.12343,-32.13467 -2.50903,19.54546 -23.33003,65.21901 -33.86503,88.30952 7.98482,28.49493 11.9588,66.15566 10.59665,93.01936 -1.30392,25.71572 -38.78395,82.32823 -67.0081,112.23393 z"
       id="path2996"
       inkscape:connector-curvature="0"
       sodipodi:nodetypes="csssccsccsssccscc" />
    <path
       style="fill:none;stroke:#000000;stroke-width:2.68822122;stroke-linecap:butt;stroke-linejoin:miter;stroke-miterlimit:4;stroke-dasharray:none;stroke-opacity:1"
       d="m 265.55294,857.9387 c -3.97087,-4.52904 -8.7658,-9.19423 -13.64979,-16.77142"
       id="path3766"
       inkscape:connector-curvature="0"
       sodipodi:nodetypes="cc" />
    <path
       style="fill:none;stroke:#000000;stroke-width:2.68822122;stroke-linecap:butt;stroke-linejoin:miter;stroke-miterlimit:4;stroke-dasharray:none;stroke-opacity:1"
       d="m 200.28781,798.2668 c 10.1854,5.60182 18.8421,11.20367 26.81071,16.80548"
       id="path3768"
       inkscape:connector-curvature="0"
       sodipodi:nodetypes="cc" />
    <path
       style="fill:none;stroke:#000000;stroke-width:2.68822122;stroke-linecap:butt;stroke-linejoin:miter;stroke-miterlimit:4;stroke-dasharray:none;stroke-opacity:1"
       d="M 100.19448,804.34539 C 88.55,811.26681 78.66499,818.65202 71.2174,826.41417"
       id="path3770"
       inkscape:connector-curvature="0"
       sodipodi:nodetypes="cc" />
    <path
       style="fill:none;stroke:#000000;stroke-width:2.68822122;stroke-linecap:butt;stroke-linejoin:miter;stroke-miterlimit:4;stroke-dasharray:none;stroke-opacity:1"
       d="m 48.08316,865.69233 c 3.23291,-8.08325 5.97769,-15.81558 16.17753,-28.90753"
       id="path3772"
       inkscape:connector-curvature="0"
       sodipodi:nodetypes="cc" />
    <path
       style="fill:#000000;stroke:#000000;stroke-width:1.34411073;stroke-linecap:butt;stroke-linejoin:miter;stroke-opacity:1;stroke-miterlimit:4;stroke-dasharray:none"
       d="m 144.26361,953.59481 c -0.40139,0.92296 -1.29273,1.6009 0,3.37114 0.64816,-1.38305 0.46915,-2.43514 0,-3.37114 z"
       id="path3873"
       inkscape:connector-curvature="0"
       sodipodi:nodetypes="ccc" />
    <ellipse
       style="fill:url(#radialGradient3965);fill-opacity:1;stroke:#460000;stroke-width:2.68822098;stroke-miterlimit:4;stroke-dasharray:none;stroke-opacity:1"
       id="path3898"
       cx="179.18671"
       cy="929.09692"
       rx="15.169092"
       ry="14.048881" />
    <ellipse
       id="path3900"
       style="fill:url(#radialGradient3973);fill-opacity:1;stroke:#460000;stroke-width:2.68822098;stroke-miterlimit:4;stroke-dasharray:none;stroke-opacity:1"
       cx="108.59001"
       cy="930.90503"
       rx="15.577905"
       ry="14.427505" />
    <path
       style="color:#000000;font-style:normal;font-variant:normal;font-weight:normal;font-stretch:normal;font-size:medium;line-height:normal;font-family:Sans;-inkscape-font-specification:Sans;text-indent:0;text-align:start;text-decoration:none;text-decoration-line:none;letter-spacing:normal;word-spacing:normal;text-transform:none;direction:ltr;block-progression:tb;writing-mode:lr-tb;baseline-shift:baseline;text-anchor:start;display:inline;overflow:visible;visibility:visible;fill:#460000;fill-opacity:1;stroke:none;stroke-width:16.11231995;marker:none;enable-background:accumulate;stroke-miterlimit:4;stroke-dasharray:none"
       d="m 195.37274,941.68801 c 8.85495,-9.18457 8.06144,-20.77713 3.30437,-25.30084 -7.48747,-7.12017 -25.5376,-4.78847 -33.81168,5.71971 12.63267,-10.49963 25.88557,-9.86386 31.54831,-4.23889 5.04469,5.01106 5.74685,12.78654 -1.041,23.82002 z"
       id="path3902"
       inkscape:connector-curvature="0"
       sodipodi:nodetypes="cscsc" />
    <path
       style="fill:#460000;fill-opacity:1;stroke:none;stroke-width:4.02807999;stroke-miterlimit:4;stroke-dasharray:none"
       d="m 205.13845,918.01266 c -0.24963,1.5213 -1.75967,2.7277 -4.62027,2.25479 1.21527,0.65545 2.63353,1.23706 5.15452,-0.0986 -0.6267,1.8481 -2.29056,2.35174 -4.60875,2.5311 1.46757,0.69449 3.64736,0.9534 5.10784,-0.1475 -0.55692,2.20227 -3.23671,2.33252 -4.7812,2.00597 l -1.63292,-6.60172 c 1.81774,1.40938 3.26289,1.28787 5.38078,0.0559 z"
       id="path3915"
       inkscape:connector-curvature="0"
       sodipodi:nodetypes="cccccccc" />
    <path
       sodipodi:nodetypes="cscsc"
       inkscape:connector-curvature="0"
       id="path3925"
       d="m 93.65357,943.69036 c -8.85496,-9.18455 -8.06145,-20.77714 -3.30438,-25.30083 7.48748,-7.12017 25.53761,-4.78847 33.81168,5.7197 -12.63267,-10.49963 -25.88557,-9.86386 -31.5483,-4.23888 -5.0447,5.01106 -5.74685,12.78654 1.041,23.82001 z"
       style="color:#000000;font-style:normal;font-variant:normal;font-weight:normal;font-stretch:normal;font-size:medium;line-height:normal;font-family:Sans;-inkscape-font-specification:Sans;text-indent:0;text-align:start;text-decoration:none;text-decoration-line:none;letter-spacing:normal;word-spacing:normal;text-transform:none;direction:ltr;block-progression:tb;writing-mode:lr-tb;baseline-shift:baseline;text-anchor:start;display:inline;overflow:visible;visibility:visible;fill:#460000;fill-opacity:1;stroke:none;stroke-width:16.11231995;marker:none;enable-background:accumulate;stroke-miterlimit:4;stroke-dasharray:none" />
    <path
       sodipodi:nodetypes="cccccccc"
       inkscape:connector-curvature="0"
       id="path3927"
       d="m 83.88786,920.01502 c 0.24962,1.52129 1.75966,2.72771 4.62026,2.25479 -1.21527,0.65545 -2.63354,1.23705 -5.15452,-0.0985 0.6267,1.84808 2.29056,2.35172 4.60876,2.53108 -1.46757,0.69449 -3.64737,0.95341 -5.10784,-0.14749 0.55692,2.20226 3.2367,2.33253 4.78119,2.00598 l 1.63292,-6.60175 c -1.81774,1.40939 -3.26288,1.28788 -5.38077,0.0559 z"
       style="fill:#460000;fill-opacity:1;stroke:none;stroke-width:4.02807999;stroke-miterlimit:4;stroke-dasharray:none" />
    <path
       style="fill:#460000;fill-opacity:1;stroke:none;stroke-width:4.02807999;stroke-miterlimit:4;stroke-dasharray:none"
       d="m 125.77539,921.48935 c -4.89141,-4.91422 -9.87433,-9.13053 -19.76352,-9.7381 7.19853,1.66417 14.00844,4.63428 19.76352,9.7381 z"
       id="path3929"
       inkscape:connector-curvature="0"
       sodipodi:nodetypes="ccc" />
    <path
       sodipodi:nodetypes="ccc"
       inkscape:connector-curvature="0"
       id="path3931"
       d="m 162.54597,920.12765 c 4.73135,-5.09282 9.57851,-9.48955 19.46617,-10.4399 -7.15524,1.91609 -13.87598,5.12728 -19.46617,10.4399 z"
       style="fill:#460000;fill-opacity:1;stroke:none;stroke-width:4.02807999;stroke-miterlimit:4;stroke-dasharray:none" />
    <path
       style="fill:#460000;fill-opacity:1;stroke:none;stroke-width:4.02807999;stroke-miterlimit:4;stroke-dasharray:none"
       d="m 86.71891,899.24213 c 11.19665,-3.78213 24.57432,-3.52931 35.8757,2.21436 -12.92629,0.98415 -25.754779,-0.9075 -35.8757,-2.21436 z"
       id="path3933"
       inkscape:connector-curvature="0"
       sodipodi:nodetypes="ccc" />
    <path
       sodipodi:nodetypes="ccc"
       inkscape:connector-curvature="0"
       id="path3935"
       d="m 165.8696,900.45268 c 10.16486,-6.38914 21.64516,-6.63549 33.51438,-3.51876 -10.65746,1.7777 -21.31831,3.59123 -33.51438,3.51876 z"
       style="fill:#460000;fill-opacity:1;stroke:none;stroke-width:4.02807999;stroke-miterlimit:4;stroke-dasharray:none" />
    <ellipse
       style="fill:#320000;fill-opacity:1;stroke:none;stroke-width:4.02807999;stroke-miterlimit:4;stroke-dasharray:none"
       id="path3937"
       cx="108.59001"
       cy="930.90503"
       rx="1.9453059"
       ry="7.9836407" />
    <ellipse
       id="path3939"
       style="fill:#320000;fill-opacity:1;stroke:none;stroke-width:4.02807999;stroke-miterlimit:4;stroke-dasharray:none"
       cx="179.18671"
       cy="929.09692"
       rx="1.8932965"
       ry="7.935473" />
    <path
       style="fill:#e4a5a5;fill-opacity:1;stroke:#000000;stroke-width:1.651;stroke-linecap:butt;stroke-miterlimit:4;stroke-opacity:1;stroke-dasharray:none"
       d="m 158.74692,992.65498 c 0,4.21433 -5.06811,6.57475 -10.75555,6.57475 -5.68743,0 -11.3251,-2.41522 -11.3251,-6.62955 0,-4.21433 5.51971,-7.92395 11.20714,-7.92395 5.68745,0 10.87351,3.76443 10.87351,7.97875 z"
       id="path3975"
       inkscape:connector-curvature="0"
       sodipodi:nodetypes="sssss" />
    <path
       style="fill:#ffffff;stroke:#000000;stroke-width:1.288;stroke-linecap:butt;stroke-linejoin:miter;stroke-miterlimit:4;stroke-dasharray:none;stroke-opacity:1"
       d="m 139.11513,988.61279 4.7237,4.02329 0.23534,-6.73842 z"
       id="path3978"
       inkscape:connector-curvature="0"
       sodipodi:nodetypes="cccc" />
    <path
       style="fill:none;stroke:#000000;stroke-width:2.68822122;stroke-linecap:butt;stroke-linejoin:miter;stroke-miterlimit:4;stroke-dasharray:none;stroke-opacity:1"
       d="m 192.81596,1014.0765 c -0.52113,7.4698 1.05428,15.0477 3.69242,18.7641"
       id="path4002"
       inkscape:connector-curvature="0"
       sodipodi:nodetypes="cc" />
    <path
       style="fill:none;stroke:#000000;stroke-width:2.68822122;stroke-linecap:butt;stroke-linejoin:miter;stroke-miterlimit:4;stroke-dasharray:none;stroke-opacity:1"
       d="m 209.63093,1033.9038 1.59248,-5.5455"
       id="path4004"
       inkscape:connector-curvature="0"
       sodipodi:nodetypes="cc" />
    <path
       style="fill:none;stroke:#000000;stroke-width:2.68822122;stroke-linecap:butt;stroke-linejoin:miter;stroke-miterlimit:4;stroke-dasharray:none;stroke-opacity:1"
       d="m 109.12804,1028.1854 -1.59247,-5.4316"
       id="path4016"
       inkscape:connector-curvature="0"
       sodipodi:nodetypes="cc" />
  </g>
</svg>
