<?xml version="1.0" standalone="no"?>
<!DOCTYPE svg PUBLIC "-//W3C//DTD SVG 1.1//EN"
 "http://www.w3.org/Graphics/SVG/1.1/DTD/svg11.dtd">

<svg version="1.1" xmlns="http://www.w3.org/2000/svg"
  xmlns:xlink="http://www.w3.org/1999/xlink">
<!-- automatically generated by aafigure -->
<text x="28.0" y="25.9" font-family="monospace" font-size="14.0" fill="#000000" >
  Client
</text>
<line x1="7.0" y1="7.0" x2="161.0" y2="7.0" stroke="#000000" stroke-width="2.0" />
<line x1="217.0" y1="7.0" x2="371.0" y2="7.0" stroke="#000000" stroke-width="2.0" />
<line x1="427.0" y1="7.0" x2="581.0" y2="7.0" stroke="#000000" stroke-width="2.0" />
<line x1="7.0" y1="7.0" x2="7.0" y2="35.0" stroke="#000000" stroke-width="2.0" />
<line x1="161.0" y1="7.0" x2="161.0" y2="35.0" stroke="#000000" stroke-width="2.0" />
<line x1="217.0" y1="7.0" x2="217.0" y2="35.0" stroke="#000000" stroke-width="2.0" />
<line x1="371.0" y1="7.0" x2="371.0" y2="35.0" stroke="#000000" stroke-width="2.0" />
<line x1="427.0" y1="7.0" x2="427.0" y2="35.0" stroke="#000000" stroke-width="2.0" />
<line x1="581.0" y1="7.0" x2="581.0" y2="35.0" stroke="#000000" stroke-width="2.0" />
<line x1="7.0" y1="35.0" x2="63.0" y2="35.0" stroke="#000000" stroke-width="2.0" />
<line x1="63.0" y1="35.0" x2="161.0" y2="35.0" stroke="#000000" stroke-width="2.0" />
<line x1="217.0" y1="35.0" x2="287.0" y2="35.0" stroke="#000000" stroke-width="2.0" />
<line x1="287.0" y1="35.0" x2="371.0" y2="35.0" stroke="#000000" stroke-width="2.0" />
<line x1="427.0" y1="35.0" x2="581.0" y2="35.0" stroke="#000000" stroke-width="2.0" />
<line x1="63.0" y1="35.0" x2="63.0" y2="56.0" stroke="#000000" stroke-width="2.0" />
<line x1="259.0" y1="42.0" x2="259.0" y2="56.0" stroke="#000000" stroke-width="2.0" />
<g>
    <line x1="252.0" y1="63.0" x2="241.5" y2="66.5" stroke="#000000" stroke-width="2.0" />
    <line x1="252.0" y1="63.0" x2="241.5" y2="59.5" stroke="#000000" stroke-width="2.0" />
    <line x1="70.0" y1="63.0" x2="252.0" y2="63.0" stroke="#000000" stroke-width="2.0" />
</g>
<text x="238.0" y="25.9" font-family="monospace" font-size="14.0" fill="#000000" >
  Consumer
</text>
<text x="448.0" y="25.9" font-family="monospace" font-size="14.0" fill="#000000" >
  Provider
</text>
<text x="84.0" y="53.9" font-family="monospace" font-size="14.0" fill="#000000" >
  start dance
</text>
<text x="56.0" y="67.9" font-family="monospace" font-size="14.0" fill="#000000" >
  X
</text>
<text x="252.0" y="67.9" font-family="monospace" font-size="14.0" fill="#000000" >
  X
</text>
</svg>
