<?xml version="1.0" standalone="no"?>
<!DOCTYPE svg PUBLIC "-//W3C//DTD SVG 1.1//EN"
 "http://www.w3.org/Graphics/SVG/1.1/DTD/svg11.dtd">

<svg version="1.1" xmlns="http://www.w3.org/2000/svg"
  xmlns:xlink="http://www.w3.org/1999/xlink">
<!-- automatically generated by aafigure -->
<text x="16.8" y="27.58" font-family="sans-serif" font-size="2.8" fill="#000000" >
  follow redirect
</text>
<text x="16.8" y="38.78" font-family="sans-serif" font-size="2.8" fill="#000000" >
  follow redirect
</text>
<text x="86.8" y="47.18" font-family="sans-serif" font-size="2.8" fill="#000000" >
  send access token
</text>
<line x1="1.4" y1="1.4" x2="26.6" y2="1.4" stroke="#000000" stroke-width="2.0" />
<line x1="65.8" y1="1.4" x2="99.4" y2="1.4" stroke="#000000" stroke-width="2.0" />
<line x1="144.2" y1="1.4" x2="175.0" y2="1.4" stroke="#000000" stroke-width="2.0" />
<line x1="1.4" y1="1.4" x2="1.4" y2="7.0" stroke="#000000" stroke-width="2.0" />
<line x1="26.6" y1="1.4" x2="26.6" y2="7.0" stroke="#000000" stroke-width="2.0" />
<line x1="65.8" y1="1.4" x2="65.8" y2="7.0" stroke="#000000" stroke-width="2.0" />
<line x1="99.4" y1="1.4" x2="99.4" y2="7.0" stroke="#000000" stroke-width="2.0" />
<line x1="144.2" y1="1.4" x2="144.2" y2="7.0" stroke="#000000" stroke-width="2.0" />
<line x1="175.0" y1="1.4" x2="175.0" y2="7.0" stroke="#000000" stroke-width="2.0" />
<line x1="1.4" y1="7.0" x2="12.6" y2="7.0" stroke="#000000" stroke-width="2.0" />
<line x1="12.6" y1="7.0" x2="26.6" y2="7.0" stroke="#000000" stroke-width="2.0" />
<line x1="65.8" y1="7.0" x2="82.6" y2="7.0" stroke="#000000" stroke-width="2.0" />
<line x1="82.6" y1="7.0" x2="99.4" y2="7.0" stroke="#000000" stroke-width="2.0" />
<line x1="144.2" y1="7.0" x2="158.2" y2="7.0" stroke="#000000" stroke-width="2.0" />
<line x1="158.2" y1="7.0" x2="175.0" y2="7.0" stroke="#000000" stroke-width="2.0" />
<line x1="12.6" y1="7.0" x2="12.6" y2="50.4" stroke="#000000" stroke-width="2.0" />
<line x1="82.6" y1="7.0" x2="82.6" y2="28.0" stroke="#000000" stroke-width="2.0" />
<line x1="158.2" y1="7.0" x2="158.2" y2="50.4" stroke="#000000" stroke-width="2.0" />
<g>
    <line x1="81.2" y1="12.6" x2="79.1" y2="13.3" stroke="#000000" stroke-width="2.0" />
    <line x1="81.2" y1="12.6" x2="79.1" y2="11.9" stroke="#000000" stroke-width="2.0" />
    <line x1="14.0" y1="12.6" x2="81.2" y2="12.6" stroke="#000000" stroke-width="2.0" />
</g>
<g>
    <line x1="156.8" y1="15.4" x2="154.7" y2="16.1" stroke="#000000" stroke-width="2.0" />
    <line x1="156.8" y1="15.4" x2="154.7" y2="14.7" stroke="#000000" stroke-width="2.0" />
    <line x1="84.0" y1="15.4" x2="156.8" y2="15.4" stroke="#000000" stroke-width="2.0" />
</g>
<g>
    <line x1="84.0" y1="21.0" x2="86.1" y2="20.3" stroke="#000000" stroke-width="2.0" />
    <line x1="84.0" y1="21.0" x2="86.1" y2="21.7" stroke="#000000" stroke-width="2.0" />
    <line x1="84.0" y1="21.0" x2="156.8" y2="21.0" stroke="#000000" stroke-width="2.0" />
</g>
<g>
    <line x1="14.0" y1="23.8" x2="16.1" y2="23.1" stroke="#000000" stroke-width="2.0" />
    <line x1="14.0" y1="23.8" x2="16.1" y2="24.5" stroke="#000000" stroke-width="2.0" />
    <line x1="14.0" y1="23.8" x2="81.2" y2="23.8" stroke="#000000" stroke-width="2.0" />
</g>
<g>
    <line x1="156.8" y1="29.4" x2="154.7" y2="30.1" stroke="#000000" stroke-width="2.0" />
    <line x1="156.8" y1="29.4" x2="154.7" y2="28.7" stroke="#000000" stroke-width="2.0" />
    <line x1="14.0" y1="29.4" x2="156.8" y2="29.4" stroke="#000000" stroke-width="2.0" />
</g>
<g>
    <line x1="14.0" y1="35.0" x2="16.1" y2="34.3" stroke="#000000" stroke-width="2.0" />
    <line x1="14.0" y1="35.0" x2="16.1" y2="35.7" stroke="#000000" stroke-width="2.0" />
    <line x1="14.0" y1="35.0" x2="156.8" y2="35.0" stroke="#000000" stroke-width="2.0" />
</g>
<line x1="82.6" y1="36.4" x2="82.6" y2="50.4" stroke="#000000" stroke-width="2.0" />
<g>
    <line x1="81.2" y1="40.6" x2="79.1" y2="41.3" stroke="#000000" stroke-width="2.0" />
    <line x1="81.2" y1="40.6" x2="79.1" y2="39.9" stroke="#000000" stroke-width="2.0" />
    <line x1="14.0" y1="40.6" x2="81.2" y2="40.6" stroke="#000000" stroke-width="2.0" />
</g>
<g>
    <line x1="156.8" y1="43.4" x2="154.7" y2="44.1" stroke="#000000" stroke-width="2.0" />
    <line x1="156.8" y1="43.4" x2="154.7" y2="42.7" stroke="#000000" stroke-width="2.0" />
    <line x1="84.0" y1="43.4" x2="156.8" y2="43.4" stroke="#000000" stroke-width="2.0" />
</g>
<g>
    <line x1="84.0" y1="49.0" x2="86.1" y2="48.3" stroke="#000000" stroke-width="2.0" />
    <line x1="84.0" y1="49.0" x2="86.1" y2="49.7" stroke="#000000" stroke-width="2.0" />
    <line x1="84.0" y1="49.0" x2="156.8" y2="49.0" stroke="#000000" stroke-width="2.0" />
</g>
<text x="5.6" y="5.18" font-family="sans-serif" font-size="2.8" fill="#000000" >
  Client
</text>
<text x="72.8" y="5.18" font-family="sans-serif" font-size="2.8" fill="#000000" >
  Consumer
</text>
<text x="148.4" y="5.18" font-family="sans-serif" font-size="2.8" fill="#000000" >
  Provider
</text>
<text x="16.8" y="10.78" font-family="sans-serif" font-size="2.8" fill="#000000" >
  start dance
</text>
<text x="86.8" y="13.58" font-family="sans-serif" font-size="2.8" fill="#000000" >
  send secret &amp; state
</text>
<text x="16.8" y="19.18" font-family="sans-serif" font-size="2.8" fill="#000000" >
  redirect, with
</text>
<text x="86.8" y="19.18" font-family="sans-serif" font-size="2.8" fill="#000000" >
  send authorization grant
</text>
<text x="16.8" y="21.98" font-family="sans-serif" font-size="2.8" fill="#000000" >
  authorization grant
</text>
<text x="162.4" y="27.58" font-family="sans-serif" font-size="2.8" fill="#000000" >
  user
</text>
<text x="162.4" y="30.38" font-family="sans-serif" font-size="2.8" fill="#000000" >
  grants
</text>
<text x="39.2" y="33.18" font-family="sans-serif" font-size="2.8" fill="#000000" >
  redirect, with authorization code &amp; state
</text>
<text x="162.4" y="33.18" font-family="sans-serif" font-size="2.8" fill="#000000" >
  consent
</text>
<text x="86.8" y="41.58" font-family="sans-serif" font-size="2.8" fill="#000000" >
  send secret &amp; auth code
</text>
</svg>
