<?xml version="1.0" standalone="no"?>
<!DOCTYPE svg PUBLIC "-//W3C//DTD SVG 1.1//EN"
 "http://www.w3.org/Graphics/SVG/1.1/DTD/svg11.dtd">

<svg version="1.1" xmlns="http://www.w3.org/2000/svg"
  xmlns:xlink="http://www.w3.org/1999/xlink">
<!-- automatically generated by aafigure -->
<line x1="0.14" y1="0.14" x2="2.66" y2="0.14" stroke="#000000" stroke-width="2.0" />
<line x1="3.78" y1="0.14" x2="7.14" y2="0.14" stroke="#000000" stroke-width="2.0" />
<line x1="8.26" y1="0.14" x2="11.34" y2="0.14" stroke="#000000" stroke-width="2.0" />
<line x1="0.14" y1="0.14" x2="0.14" y2="0.7" stroke="#000000" stroke-width="2.0" />
<line x1="2.66" y1="0.14" x2="2.66" y2="0.7" stroke="#000000" stroke-width="2.0" />
<line x1="3.78" y1="0.14" x2="3.78" y2="0.7" stroke="#000000" stroke-width="2.0" />
<line x1="7.14" y1="0.14" x2="7.14" y2="0.7" stroke="#000000" stroke-width="2.0" />
<line x1="8.26" y1="0.14" x2="8.26" y2="0.7" stroke="#000000" stroke-width="2.0" />
<line x1="11.34" y1="0.14" x2="11.34" y2="0.7" stroke="#000000" stroke-width="2.0" />
<line x1="0.14" y1="0.7" x2="1.26" y2="0.7" stroke="#000000" stroke-width="2.0" />
<line x1="1.26" y1="0.7" x2="2.66" y2="0.7" stroke="#000000" stroke-width="2.0" />
<line x1="3.78" y1="0.7" x2="5.46" y2="0.7" stroke="#000000" stroke-width="2.0" />
<line x1="5.46" y1="0.7" x2="7.14" y2="0.7" stroke="#000000" stroke-width="2.0" />
<line x1="8.26" y1="0.7" x2="11.34" y2="0.7" stroke="#000000" stroke-width="2.0" />
<line x1="1.26" y1="0.7" x2="1.26" y2="1.12" stroke="#000000" stroke-width="2.0" />
<line x1="5.18" y1="0.84" x2="5.18" y2="1.12" stroke="#000000" stroke-width="2.0" />
<g>
    <line x1="5.04" y1="1.26" x2="4.83" y2="1.33" stroke="#000000" stroke-width="2.0" />
    <line x1="5.04" y1="1.26" x2="4.83" y2="1.19" stroke="#000000" stroke-width="2.0" />
    <line x1="1.4" y1="1.26" x2="5.04" y2="1.26" stroke="#000000" stroke-width="2.0" />
</g>
<text x="0.56" y="0.518" font-family="monospace" font-size="0.28" fill="#000000" >
  Client
</text>
<text x="4.48" y="0.518" font-family="monospace" font-size="0.28" fill="#000000" >
  Consumer
</text>
<text x="8.68" y="0.518" font-family="monospace" font-size="0.28" fill="#000000" >
  Provider
</text>
<text x="1.68" y="1.078" font-family="monospace" font-size="0.28" fill="#000000" >
  start dance
</text>
<text x="1.12" y="1.358" font-family="monospace" font-size="0.28" fill="#000000" >
  X
</text>
<text x="5.04" y="1.358" font-family="monospace" font-size="0.28" fill="#000000" >
  X
</text>
</svg>
