<?xml version="1.0" standalone="no"?>
<!DOCTYPE svg PUBLIC "-//W3C//DTD SVG 1.1//EN"
 "http://www.w3.org/Graphics/SVG/1.1/DTD/svg11.dtd">

<svg version="1.1" xmlns="http://www.w3.org/2000/svg"
  xmlns:xlink="http://www.w3.org/1999/xlink">
<!-- automatically generated by aafigure -->
<line x1="7.0" y1="7.0" x2="133.0" y2="7.0" stroke="#000000" stroke-width="2.0" />
<line x1="329.0" y1="7.0" x2="497.0" y2="7.0" stroke="#000000" stroke-width="2.0" />
<line x1="679.0" y1="7.0" x2="833.0" y2="7.0" stroke="#000000" stroke-width="2.0" />
<line x1="7.0" y1="7.0" x2="7.0" y2="35.0" stroke="#000000" stroke-width="2.0" />
<line x1="133.0" y1="7.0" x2="133.0" y2="35.0" stroke="#000000" stroke-width="2.0" />
<line x1="329.0" y1="7.0" x2="329.0" y2="35.0" stroke="#000000" stroke-width="2.0" />
<line x1="497.0" y1="7.0" x2="497.0" y2="35.0" stroke="#000000" stroke-width="2.0" />
<line x1="679.0" y1="7.0" x2="679.0" y2="35.0" stroke="#000000" stroke-width="2.0" />
<line x1="833.0" y1="7.0" x2="833.0" y2="35.0" stroke="#000000" stroke-width="2.0" />
<line x1="7.0" y1="35.0" x2="63.0" y2="35.0" stroke="#000000" stroke-width="2.0" />
<line x1="63.0" y1="35.0" x2="133.0" y2="35.0" stroke="#000000" stroke-width="2.0" />
<line x1="329.0" y1="35.0" x2="413.0" y2="35.0" stroke="#000000" stroke-width="2.0" />
<line x1="413.0" y1="35.0" x2="497.0" y2="35.0" stroke="#000000" stroke-width="2.0" />
<line x1="679.0" y1="35.0" x2="777.0" y2="35.0" stroke="#000000" stroke-width="2.0" />
<line x1="777.0" y1="35.0" x2="833.0" y2="35.0" stroke="#000000" stroke-width="2.0" />
<line x1="63.0" y1="35.0" x2="63.0" y2="140.0" stroke="#000000" stroke-width="2.0" />
<line x1="413.0" y1="35.0" x2="413.0" y2="140.0" stroke="#000000" stroke-width="2.0" />
<line x1="777.0" y1="35.0" x2="777.0" y2="112.0" stroke="#000000" stroke-width="2.0" />
<g>
    <line x1="406.0" y1="63.0" x2="395.5" y2="66.5" stroke="#000000" stroke-width="2.0" />
    <line x1="406.0" y1="63.0" x2="395.5" y2="59.5" stroke="#000000" stroke-width="2.0" />
    <line x1="70.0" y1="63.0" x2="406.0" y2="63.0" stroke="#000000" stroke-width="2.0" />
</g>
<g>
    <line x1="770.0" y1="77.0" x2="759.5" y2="80.5" stroke="#000000" stroke-width="2.0" />
    <line x1="770.0" y1="77.0" x2="759.5" y2="73.5" stroke="#000000" stroke-width="2.0" />
    <line x1="420.0" y1="77.0" x2="770.0" y2="77.0" stroke="#000000" stroke-width="2.0" />
</g>
<g>
    <line x1="420.0" y1="105.0" x2="430.5" y2="101.5" stroke="#000000" stroke-width="2.0" />
    <line x1="420.0" y1="105.0" x2="430.5" y2="108.5" stroke="#000000" stroke-width="2.0" />
    <line x1="420.0" y1="105.0" x2="770.0" y2="105.0" stroke="#000000" stroke-width="2.0" />
</g>
<g>
    <line x1="70.0" y1="133.0" x2="80.5" y2="129.5" stroke="#000000" stroke-width="2.0" />
    <line x1="70.0" y1="133.0" x2="80.5" y2="136.5" stroke="#000000" stroke-width="2.0" />
    <line x1="70.0" y1="133.0" x2="406.0" y2="133.0" stroke="#000000" stroke-width="2.0" />
</g>
<text x="28.0" y="25.9" font-family="monospace" font-size="14.0" fill="#000000" >
  Client
</text>
<text x="364.0" y="25.9" font-family="monospace" font-size="14.0" fill="#000000" >
  Consumer
</text>
<text x="700.0" y="25.9" font-family="monospace" font-size="14.0" fill="#000000" >
  Provider
</text>
<text x="84.0" y="53.9" font-family="monospace" font-size="14.0" fill="#000000" >
  start dance
</text>
<text x="434.0" y="67.9" font-family="monospace" font-size="14.0" fill="#000000" >
  send state
</text>
<text x="434.0" y="95.9" font-family="monospace" font-size="14.0" fill="#000000" >
  get authorization grant
</text>
<text x="84.0" y="109.9" font-family="monospace" font-size="14.0" fill="#000000" >
  redirect, with
</text>
<text x="84.0" y="123.9" font-family="monospace" font-size="14.0" fill="#000000" >
  authorization grant
</text>
</svg>
