<?xml version="1.0" standalone="no"?>
<!DOCTYPE svg PUBLIC "-//W3C//DTD SVG 1.1//EN"
 "http://www.w3.org/Graphics/SVG/1.1/DTD/svg11.dtd">

<svg version="1.1" xmlns="http://www.w3.org/2000/svg"
  xmlns:xlink="http://www.w3.org/1999/xlink">
<!-- automatically generated by aafigure -->
<line x1="7.0" y1="7.0" x2="133.0" y2="7.0" stroke="#000000" stroke-width="2.0" />
<line x1="189.0" y1="7.0" x2="357.0" y2="7.0" stroke="#000000" stroke-width="2.0" />
<line x1="413.0" y1="7.0" x2="567.0" y2="7.0" stroke="#000000" stroke-width="2.0" />
<line x1="7.0" y1="7.0" x2="7.0" y2="35.0" stroke="#000000" stroke-width="2.0" />
<line x1="133.0" y1="7.0" x2="133.0" y2="35.0" stroke="#000000" stroke-width="2.0" />
<line x1="189.0" y1="7.0" x2="189.0" y2="35.0" stroke="#000000" stroke-width="2.0" />
<line x1="357.0" y1="7.0" x2="357.0" y2="35.0" stroke="#000000" stroke-width="2.0" />
<line x1="413.0" y1="7.0" x2="413.0" y2="35.0" stroke="#000000" stroke-width="2.0" />
<line x1="567.0" y1="7.0" x2="567.0" y2="35.0" stroke="#000000" stroke-width="2.0" />
<line x1="7.0" y1="35.0" x2="63.0" y2="35.0" stroke="#000000" stroke-width="2.0" />
<line x1="63.0" y1="35.0" x2="133.0" y2="35.0" stroke="#000000" stroke-width="2.0" />
<line x1="189.0" y1="35.0" x2="273.0" y2="35.0" stroke="#000000" stroke-width="2.0" />
<line x1="273.0" y1="35.0" x2="357.0" y2="35.0" stroke="#000000" stroke-width="2.0" />
<line x1="413.0" y1="35.0" x2="511.0" y2="35.0" stroke="#000000" stroke-width="2.0" />
<line x1="511.0" y1="35.0" x2="567.0" y2="35.0" stroke="#000000" stroke-width="2.0" />
<line x1="63.0" y1="35.0" x2="63.0" y2="112.0" stroke="#000000" stroke-width="2.0" />
<line x1="273.0" y1="35.0" x2="273.0" y2="112.0" stroke="#000000" stroke-width="2.0" />
<line x1="511.0" y1="35.0" x2="511.0" y2="112.0" stroke="#000000" stroke-width="2.0" />
<g>
    <line x1="266.0" y1="63.0" x2="255.5" y2="66.5" stroke="#000000" stroke-width="2.0" />
    <line x1="266.0" y1="63.0" x2="255.5" y2="59.5" stroke="#000000" stroke-width="2.0" />
    <line x1="70.0" y1="63.0" x2="266.0" y2="63.0" stroke="#000000" stroke-width="2.0" />
</g>
<g>
    <line x1="504.0" y1="77.0" x2="493.5" y2="80.5" stroke="#000000" stroke-width="2.0" />
    <line x1="504.0" y1="77.0" x2="493.5" y2="73.5" stroke="#000000" stroke-width="2.0" />
    <line x1="280.0" y1="77.0" x2="504.0" y2="77.0" stroke="#000000" stroke-width="2.0" />
</g>
<g>
    <line x1="280.0" y1="105.0" x2="290.5" y2="101.5" stroke="#000000" stroke-width="2.0" />
    <line x1="280.0" y1="105.0" x2="290.5" y2="108.5" stroke="#000000" stroke-width="2.0" />
    <line x1="280.0" y1="105.0" x2="504.0" y2="105.0" stroke="#000000" stroke-width="2.0" />
</g>
<text x="28.0" y="25.9" font-family="monospace" font-size="14.0" fill="#000000" >
  Client
</text>
<text x="224.0" y="25.9" font-family="monospace" font-size="14.0" fill="#000000" >
  Consumer
</text>
<text x="434.0" y="25.9" font-family="monospace" font-size="14.0" fill="#000000" >
  Provider
</text>
<text x="84.0" y="53.9" font-family="monospace" font-size="14.0" fill="#000000" >
  start dance
</text>
<text x="294.0" y="67.9" font-family="monospace" font-size="14.0" fill="#000000" >
  send state
</text>
<text x="294.0" y="95.9" font-family="monospace" font-size="14.0" fill="#000000" >
  get auth grant
</text>
</svg>
