<?xml version="1.0" standalone="no"?>
<!DOCTYPE svg PUBLIC "-//W3C//DTD SVG 1.1//EN"
 "http://www.w3.org/Graphics/SVG/1.1/DTD/svg11.dtd">

<svg version="1.1" xmlns="http://www.w3.org/2000/svg"
  xmlns:xlink="http://www.w3.org/1999/xlink">
<!-- automatically generated by aafigure -->
<line x1="1.4" y1="1.4" x2="26.6" y2="1.4" stroke="#000000" stroke-width="2.0" />
<line x1="37.8" y1="1.4" x2="71.4" y2="1.4" stroke="#000000" stroke-width="2.0" />
<line x1="82.6" y1="1.4" x2="113.4" y2="1.4" stroke="#000000" stroke-width="2.0" />
<line x1="1.4" y1="1.4" x2="1.4" y2="7.0" stroke="#000000" stroke-width="2.0" />
<line x1="26.6" y1="1.4" x2="26.6" y2="7.0" stroke="#000000" stroke-width="2.0" />
<line x1="37.8" y1="1.4" x2="37.8" y2="7.0" stroke="#000000" stroke-width="2.0" />
<line x1="71.4" y1="1.4" x2="71.4" y2="7.0" stroke="#000000" stroke-width="2.0" />
<line x1="82.6" y1="1.4" x2="82.6" y2="7.0" stroke="#000000" stroke-width="2.0" />
<line x1="113.4" y1="1.4" x2="113.4" y2="7.0" stroke="#000000" stroke-width="2.0" />
<line x1="1.4" y1="7.0" x2="12.6" y2="7.0" stroke="#000000" stroke-width="2.0" />
<line x1="12.6" y1="7.0" x2="26.6" y2="7.0" stroke="#000000" stroke-width="2.0" />
<line x1="37.8" y1="7.0" x2="54.6" y2="7.0" stroke="#000000" stroke-width="2.0" />
<line x1="54.6" y1="7.0" x2="71.4" y2="7.0" stroke="#000000" stroke-width="2.0" />
<line x1="82.6" y1="7.0" x2="113.4" y2="7.0" stroke="#000000" stroke-width="2.0" />
<line x1="12.6" y1="7.0" x2="12.6" y2="11.2" stroke="#000000" stroke-width="2.0" />
<line x1="51.8" y1="8.4" x2="51.8" y2="11.2" stroke="#000000" stroke-width="2.0" />
<g>
    <line x1="50.4" y1="12.6" x2="48.3" y2="13.3" stroke="#000000" stroke-width="2.0" />
    <line x1="50.4" y1="12.6" x2="48.3" y2="11.9" stroke="#000000" stroke-width="2.0" />
    <line x1="14.0" y1="12.6" x2="50.4" y2="12.6" stroke="#000000" stroke-width="2.0" />
</g>
<text x="5.6" y="5.18" font-family="monospace" font-size="2.8" fill="#000000" >
  Client
</text>
<text x="44.8" y="5.18" font-family="monospace" font-size="2.8" fill="#000000" >
  Consumer
</text>
<text x="86.8" y="5.18" font-family="monospace" font-size="2.8" fill="#000000" >
  Provider
</text>
<text x="16.8" y="10.78" font-family="monospace" font-size="2.8" fill="#000000" >
  start dance
</text>
<text x="11.2" y="13.58" font-family="monospace" font-size="2.8" fill="#000000" >
  X
</text>
<text x="50.4" y="13.58" font-family="monospace" font-size="2.8" fill="#000000" >
  X
</text>
</svg>
