<?xml version="1.0" standalone="no"?>
<!DOCTYPE svg PUBLIC "-//W3C//DTD SVG 1.1//EN"
 "http://www.w3.org/Graphics/SVG/1.1/DTD/svg11.dtd">

<svg version="1.1" xmlns="http://www.w3.org/2000/svg"
  xmlns:xlink="http://www.w3.org/1999/xlink">
<!-- automatically generated by aafigure -->
<text x="84.0" y="137.9" font-family="sans-serif" font-size="14.0" fill="#000000" >
  follow redirect
</text>
<text x="84.0" y="193.9" font-family="sans-serif" font-size="14.0" fill="#000000" >
  follow redirect
</text>
<text x="434.0" y="235.9" font-family="sans-serif" font-size="14.0" fill="#000000" >
  send access token
</text>
<line x1="7.0" y1="7.0" x2="133.0" y2="7.0" stroke="#000000" stroke-width="2.0" />
<line x1="329.0" y1="7.0" x2="497.0" y2="7.0" stroke="#000000" stroke-width="2.0" />
<line x1="721.0" y1="7.0" x2="875.0" y2="7.0" stroke="#000000" stroke-width="2.0" />
<line x1="7.0" y1="7.0" x2="7.0" y2="35.0" stroke="#000000" stroke-width="2.0" />
<line x1="133.0" y1="7.0" x2="133.0" y2="35.0" stroke="#000000" stroke-width="2.0" />
<line x1="329.0" y1="7.0" x2="329.0" y2="35.0" stroke="#000000" stroke-width="2.0" />
<line x1="497.0" y1="7.0" x2="497.0" y2="35.0" stroke="#000000" stroke-width="2.0" />
<line x1="721.0" y1="7.0" x2="721.0" y2="35.0" stroke="#000000" stroke-width="2.0" />
<line x1="875.0" y1="7.0" x2="875.0" y2="35.0" stroke="#000000" stroke-width="2.0" />
<line x1="7.0" y1="35.0" x2="63.0" y2="35.0" stroke="#000000" stroke-width="2.0" />
<line x1="63.0" y1="35.0" x2="133.0" y2="35.0" stroke="#000000" stroke-width="2.0" />
<line x1="329.0" y1="35.0" x2="413.0" y2="35.0" stroke="#000000" stroke-width="2.0" />
<line x1="413.0" y1="35.0" x2="497.0" y2="35.0" stroke="#000000" stroke-width="2.0" />
<line x1="721.0" y1="35.0" x2="791.0" y2="35.0" stroke="#000000" stroke-width="2.0" />
<line x1="791.0" y1="35.0" x2="875.0" y2="35.0" stroke="#000000" stroke-width="2.0" />
<line x1="63.0" y1="35.0" x2="63.0" y2="252.0" stroke="#000000" stroke-width="2.0" />
<line x1="413.0" y1="35.0" x2="413.0" y2="140.0" stroke="#000000" stroke-width="2.0" />
<line x1="791.0" y1="35.0" x2="791.0" y2="252.0" stroke="#000000" stroke-width="2.0" />
<g>
    <line x1="406.0" y1="63.0" x2="395.5" y2="66.5" stroke="#000000" stroke-width="2.0" />
    <line x1="406.0" y1="63.0" x2="395.5" y2="59.5" stroke="#000000" stroke-width="2.0" />
    <line x1="70.0" y1="63.0" x2="406.0" y2="63.0" stroke="#000000" stroke-width="2.0" />
</g>
<g>
    <line x1="784.0" y1="77.0" x2="773.5" y2="80.5" stroke="#000000" stroke-width="2.0" />
    <line x1="784.0" y1="77.0" x2="773.5" y2="73.5" stroke="#000000" stroke-width="2.0" />
    <line x1="420.0" y1="77.0" x2="784.0" y2="77.0" stroke="#000000" stroke-width="2.0" />
</g>
<g>
    <line x1="420.0" y1="105.0" x2="430.5" y2="101.5" stroke="#000000" stroke-width="2.0" />
    <line x1="420.0" y1="105.0" x2="430.5" y2="108.5" stroke="#000000" stroke-width="2.0" />
    <line x1="420.0" y1="105.0" x2="784.0" y2="105.0" stroke="#000000" stroke-width="2.0" />
</g>
<g>
    <line x1="70.0" y1="119.0" x2="80.5" y2="115.5" stroke="#000000" stroke-width="2.0" />
    <line x1="70.0" y1="119.0" x2="80.5" y2="122.5" stroke="#000000" stroke-width="2.0" />
    <line x1="70.0" y1="119.0" x2="406.0" y2="119.0" stroke="#000000" stroke-width="2.0" />
</g>
<g>
    <line x1="784.0" y1="147.0" x2="773.5" y2="150.5" stroke="#000000" stroke-width="2.0" />
    <line x1="784.0" y1="147.0" x2="773.5" y2="143.5" stroke="#000000" stroke-width="2.0" />
    <line x1="70.0" y1="147.0" x2="784.0" y2="147.0" stroke="#000000" stroke-width="2.0" />
</g>
<g>
    <line x1="70.0" y1="175.0" x2="80.5" y2="171.5" stroke="#000000" stroke-width="2.0" />
    <line x1="70.0" y1="175.0" x2="80.5" y2="178.5" stroke="#000000" stroke-width="2.0" />
    <line x1="70.0" y1="175.0" x2="784.0" y2="175.0" stroke="#000000" stroke-width="2.0" />
</g>
<line x1="413.0" y1="182.0" x2="413.0" y2="252.0" stroke="#000000" stroke-width="2.0" />
<g>
    <line x1="406.0" y1="203.0" x2="395.5" y2="206.5" stroke="#000000" stroke-width="2.0" />
    <line x1="406.0" y1="203.0" x2="395.5" y2="199.5" stroke="#000000" stroke-width="2.0" />
    <line x1="70.0" y1="203.0" x2="406.0" y2="203.0" stroke="#000000" stroke-width="2.0" />
</g>
<g>
    <line x1="784.0" y1="217.0" x2="773.5" y2="220.5" stroke="#000000" stroke-width="2.0" />
    <line x1="784.0" y1="217.0" x2="773.5" y2="213.5" stroke="#000000" stroke-width="2.0" />
    <line x1="420.0" y1="217.0" x2="784.0" y2="217.0" stroke="#000000" stroke-width="2.0" />
</g>
<g>
    <line x1="420.0" y1="245.0" x2="430.5" y2="241.5" stroke="#000000" stroke-width="2.0" />
    <line x1="420.0" y1="245.0" x2="430.5" y2="248.5" stroke="#000000" stroke-width="2.0" />
    <line x1="420.0" y1="245.0" x2="784.0" y2="245.0" stroke="#000000" stroke-width="2.0" />
</g>
<text x="28.0" y="25.9" font-family="sans-serif" font-size="14.0" fill="#000000" >
  Client
</text>
<text x="364.0" y="25.9" font-family="sans-serif" font-size="14.0" fill="#000000" >
  Consumer
</text>
<text x="742.0" y="25.9" font-family="sans-serif" font-size="14.0" fill="#000000" >
  Provider
</text>
<text x="84.0" y="53.9" font-family="sans-serif" font-size="14.0" fill="#000000" >
  start dance
</text>
<text x="434.0" y="67.9" font-family="sans-serif" font-size="14.0" fill="#000000" >
  send secret &amp; state
</text>
<text x="84.0" y="95.9" font-family="sans-serif" font-size="14.0" fill="#000000" >
  redirect, with
</text>
<text x="434.0" y="95.9" font-family="sans-serif" font-size="14.0" fill="#000000" >
  send authorization grant
</text>
<text x="84.0" y="109.9" font-family="sans-serif" font-size="14.0" fill="#000000" >
  authorization grant
</text>
<text x="812.0" y="137.9" font-family="sans-serif" font-size="14.0" fill="#000000" >
  user
</text>
<text x="812.0" y="151.9" font-family="sans-serif" font-size="14.0" fill="#000000" >
  grants
</text>
<text x="196.0" y="165.9" font-family="sans-serif" font-size="14.0" fill="#000000" >
  redirect, with authorization code &amp; state
</text>
<text x="812.0" y="165.9" font-family="sans-serif" font-size="14.0" fill="#000000" >
  consent
</text>
<text x="434.0" y="207.9" font-family="sans-serif" font-size="14.0" fill="#000000" >
  send secret &amp; auth code
</text>
</svg>
